G04 #@! TF.FileFunction,Other,Fab,Top*
%FSLAX46Y46*%
G04 Gerber Fmt 4.6, Leading zero omitted, Abs format (unit mm)*
G04 Created by KiCad (PCBNEW 4.0.6) date Sat Aug 26 00:36:03 2017*
%MOMM*%
%LPD*%
G01*
G04 APERTURE LIST*
%ADD10C,0.100000*%
%ADD11C,0.045720*%
%ADD12C,0.152400*%
%ADD13C,0.050000*%
%ADD14C,0.200000*%
%ADD15C,0.050800*%
%ADD16C,0.150000*%
%ADD17C,0.254000*%
G04 APERTURE END LIST*
D10*
D11*
X161290000Y-78041500D02*
X162623500Y-76962000D01*
D12*
X162623500Y-78105000D02*
G75*
G03X162623500Y-78105000I-317500J0D01*
G01*
D13*
X171958000Y-87630000D02*
X171958000Y-76962000D01*
X161290000Y-87630000D02*
X171958000Y-87630000D01*
X161290000Y-78041500D02*
X161290000Y-87630000D01*
X171958000Y-76962000D02*
X162623500Y-76962000D01*
X170446000Y-66728000D02*
X170446000Y-63828000D01*
X170446000Y-66728000D02*
X171946000Y-66728000D01*
X170446000Y-63828000D02*
X171946000Y-63828000D01*
X171946000Y-66728000D02*
X171946000Y-63828000D01*
X142420000Y-71810000D02*
X139520000Y-71810000D01*
X142420000Y-71810000D02*
X142420000Y-70310000D01*
X139520000Y-71810000D02*
X139520000Y-70310000D01*
X142420000Y-70310000D02*
X139520000Y-70310000D01*
X133220000Y-77920000D02*
X133220000Y-75020000D01*
X133220000Y-77920000D02*
X134720000Y-77920000D01*
X133220000Y-75020000D02*
X134720000Y-75020000D01*
X134720000Y-77920000D02*
X134720000Y-75020000D01*
X180352000Y-60042720D02*
X180352000Y-57142720D01*
X180352000Y-60042720D02*
X181852000Y-60042720D01*
X180352000Y-57142720D02*
X181852000Y-57142720D01*
X181852000Y-60042720D02*
X181852000Y-57142720D01*
X160692760Y-62548200D02*
X157792760Y-62548200D01*
X160692760Y-62548200D02*
X160692760Y-61048200D01*
X157792760Y-62548200D02*
X157792760Y-61048200D01*
X160692760Y-61048200D02*
X157792760Y-61048200D01*
X208414960Y-55597360D02*
X211314960Y-55597360D01*
X208414960Y-55597360D02*
X208414960Y-57097360D01*
X211314960Y-55597360D02*
X211314960Y-57097360D01*
X208414960Y-57097360D02*
X211314960Y-57097360D01*
X222340740Y-65602780D02*
X222340740Y-62702780D01*
X222340740Y-65602780D02*
X223840740Y-65602780D01*
X222340740Y-62702780D02*
X223840740Y-62702780D01*
X223840740Y-65602780D02*
X223840740Y-62702780D01*
X172960000Y-55910000D02*
X156760000Y-55910000D01*
X172950000Y-55900000D02*
X172950000Y-59400000D01*
X172970000Y-59390000D02*
X156770000Y-59390000D01*
X156780000Y-55890000D02*
X156780000Y-59390000D01*
X201168000Y-54610000D02*
X192532000Y-54610000D01*
X201168000Y-60706000D02*
X201168000Y-54610000D01*
X192532000Y-60706000D02*
X201168000Y-60706000D01*
X192532000Y-54610000D02*
X192532000Y-60706000D01*
D14*
X194564000Y-58928000D02*
G75*
G03X194564000Y-58928000I-254000J0D01*
G01*
D15*
X176750000Y-109590000D02*
X150250000Y-109590000D01*
X176750000Y-105990000D02*
X176750000Y-109590000D01*
X150250000Y-105990000D02*
X176750000Y-105990000D01*
X150250000Y-109590000D02*
X150250000Y-105990000D01*
X199910000Y-98660000D02*
X199910000Y-72160000D01*
X203510000Y-98660000D02*
X199910000Y-98660000D01*
X203510000Y-72160000D02*
X203510000Y-98660000D01*
X199910000Y-72160000D02*
X203510000Y-72160000D01*
D13*
X184994200Y-94785600D02*
X184994200Y-97685600D01*
X184994200Y-94785600D02*
X183494200Y-94785600D01*
X184994200Y-97685600D02*
X183494200Y-97685600D01*
X183494200Y-94785600D02*
X183494200Y-97685600D01*
X180086000Y-66802000D02*
X182118000Y-66802000D01*
X180086000Y-63246000D02*
X180086000Y-66802000D01*
X182118000Y-63246000D02*
X180086000Y-63246000D01*
X182118000Y-66802000D02*
X182118000Y-63246000D01*
X183549600Y-101735200D02*
X183549600Y-98835200D01*
X183549600Y-101735200D02*
X185049600Y-101735200D01*
X183549600Y-98835200D02*
X185049600Y-98835200D01*
X185049600Y-101735200D02*
X185049600Y-98835200D01*
X178054000Y-61976000D02*
X178054000Y-67056000D01*
X175006000Y-61976000D02*
X178054000Y-61976000D01*
X175006000Y-67056000D02*
X175006000Y-61976000D01*
X178054000Y-67056000D02*
X175006000Y-67056000D01*
X145046000Y-78290000D02*
X137934000Y-78290000D01*
X145046000Y-73718000D02*
X145046000Y-78290000D01*
X137934000Y-73718000D02*
X145046000Y-73718000D01*
X137934000Y-78290000D02*
X137934000Y-73718000D01*
D14*
X144030000Y-74734000D02*
G75*
G03X144030000Y-74734000I-254000J0D01*
G01*
D15*
X216750000Y-112390000D02*
X216750000Y-60640000D01*
X220250000Y-112390000D02*
X216750000Y-112390000D01*
X220250000Y-60640000D02*
X220250000Y-112390000D01*
X216750000Y-60640000D02*
X220250000Y-60640000D01*
X212030000Y-112390000D02*
X212030000Y-60640000D01*
X215530000Y-112390000D02*
X212030000Y-112390000D01*
X215530000Y-60640000D02*
X215530000Y-112390000D01*
X212030000Y-60640000D02*
X215530000Y-60640000D01*
D13*
X206990000Y-60600000D02*
X206990000Y-54600000D01*
X206990000Y-60600000D02*
X203490000Y-60600000D01*
X203490000Y-54600000D02*
X203490000Y-60600000D01*
X206990000Y-54600000D02*
X203490000Y-54600000D01*
D16*
X165862095Y-81748381D02*
X165862095Y-82557905D01*
X165909714Y-82653143D01*
X165957333Y-82700762D01*
X166052571Y-82748381D01*
X166243048Y-82748381D01*
X166338286Y-82700762D01*
X166385905Y-82653143D01*
X166433524Y-82557905D01*
X166433524Y-81748381D01*
X166862095Y-81843619D02*
X166909714Y-81796000D01*
X167004952Y-81748381D01*
X167243048Y-81748381D01*
X167338286Y-81796000D01*
X167385905Y-81843619D01*
X167433524Y-81938857D01*
X167433524Y-82034095D01*
X167385905Y-82176952D01*
X166814476Y-82748381D01*
X167433524Y-82748381D01*
X171521714Y-65321333D02*
X171559810Y-65359428D01*
X171597905Y-65473714D01*
X171597905Y-65549904D01*
X171559810Y-65664190D01*
X171483619Y-65740381D01*
X171407429Y-65778476D01*
X171255048Y-65816571D01*
X171140762Y-65816571D01*
X170988381Y-65778476D01*
X170912190Y-65740381D01*
X170836000Y-65664190D01*
X170797905Y-65549904D01*
X170797905Y-65473714D01*
X170836000Y-65359428D01*
X170874095Y-65321333D01*
X171597905Y-64559428D02*
X171597905Y-65016571D01*
X171597905Y-64788000D02*
X170797905Y-64788000D01*
X170912190Y-64864190D01*
X170988381Y-64940381D01*
X171026476Y-65016571D01*
X140746667Y-71305714D02*
X140708572Y-71343810D01*
X140594286Y-71381905D01*
X140518096Y-71381905D01*
X140403810Y-71343810D01*
X140327619Y-71267619D01*
X140289524Y-71191429D01*
X140251429Y-71039048D01*
X140251429Y-70924762D01*
X140289524Y-70772381D01*
X140327619Y-70696190D01*
X140403810Y-70620000D01*
X140518096Y-70581905D01*
X140594286Y-70581905D01*
X140708572Y-70620000D01*
X140746667Y-70658095D01*
X141013334Y-70581905D02*
X141508572Y-70581905D01*
X141241905Y-70886667D01*
X141356191Y-70886667D01*
X141432381Y-70924762D01*
X141470477Y-70962857D01*
X141508572Y-71039048D01*
X141508572Y-71229524D01*
X141470477Y-71305714D01*
X141432381Y-71343810D01*
X141356191Y-71381905D01*
X141127619Y-71381905D01*
X141051429Y-71343810D01*
X141013334Y-71305714D01*
X134295714Y-76513333D02*
X134333810Y-76551428D01*
X134371905Y-76665714D01*
X134371905Y-76741904D01*
X134333810Y-76856190D01*
X134257619Y-76932381D01*
X134181429Y-76970476D01*
X134029048Y-77008571D01*
X133914762Y-77008571D01*
X133762381Y-76970476D01*
X133686190Y-76932381D01*
X133610000Y-76856190D01*
X133571905Y-76741904D01*
X133571905Y-76665714D01*
X133610000Y-76551428D01*
X133648095Y-76513333D01*
X133838571Y-75827619D02*
X134371905Y-75827619D01*
X133533810Y-76018095D02*
X134105238Y-76208571D01*
X134105238Y-75713333D01*
X181427714Y-58636053D02*
X181465810Y-58674148D01*
X181503905Y-58788434D01*
X181503905Y-58864624D01*
X181465810Y-58978910D01*
X181389619Y-59055101D01*
X181313429Y-59093196D01*
X181161048Y-59131291D01*
X181046762Y-59131291D01*
X180894381Y-59093196D01*
X180818190Y-59055101D01*
X180742000Y-58978910D01*
X180703905Y-58864624D01*
X180703905Y-58788434D01*
X180742000Y-58674148D01*
X180780095Y-58636053D01*
X180703905Y-57912243D02*
X180703905Y-58293196D01*
X181084857Y-58331291D01*
X181046762Y-58293196D01*
X181008667Y-58217005D01*
X181008667Y-58026529D01*
X181046762Y-57950339D01*
X181084857Y-57912243D01*
X181161048Y-57874148D01*
X181351524Y-57874148D01*
X181427714Y-57912243D01*
X181465810Y-57950339D01*
X181503905Y-58026529D01*
X181503905Y-58217005D01*
X181465810Y-58293196D01*
X181427714Y-58331291D01*
X159019427Y-62043914D02*
X158981332Y-62082010D01*
X158867046Y-62120105D01*
X158790856Y-62120105D01*
X158676570Y-62082010D01*
X158600379Y-62005819D01*
X158562284Y-61929629D01*
X158524189Y-61777248D01*
X158524189Y-61662962D01*
X158562284Y-61510581D01*
X158600379Y-61434390D01*
X158676570Y-61358200D01*
X158790856Y-61320105D01*
X158867046Y-61320105D01*
X158981332Y-61358200D01*
X159019427Y-61396295D01*
X159286094Y-61320105D02*
X159819427Y-61320105D01*
X159476570Y-62120105D01*
X209821627Y-56673074D02*
X209783532Y-56711170D01*
X209669246Y-56749265D01*
X209593056Y-56749265D01*
X209478770Y-56711170D01*
X209402579Y-56634979D01*
X209364484Y-56558789D01*
X209326389Y-56406408D01*
X209326389Y-56292122D01*
X209364484Y-56139741D01*
X209402579Y-56063550D01*
X209478770Y-55987360D01*
X209593056Y-55949265D01*
X209669246Y-55949265D01*
X209783532Y-55987360D01*
X209821627Y-56025455D01*
X210278770Y-56292122D02*
X210202579Y-56254027D01*
X210164484Y-56215931D01*
X210126389Y-56139741D01*
X210126389Y-56101646D01*
X210164484Y-56025455D01*
X210202579Y-55987360D01*
X210278770Y-55949265D01*
X210431151Y-55949265D01*
X210507341Y-55987360D01*
X210545437Y-56025455D01*
X210583532Y-56101646D01*
X210583532Y-56139741D01*
X210545437Y-56215931D01*
X210507341Y-56254027D01*
X210431151Y-56292122D01*
X210278770Y-56292122D01*
X210202579Y-56330217D01*
X210164484Y-56368312D01*
X210126389Y-56444503D01*
X210126389Y-56596884D01*
X210164484Y-56673074D01*
X210202579Y-56711170D01*
X210278770Y-56749265D01*
X210431151Y-56749265D01*
X210507341Y-56711170D01*
X210545437Y-56673074D01*
X210583532Y-56596884D01*
X210583532Y-56444503D01*
X210545437Y-56368312D01*
X210507341Y-56330217D01*
X210431151Y-56292122D01*
X223416454Y-64196113D02*
X223454550Y-64234208D01*
X223492645Y-64348494D01*
X223492645Y-64424684D01*
X223454550Y-64538970D01*
X223378359Y-64615161D01*
X223302169Y-64653256D01*
X223149788Y-64691351D01*
X223035502Y-64691351D01*
X222883121Y-64653256D01*
X222806930Y-64615161D01*
X222730740Y-64538970D01*
X222692645Y-64424684D01*
X222692645Y-64348494D01*
X222730740Y-64234208D01*
X222768835Y-64196113D01*
X223492645Y-63815161D02*
X223492645Y-63662780D01*
X223454550Y-63586589D01*
X223416454Y-63548494D01*
X223302169Y-63472303D01*
X223149788Y-63434208D01*
X222845026Y-63434208D01*
X222768835Y-63472303D01*
X222730740Y-63510399D01*
X222692645Y-63586589D01*
X222692645Y-63738970D01*
X222730740Y-63815161D01*
X222768835Y-63853256D01*
X222845026Y-63891351D01*
X223035502Y-63891351D01*
X223111692Y-63853256D01*
X223149788Y-63815161D01*
X223187883Y-63738970D01*
X223187883Y-63586589D01*
X223149788Y-63510399D01*
X223111692Y-63472303D01*
X223035502Y-63434208D01*
D17*
X164182667Y-56537238D02*
X164182667Y-57988667D01*
X164085905Y-58278952D01*
X163892381Y-58472476D01*
X163602096Y-58569238D01*
X163408572Y-58569238D01*
X165053524Y-56730762D02*
X165150286Y-56634000D01*
X165343809Y-56537238D01*
X165827619Y-56537238D01*
X166021143Y-56634000D01*
X166117905Y-56730762D01*
X166214666Y-56924286D01*
X166214666Y-57117810D01*
X166117905Y-57408095D01*
X164956762Y-58569238D01*
X166214666Y-58569238D01*
D16*
X196302381Y-57991333D02*
X197016667Y-57991333D01*
X197159524Y-58038953D01*
X197254762Y-58134191D01*
X197302381Y-58277048D01*
X197302381Y-58372286D01*
X196302381Y-57610381D02*
X196302381Y-56991333D01*
X196683333Y-57324667D01*
X196683333Y-57181809D01*
X196730952Y-57086571D01*
X196778571Y-57038952D01*
X196873810Y-56991333D01*
X197111905Y-56991333D01*
X197207143Y-57038952D01*
X197254762Y-57086571D01*
X197302381Y-57181809D01*
X197302381Y-57467524D01*
X197254762Y-57562762D01*
X197207143Y-57610381D01*
D17*
X162872667Y-106577238D02*
X162872667Y-108028667D01*
X162775905Y-108318952D01*
X162582381Y-108512476D01*
X162292096Y-108609238D01*
X162098572Y-108609238D01*
X164711143Y-107254571D02*
X164711143Y-108609238D01*
X164227333Y-106480476D02*
X163743524Y-107931905D01*
X165001428Y-107931905D01*
X200697238Y-86137333D02*
X202148667Y-86137333D01*
X202438952Y-86234095D01*
X202632476Y-86427619D01*
X202729238Y-86717904D01*
X202729238Y-86911428D01*
X200697238Y-84202095D02*
X200697238Y-85169714D01*
X201664857Y-85266476D01*
X201568095Y-85169714D01*
X201471333Y-84976191D01*
X201471333Y-84492381D01*
X201568095Y-84298857D01*
X201664857Y-84202095D01*
X201858381Y-84105334D01*
X202342190Y-84105334D01*
X202535714Y-84202095D01*
X202632476Y-84298857D01*
X202729238Y-84492381D01*
X202729238Y-84976191D01*
X202632476Y-85169714D01*
X202535714Y-85266476D01*
D16*
X184566105Y-97220838D02*
X184566105Y-97601791D01*
X183766105Y-97601791D01*
X184147057Y-96954172D02*
X184147057Y-96687505D01*
X184566105Y-96573219D02*
X184566105Y-96954172D01*
X183766105Y-96954172D01*
X183766105Y-96573219D01*
X184566105Y-96230362D02*
X183766105Y-96230362D01*
X183766105Y-96039886D01*
X183804200Y-95925600D01*
X183880390Y-95849409D01*
X183956581Y-95811314D01*
X184108962Y-95773219D01*
X184223248Y-95773219D01*
X184375629Y-95811314D01*
X184451819Y-95849409D01*
X184528010Y-95925600D01*
X184566105Y-96039886D01*
X184566105Y-96230362D01*
X184566105Y-95011314D02*
X184566105Y-95468457D01*
X184566105Y-95239886D02*
X183766105Y-95239886D01*
X183880390Y-95316076D01*
X183956581Y-95392267D01*
X183994676Y-95468457D01*
X181554381Y-65190666D02*
X181078190Y-65524000D01*
X181554381Y-65762095D02*
X180554381Y-65762095D01*
X180554381Y-65381142D01*
X180602000Y-65285904D01*
X180649619Y-65238285D01*
X180744857Y-65190666D01*
X180887714Y-65190666D01*
X180982952Y-65238285D01*
X181030571Y-65285904D01*
X181078190Y-65381142D01*
X181078190Y-65762095D01*
X181554381Y-64238285D02*
X181554381Y-64809714D01*
X181554381Y-64524000D02*
X180554381Y-64524000D01*
X180697238Y-64619238D01*
X180792476Y-64714476D01*
X180840095Y-64809714D01*
X184701505Y-100328533D02*
X184320552Y-100595200D01*
X184701505Y-100785676D02*
X183901505Y-100785676D01*
X183901505Y-100480914D01*
X183939600Y-100404723D01*
X183977695Y-100366628D01*
X184053886Y-100328533D01*
X184168171Y-100328533D01*
X184244362Y-100366628D01*
X184282457Y-100404723D01*
X184320552Y-100480914D01*
X184320552Y-100785676D01*
X183977695Y-100023771D02*
X183939600Y-99985676D01*
X183901505Y-99909485D01*
X183901505Y-99719009D01*
X183939600Y-99642819D01*
X183977695Y-99604723D01*
X184053886Y-99566628D01*
X184130076Y-99566628D01*
X184244362Y-99604723D01*
X184701505Y-100061866D01*
X184701505Y-99566628D01*
X176934762Y-65277905D02*
X176982381Y-65135048D01*
X176982381Y-64896952D01*
X176934762Y-64801714D01*
X176887143Y-64754095D01*
X176791905Y-64706476D01*
X176696667Y-64706476D01*
X176601429Y-64754095D01*
X176553810Y-64801714D01*
X176506190Y-64896952D01*
X176458571Y-65087429D01*
X176410952Y-65182667D01*
X176363333Y-65230286D01*
X176268095Y-65277905D01*
X176172857Y-65277905D01*
X176077619Y-65230286D01*
X176030000Y-65182667D01*
X175982381Y-65087429D01*
X175982381Y-64849333D01*
X176030000Y-64706476D01*
X176982381Y-63754095D02*
X176982381Y-64325524D01*
X176982381Y-64039810D02*
X175982381Y-64039810D01*
X176125238Y-64135048D01*
X176220476Y-64230286D01*
X176268095Y-64325524D01*
D17*
X139845048Y-74637238D02*
X141199714Y-76669238D01*
X141199714Y-74637238D02*
X139845048Y-76669238D01*
X143038190Y-76669238D02*
X141877048Y-76669238D01*
X142457619Y-76669238D02*
X142457619Y-74637238D01*
X142264095Y-74927524D01*
X142070571Y-75121048D01*
X141877048Y-75217810D01*
X217637238Y-85317333D02*
X219088667Y-85317333D01*
X219378952Y-85414095D01*
X219572476Y-85607619D01*
X219669238Y-85897904D01*
X219669238Y-86091428D01*
X219669238Y-83285334D02*
X219669238Y-84446476D01*
X219669238Y-83865905D02*
X217637238Y-83865905D01*
X217927524Y-84059429D01*
X218121048Y-84252953D01*
X218217810Y-84446476D01*
X212917238Y-85317333D02*
X214368667Y-85317333D01*
X214658952Y-85414095D01*
X214852476Y-85607619D01*
X214949238Y-85897904D01*
X214949238Y-86091428D01*
X212917238Y-83478857D02*
X212917238Y-83865905D01*
X213014000Y-84059429D01*
X213110762Y-84156191D01*
X213401048Y-84349714D01*
X213788095Y-84446476D01*
X214562190Y-84446476D01*
X214755714Y-84349714D01*
X214852476Y-84252953D01*
X214949238Y-84059429D01*
X214949238Y-83672381D01*
X214852476Y-83478857D01*
X214755714Y-83382095D01*
X214562190Y-83285334D01*
X214078381Y-83285334D01*
X213884857Y-83382095D01*
X213788095Y-83478857D01*
X213691333Y-83672381D01*
X213691333Y-84059429D01*
X213788095Y-84252953D01*
X213884857Y-84349714D01*
X214078381Y-84446476D01*
D12*
X204683619Y-57938667D02*
X205409333Y-57938667D01*
X205554476Y-57987047D01*
X205651238Y-58083809D01*
X205699619Y-58228952D01*
X205699619Y-58325714D01*
X204683619Y-57551619D02*
X204683619Y-56874286D01*
X205699619Y-57309714D01*
M02*
