G04 #@! TF.FileFunction,Soldermask,Top*
%FSLAX46Y46*%
G04 Gerber Fmt 4.6, Leading zero omitted, Abs format (unit mm)*
G04 Created by KiCad (PCBNEW 4.0.6) date Sat Aug 26 00:36:03 2017*
%MOMM*%
%LPD*%
G01*
G04 APERTURE LIST*
%ADD10C,0.100000*%
G04 APERTURE END LIST*
D10*
G36*
X218668749Y-109710277D02*
X218668754Y-109710278D01*
X218670807Y-109710292D01*
X218853080Y-109730737D01*
X219027912Y-109786197D01*
X219188641Y-109874558D01*
X219329146Y-109992456D01*
X219444076Y-110135400D01*
X219529052Y-110297945D01*
X219580839Y-110473899D01*
X219580843Y-110473940D01*
X219580844Y-110473944D01*
X219597463Y-110656558D01*
X219579648Y-110826056D01*
X219578290Y-110838973D01*
X219524052Y-111014187D01*
X219436815Y-111175529D01*
X219319900Y-111316855D01*
X219177762Y-111432779D01*
X219015815Y-111518888D01*
X218840226Y-111571902D01*
X218657685Y-111589800D01*
X218342283Y-111589800D01*
X218331251Y-111589723D01*
X218331246Y-111589722D01*
X218329193Y-111589708D01*
X218146920Y-111569263D01*
X217972088Y-111513803D01*
X217811359Y-111425442D01*
X217670854Y-111307544D01*
X217555924Y-111164600D01*
X217470948Y-111002055D01*
X217419161Y-110826101D01*
X217419157Y-110826060D01*
X217419156Y-110826056D01*
X217402537Y-110643442D01*
X217421705Y-110461074D01*
X217421710Y-110461027D01*
X217475948Y-110285813D01*
X217563185Y-110124471D01*
X217680100Y-109983145D01*
X217822238Y-109867221D01*
X217984185Y-109781112D01*
X218159774Y-109728098D01*
X218342315Y-109710200D01*
X218657717Y-109710200D01*
X218668749Y-109710277D01*
X218668749Y-109710277D01*
G37*
G36*
X213948749Y-109710277D02*
X213948754Y-109710278D01*
X213950807Y-109710292D01*
X214133080Y-109730737D01*
X214307912Y-109786197D01*
X214468641Y-109874558D01*
X214609146Y-109992456D01*
X214724076Y-110135400D01*
X214809052Y-110297945D01*
X214860839Y-110473899D01*
X214860843Y-110473940D01*
X214860844Y-110473944D01*
X214877463Y-110656558D01*
X214859648Y-110826056D01*
X214858290Y-110838973D01*
X214804052Y-111014187D01*
X214716815Y-111175529D01*
X214599900Y-111316855D01*
X214457762Y-111432779D01*
X214295815Y-111518888D01*
X214120226Y-111571902D01*
X213937685Y-111589800D01*
X213622283Y-111589800D01*
X213611251Y-111589723D01*
X213611246Y-111589722D01*
X213609193Y-111589708D01*
X213426920Y-111569263D01*
X213252088Y-111513803D01*
X213091359Y-111425442D01*
X212950854Y-111307544D01*
X212835924Y-111164600D01*
X212750948Y-111002055D01*
X212699161Y-110826101D01*
X212699157Y-110826060D01*
X212699156Y-110826056D01*
X212682537Y-110643442D01*
X212701705Y-110461074D01*
X212701710Y-110461027D01*
X212755948Y-110285813D01*
X212843185Y-110124471D01*
X212960100Y-109983145D01*
X213102238Y-109867221D01*
X213264185Y-109781112D01*
X213439774Y-109728098D01*
X213622315Y-109710200D01*
X213937717Y-109710200D01*
X213948749Y-109710277D01*
X213948749Y-109710277D01*
G37*
G36*
X218668749Y-107170277D02*
X218668754Y-107170278D01*
X218670807Y-107170292D01*
X218853080Y-107190737D01*
X219027912Y-107246197D01*
X219188641Y-107334558D01*
X219329146Y-107452456D01*
X219444076Y-107595400D01*
X219529052Y-107757945D01*
X219580839Y-107933899D01*
X219580843Y-107933940D01*
X219580844Y-107933944D01*
X219597463Y-108116558D01*
X219579648Y-108286056D01*
X219578290Y-108298973D01*
X219524052Y-108474187D01*
X219436815Y-108635529D01*
X219319900Y-108776855D01*
X219177762Y-108892779D01*
X219015815Y-108978888D01*
X218840226Y-109031902D01*
X218657685Y-109049800D01*
X218342283Y-109049800D01*
X218331251Y-109049723D01*
X218331246Y-109049722D01*
X218329193Y-109049708D01*
X218146920Y-109029263D01*
X217972088Y-108973803D01*
X217811359Y-108885442D01*
X217670854Y-108767544D01*
X217555924Y-108624600D01*
X217470948Y-108462055D01*
X217419161Y-108286101D01*
X217419157Y-108286060D01*
X217419156Y-108286056D01*
X217402537Y-108103442D01*
X217421705Y-107921074D01*
X217421710Y-107921027D01*
X217475948Y-107745813D01*
X217563185Y-107584471D01*
X217680100Y-107443145D01*
X217822238Y-107327221D01*
X217984185Y-107241112D01*
X218159774Y-107188098D01*
X218342315Y-107170200D01*
X218657717Y-107170200D01*
X218668749Y-107170277D01*
X218668749Y-107170277D01*
G37*
G36*
X213948749Y-107170277D02*
X213948754Y-107170278D01*
X213950807Y-107170292D01*
X214133080Y-107190737D01*
X214307912Y-107246197D01*
X214468641Y-107334558D01*
X214609146Y-107452456D01*
X214724076Y-107595400D01*
X214809052Y-107757945D01*
X214860839Y-107933899D01*
X214860843Y-107933940D01*
X214860844Y-107933944D01*
X214877463Y-108116558D01*
X214859648Y-108286056D01*
X214858290Y-108298973D01*
X214804052Y-108474187D01*
X214716815Y-108635529D01*
X214599900Y-108776855D01*
X214457762Y-108892779D01*
X214295815Y-108978888D01*
X214120226Y-109031902D01*
X213937685Y-109049800D01*
X213622283Y-109049800D01*
X213611251Y-109049723D01*
X213611246Y-109049722D01*
X213609193Y-109049708D01*
X213426920Y-109029263D01*
X213252088Y-108973803D01*
X213091359Y-108885442D01*
X212950854Y-108767544D01*
X212835924Y-108624600D01*
X212750948Y-108462055D01*
X212699161Y-108286101D01*
X212699157Y-108286060D01*
X212699156Y-108286056D01*
X212682537Y-108103442D01*
X212701705Y-107921074D01*
X212701710Y-107921027D01*
X212755948Y-107745813D01*
X212843185Y-107584471D01*
X212960100Y-107443145D01*
X213102238Y-107327221D01*
X213264185Y-107241112D01*
X213439774Y-107188098D01*
X213622315Y-107170200D01*
X213937717Y-107170200D01*
X213948749Y-107170277D01*
X213948749Y-107170277D01*
G37*
G36*
X154778926Y-106711705D02*
X154778973Y-106711710D01*
X154954187Y-106765948D01*
X155115529Y-106853185D01*
X155256855Y-106970100D01*
X155372779Y-107112238D01*
X155458888Y-107274185D01*
X155511902Y-107449774D01*
X155529800Y-107632315D01*
X155529800Y-107947717D01*
X155529723Y-107958749D01*
X155529722Y-107958754D01*
X155529708Y-107960807D01*
X155509263Y-108143080D01*
X155453803Y-108317912D01*
X155365442Y-108478641D01*
X155247544Y-108619146D01*
X155104600Y-108734076D01*
X154942055Y-108819052D01*
X154766101Y-108870839D01*
X154766060Y-108870843D01*
X154766056Y-108870844D01*
X154583442Y-108887463D01*
X154401074Y-108868295D01*
X154401027Y-108868290D01*
X154225813Y-108814052D01*
X154064471Y-108726815D01*
X153923145Y-108609900D01*
X153807221Y-108467762D01*
X153721112Y-108305815D01*
X153668098Y-108130226D01*
X153650200Y-107947685D01*
X153650200Y-107632283D01*
X153650277Y-107621251D01*
X153650278Y-107621246D01*
X153650292Y-107619193D01*
X153670737Y-107436920D01*
X153726197Y-107262088D01*
X153814558Y-107101359D01*
X153932456Y-106960854D01*
X154075400Y-106845924D01*
X154237945Y-106760948D01*
X154413899Y-106709161D01*
X154413940Y-106709157D01*
X154413944Y-106709156D01*
X154596558Y-106692537D01*
X154778926Y-106711705D01*
X154778926Y-106711705D01*
G37*
G36*
X175098926Y-106711705D02*
X175098973Y-106711710D01*
X175274187Y-106765948D01*
X175435529Y-106853185D01*
X175576855Y-106970100D01*
X175692779Y-107112238D01*
X175778888Y-107274185D01*
X175831902Y-107449774D01*
X175849800Y-107632315D01*
X175849800Y-107947717D01*
X175849723Y-107958749D01*
X175849722Y-107958754D01*
X175849708Y-107960807D01*
X175829263Y-108143080D01*
X175773803Y-108317912D01*
X175685442Y-108478641D01*
X175567544Y-108619146D01*
X175424600Y-108734076D01*
X175262055Y-108819052D01*
X175086101Y-108870839D01*
X175086060Y-108870843D01*
X175086056Y-108870844D01*
X174903442Y-108887463D01*
X174721074Y-108868295D01*
X174721027Y-108868290D01*
X174545813Y-108814052D01*
X174384471Y-108726815D01*
X174243145Y-108609900D01*
X174127221Y-108467762D01*
X174041112Y-108305815D01*
X173988098Y-108130226D01*
X173970200Y-107947685D01*
X173970200Y-107632283D01*
X173970277Y-107621251D01*
X173970278Y-107621246D01*
X173970292Y-107619193D01*
X173990737Y-107436920D01*
X174046197Y-107262088D01*
X174134558Y-107101359D01*
X174252456Y-106960854D01*
X174395400Y-106845924D01*
X174557945Y-106760948D01*
X174733899Y-106709161D01*
X174733940Y-106709157D01*
X174733944Y-106709156D01*
X174916558Y-106692537D01*
X175098926Y-106711705D01*
X175098926Y-106711705D01*
G37*
G36*
X172558926Y-106711705D02*
X172558973Y-106711710D01*
X172734187Y-106765948D01*
X172895529Y-106853185D01*
X173036855Y-106970100D01*
X173152779Y-107112238D01*
X173238888Y-107274185D01*
X173291902Y-107449774D01*
X173309800Y-107632315D01*
X173309800Y-107947717D01*
X173309723Y-107958749D01*
X173309722Y-107958754D01*
X173309708Y-107960807D01*
X173289263Y-108143080D01*
X173233803Y-108317912D01*
X173145442Y-108478641D01*
X173027544Y-108619146D01*
X172884600Y-108734076D01*
X172722055Y-108819052D01*
X172546101Y-108870839D01*
X172546060Y-108870843D01*
X172546056Y-108870844D01*
X172363442Y-108887463D01*
X172181074Y-108868295D01*
X172181027Y-108868290D01*
X172005813Y-108814052D01*
X171844471Y-108726815D01*
X171703145Y-108609900D01*
X171587221Y-108467762D01*
X171501112Y-108305815D01*
X171448098Y-108130226D01*
X171430200Y-107947685D01*
X171430200Y-107632283D01*
X171430277Y-107621251D01*
X171430278Y-107621246D01*
X171430292Y-107619193D01*
X171450737Y-107436920D01*
X171506197Y-107262088D01*
X171594558Y-107101359D01*
X171712456Y-106960854D01*
X171855400Y-106845924D01*
X172017945Y-106760948D01*
X172193899Y-106709161D01*
X172193940Y-106709157D01*
X172193944Y-106709156D01*
X172376558Y-106692537D01*
X172558926Y-106711705D01*
X172558926Y-106711705D01*
G37*
G36*
X170018926Y-106711705D02*
X170018973Y-106711710D01*
X170194187Y-106765948D01*
X170355529Y-106853185D01*
X170496855Y-106970100D01*
X170612779Y-107112238D01*
X170698888Y-107274185D01*
X170751902Y-107449774D01*
X170769800Y-107632315D01*
X170769800Y-107947717D01*
X170769723Y-107958749D01*
X170769722Y-107958754D01*
X170769708Y-107960807D01*
X170749263Y-108143080D01*
X170693803Y-108317912D01*
X170605442Y-108478641D01*
X170487544Y-108619146D01*
X170344600Y-108734076D01*
X170182055Y-108819052D01*
X170006101Y-108870839D01*
X170006060Y-108870843D01*
X170006056Y-108870844D01*
X169823442Y-108887463D01*
X169641074Y-108868295D01*
X169641027Y-108868290D01*
X169465813Y-108814052D01*
X169304471Y-108726815D01*
X169163145Y-108609900D01*
X169047221Y-108467762D01*
X168961112Y-108305815D01*
X168908098Y-108130226D01*
X168890200Y-107947685D01*
X168890200Y-107632283D01*
X168890277Y-107621251D01*
X168890278Y-107621246D01*
X168890292Y-107619193D01*
X168910737Y-107436920D01*
X168966197Y-107262088D01*
X169054558Y-107101359D01*
X169172456Y-106960854D01*
X169315400Y-106845924D01*
X169477945Y-106760948D01*
X169653899Y-106709161D01*
X169653940Y-106709157D01*
X169653944Y-106709156D01*
X169836558Y-106692537D01*
X170018926Y-106711705D01*
X170018926Y-106711705D01*
G37*
G36*
X167478926Y-106711705D02*
X167478973Y-106711710D01*
X167654187Y-106765948D01*
X167815529Y-106853185D01*
X167956855Y-106970100D01*
X168072779Y-107112238D01*
X168158888Y-107274185D01*
X168211902Y-107449774D01*
X168229800Y-107632315D01*
X168229800Y-107947717D01*
X168229723Y-107958749D01*
X168229722Y-107958754D01*
X168229708Y-107960807D01*
X168209263Y-108143080D01*
X168153803Y-108317912D01*
X168065442Y-108478641D01*
X167947544Y-108619146D01*
X167804600Y-108734076D01*
X167642055Y-108819052D01*
X167466101Y-108870839D01*
X167466060Y-108870843D01*
X167466056Y-108870844D01*
X167283442Y-108887463D01*
X167101074Y-108868295D01*
X167101027Y-108868290D01*
X166925813Y-108814052D01*
X166764471Y-108726815D01*
X166623145Y-108609900D01*
X166507221Y-108467762D01*
X166421112Y-108305815D01*
X166368098Y-108130226D01*
X166350200Y-107947685D01*
X166350200Y-107632283D01*
X166350277Y-107621251D01*
X166350278Y-107621246D01*
X166350292Y-107619193D01*
X166370737Y-107436920D01*
X166426197Y-107262088D01*
X166514558Y-107101359D01*
X166632456Y-106960854D01*
X166775400Y-106845924D01*
X166937945Y-106760948D01*
X167113899Y-106709161D01*
X167113940Y-106709157D01*
X167113944Y-106709156D01*
X167296558Y-106692537D01*
X167478926Y-106711705D01*
X167478926Y-106711705D01*
G37*
G36*
X164938926Y-106711705D02*
X164938973Y-106711710D01*
X165114187Y-106765948D01*
X165275529Y-106853185D01*
X165416855Y-106970100D01*
X165532779Y-107112238D01*
X165618888Y-107274185D01*
X165671902Y-107449774D01*
X165689800Y-107632315D01*
X165689800Y-107947717D01*
X165689723Y-107958749D01*
X165689722Y-107958754D01*
X165689708Y-107960807D01*
X165669263Y-108143080D01*
X165613803Y-108317912D01*
X165525442Y-108478641D01*
X165407544Y-108619146D01*
X165264600Y-108734076D01*
X165102055Y-108819052D01*
X164926101Y-108870839D01*
X164926060Y-108870843D01*
X164926056Y-108870844D01*
X164743442Y-108887463D01*
X164561074Y-108868295D01*
X164561027Y-108868290D01*
X164385813Y-108814052D01*
X164224471Y-108726815D01*
X164083145Y-108609900D01*
X163967221Y-108467762D01*
X163881112Y-108305815D01*
X163828098Y-108130226D01*
X163810200Y-107947685D01*
X163810200Y-107632283D01*
X163810277Y-107621251D01*
X163810278Y-107621246D01*
X163810292Y-107619193D01*
X163830737Y-107436920D01*
X163886197Y-107262088D01*
X163974558Y-107101359D01*
X164092456Y-106960854D01*
X164235400Y-106845924D01*
X164397945Y-106760948D01*
X164573899Y-106709161D01*
X164573940Y-106709157D01*
X164573944Y-106709156D01*
X164756558Y-106692537D01*
X164938926Y-106711705D01*
X164938926Y-106711705D01*
G37*
G36*
X162398926Y-106711705D02*
X162398973Y-106711710D01*
X162574187Y-106765948D01*
X162735529Y-106853185D01*
X162876855Y-106970100D01*
X162992779Y-107112238D01*
X163078888Y-107274185D01*
X163131902Y-107449774D01*
X163149800Y-107632315D01*
X163149800Y-107947717D01*
X163149723Y-107958749D01*
X163149722Y-107958754D01*
X163149708Y-107960807D01*
X163129263Y-108143080D01*
X163073803Y-108317912D01*
X162985442Y-108478641D01*
X162867544Y-108619146D01*
X162724600Y-108734076D01*
X162562055Y-108819052D01*
X162386101Y-108870839D01*
X162386060Y-108870843D01*
X162386056Y-108870844D01*
X162203442Y-108887463D01*
X162021074Y-108868295D01*
X162021027Y-108868290D01*
X161845813Y-108814052D01*
X161684471Y-108726815D01*
X161543145Y-108609900D01*
X161427221Y-108467762D01*
X161341112Y-108305815D01*
X161288098Y-108130226D01*
X161270200Y-107947685D01*
X161270200Y-107632283D01*
X161270277Y-107621251D01*
X161270278Y-107621246D01*
X161270292Y-107619193D01*
X161290737Y-107436920D01*
X161346197Y-107262088D01*
X161434558Y-107101359D01*
X161552456Y-106960854D01*
X161695400Y-106845924D01*
X161857945Y-106760948D01*
X162033899Y-106709161D01*
X162033940Y-106709157D01*
X162033944Y-106709156D01*
X162216558Y-106692537D01*
X162398926Y-106711705D01*
X162398926Y-106711705D01*
G37*
G36*
X159858926Y-106711705D02*
X159858973Y-106711710D01*
X160034187Y-106765948D01*
X160195529Y-106853185D01*
X160336855Y-106970100D01*
X160452779Y-107112238D01*
X160538888Y-107274185D01*
X160591902Y-107449774D01*
X160609800Y-107632315D01*
X160609800Y-107947717D01*
X160609723Y-107958749D01*
X160609722Y-107958754D01*
X160609708Y-107960807D01*
X160589263Y-108143080D01*
X160533803Y-108317912D01*
X160445442Y-108478641D01*
X160327544Y-108619146D01*
X160184600Y-108734076D01*
X160022055Y-108819052D01*
X159846101Y-108870839D01*
X159846060Y-108870843D01*
X159846056Y-108870844D01*
X159663442Y-108887463D01*
X159481074Y-108868295D01*
X159481027Y-108868290D01*
X159305813Y-108814052D01*
X159144471Y-108726815D01*
X159003145Y-108609900D01*
X158887221Y-108467762D01*
X158801112Y-108305815D01*
X158748098Y-108130226D01*
X158730200Y-107947685D01*
X158730200Y-107632283D01*
X158730277Y-107621251D01*
X158730278Y-107621246D01*
X158730292Y-107619193D01*
X158750737Y-107436920D01*
X158806197Y-107262088D01*
X158894558Y-107101359D01*
X159012456Y-106960854D01*
X159155400Y-106845924D01*
X159317945Y-106760948D01*
X159493899Y-106709161D01*
X159493940Y-106709157D01*
X159493944Y-106709156D01*
X159676558Y-106692537D01*
X159858926Y-106711705D01*
X159858926Y-106711705D01*
G37*
G36*
X157318926Y-106711705D02*
X157318973Y-106711710D01*
X157494187Y-106765948D01*
X157655529Y-106853185D01*
X157796855Y-106970100D01*
X157912779Y-107112238D01*
X157998888Y-107274185D01*
X158051902Y-107449774D01*
X158069800Y-107632315D01*
X158069800Y-107947717D01*
X158069723Y-107958749D01*
X158069722Y-107958754D01*
X158069708Y-107960807D01*
X158049263Y-108143080D01*
X157993803Y-108317912D01*
X157905442Y-108478641D01*
X157787544Y-108619146D01*
X157644600Y-108734076D01*
X157482055Y-108819052D01*
X157306101Y-108870839D01*
X157306060Y-108870843D01*
X157306056Y-108870844D01*
X157123442Y-108887463D01*
X156941074Y-108868295D01*
X156941027Y-108868290D01*
X156765813Y-108814052D01*
X156604471Y-108726815D01*
X156463145Y-108609900D01*
X156347221Y-108467762D01*
X156261112Y-108305815D01*
X156208098Y-108130226D01*
X156190200Y-107947685D01*
X156190200Y-107632283D01*
X156190277Y-107621251D01*
X156190278Y-107621246D01*
X156190292Y-107619193D01*
X156210737Y-107436920D01*
X156266197Y-107262088D01*
X156354558Y-107101359D01*
X156472456Y-106960854D01*
X156615400Y-106845924D01*
X156777945Y-106760948D01*
X156953899Y-106709161D01*
X156953940Y-106709157D01*
X156953944Y-106709156D01*
X157136558Y-106692537D01*
X157318926Y-106711705D01*
X157318926Y-106711705D01*
G37*
G36*
X152989800Y-108882200D02*
X151110200Y-108882200D01*
X151110200Y-106697800D01*
X152989800Y-106697800D01*
X152989800Y-108882200D01*
X152989800Y-108882200D01*
G37*
G36*
X213948749Y-104630277D02*
X213948754Y-104630278D01*
X213950807Y-104630292D01*
X214133080Y-104650737D01*
X214307912Y-104706197D01*
X214468641Y-104794558D01*
X214609146Y-104912456D01*
X214724076Y-105055400D01*
X214809052Y-105217945D01*
X214860839Y-105393899D01*
X214860843Y-105393940D01*
X214860844Y-105393944D01*
X214877463Y-105576558D01*
X214859648Y-105746056D01*
X214858290Y-105758973D01*
X214804052Y-105934187D01*
X214716815Y-106095529D01*
X214599900Y-106236855D01*
X214457762Y-106352779D01*
X214295815Y-106438888D01*
X214120226Y-106491902D01*
X213937685Y-106509800D01*
X213622283Y-106509800D01*
X213611251Y-106509723D01*
X213611246Y-106509722D01*
X213609193Y-106509708D01*
X213426920Y-106489263D01*
X213252088Y-106433803D01*
X213091359Y-106345442D01*
X212950854Y-106227544D01*
X212835924Y-106084600D01*
X212750948Y-105922055D01*
X212699161Y-105746101D01*
X212699157Y-105746060D01*
X212699156Y-105746056D01*
X212682537Y-105563442D01*
X212701705Y-105381074D01*
X212701710Y-105381027D01*
X212755948Y-105205813D01*
X212843185Y-105044471D01*
X212960100Y-104903145D01*
X213102238Y-104787221D01*
X213264185Y-104701112D01*
X213439774Y-104648098D01*
X213622315Y-104630200D01*
X213937717Y-104630200D01*
X213948749Y-104630277D01*
X213948749Y-104630277D01*
G37*
G36*
X218668749Y-104630277D02*
X218668754Y-104630278D01*
X218670807Y-104630292D01*
X218853080Y-104650737D01*
X219027912Y-104706197D01*
X219188641Y-104794558D01*
X219329146Y-104912456D01*
X219444076Y-105055400D01*
X219529052Y-105217945D01*
X219580839Y-105393899D01*
X219580843Y-105393940D01*
X219580844Y-105393944D01*
X219597463Y-105576558D01*
X219579648Y-105746056D01*
X219578290Y-105758973D01*
X219524052Y-105934187D01*
X219436815Y-106095529D01*
X219319900Y-106236855D01*
X219177762Y-106352779D01*
X219015815Y-106438888D01*
X218840226Y-106491902D01*
X218657685Y-106509800D01*
X218342283Y-106509800D01*
X218331251Y-106509723D01*
X218331246Y-106509722D01*
X218329193Y-106509708D01*
X218146920Y-106489263D01*
X217972088Y-106433803D01*
X217811359Y-106345442D01*
X217670854Y-106227544D01*
X217555924Y-106084600D01*
X217470948Y-105922055D01*
X217419161Y-105746101D01*
X217419157Y-105746060D01*
X217419156Y-105746056D01*
X217402537Y-105563442D01*
X217421705Y-105381074D01*
X217421710Y-105381027D01*
X217475948Y-105205813D01*
X217563185Y-105044471D01*
X217680100Y-104903145D01*
X217822238Y-104787221D01*
X217984185Y-104701112D01*
X218159774Y-104648098D01*
X218342315Y-104630200D01*
X218657717Y-104630200D01*
X218668749Y-104630277D01*
X218668749Y-104630277D01*
G37*
G36*
X213948749Y-102090277D02*
X213948754Y-102090278D01*
X213950807Y-102090292D01*
X214133080Y-102110737D01*
X214307912Y-102166197D01*
X214468641Y-102254558D01*
X214609146Y-102372456D01*
X214724076Y-102515400D01*
X214809052Y-102677945D01*
X214860839Y-102853899D01*
X214860843Y-102853940D01*
X214860844Y-102853944D01*
X214877463Y-103036558D01*
X214859648Y-103206056D01*
X214858290Y-103218973D01*
X214804052Y-103394187D01*
X214716815Y-103555529D01*
X214599900Y-103696855D01*
X214457762Y-103812779D01*
X214295815Y-103898888D01*
X214120226Y-103951902D01*
X213937685Y-103969800D01*
X213622283Y-103969800D01*
X213611251Y-103969723D01*
X213611246Y-103969722D01*
X213609193Y-103969708D01*
X213426920Y-103949263D01*
X213252088Y-103893803D01*
X213091359Y-103805442D01*
X212950854Y-103687544D01*
X212835924Y-103544600D01*
X212750948Y-103382055D01*
X212699161Y-103206101D01*
X212699157Y-103206060D01*
X212699156Y-103206056D01*
X212682537Y-103023442D01*
X212701705Y-102841074D01*
X212701710Y-102841027D01*
X212755948Y-102665813D01*
X212843185Y-102504471D01*
X212960100Y-102363145D01*
X213102238Y-102247221D01*
X213264185Y-102161112D01*
X213439774Y-102108098D01*
X213622315Y-102090200D01*
X213937717Y-102090200D01*
X213948749Y-102090277D01*
X213948749Y-102090277D01*
G37*
G36*
X218668749Y-102090277D02*
X218668754Y-102090278D01*
X218670807Y-102090292D01*
X218853080Y-102110737D01*
X219027912Y-102166197D01*
X219188641Y-102254558D01*
X219329146Y-102372456D01*
X219444076Y-102515400D01*
X219529052Y-102677945D01*
X219580839Y-102853899D01*
X219580843Y-102853940D01*
X219580844Y-102853944D01*
X219597463Y-103036558D01*
X219579648Y-103206056D01*
X219578290Y-103218973D01*
X219524052Y-103394187D01*
X219436815Y-103555529D01*
X219319900Y-103696855D01*
X219177762Y-103812779D01*
X219015815Y-103898888D01*
X218840226Y-103951902D01*
X218657685Y-103969800D01*
X218342283Y-103969800D01*
X218331251Y-103969723D01*
X218331246Y-103969722D01*
X218329193Y-103969708D01*
X218146920Y-103949263D01*
X217972088Y-103893803D01*
X217811359Y-103805442D01*
X217670854Y-103687544D01*
X217555924Y-103544600D01*
X217470948Y-103382055D01*
X217419161Y-103206101D01*
X217419157Y-103206060D01*
X217419156Y-103206056D01*
X217402537Y-103023442D01*
X217421705Y-102841074D01*
X217421710Y-102841027D01*
X217475948Y-102665813D01*
X217563185Y-102504471D01*
X217680100Y-102363145D01*
X217822238Y-102247221D01*
X217984185Y-102161112D01*
X218159774Y-102108098D01*
X218342315Y-102090200D01*
X218657717Y-102090200D01*
X218668749Y-102090277D01*
X218668749Y-102090277D01*
G37*
G36*
X184750800Y-101511400D02*
X183848400Y-101511400D01*
X183848400Y-100559000D01*
X184750800Y-100559000D01*
X184750800Y-101511400D01*
X184750800Y-101511400D01*
G37*
G36*
X218668749Y-99550277D02*
X218668754Y-99550278D01*
X218670807Y-99550292D01*
X218853080Y-99570737D01*
X219027912Y-99626197D01*
X219188641Y-99714558D01*
X219329146Y-99832456D01*
X219444076Y-99975400D01*
X219529052Y-100137945D01*
X219580839Y-100313899D01*
X219580843Y-100313940D01*
X219580844Y-100313944D01*
X219597463Y-100496558D01*
X219579648Y-100666056D01*
X219578290Y-100678973D01*
X219524052Y-100854187D01*
X219436815Y-101015529D01*
X219319900Y-101156855D01*
X219177762Y-101272779D01*
X219015815Y-101358888D01*
X218840226Y-101411902D01*
X218657685Y-101429800D01*
X218342283Y-101429800D01*
X218331251Y-101429723D01*
X218331246Y-101429722D01*
X218329193Y-101429708D01*
X218146920Y-101409263D01*
X217972088Y-101353803D01*
X217811359Y-101265442D01*
X217670854Y-101147544D01*
X217555924Y-101004600D01*
X217470948Y-100842055D01*
X217419161Y-100666101D01*
X217419157Y-100666060D01*
X217419156Y-100666056D01*
X217402537Y-100483442D01*
X217421705Y-100301074D01*
X217421710Y-100301027D01*
X217475948Y-100125813D01*
X217563185Y-99964471D01*
X217680100Y-99823145D01*
X217822238Y-99707221D01*
X217984185Y-99621112D01*
X218159774Y-99568098D01*
X218342315Y-99550200D01*
X218657717Y-99550200D01*
X218668749Y-99550277D01*
X218668749Y-99550277D01*
G37*
G36*
X213948749Y-99550277D02*
X213948754Y-99550278D01*
X213950807Y-99550292D01*
X214133080Y-99570737D01*
X214307912Y-99626197D01*
X214468641Y-99714558D01*
X214609146Y-99832456D01*
X214724076Y-99975400D01*
X214809052Y-100137945D01*
X214860839Y-100313899D01*
X214860843Y-100313940D01*
X214860844Y-100313944D01*
X214877463Y-100496558D01*
X214859648Y-100666056D01*
X214858290Y-100678973D01*
X214804052Y-100854187D01*
X214716815Y-101015529D01*
X214599900Y-101156855D01*
X214457762Y-101272779D01*
X214295815Y-101358888D01*
X214120226Y-101411902D01*
X213937685Y-101429800D01*
X213622283Y-101429800D01*
X213611251Y-101429723D01*
X213611246Y-101429722D01*
X213609193Y-101429708D01*
X213426920Y-101409263D01*
X213252088Y-101353803D01*
X213091359Y-101265442D01*
X212950854Y-101147544D01*
X212835924Y-101004600D01*
X212750948Y-100842055D01*
X212699161Y-100666101D01*
X212699157Y-100666060D01*
X212699156Y-100666056D01*
X212682537Y-100483442D01*
X212701705Y-100301074D01*
X212701710Y-100301027D01*
X212755948Y-100125813D01*
X212843185Y-99964471D01*
X212960100Y-99823145D01*
X213102238Y-99707221D01*
X213264185Y-99621112D01*
X213439774Y-99568098D01*
X213622315Y-99550200D01*
X213937717Y-99550200D01*
X213948749Y-99550277D01*
X213948749Y-99550277D01*
G37*
G36*
X184750800Y-100011400D02*
X183848400Y-100011400D01*
X183848400Y-99059000D01*
X184750800Y-99059000D01*
X184750800Y-100011400D01*
X184750800Y-100011400D01*
G37*
G36*
X213948749Y-97010277D02*
X213948754Y-97010278D01*
X213950807Y-97010292D01*
X214133080Y-97030737D01*
X214307912Y-97086197D01*
X214468641Y-97174558D01*
X214609146Y-97292456D01*
X214724076Y-97435400D01*
X214809052Y-97597945D01*
X214860839Y-97773899D01*
X214860843Y-97773940D01*
X214860844Y-97773944D01*
X214877463Y-97956558D01*
X214859648Y-98126056D01*
X214858290Y-98138973D01*
X214804052Y-98314187D01*
X214716815Y-98475529D01*
X214599900Y-98616855D01*
X214457762Y-98732779D01*
X214295815Y-98818888D01*
X214120226Y-98871902D01*
X213937685Y-98889800D01*
X213622283Y-98889800D01*
X213611251Y-98889723D01*
X213611246Y-98889722D01*
X213609193Y-98889708D01*
X213426920Y-98869263D01*
X213252088Y-98813803D01*
X213091359Y-98725442D01*
X212950854Y-98607544D01*
X212835924Y-98464600D01*
X212750948Y-98302055D01*
X212699161Y-98126101D01*
X212699157Y-98126060D01*
X212699156Y-98126056D01*
X212682537Y-97943442D01*
X212701705Y-97761074D01*
X212701710Y-97761027D01*
X212755948Y-97585813D01*
X212843185Y-97424471D01*
X212960100Y-97283145D01*
X213102238Y-97167221D01*
X213264185Y-97081112D01*
X213439774Y-97028098D01*
X213622315Y-97010200D01*
X213937717Y-97010200D01*
X213948749Y-97010277D01*
X213948749Y-97010277D01*
G37*
G36*
X218668749Y-97010277D02*
X218668754Y-97010278D01*
X218670807Y-97010292D01*
X218853080Y-97030737D01*
X219027912Y-97086197D01*
X219188641Y-97174558D01*
X219329146Y-97292456D01*
X219444076Y-97435400D01*
X219529052Y-97597945D01*
X219580839Y-97773899D01*
X219580843Y-97773940D01*
X219580844Y-97773944D01*
X219597463Y-97956558D01*
X219579648Y-98126056D01*
X219578290Y-98138973D01*
X219524052Y-98314187D01*
X219436815Y-98475529D01*
X219319900Y-98616855D01*
X219177762Y-98732779D01*
X219015815Y-98818888D01*
X218840226Y-98871902D01*
X218657685Y-98889800D01*
X218342283Y-98889800D01*
X218331251Y-98889723D01*
X218331246Y-98889722D01*
X218329193Y-98889708D01*
X218146920Y-98869263D01*
X217972088Y-98813803D01*
X217811359Y-98725442D01*
X217670854Y-98607544D01*
X217555924Y-98464600D01*
X217470948Y-98302055D01*
X217419161Y-98126101D01*
X217419157Y-98126060D01*
X217419156Y-98126056D01*
X217402537Y-97943442D01*
X217421705Y-97761074D01*
X217421710Y-97761027D01*
X217475948Y-97585813D01*
X217563185Y-97424471D01*
X217680100Y-97283145D01*
X217822238Y-97167221D01*
X217984185Y-97081112D01*
X218159774Y-97028098D01*
X218342315Y-97010200D01*
X218657717Y-97010200D01*
X218668749Y-97010277D01*
X218668749Y-97010277D01*
G37*
G36*
X201878749Y-95880277D02*
X201878754Y-95880278D01*
X201880807Y-95880292D01*
X202063080Y-95900737D01*
X202237912Y-95956197D01*
X202398641Y-96044558D01*
X202539146Y-96162456D01*
X202654076Y-96305400D01*
X202739052Y-96467945D01*
X202790839Y-96643899D01*
X202790843Y-96643940D01*
X202790844Y-96643944D01*
X202807463Y-96826558D01*
X202789648Y-96996056D01*
X202788290Y-97008973D01*
X202734052Y-97184187D01*
X202646815Y-97345529D01*
X202529900Y-97486855D01*
X202387762Y-97602779D01*
X202225815Y-97688888D01*
X202050226Y-97741902D01*
X201867685Y-97759800D01*
X201552283Y-97759800D01*
X201541251Y-97759723D01*
X201541246Y-97759722D01*
X201539193Y-97759708D01*
X201356920Y-97739263D01*
X201182088Y-97683803D01*
X201021359Y-97595442D01*
X200880854Y-97477544D01*
X200765924Y-97334600D01*
X200680948Y-97172055D01*
X200629161Y-96996101D01*
X200629157Y-96996060D01*
X200629156Y-96996056D01*
X200612537Y-96813442D01*
X200631705Y-96631074D01*
X200631710Y-96631027D01*
X200685948Y-96455813D01*
X200773185Y-96294471D01*
X200890100Y-96153145D01*
X201032238Y-96037221D01*
X201194185Y-95951112D01*
X201369774Y-95898098D01*
X201552315Y-95880200D01*
X201867717Y-95880200D01*
X201878749Y-95880277D01*
X201878749Y-95880277D01*
G37*
G36*
X184695400Y-97461800D02*
X183793000Y-97461800D01*
X183793000Y-96509400D01*
X184695400Y-96509400D01*
X184695400Y-97461800D01*
X184695400Y-97461800D01*
G37*
G36*
X213948749Y-94470277D02*
X213948754Y-94470278D01*
X213950807Y-94470292D01*
X214133080Y-94490737D01*
X214307912Y-94546197D01*
X214468641Y-94634558D01*
X214609146Y-94752456D01*
X214724076Y-94895400D01*
X214809052Y-95057945D01*
X214860839Y-95233899D01*
X214860843Y-95233940D01*
X214860844Y-95233944D01*
X214877463Y-95416558D01*
X214859648Y-95586056D01*
X214858290Y-95598973D01*
X214804052Y-95774187D01*
X214716815Y-95935529D01*
X214599900Y-96076855D01*
X214457762Y-96192779D01*
X214295815Y-96278888D01*
X214120226Y-96331902D01*
X213937685Y-96349800D01*
X213622283Y-96349800D01*
X213611251Y-96349723D01*
X213611246Y-96349722D01*
X213609193Y-96349708D01*
X213426920Y-96329263D01*
X213252088Y-96273803D01*
X213091359Y-96185442D01*
X212950854Y-96067544D01*
X212835924Y-95924600D01*
X212750948Y-95762055D01*
X212699161Y-95586101D01*
X212699157Y-95586060D01*
X212699156Y-95586056D01*
X212682537Y-95403442D01*
X212701705Y-95221074D01*
X212701710Y-95221027D01*
X212755948Y-95045813D01*
X212843185Y-94884471D01*
X212960100Y-94743145D01*
X213102238Y-94627221D01*
X213264185Y-94541112D01*
X213439774Y-94488098D01*
X213622315Y-94470200D01*
X213937717Y-94470200D01*
X213948749Y-94470277D01*
X213948749Y-94470277D01*
G37*
G36*
X218668749Y-94470277D02*
X218668754Y-94470278D01*
X218670807Y-94470292D01*
X218853080Y-94490737D01*
X219027912Y-94546197D01*
X219188641Y-94634558D01*
X219329146Y-94752456D01*
X219444076Y-94895400D01*
X219529052Y-95057945D01*
X219580839Y-95233899D01*
X219580843Y-95233940D01*
X219580844Y-95233944D01*
X219597463Y-95416558D01*
X219579648Y-95586056D01*
X219578290Y-95598973D01*
X219524052Y-95774187D01*
X219436815Y-95935529D01*
X219319900Y-96076855D01*
X219177762Y-96192779D01*
X219015815Y-96278888D01*
X218840226Y-96331902D01*
X218657685Y-96349800D01*
X218342283Y-96349800D01*
X218331251Y-96349723D01*
X218331246Y-96349722D01*
X218329193Y-96349708D01*
X218146920Y-96329263D01*
X217972088Y-96273803D01*
X217811359Y-96185442D01*
X217670854Y-96067544D01*
X217555924Y-95924600D01*
X217470948Y-95762055D01*
X217419161Y-95586101D01*
X217419157Y-95586060D01*
X217419156Y-95586056D01*
X217402537Y-95403442D01*
X217421705Y-95221074D01*
X217421710Y-95221027D01*
X217475948Y-95045813D01*
X217563185Y-94884471D01*
X217680100Y-94743145D01*
X217822238Y-94627221D01*
X217984185Y-94541112D01*
X218159774Y-94488098D01*
X218342315Y-94470200D01*
X218657717Y-94470200D01*
X218668749Y-94470277D01*
X218668749Y-94470277D01*
G37*
G36*
X184695400Y-95961800D02*
X183793000Y-95961800D01*
X183793000Y-95009400D01*
X184695400Y-95009400D01*
X184695400Y-95961800D01*
X184695400Y-95961800D01*
G37*
G36*
X201878749Y-93340277D02*
X201878754Y-93340278D01*
X201880807Y-93340292D01*
X202063080Y-93360737D01*
X202237912Y-93416197D01*
X202398641Y-93504558D01*
X202539146Y-93622456D01*
X202654076Y-93765400D01*
X202739052Y-93927945D01*
X202790839Y-94103899D01*
X202790843Y-94103940D01*
X202790844Y-94103944D01*
X202807463Y-94286558D01*
X202789648Y-94456056D01*
X202788290Y-94468973D01*
X202734052Y-94644187D01*
X202646815Y-94805529D01*
X202529900Y-94946855D01*
X202387762Y-95062779D01*
X202225815Y-95148888D01*
X202050226Y-95201902D01*
X201867685Y-95219800D01*
X201552283Y-95219800D01*
X201541251Y-95219723D01*
X201541246Y-95219722D01*
X201539193Y-95219708D01*
X201356920Y-95199263D01*
X201182088Y-95143803D01*
X201021359Y-95055442D01*
X200880854Y-94937544D01*
X200765924Y-94794600D01*
X200680948Y-94632055D01*
X200629161Y-94456101D01*
X200629157Y-94456060D01*
X200629156Y-94456056D01*
X200612537Y-94273442D01*
X200631705Y-94091074D01*
X200631710Y-94091027D01*
X200685948Y-93915813D01*
X200773185Y-93754471D01*
X200890100Y-93613145D01*
X201032238Y-93497221D01*
X201194185Y-93411112D01*
X201369774Y-93358098D01*
X201552315Y-93340200D01*
X201867717Y-93340200D01*
X201878749Y-93340277D01*
X201878749Y-93340277D01*
G37*
G36*
X213948749Y-91930277D02*
X213948754Y-91930278D01*
X213950807Y-91930292D01*
X214133080Y-91950737D01*
X214307912Y-92006197D01*
X214468641Y-92094558D01*
X214609146Y-92212456D01*
X214724076Y-92355400D01*
X214809052Y-92517945D01*
X214860839Y-92693899D01*
X214860843Y-92693940D01*
X214860844Y-92693944D01*
X214877463Y-92876558D01*
X214859648Y-93046056D01*
X214858290Y-93058973D01*
X214804052Y-93234187D01*
X214716815Y-93395529D01*
X214599900Y-93536855D01*
X214457762Y-93652779D01*
X214295815Y-93738888D01*
X214120226Y-93791902D01*
X213937685Y-93809800D01*
X213622283Y-93809800D01*
X213611251Y-93809723D01*
X213611246Y-93809722D01*
X213609193Y-93809708D01*
X213426920Y-93789263D01*
X213252088Y-93733803D01*
X213091359Y-93645442D01*
X212950854Y-93527544D01*
X212835924Y-93384600D01*
X212750948Y-93222055D01*
X212699161Y-93046101D01*
X212699157Y-93046060D01*
X212699156Y-93046056D01*
X212682537Y-92863442D01*
X212701705Y-92681074D01*
X212701710Y-92681027D01*
X212755948Y-92505813D01*
X212843185Y-92344471D01*
X212960100Y-92203145D01*
X213102238Y-92087221D01*
X213264185Y-92001112D01*
X213439774Y-91948098D01*
X213622315Y-91930200D01*
X213937717Y-91930200D01*
X213948749Y-91930277D01*
X213948749Y-91930277D01*
G37*
G36*
X218668749Y-91930277D02*
X218668754Y-91930278D01*
X218670807Y-91930292D01*
X218853080Y-91950737D01*
X219027912Y-92006197D01*
X219188641Y-92094558D01*
X219329146Y-92212456D01*
X219444076Y-92355400D01*
X219529052Y-92517945D01*
X219580839Y-92693899D01*
X219580843Y-92693940D01*
X219580844Y-92693944D01*
X219597463Y-92876558D01*
X219579648Y-93046056D01*
X219578290Y-93058973D01*
X219524052Y-93234187D01*
X219436815Y-93395529D01*
X219319900Y-93536855D01*
X219177762Y-93652779D01*
X219015815Y-93738888D01*
X218840226Y-93791902D01*
X218657685Y-93809800D01*
X218342283Y-93809800D01*
X218331251Y-93809723D01*
X218331246Y-93809722D01*
X218329193Y-93809708D01*
X218146920Y-93789263D01*
X217972088Y-93733803D01*
X217811359Y-93645442D01*
X217670854Y-93527544D01*
X217555924Y-93384600D01*
X217470948Y-93222055D01*
X217419161Y-93046101D01*
X217419157Y-93046060D01*
X217419156Y-93046056D01*
X217402537Y-92863442D01*
X217421705Y-92681074D01*
X217421710Y-92681027D01*
X217475948Y-92505813D01*
X217563185Y-92344471D01*
X217680100Y-92203145D01*
X217822238Y-92087221D01*
X217984185Y-92001112D01*
X218159774Y-91948098D01*
X218342315Y-91930200D01*
X218657717Y-91930200D01*
X218668749Y-91930277D01*
X218668749Y-91930277D01*
G37*
G36*
X201878749Y-90800277D02*
X201878754Y-90800278D01*
X201880807Y-90800292D01*
X202063080Y-90820737D01*
X202237912Y-90876197D01*
X202398641Y-90964558D01*
X202539146Y-91082456D01*
X202654076Y-91225400D01*
X202739052Y-91387945D01*
X202790839Y-91563899D01*
X202790843Y-91563940D01*
X202790844Y-91563944D01*
X202807463Y-91746558D01*
X202789648Y-91916056D01*
X202788290Y-91928973D01*
X202734052Y-92104187D01*
X202646815Y-92265529D01*
X202529900Y-92406855D01*
X202387762Y-92522779D01*
X202225815Y-92608888D01*
X202050226Y-92661902D01*
X201867685Y-92679800D01*
X201552283Y-92679800D01*
X201541251Y-92679723D01*
X201541246Y-92679722D01*
X201539193Y-92679708D01*
X201356920Y-92659263D01*
X201182088Y-92603803D01*
X201021359Y-92515442D01*
X200880854Y-92397544D01*
X200765924Y-92254600D01*
X200680948Y-92092055D01*
X200629161Y-91916101D01*
X200629157Y-91916060D01*
X200629156Y-91916056D01*
X200612537Y-91733442D01*
X200631705Y-91551074D01*
X200631710Y-91551027D01*
X200685948Y-91375813D01*
X200773185Y-91214471D01*
X200890100Y-91073145D01*
X201032238Y-90957221D01*
X201194185Y-90871112D01*
X201369774Y-90818098D01*
X201552315Y-90800200D01*
X201867717Y-90800200D01*
X201878749Y-90800277D01*
X201878749Y-90800277D01*
G37*
G36*
X213948749Y-89390277D02*
X213948754Y-89390278D01*
X213950807Y-89390292D01*
X214133080Y-89410737D01*
X214307912Y-89466197D01*
X214468641Y-89554558D01*
X214609146Y-89672456D01*
X214724076Y-89815400D01*
X214809052Y-89977945D01*
X214860839Y-90153899D01*
X214860843Y-90153940D01*
X214860844Y-90153944D01*
X214877463Y-90336558D01*
X214859648Y-90506056D01*
X214858290Y-90518973D01*
X214804052Y-90694187D01*
X214716815Y-90855529D01*
X214599900Y-90996855D01*
X214457762Y-91112779D01*
X214295815Y-91198888D01*
X214120226Y-91251902D01*
X213937685Y-91269800D01*
X213622283Y-91269800D01*
X213611251Y-91269723D01*
X213611246Y-91269722D01*
X213609193Y-91269708D01*
X213426920Y-91249263D01*
X213252088Y-91193803D01*
X213091359Y-91105442D01*
X212950854Y-90987544D01*
X212835924Y-90844600D01*
X212750948Y-90682055D01*
X212699161Y-90506101D01*
X212699157Y-90506060D01*
X212699156Y-90506056D01*
X212682537Y-90323442D01*
X212701705Y-90141074D01*
X212701710Y-90141027D01*
X212755948Y-89965813D01*
X212843185Y-89804471D01*
X212960100Y-89663145D01*
X213102238Y-89547221D01*
X213264185Y-89461112D01*
X213439774Y-89408098D01*
X213622315Y-89390200D01*
X213937717Y-89390200D01*
X213948749Y-89390277D01*
X213948749Y-89390277D01*
G37*
G36*
X218668749Y-89390277D02*
X218668754Y-89390278D01*
X218670807Y-89390292D01*
X218853080Y-89410737D01*
X219027912Y-89466197D01*
X219188641Y-89554558D01*
X219329146Y-89672456D01*
X219444076Y-89815400D01*
X219529052Y-89977945D01*
X219580839Y-90153899D01*
X219580843Y-90153940D01*
X219580844Y-90153944D01*
X219597463Y-90336558D01*
X219579648Y-90506056D01*
X219578290Y-90518973D01*
X219524052Y-90694187D01*
X219436815Y-90855529D01*
X219319900Y-90996855D01*
X219177762Y-91112779D01*
X219015815Y-91198888D01*
X218840226Y-91251902D01*
X218657685Y-91269800D01*
X218342283Y-91269800D01*
X218331251Y-91269723D01*
X218331246Y-91269722D01*
X218329193Y-91269708D01*
X218146920Y-91249263D01*
X217972088Y-91193803D01*
X217811359Y-91105442D01*
X217670854Y-90987544D01*
X217555924Y-90844600D01*
X217470948Y-90682055D01*
X217419161Y-90506101D01*
X217419157Y-90506060D01*
X217419156Y-90506056D01*
X217402537Y-90323442D01*
X217421705Y-90141074D01*
X217421710Y-90141027D01*
X217475948Y-89965813D01*
X217563185Y-89804471D01*
X217680100Y-89663145D01*
X217822238Y-89547221D01*
X217984185Y-89461112D01*
X218159774Y-89408098D01*
X218342315Y-89390200D01*
X218657717Y-89390200D01*
X218668749Y-89390277D01*
X218668749Y-89390277D01*
G37*
G36*
X201878749Y-88260277D02*
X201878754Y-88260278D01*
X201880807Y-88260292D01*
X202063080Y-88280737D01*
X202237912Y-88336197D01*
X202398641Y-88424558D01*
X202539146Y-88542456D01*
X202654076Y-88685400D01*
X202739052Y-88847945D01*
X202790839Y-89023899D01*
X202790843Y-89023940D01*
X202790844Y-89023944D01*
X202807463Y-89206558D01*
X202789648Y-89376056D01*
X202788290Y-89388973D01*
X202734052Y-89564187D01*
X202646815Y-89725529D01*
X202529900Y-89866855D01*
X202387762Y-89982779D01*
X202225815Y-90068888D01*
X202050226Y-90121902D01*
X201867685Y-90139800D01*
X201552283Y-90139800D01*
X201541251Y-90139723D01*
X201541246Y-90139722D01*
X201539193Y-90139708D01*
X201356920Y-90119263D01*
X201182088Y-90063803D01*
X201021359Y-89975442D01*
X200880854Y-89857544D01*
X200765924Y-89714600D01*
X200680948Y-89552055D01*
X200629161Y-89376101D01*
X200629157Y-89376060D01*
X200629156Y-89376056D01*
X200612537Y-89193442D01*
X200631705Y-89011074D01*
X200631710Y-89011027D01*
X200685948Y-88835813D01*
X200773185Y-88674471D01*
X200890100Y-88533145D01*
X201032238Y-88417221D01*
X201194185Y-88331112D01*
X201369774Y-88278098D01*
X201552315Y-88260200D01*
X201867717Y-88260200D01*
X201878749Y-88260277D01*
X201878749Y-88260277D01*
G37*
G36*
X213948749Y-86850277D02*
X213948754Y-86850278D01*
X213950807Y-86850292D01*
X214133080Y-86870737D01*
X214307912Y-86926197D01*
X214468641Y-87014558D01*
X214609146Y-87132456D01*
X214724076Y-87275400D01*
X214809052Y-87437945D01*
X214860839Y-87613899D01*
X214860843Y-87613940D01*
X214860844Y-87613944D01*
X214877463Y-87796558D01*
X214859648Y-87966056D01*
X214858290Y-87978973D01*
X214804052Y-88154187D01*
X214716815Y-88315529D01*
X214599900Y-88456855D01*
X214457762Y-88572779D01*
X214295815Y-88658888D01*
X214120226Y-88711902D01*
X213937685Y-88729800D01*
X213622283Y-88729800D01*
X213611251Y-88729723D01*
X213611246Y-88729722D01*
X213609193Y-88729708D01*
X213426920Y-88709263D01*
X213252088Y-88653803D01*
X213091359Y-88565442D01*
X212950854Y-88447544D01*
X212835924Y-88304600D01*
X212750948Y-88142055D01*
X212699161Y-87966101D01*
X212699157Y-87966060D01*
X212699156Y-87966056D01*
X212682537Y-87783442D01*
X212701705Y-87601074D01*
X212701710Y-87601027D01*
X212755948Y-87425813D01*
X212843185Y-87264471D01*
X212960100Y-87123145D01*
X213102238Y-87007221D01*
X213264185Y-86921112D01*
X213439774Y-86868098D01*
X213622315Y-86850200D01*
X213937717Y-86850200D01*
X213948749Y-86850277D01*
X213948749Y-86850277D01*
G37*
G36*
X218668749Y-86850277D02*
X218668754Y-86850278D01*
X218670807Y-86850292D01*
X218853080Y-86870737D01*
X219027912Y-86926197D01*
X219188641Y-87014558D01*
X219329146Y-87132456D01*
X219444076Y-87275400D01*
X219529052Y-87437945D01*
X219580839Y-87613899D01*
X219580843Y-87613940D01*
X219580844Y-87613944D01*
X219597463Y-87796558D01*
X219579648Y-87966056D01*
X219578290Y-87978973D01*
X219524052Y-88154187D01*
X219436815Y-88315529D01*
X219319900Y-88456855D01*
X219177762Y-88572779D01*
X219015815Y-88658888D01*
X218840226Y-88711902D01*
X218657685Y-88729800D01*
X218342283Y-88729800D01*
X218331251Y-88729723D01*
X218331246Y-88729722D01*
X218329193Y-88729708D01*
X218146920Y-88709263D01*
X217972088Y-88653803D01*
X217811359Y-88565442D01*
X217670854Y-88447544D01*
X217555924Y-88304600D01*
X217470948Y-88142055D01*
X217419161Y-87966101D01*
X217419157Y-87966060D01*
X217419156Y-87966056D01*
X217402537Y-87783442D01*
X217421705Y-87601074D01*
X217421710Y-87601027D01*
X217475948Y-87425813D01*
X217563185Y-87264471D01*
X217680100Y-87123145D01*
X217822238Y-87007221D01*
X217984185Y-86921112D01*
X218159774Y-86868098D01*
X218342315Y-86850200D01*
X218657717Y-86850200D01*
X218668749Y-86850277D01*
X218668749Y-86850277D01*
G37*
G36*
X201878749Y-85720277D02*
X201878754Y-85720278D01*
X201880807Y-85720292D01*
X202063080Y-85740737D01*
X202237912Y-85796197D01*
X202398641Y-85884558D01*
X202539146Y-86002456D01*
X202654076Y-86145400D01*
X202739052Y-86307945D01*
X202790839Y-86483899D01*
X202790843Y-86483940D01*
X202790844Y-86483944D01*
X202807463Y-86666558D01*
X202789648Y-86836056D01*
X202788290Y-86848973D01*
X202734052Y-87024187D01*
X202646815Y-87185529D01*
X202529900Y-87326855D01*
X202387762Y-87442779D01*
X202225815Y-87528888D01*
X202050226Y-87581902D01*
X201867685Y-87599800D01*
X201552283Y-87599800D01*
X201541251Y-87599723D01*
X201541246Y-87599722D01*
X201539193Y-87599708D01*
X201356920Y-87579263D01*
X201182088Y-87523803D01*
X201021359Y-87435442D01*
X200880854Y-87317544D01*
X200765924Y-87174600D01*
X200680948Y-87012055D01*
X200629161Y-86836101D01*
X200629157Y-86836060D01*
X200629156Y-86836056D01*
X200612537Y-86653442D01*
X200631705Y-86471074D01*
X200631710Y-86471027D01*
X200685948Y-86295813D01*
X200773185Y-86134471D01*
X200890100Y-85993145D01*
X201032238Y-85877221D01*
X201194185Y-85791112D01*
X201369774Y-85738098D01*
X201552315Y-85720200D01*
X201867717Y-85720200D01*
X201878749Y-85720277D01*
X201878749Y-85720277D01*
G37*
G36*
X169775200Y-87422200D02*
X163472800Y-87422200D01*
X163472800Y-85669800D01*
X169775200Y-85669800D01*
X169775200Y-87422200D01*
X169775200Y-87422200D01*
G37*
G36*
X218668749Y-84310277D02*
X218668754Y-84310278D01*
X218670807Y-84310292D01*
X218853080Y-84330737D01*
X219027912Y-84386197D01*
X219188641Y-84474558D01*
X219329146Y-84592456D01*
X219444076Y-84735400D01*
X219529052Y-84897945D01*
X219580839Y-85073899D01*
X219580843Y-85073940D01*
X219580844Y-85073944D01*
X219597463Y-85256558D01*
X219579648Y-85426056D01*
X219578290Y-85438973D01*
X219524052Y-85614187D01*
X219436815Y-85775529D01*
X219319900Y-85916855D01*
X219177762Y-86032779D01*
X219015815Y-86118888D01*
X218840226Y-86171902D01*
X218657685Y-86189800D01*
X218342283Y-86189800D01*
X218331251Y-86189723D01*
X218331246Y-86189722D01*
X218329193Y-86189708D01*
X218146920Y-86169263D01*
X217972088Y-86113803D01*
X217811359Y-86025442D01*
X217670854Y-85907544D01*
X217555924Y-85764600D01*
X217470948Y-85602055D01*
X217419161Y-85426101D01*
X217419157Y-85426060D01*
X217419156Y-85426056D01*
X217402537Y-85243442D01*
X217421705Y-85061074D01*
X217421710Y-85061027D01*
X217475948Y-84885813D01*
X217563185Y-84724471D01*
X217680100Y-84583145D01*
X217822238Y-84467221D01*
X217984185Y-84381112D01*
X218159774Y-84328098D01*
X218342315Y-84310200D01*
X218657717Y-84310200D01*
X218668749Y-84310277D01*
X218668749Y-84310277D01*
G37*
G36*
X213948749Y-84310277D02*
X213948754Y-84310278D01*
X213950807Y-84310292D01*
X214133080Y-84330737D01*
X214307912Y-84386197D01*
X214468641Y-84474558D01*
X214609146Y-84592456D01*
X214724076Y-84735400D01*
X214809052Y-84897945D01*
X214860839Y-85073899D01*
X214860843Y-85073940D01*
X214860844Y-85073944D01*
X214877463Y-85256558D01*
X214859648Y-85426056D01*
X214858290Y-85438973D01*
X214804052Y-85614187D01*
X214716815Y-85775529D01*
X214599900Y-85916855D01*
X214457762Y-86032779D01*
X214295815Y-86118888D01*
X214120226Y-86171902D01*
X213937685Y-86189800D01*
X213622283Y-86189800D01*
X213611251Y-86189723D01*
X213611246Y-86189722D01*
X213609193Y-86189708D01*
X213426920Y-86169263D01*
X213252088Y-86113803D01*
X213091359Y-86025442D01*
X212950854Y-85907544D01*
X212835924Y-85764600D01*
X212750948Y-85602055D01*
X212699161Y-85426101D01*
X212699157Y-85426060D01*
X212699156Y-85426056D01*
X212682537Y-85243442D01*
X212701705Y-85061074D01*
X212701710Y-85061027D01*
X212755948Y-84885813D01*
X212843185Y-84724471D01*
X212960100Y-84583145D01*
X213102238Y-84467221D01*
X213264185Y-84381112D01*
X213439774Y-84328098D01*
X213622315Y-84310200D01*
X213937717Y-84310200D01*
X213948749Y-84310277D01*
X213948749Y-84310277D01*
G37*
G36*
X163250200Y-85447200D02*
X161497800Y-85447200D01*
X161497800Y-79144800D01*
X163250200Y-79144800D01*
X163250200Y-85447200D01*
X163250200Y-85447200D01*
G37*
G36*
X171750200Y-85447200D02*
X169997800Y-85447200D01*
X169997800Y-79144800D01*
X171750200Y-79144800D01*
X171750200Y-85447200D01*
X171750200Y-85447200D01*
G37*
G36*
X201878749Y-83180277D02*
X201878754Y-83180278D01*
X201880807Y-83180292D01*
X202063080Y-83200737D01*
X202237912Y-83256197D01*
X202398641Y-83344558D01*
X202539146Y-83462456D01*
X202654076Y-83605400D01*
X202739052Y-83767945D01*
X202790839Y-83943899D01*
X202790843Y-83943940D01*
X202790844Y-83943944D01*
X202807463Y-84126558D01*
X202789648Y-84296056D01*
X202788290Y-84308973D01*
X202734052Y-84484187D01*
X202646815Y-84645529D01*
X202529900Y-84786855D01*
X202387762Y-84902779D01*
X202225815Y-84988888D01*
X202050226Y-85041902D01*
X201867685Y-85059800D01*
X201552283Y-85059800D01*
X201541251Y-85059723D01*
X201541246Y-85059722D01*
X201539193Y-85059708D01*
X201356920Y-85039263D01*
X201182088Y-84983803D01*
X201021359Y-84895442D01*
X200880854Y-84777544D01*
X200765924Y-84634600D01*
X200680948Y-84472055D01*
X200629161Y-84296101D01*
X200629157Y-84296060D01*
X200629156Y-84296056D01*
X200612537Y-84113442D01*
X200631705Y-83931074D01*
X200631710Y-83931027D01*
X200685948Y-83755813D01*
X200773185Y-83594471D01*
X200890100Y-83453145D01*
X201032238Y-83337221D01*
X201194185Y-83251112D01*
X201369774Y-83198098D01*
X201552315Y-83180200D01*
X201867717Y-83180200D01*
X201878749Y-83180277D01*
X201878749Y-83180277D01*
G37*
G36*
X213948749Y-81770277D02*
X213948754Y-81770278D01*
X213950807Y-81770292D01*
X214133080Y-81790737D01*
X214307912Y-81846197D01*
X214468641Y-81934558D01*
X214609146Y-82052456D01*
X214724076Y-82195400D01*
X214809052Y-82357945D01*
X214860839Y-82533899D01*
X214860843Y-82533940D01*
X214860844Y-82533944D01*
X214877463Y-82716558D01*
X214859648Y-82886056D01*
X214858290Y-82898973D01*
X214804052Y-83074187D01*
X214716815Y-83235529D01*
X214599900Y-83376855D01*
X214457762Y-83492779D01*
X214295815Y-83578888D01*
X214120226Y-83631902D01*
X213937685Y-83649800D01*
X213622283Y-83649800D01*
X213611251Y-83649723D01*
X213611246Y-83649722D01*
X213609193Y-83649708D01*
X213426920Y-83629263D01*
X213252088Y-83573803D01*
X213091359Y-83485442D01*
X212950854Y-83367544D01*
X212835924Y-83224600D01*
X212750948Y-83062055D01*
X212699161Y-82886101D01*
X212699157Y-82886060D01*
X212699156Y-82886056D01*
X212682537Y-82703442D01*
X212701705Y-82521074D01*
X212701710Y-82521027D01*
X212755948Y-82345813D01*
X212843185Y-82184471D01*
X212960100Y-82043145D01*
X213102238Y-81927221D01*
X213264185Y-81841112D01*
X213439774Y-81788098D01*
X213622315Y-81770200D01*
X213937717Y-81770200D01*
X213948749Y-81770277D01*
X213948749Y-81770277D01*
G37*
G36*
X218668749Y-81770277D02*
X218668754Y-81770278D01*
X218670807Y-81770292D01*
X218853080Y-81790737D01*
X219027912Y-81846197D01*
X219188641Y-81934558D01*
X219329146Y-82052456D01*
X219444076Y-82195400D01*
X219529052Y-82357945D01*
X219580839Y-82533899D01*
X219580843Y-82533940D01*
X219580844Y-82533944D01*
X219597463Y-82716558D01*
X219579648Y-82886056D01*
X219578290Y-82898973D01*
X219524052Y-83074187D01*
X219436815Y-83235529D01*
X219319900Y-83376855D01*
X219177762Y-83492779D01*
X219015815Y-83578888D01*
X218840226Y-83631902D01*
X218657685Y-83649800D01*
X218342283Y-83649800D01*
X218331251Y-83649723D01*
X218331246Y-83649722D01*
X218329193Y-83649708D01*
X218146920Y-83629263D01*
X217972088Y-83573803D01*
X217811359Y-83485442D01*
X217670854Y-83367544D01*
X217555924Y-83224600D01*
X217470948Y-83062055D01*
X217419161Y-82886101D01*
X217419157Y-82886060D01*
X217419156Y-82886056D01*
X217402537Y-82703442D01*
X217421705Y-82521074D01*
X217421710Y-82521027D01*
X217475948Y-82345813D01*
X217563185Y-82184471D01*
X217680100Y-82043145D01*
X217822238Y-81927221D01*
X217984185Y-81841112D01*
X218159774Y-81788098D01*
X218342315Y-81770200D01*
X218657717Y-81770200D01*
X218668749Y-81770277D01*
X218668749Y-81770277D01*
G37*
G36*
X201878749Y-80640277D02*
X201878754Y-80640278D01*
X201880807Y-80640292D01*
X202063080Y-80660737D01*
X202237912Y-80716197D01*
X202398641Y-80804558D01*
X202539146Y-80922456D01*
X202654076Y-81065400D01*
X202739052Y-81227945D01*
X202790839Y-81403899D01*
X202790843Y-81403940D01*
X202790844Y-81403944D01*
X202807463Y-81586558D01*
X202789648Y-81756056D01*
X202788290Y-81768973D01*
X202734052Y-81944187D01*
X202646815Y-82105529D01*
X202529900Y-82246855D01*
X202387762Y-82362779D01*
X202225815Y-82448888D01*
X202050226Y-82501902D01*
X201867685Y-82519800D01*
X201552283Y-82519800D01*
X201541251Y-82519723D01*
X201541246Y-82519722D01*
X201539193Y-82519708D01*
X201356920Y-82499263D01*
X201182088Y-82443803D01*
X201021359Y-82355442D01*
X200880854Y-82237544D01*
X200765924Y-82094600D01*
X200680948Y-81932055D01*
X200629161Y-81756101D01*
X200629157Y-81756060D01*
X200629156Y-81756056D01*
X200612537Y-81573442D01*
X200631705Y-81391074D01*
X200631710Y-81391027D01*
X200685948Y-81215813D01*
X200773185Y-81054471D01*
X200890100Y-80913145D01*
X201032238Y-80797221D01*
X201194185Y-80711112D01*
X201369774Y-80658098D01*
X201552315Y-80640200D01*
X201867717Y-80640200D01*
X201878749Y-80640277D01*
X201878749Y-80640277D01*
G37*
G36*
X213948749Y-79230277D02*
X213948754Y-79230278D01*
X213950807Y-79230292D01*
X214133080Y-79250737D01*
X214307912Y-79306197D01*
X214468641Y-79394558D01*
X214609146Y-79512456D01*
X214724076Y-79655400D01*
X214809052Y-79817945D01*
X214860839Y-79993899D01*
X214860843Y-79993940D01*
X214860844Y-79993944D01*
X214877463Y-80176558D01*
X214859648Y-80346056D01*
X214858290Y-80358973D01*
X214804052Y-80534187D01*
X214716815Y-80695529D01*
X214599900Y-80836855D01*
X214457762Y-80952779D01*
X214295815Y-81038888D01*
X214120226Y-81091902D01*
X213937685Y-81109800D01*
X213622283Y-81109800D01*
X213611251Y-81109723D01*
X213611246Y-81109722D01*
X213609193Y-81109708D01*
X213426920Y-81089263D01*
X213252088Y-81033803D01*
X213091359Y-80945442D01*
X212950854Y-80827544D01*
X212835924Y-80684600D01*
X212750948Y-80522055D01*
X212699161Y-80346101D01*
X212699157Y-80346060D01*
X212699156Y-80346056D01*
X212682537Y-80163442D01*
X212701705Y-79981074D01*
X212701710Y-79981027D01*
X212755948Y-79805813D01*
X212843185Y-79644471D01*
X212960100Y-79503145D01*
X213102238Y-79387221D01*
X213264185Y-79301112D01*
X213439774Y-79248098D01*
X213622315Y-79230200D01*
X213937717Y-79230200D01*
X213948749Y-79230277D01*
X213948749Y-79230277D01*
G37*
G36*
X218668749Y-79230277D02*
X218668754Y-79230278D01*
X218670807Y-79230292D01*
X218853080Y-79250737D01*
X219027912Y-79306197D01*
X219188641Y-79394558D01*
X219329146Y-79512456D01*
X219444076Y-79655400D01*
X219529052Y-79817945D01*
X219580839Y-79993899D01*
X219580843Y-79993940D01*
X219580844Y-79993944D01*
X219597463Y-80176558D01*
X219579648Y-80346056D01*
X219578290Y-80358973D01*
X219524052Y-80534187D01*
X219436815Y-80695529D01*
X219319900Y-80836855D01*
X219177762Y-80952779D01*
X219015815Y-81038888D01*
X218840226Y-81091902D01*
X218657685Y-81109800D01*
X218342283Y-81109800D01*
X218331251Y-81109723D01*
X218331246Y-81109722D01*
X218329193Y-81109708D01*
X218146920Y-81089263D01*
X217972088Y-81033803D01*
X217811359Y-80945442D01*
X217670854Y-80827544D01*
X217555924Y-80684600D01*
X217470948Y-80522055D01*
X217419161Y-80346101D01*
X217419157Y-80346060D01*
X217419156Y-80346056D01*
X217402537Y-80163442D01*
X217421705Y-79981074D01*
X217421710Y-79981027D01*
X217475948Y-79805813D01*
X217563185Y-79644471D01*
X217680100Y-79503145D01*
X217822238Y-79387221D01*
X217984185Y-79301112D01*
X218159774Y-79248098D01*
X218342315Y-79230200D01*
X218657717Y-79230200D01*
X218668749Y-79230277D01*
X218668749Y-79230277D01*
G37*
G36*
X201878749Y-78100277D02*
X201878754Y-78100278D01*
X201880807Y-78100292D01*
X202063080Y-78120737D01*
X202237912Y-78176197D01*
X202398641Y-78264558D01*
X202539146Y-78382456D01*
X202654076Y-78525400D01*
X202739052Y-78687945D01*
X202790839Y-78863899D01*
X202790843Y-78863940D01*
X202790844Y-78863944D01*
X202807463Y-79046558D01*
X202797137Y-79144800D01*
X202788290Y-79228973D01*
X202734052Y-79404187D01*
X202646815Y-79565529D01*
X202529900Y-79706855D01*
X202387762Y-79822779D01*
X202225815Y-79908888D01*
X202050226Y-79961902D01*
X201867685Y-79979800D01*
X201552283Y-79979800D01*
X201541251Y-79979723D01*
X201541246Y-79979722D01*
X201539193Y-79979708D01*
X201356920Y-79959263D01*
X201182088Y-79903803D01*
X201021359Y-79815442D01*
X200880854Y-79697544D01*
X200765924Y-79554600D01*
X200680948Y-79392055D01*
X200629161Y-79216101D01*
X200629157Y-79216060D01*
X200629156Y-79216056D01*
X200612537Y-79033442D01*
X200631705Y-78851074D01*
X200631710Y-78851027D01*
X200685948Y-78675813D01*
X200773185Y-78514471D01*
X200890100Y-78373145D01*
X201032238Y-78257221D01*
X201194185Y-78171112D01*
X201369774Y-78118098D01*
X201552315Y-78100200D01*
X201867717Y-78100200D01*
X201878749Y-78100277D01*
X201878749Y-78100277D01*
G37*
G36*
X169775200Y-78922200D02*
X163472800Y-78922200D01*
X163472800Y-77169800D01*
X169775200Y-77169800D01*
X169775200Y-78922200D01*
X169775200Y-78922200D01*
G37*
G36*
X213948749Y-76690277D02*
X213948754Y-76690278D01*
X213950807Y-76690292D01*
X214133080Y-76710737D01*
X214307912Y-76766197D01*
X214468641Y-76854558D01*
X214609146Y-76972456D01*
X214724076Y-77115400D01*
X214809052Y-77277945D01*
X214860839Y-77453899D01*
X214860843Y-77453940D01*
X214860844Y-77453944D01*
X214877463Y-77636558D01*
X214871194Y-77696200D01*
X214858290Y-77818973D01*
X214804052Y-77994187D01*
X214716815Y-78155529D01*
X214599900Y-78296855D01*
X214457762Y-78412779D01*
X214295815Y-78498888D01*
X214120226Y-78551902D01*
X213937685Y-78569800D01*
X213622283Y-78569800D01*
X213611251Y-78569723D01*
X213611246Y-78569722D01*
X213609193Y-78569708D01*
X213426920Y-78549263D01*
X213252088Y-78493803D01*
X213091359Y-78405442D01*
X212950854Y-78287544D01*
X212835924Y-78144600D01*
X212750948Y-77982055D01*
X212699161Y-77806101D01*
X212699157Y-77806060D01*
X212699156Y-77806056D01*
X212682537Y-77623442D01*
X212701705Y-77441074D01*
X212701710Y-77441027D01*
X212755948Y-77265813D01*
X212843185Y-77104471D01*
X212960100Y-76963145D01*
X213102238Y-76847221D01*
X213264185Y-76761112D01*
X213439774Y-76708098D01*
X213622315Y-76690200D01*
X213937717Y-76690200D01*
X213948749Y-76690277D01*
X213948749Y-76690277D01*
G37*
G36*
X218668749Y-76690277D02*
X218668754Y-76690278D01*
X218670807Y-76690292D01*
X218853080Y-76710737D01*
X219027912Y-76766197D01*
X219188641Y-76854558D01*
X219329146Y-76972456D01*
X219444076Y-77115400D01*
X219529052Y-77277945D01*
X219580839Y-77453899D01*
X219580843Y-77453940D01*
X219580844Y-77453944D01*
X219597463Y-77636558D01*
X219591194Y-77696200D01*
X219578290Y-77818973D01*
X219524052Y-77994187D01*
X219436815Y-78155529D01*
X219319900Y-78296855D01*
X219177762Y-78412779D01*
X219015815Y-78498888D01*
X218840226Y-78551902D01*
X218657685Y-78569800D01*
X218342283Y-78569800D01*
X218331251Y-78569723D01*
X218331246Y-78569722D01*
X218329193Y-78569708D01*
X218146920Y-78549263D01*
X217972088Y-78493803D01*
X217811359Y-78405442D01*
X217670854Y-78287544D01*
X217555924Y-78144600D01*
X217470948Y-77982055D01*
X217419161Y-77806101D01*
X217419157Y-77806060D01*
X217419156Y-77806056D01*
X217402537Y-77623442D01*
X217421705Y-77441074D01*
X217421710Y-77441027D01*
X217475948Y-77265813D01*
X217563185Y-77104471D01*
X217680100Y-76963145D01*
X217822238Y-76847221D01*
X217984185Y-76761112D01*
X218159774Y-76708098D01*
X218342315Y-76690200D01*
X218657717Y-76690200D01*
X218668749Y-76690277D01*
X218668749Y-76690277D01*
G37*
G36*
X140334300Y-77997900D02*
X138276900Y-77997900D01*
X138276900Y-76448500D01*
X140334300Y-76448500D01*
X140334300Y-77997900D01*
X140334300Y-77997900D01*
G37*
G36*
X144804700Y-77997900D02*
X142747300Y-77997900D01*
X142747300Y-76448500D01*
X144804700Y-76448500D01*
X144804700Y-77997900D01*
X144804700Y-77997900D01*
G37*
G36*
X134421200Y-77696200D02*
X133518800Y-77696200D01*
X133518800Y-76743800D01*
X134421200Y-76743800D01*
X134421200Y-77696200D01*
X134421200Y-77696200D01*
G37*
G36*
X201878749Y-75560277D02*
X201878754Y-75560278D01*
X201880807Y-75560292D01*
X202063080Y-75580737D01*
X202237912Y-75636197D01*
X202398641Y-75724558D01*
X202539146Y-75842456D01*
X202654076Y-75985400D01*
X202739052Y-76147945D01*
X202790839Y-76323899D01*
X202790843Y-76323940D01*
X202790844Y-76323944D01*
X202807463Y-76506558D01*
X202789648Y-76676056D01*
X202788290Y-76688973D01*
X202734052Y-76864187D01*
X202646815Y-77025529D01*
X202529900Y-77166855D01*
X202387762Y-77282779D01*
X202225815Y-77368888D01*
X202050226Y-77421902D01*
X201867685Y-77439800D01*
X201552283Y-77439800D01*
X201541251Y-77439723D01*
X201541246Y-77439722D01*
X201539193Y-77439708D01*
X201356920Y-77419263D01*
X201182088Y-77363803D01*
X201021359Y-77275442D01*
X200880854Y-77157544D01*
X200765924Y-77014600D01*
X200680948Y-76852055D01*
X200629161Y-76676101D01*
X200629157Y-76676060D01*
X200629156Y-76676056D01*
X200612537Y-76493442D01*
X200631705Y-76311074D01*
X200631710Y-76311027D01*
X200685948Y-76135813D01*
X200773185Y-75974471D01*
X200890100Y-75833145D01*
X201032238Y-75717221D01*
X201194185Y-75631112D01*
X201369774Y-75578098D01*
X201552315Y-75560200D01*
X201867717Y-75560200D01*
X201878749Y-75560277D01*
X201878749Y-75560277D01*
G37*
G36*
X134421200Y-76196200D02*
X133518800Y-76196200D01*
X133518800Y-75243800D01*
X134421200Y-75243800D01*
X134421200Y-76196200D01*
X134421200Y-76196200D01*
G37*
G36*
X213948749Y-74150277D02*
X213948754Y-74150278D01*
X213950807Y-74150292D01*
X214133080Y-74170737D01*
X214307912Y-74226197D01*
X214468641Y-74314558D01*
X214609146Y-74432456D01*
X214724076Y-74575400D01*
X214809052Y-74737945D01*
X214860839Y-74913899D01*
X214860843Y-74913940D01*
X214860844Y-74913944D01*
X214877463Y-75096558D01*
X214861987Y-75243800D01*
X214858290Y-75278973D01*
X214804052Y-75454187D01*
X214716815Y-75615529D01*
X214599900Y-75756855D01*
X214457762Y-75872779D01*
X214295815Y-75958888D01*
X214120226Y-76011902D01*
X213937685Y-76029800D01*
X213622283Y-76029800D01*
X213611251Y-76029723D01*
X213611246Y-76029722D01*
X213609193Y-76029708D01*
X213426920Y-76009263D01*
X213252088Y-75953803D01*
X213091359Y-75865442D01*
X212950854Y-75747544D01*
X212835924Y-75604600D01*
X212750948Y-75442055D01*
X212699161Y-75266101D01*
X212699157Y-75266060D01*
X212699156Y-75266056D01*
X212682537Y-75083442D01*
X212701705Y-74901074D01*
X212701710Y-74901027D01*
X212755948Y-74725813D01*
X212843185Y-74564471D01*
X212960100Y-74423145D01*
X213102238Y-74307221D01*
X213264185Y-74221112D01*
X213439774Y-74168098D01*
X213622315Y-74150200D01*
X213937717Y-74150200D01*
X213948749Y-74150277D01*
X213948749Y-74150277D01*
G37*
G36*
X218668749Y-74150277D02*
X218668754Y-74150278D01*
X218670807Y-74150292D01*
X218853080Y-74170737D01*
X219027912Y-74226197D01*
X219188641Y-74314558D01*
X219329146Y-74432456D01*
X219444076Y-74575400D01*
X219529052Y-74737945D01*
X219580839Y-74913899D01*
X219580843Y-74913940D01*
X219580844Y-74913944D01*
X219597463Y-75096558D01*
X219581987Y-75243800D01*
X219578290Y-75278973D01*
X219524052Y-75454187D01*
X219436815Y-75615529D01*
X219319900Y-75756855D01*
X219177762Y-75872779D01*
X219015815Y-75958888D01*
X218840226Y-76011902D01*
X218657685Y-76029800D01*
X218342283Y-76029800D01*
X218331251Y-76029723D01*
X218331246Y-76029722D01*
X218329193Y-76029708D01*
X218146920Y-76009263D01*
X217972088Y-75953803D01*
X217811359Y-75865442D01*
X217670854Y-75747544D01*
X217555924Y-75604600D01*
X217470948Y-75442055D01*
X217419161Y-75266101D01*
X217419157Y-75266060D01*
X217419156Y-75266056D01*
X217402537Y-75083442D01*
X217421705Y-74901074D01*
X217421710Y-74901027D01*
X217475948Y-74725813D01*
X217563185Y-74564471D01*
X217680100Y-74423145D01*
X217822238Y-74307221D01*
X217984185Y-74221112D01*
X218159774Y-74168098D01*
X218342315Y-74150200D01*
X218657717Y-74150200D01*
X218668749Y-74150277D01*
X218668749Y-74150277D01*
G37*
G36*
X144804700Y-75508700D02*
X142747300Y-75508700D01*
X142747300Y-73959300D01*
X144804700Y-73959300D01*
X144804700Y-75508700D01*
X144804700Y-75508700D01*
G37*
G36*
X140334300Y-75508700D02*
X138276900Y-75508700D01*
X138276900Y-73959300D01*
X140334300Y-73959300D01*
X140334300Y-75508700D01*
X140334300Y-75508700D01*
G37*
G36*
X202802200Y-74899800D02*
X200617800Y-74899800D01*
X200617800Y-73020200D01*
X202802200Y-73020200D01*
X202802200Y-74899800D01*
X202802200Y-74899800D01*
G37*
G36*
X218668749Y-71610277D02*
X218668754Y-71610278D01*
X218670807Y-71610292D01*
X218853080Y-71630737D01*
X219027912Y-71686197D01*
X219188641Y-71774558D01*
X219329146Y-71892456D01*
X219444076Y-72035400D01*
X219529052Y-72197945D01*
X219580839Y-72373899D01*
X219580843Y-72373940D01*
X219580844Y-72373944D01*
X219597463Y-72556558D01*
X219579648Y-72726056D01*
X219578290Y-72738973D01*
X219524052Y-72914187D01*
X219436815Y-73075529D01*
X219319900Y-73216855D01*
X219177762Y-73332779D01*
X219015815Y-73418888D01*
X218840226Y-73471902D01*
X218657685Y-73489800D01*
X218342283Y-73489800D01*
X218331251Y-73489723D01*
X218331246Y-73489722D01*
X218329193Y-73489708D01*
X218146920Y-73469263D01*
X217972088Y-73413803D01*
X217811359Y-73325442D01*
X217670854Y-73207544D01*
X217555924Y-73064600D01*
X217470948Y-72902055D01*
X217419161Y-72726101D01*
X217419157Y-72726060D01*
X217419156Y-72726056D01*
X217402537Y-72543442D01*
X217421705Y-72361074D01*
X217421710Y-72361027D01*
X217475948Y-72185813D01*
X217563185Y-72024471D01*
X217680100Y-71883145D01*
X217822238Y-71767221D01*
X217984185Y-71681112D01*
X218159774Y-71628098D01*
X218342315Y-71610200D01*
X218657717Y-71610200D01*
X218668749Y-71610277D01*
X218668749Y-71610277D01*
G37*
G36*
X213948749Y-71610277D02*
X213948754Y-71610278D01*
X213950807Y-71610292D01*
X214133080Y-71630737D01*
X214307912Y-71686197D01*
X214468641Y-71774558D01*
X214609146Y-71892456D01*
X214724076Y-72035400D01*
X214809052Y-72197945D01*
X214860839Y-72373899D01*
X214860843Y-72373940D01*
X214860844Y-72373944D01*
X214877463Y-72556558D01*
X214859648Y-72726056D01*
X214858290Y-72738973D01*
X214804052Y-72914187D01*
X214716815Y-73075529D01*
X214599900Y-73216855D01*
X214457762Y-73332779D01*
X214295815Y-73418888D01*
X214120226Y-73471902D01*
X213937685Y-73489800D01*
X213622283Y-73489800D01*
X213611251Y-73489723D01*
X213611246Y-73489722D01*
X213609193Y-73489708D01*
X213426920Y-73469263D01*
X213252088Y-73413803D01*
X213091359Y-73325442D01*
X212950854Y-73207544D01*
X212835924Y-73064600D01*
X212750948Y-72902055D01*
X212699161Y-72726101D01*
X212699157Y-72726060D01*
X212699156Y-72726056D01*
X212682537Y-72543442D01*
X212701705Y-72361074D01*
X212701710Y-72361027D01*
X212755948Y-72185813D01*
X212843185Y-72024471D01*
X212960100Y-71883145D01*
X213102238Y-71767221D01*
X213264185Y-71681112D01*
X213439774Y-71628098D01*
X213622315Y-71610200D01*
X213937717Y-71610200D01*
X213948749Y-71610277D01*
X213948749Y-71610277D01*
G37*
G36*
X142196200Y-71511200D02*
X141243800Y-71511200D01*
X141243800Y-70608800D01*
X142196200Y-70608800D01*
X142196200Y-71511200D01*
X142196200Y-71511200D01*
G37*
G36*
X140696200Y-71511200D02*
X139743800Y-71511200D01*
X139743800Y-70608800D01*
X140696200Y-70608800D01*
X140696200Y-71511200D01*
X140696200Y-71511200D01*
G37*
G36*
X213948749Y-69070277D02*
X213948754Y-69070278D01*
X213950807Y-69070292D01*
X214133080Y-69090737D01*
X214307912Y-69146197D01*
X214468641Y-69234558D01*
X214609146Y-69352456D01*
X214724076Y-69495400D01*
X214809052Y-69657945D01*
X214860839Y-69833899D01*
X214860843Y-69833940D01*
X214860844Y-69833944D01*
X214877463Y-70016558D01*
X214859648Y-70186056D01*
X214858290Y-70198973D01*
X214804052Y-70374187D01*
X214716815Y-70535529D01*
X214599900Y-70676855D01*
X214457762Y-70792779D01*
X214295815Y-70878888D01*
X214120226Y-70931902D01*
X213937685Y-70949800D01*
X213622283Y-70949800D01*
X213611251Y-70949723D01*
X213611246Y-70949722D01*
X213609193Y-70949708D01*
X213426920Y-70929263D01*
X213252088Y-70873803D01*
X213091359Y-70785442D01*
X212950854Y-70667544D01*
X212835924Y-70524600D01*
X212750948Y-70362055D01*
X212699161Y-70186101D01*
X212699157Y-70186060D01*
X212699156Y-70186056D01*
X212682537Y-70003442D01*
X212701705Y-69821074D01*
X212701710Y-69821027D01*
X212755948Y-69645813D01*
X212843185Y-69484471D01*
X212960100Y-69343145D01*
X213102238Y-69227221D01*
X213264185Y-69141112D01*
X213439774Y-69088098D01*
X213622315Y-69070200D01*
X213937717Y-69070200D01*
X213948749Y-69070277D01*
X213948749Y-69070277D01*
G37*
G36*
X218668749Y-69070277D02*
X218668754Y-69070278D01*
X218670807Y-69070292D01*
X218853080Y-69090737D01*
X219027912Y-69146197D01*
X219188641Y-69234558D01*
X219329146Y-69352456D01*
X219444076Y-69495400D01*
X219529052Y-69657945D01*
X219580839Y-69833899D01*
X219580843Y-69833940D01*
X219580844Y-69833944D01*
X219597463Y-70016558D01*
X219579648Y-70186056D01*
X219578290Y-70198973D01*
X219524052Y-70374187D01*
X219436815Y-70535529D01*
X219319900Y-70676855D01*
X219177762Y-70792779D01*
X219015815Y-70878888D01*
X218840226Y-70931902D01*
X218657685Y-70949800D01*
X218342283Y-70949800D01*
X218331251Y-70949723D01*
X218331246Y-70949722D01*
X218329193Y-70949708D01*
X218146920Y-70929263D01*
X217972088Y-70873803D01*
X217811359Y-70785442D01*
X217670854Y-70667544D01*
X217555924Y-70524600D01*
X217470948Y-70362055D01*
X217419161Y-70186101D01*
X217419157Y-70186060D01*
X217419156Y-70186056D01*
X217402537Y-70003442D01*
X217421705Y-69821074D01*
X217421710Y-69821027D01*
X217475948Y-69645813D01*
X217563185Y-69484471D01*
X217680100Y-69343145D01*
X217822238Y-69227221D01*
X217984185Y-69141112D01*
X218159774Y-69088098D01*
X218342315Y-69070200D01*
X218657717Y-69070200D01*
X218668749Y-69070277D01*
X218668749Y-69070277D01*
G37*
G36*
X213948749Y-66530277D02*
X213948754Y-66530278D01*
X213950807Y-66530292D01*
X214133080Y-66550737D01*
X214307912Y-66606197D01*
X214468641Y-66694558D01*
X214609146Y-66812456D01*
X214724076Y-66955400D01*
X214809052Y-67117945D01*
X214860839Y-67293899D01*
X214860843Y-67293940D01*
X214860844Y-67293944D01*
X214877463Y-67476558D01*
X214859648Y-67646056D01*
X214858290Y-67658973D01*
X214804052Y-67834187D01*
X214716815Y-67995529D01*
X214599900Y-68136855D01*
X214457762Y-68252779D01*
X214295815Y-68338888D01*
X214120226Y-68391902D01*
X213937685Y-68409800D01*
X213622283Y-68409800D01*
X213611251Y-68409723D01*
X213611246Y-68409722D01*
X213609193Y-68409708D01*
X213426920Y-68389263D01*
X213252088Y-68333803D01*
X213091359Y-68245442D01*
X212950854Y-68127544D01*
X212835924Y-67984600D01*
X212750948Y-67822055D01*
X212699161Y-67646101D01*
X212699157Y-67646060D01*
X212699156Y-67646056D01*
X212682537Y-67463442D01*
X212701705Y-67281074D01*
X212701710Y-67281027D01*
X212755948Y-67105813D01*
X212843185Y-66944471D01*
X212960100Y-66803145D01*
X213102238Y-66687221D01*
X213264185Y-66601112D01*
X213439774Y-66548098D01*
X213622315Y-66530200D01*
X213937717Y-66530200D01*
X213948749Y-66530277D01*
X213948749Y-66530277D01*
G37*
G36*
X218668749Y-66530277D02*
X218668754Y-66530278D01*
X218670807Y-66530292D01*
X218853080Y-66550737D01*
X219027912Y-66606197D01*
X219188641Y-66694558D01*
X219329146Y-66812456D01*
X219444076Y-66955400D01*
X219529052Y-67117945D01*
X219580839Y-67293899D01*
X219580843Y-67293940D01*
X219580844Y-67293944D01*
X219597463Y-67476558D01*
X219579648Y-67646056D01*
X219578290Y-67658973D01*
X219524052Y-67834187D01*
X219436815Y-67995529D01*
X219319900Y-68136855D01*
X219177762Y-68252779D01*
X219015815Y-68338888D01*
X218840226Y-68391902D01*
X218657685Y-68409800D01*
X218342283Y-68409800D01*
X218331251Y-68409723D01*
X218331246Y-68409722D01*
X218329193Y-68409708D01*
X218146920Y-68389263D01*
X217972088Y-68333803D01*
X217811359Y-68245442D01*
X217670854Y-68127544D01*
X217555924Y-67984600D01*
X217470948Y-67822055D01*
X217419161Y-67646101D01*
X217419157Y-67646060D01*
X217419156Y-67646056D01*
X217402537Y-67463442D01*
X217421705Y-67281074D01*
X217421710Y-67281027D01*
X217475948Y-67105813D01*
X217563185Y-66944471D01*
X217680100Y-66803145D01*
X217822238Y-66687221D01*
X217984185Y-66601112D01*
X218159774Y-66548098D01*
X218342315Y-66530200D01*
X218657717Y-66530200D01*
X218668749Y-66530277D01*
X218668749Y-66530277D01*
G37*
G36*
X177456200Y-66614200D02*
X175603800Y-66614200D01*
X175603800Y-65661800D01*
X177456200Y-65661800D01*
X177456200Y-66614200D01*
X177456200Y-66614200D01*
G37*
G36*
X181803200Y-66600200D02*
X180400800Y-66600200D01*
X180400800Y-65447800D01*
X181803200Y-65447800D01*
X181803200Y-66600200D01*
X181803200Y-66600200D01*
G37*
G36*
X171647200Y-66504200D02*
X170744800Y-66504200D01*
X170744800Y-65551800D01*
X171647200Y-65551800D01*
X171647200Y-66504200D01*
X171647200Y-66504200D01*
G37*
G36*
X213948749Y-63990277D02*
X213948754Y-63990278D01*
X213950807Y-63990292D01*
X214133080Y-64010737D01*
X214307912Y-64066197D01*
X214468641Y-64154558D01*
X214609146Y-64272456D01*
X214724076Y-64415400D01*
X214809052Y-64577945D01*
X214860839Y-64753899D01*
X214860843Y-64753940D01*
X214860844Y-64753944D01*
X214877463Y-64936558D01*
X214870353Y-65004200D01*
X214858290Y-65118973D01*
X214804052Y-65294187D01*
X214716815Y-65455529D01*
X214599900Y-65596855D01*
X214457762Y-65712779D01*
X214295815Y-65798888D01*
X214120226Y-65851902D01*
X213937685Y-65869800D01*
X213622283Y-65869800D01*
X213611251Y-65869723D01*
X213611246Y-65869722D01*
X213609193Y-65869708D01*
X213426920Y-65849263D01*
X213252088Y-65793803D01*
X213091359Y-65705442D01*
X212950854Y-65587544D01*
X212835924Y-65444600D01*
X212750948Y-65282055D01*
X212699161Y-65106101D01*
X212699157Y-65106060D01*
X212699156Y-65106056D01*
X212682537Y-64923442D01*
X212701705Y-64741074D01*
X212701710Y-64741027D01*
X212755948Y-64565813D01*
X212843185Y-64404471D01*
X212960100Y-64263145D01*
X213102238Y-64147221D01*
X213264185Y-64061112D01*
X213439774Y-64008098D01*
X213622315Y-63990200D01*
X213937717Y-63990200D01*
X213948749Y-63990277D01*
X213948749Y-63990277D01*
G37*
G36*
X218668749Y-63990277D02*
X218668754Y-63990278D01*
X218670807Y-63990292D01*
X218853080Y-64010737D01*
X219027912Y-64066197D01*
X219188641Y-64154558D01*
X219329146Y-64272456D01*
X219444076Y-64415400D01*
X219529052Y-64577945D01*
X219580839Y-64753899D01*
X219580843Y-64753940D01*
X219580844Y-64753944D01*
X219597463Y-64936558D01*
X219590353Y-65004200D01*
X219578290Y-65118973D01*
X219524052Y-65294187D01*
X219436815Y-65455529D01*
X219319900Y-65596855D01*
X219177762Y-65712779D01*
X219015815Y-65798888D01*
X218840226Y-65851902D01*
X218657685Y-65869800D01*
X218342283Y-65869800D01*
X218331251Y-65869723D01*
X218331246Y-65869722D01*
X218329193Y-65869708D01*
X218146920Y-65849263D01*
X217972088Y-65793803D01*
X217811359Y-65705442D01*
X217670854Y-65587544D01*
X217555924Y-65444600D01*
X217470948Y-65282055D01*
X217419161Y-65106101D01*
X217419157Y-65106060D01*
X217419156Y-65106056D01*
X217402537Y-64923442D01*
X217421705Y-64741074D01*
X217421710Y-64741027D01*
X217475948Y-64565813D01*
X217563185Y-64404471D01*
X217680100Y-64263145D01*
X217822238Y-64147221D01*
X217984185Y-64061112D01*
X218159774Y-64008098D01*
X218342315Y-63990200D01*
X218657717Y-63990200D01*
X218668749Y-63990277D01*
X218668749Y-63990277D01*
G37*
G36*
X223541940Y-65378980D02*
X222639540Y-65378980D01*
X222639540Y-64426580D01*
X223541940Y-64426580D01*
X223541940Y-65378980D01*
X223541940Y-65378980D01*
G37*
G36*
X171647200Y-65004200D02*
X170744800Y-65004200D01*
X170744800Y-64051800D01*
X171647200Y-64051800D01*
X171647200Y-65004200D01*
X171647200Y-65004200D01*
G37*
G36*
X181803200Y-64600200D02*
X180400800Y-64600200D01*
X180400800Y-63447800D01*
X181803200Y-63447800D01*
X181803200Y-64600200D01*
X181803200Y-64600200D01*
G37*
G36*
X223541940Y-63878980D02*
X222639540Y-63878980D01*
X222639540Y-62926580D01*
X223541940Y-62926580D01*
X223541940Y-63878980D01*
X223541940Y-63878980D01*
G37*
G36*
X214872200Y-63329800D02*
X212687800Y-63329800D01*
X212687800Y-61450200D01*
X214872200Y-61450200D01*
X214872200Y-63329800D01*
X214872200Y-63329800D01*
G37*
G36*
X219592200Y-63329800D02*
X217407800Y-63329800D01*
X217407800Y-61450200D01*
X219592200Y-61450200D01*
X219592200Y-63329800D01*
X219592200Y-63329800D01*
G37*
G36*
X177456200Y-63214200D02*
X175603800Y-63214200D01*
X175603800Y-62261800D01*
X177456200Y-62261800D01*
X177456200Y-63214200D01*
X177456200Y-63214200D01*
G37*
G36*
X160468960Y-62249400D02*
X159516560Y-62249400D01*
X159516560Y-61347000D01*
X160468960Y-61347000D01*
X160468960Y-62249400D01*
X160468960Y-62249400D01*
G37*
G36*
X158968960Y-62249400D02*
X158016560Y-62249400D01*
X158016560Y-61347000D01*
X158968960Y-61347000D01*
X158968960Y-62249400D01*
X158968960Y-62249400D01*
G37*
G36*
X205251395Y-57797842D02*
X205260534Y-57797906D01*
X205472366Y-57821667D01*
X205675548Y-57886120D01*
X205862342Y-57988811D01*
X206025632Y-58125828D01*
X206159199Y-58291951D01*
X206257955Y-58480855D01*
X206318139Y-58685342D01*
X206318143Y-58685383D01*
X206318144Y-58685387D01*
X206337459Y-58897623D01*
X206315183Y-59109570D01*
X206315181Y-59109575D01*
X206315177Y-59109617D01*
X206252144Y-59313245D01*
X206150760Y-59500750D01*
X206014886Y-59664993D01*
X205849699Y-59799717D01*
X205661490Y-59899789D01*
X205457428Y-59961399D01*
X205245285Y-59982200D01*
X205234679Y-59982200D01*
X205228605Y-59982158D01*
X205219466Y-59982094D01*
X205007634Y-59958333D01*
X204804452Y-59893880D01*
X204617658Y-59791189D01*
X204454368Y-59654172D01*
X204320801Y-59488049D01*
X204222045Y-59299145D01*
X204161861Y-59094658D01*
X204161857Y-59094617D01*
X204161856Y-59094613D01*
X204142541Y-58882377D01*
X204164817Y-58670430D01*
X204164819Y-58670425D01*
X204164823Y-58670383D01*
X204227856Y-58466755D01*
X204329240Y-58279250D01*
X204465114Y-58115007D01*
X204630301Y-57980283D01*
X204818510Y-57880211D01*
X205022572Y-57818601D01*
X205234715Y-57797800D01*
X205245321Y-57797800D01*
X205251395Y-57797842D01*
X205251395Y-57797842D01*
G37*
G36*
X197038926Y-58002842D02*
X197038931Y-58002844D01*
X197038973Y-58002848D01*
X197214187Y-58057086D01*
X197375529Y-58144323D01*
X197516855Y-58261238D01*
X197632779Y-58403376D01*
X197718888Y-58565323D01*
X197771902Y-58740912D01*
X197789800Y-58923453D01*
X197789800Y-58932580D01*
X197789723Y-58943612D01*
X197789722Y-58943617D01*
X197789708Y-58945669D01*
X197769263Y-59127942D01*
X197713803Y-59302774D01*
X197625442Y-59463503D01*
X197507544Y-59604008D01*
X197364600Y-59718938D01*
X197202055Y-59803914D01*
X197026101Y-59855701D01*
X197026065Y-59855704D01*
X197026056Y-59855707D01*
X196843442Y-59872326D01*
X196661074Y-59853158D01*
X196661069Y-59853156D01*
X196661027Y-59853152D01*
X196485813Y-59798914D01*
X196324471Y-59711677D01*
X196183145Y-59594762D01*
X196067221Y-59452624D01*
X195981112Y-59290677D01*
X195928098Y-59115088D01*
X195910200Y-58932547D01*
X195910200Y-58923420D01*
X195910277Y-58912388D01*
X195910278Y-58912383D01*
X195910292Y-58910331D01*
X195930737Y-58728058D01*
X195986197Y-58553226D01*
X196074558Y-58392497D01*
X196192456Y-58251992D01*
X196335400Y-58137062D01*
X196497945Y-58052086D01*
X196673899Y-58000299D01*
X196673935Y-58000296D01*
X196673944Y-58000293D01*
X196856558Y-57983674D01*
X197038926Y-58002842D01*
X197038926Y-58002842D01*
G37*
G36*
X199578926Y-58002842D02*
X199578931Y-58002844D01*
X199578973Y-58002848D01*
X199754187Y-58057086D01*
X199915529Y-58144323D01*
X200056855Y-58261238D01*
X200172779Y-58403376D01*
X200258888Y-58565323D01*
X200311902Y-58740912D01*
X200329800Y-58923453D01*
X200329800Y-58932580D01*
X200329723Y-58943612D01*
X200329722Y-58943617D01*
X200329708Y-58945669D01*
X200309263Y-59127942D01*
X200253803Y-59302774D01*
X200165442Y-59463503D01*
X200047544Y-59604008D01*
X199904600Y-59718938D01*
X199742055Y-59803914D01*
X199566101Y-59855701D01*
X199566065Y-59855704D01*
X199566056Y-59855707D01*
X199383442Y-59872326D01*
X199201074Y-59853158D01*
X199201069Y-59853156D01*
X199201027Y-59853152D01*
X199025813Y-59798914D01*
X198864471Y-59711677D01*
X198723145Y-59594762D01*
X198607221Y-59452624D01*
X198521112Y-59290677D01*
X198468098Y-59115088D01*
X198450200Y-58932547D01*
X198450200Y-58923420D01*
X198450277Y-58912388D01*
X198450278Y-58912383D01*
X198450292Y-58910331D01*
X198470737Y-58728058D01*
X198526197Y-58553226D01*
X198614558Y-58392497D01*
X198732456Y-58251992D01*
X198875400Y-58137062D01*
X199037945Y-58052086D01*
X199213899Y-58000299D01*
X199213935Y-58000296D01*
X199213944Y-58000293D01*
X199396558Y-57983674D01*
X199578926Y-58002842D01*
X199578926Y-58002842D01*
G37*
G36*
X195249800Y-59867800D02*
X193370200Y-59867800D01*
X193370200Y-57988200D01*
X195249800Y-57988200D01*
X195249800Y-59867800D01*
X195249800Y-59867800D01*
G37*
G36*
X181553200Y-59818920D02*
X180650800Y-59818920D01*
X180650800Y-58866520D01*
X181553200Y-58866520D01*
X181553200Y-59818920D01*
X181553200Y-59818920D01*
G37*
G36*
X161238926Y-56581705D02*
X161238973Y-56581710D01*
X161414187Y-56635948D01*
X161575529Y-56723185D01*
X161716855Y-56840100D01*
X161832779Y-56982238D01*
X161918888Y-57144185D01*
X161971902Y-57319774D01*
X161989800Y-57502315D01*
X161989800Y-57817717D01*
X161989723Y-57828749D01*
X161989722Y-57828754D01*
X161989708Y-57830807D01*
X161969263Y-58013080D01*
X161913803Y-58187912D01*
X161825442Y-58348641D01*
X161707544Y-58489146D01*
X161564600Y-58604076D01*
X161402055Y-58689052D01*
X161226101Y-58740839D01*
X161226060Y-58740843D01*
X161226056Y-58740844D01*
X161043442Y-58757463D01*
X160861074Y-58738295D01*
X160861027Y-58738290D01*
X160685813Y-58684052D01*
X160524471Y-58596815D01*
X160383145Y-58479900D01*
X160267221Y-58337762D01*
X160181112Y-58175815D01*
X160128098Y-58000226D01*
X160110200Y-57817685D01*
X160110200Y-57502283D01*
X160110277Y-57491251D01*
X160110278Y-57491246D01*
X160110292Y-57489193D01*
X160130737Y-57306920D01*
X160186197Y-57132088D01*
X160274558Y-56971359D01*
X160392456Y-56830854D01*
X160535400Y-56715924D01*
X160697945Y-56630948D01*
X160873899Y-56579161D01*
X160873940Y-56579157D01*
X160873944Y-56579156D01*
X161056558Y-56562537D01*
X161238926Y-56581705D01*
X161238926Y-56581705D01*
G37*
G36*
X158698926Y-56581705D02*
X158698973Y-56581710D01*
X158874187Y-56635948D01*
X159035529Y-56723185D01*
X159176855Y-56840100D01*
X159292779Y-56982238D01*
X159378888Y-57144185D01*
X159431902Y-57319774D01*
X159449800Y-57502315D01*
X159449800Y-57817717D01*
X159449723Y-57828749D01*
X159449722Y-57828754D01*
X159449708Y-57830807D01*
X159429263Y-58013080D01*
X159373803Y-58187912D01*
X159285442Y-58348641D01*
X159167544Y-58489146D01*
X159024600Y-58604076D01*
X158862055Y-58689052D01*
X158686101Y-58740839D01*
X158686060Y-58740843D01*
X158686056Y-58740844D01*
X158503442Y-58757463D01*
X158321074Y-58738295D01*
X158321027Y-58738290D01*
X158145813Y-58684052D01*
X157984471Y-58596815D01*
X157843145Y-58479900D01*
X157727221Y-58337762D01*
X157641112Y-58175815D01*
X157588098Y-58000226D01*
X157570200Y-57817685D01*
X157570200Y-57502283D01*
X157570277Y-57491251D01*
X157570278Y-57491246D01*
X157570292Y-57489193D01*
X157590737Y-57306920D01*
X157646197Y-57132088D01*
X157734558Y-56971359D01*
X157852456Y-56830854D01*
X157995400Y-56715924D01*
X158157945Y-56630948D01*
X158333899Y-56579161D01*
X158333940Y-56579157D01*
X158333944Y-56579156D01*
X158516558Y-56562537D01*
X158698926Y-56581705D01*
X158698926Y-56581705D01*
G37*
G36*
X168858926Y-56581705D02*
X168858973Y-56581710D01*
X169034187Y-56635948D01*
X169195529Y-56723185D01*
X169336855Y-56840100D01*
X169452779Y-56982238D01*
X169538888Y-57144185D01*
X169591902Y-57319774D01*
X169609800Y-57502315D01*
X169609800Y-57817717D01*
X169609723Y-57828749D01*
X169609722Y-57828754D01*
X169609708Y-57830807D01*
X169589263Y-58013080D01*
X169533803Y-58187912D01*
X169445442Y-58348641D01*
X169327544Y-58489146D01*
X169184600Y-58604076D01*
X169022055Y-58689052D01*
X168846101Y-58740839D01*
X168846060Y-58740843D01*
X168846056Y-58740844D01*
X168663442Y-58757463D01*
X168481074Y-58738295D01*
X168481027Y-58738290D01*
X168305813Y-58684052D01*
X168144471Y-58596815D01*
X168003145Y-58479900D01*
X167887221Y-58337762D01*
X167801112Y-58175815D01*
X167748098Y-58000226D01*
X167730200Y-57817685D01*
X167730200Y-57502283D01*
X167730277Y-57491251D01*
X167730278Y-57491246D01*
X167730292Y-57489193D01*
X167750737Y-57306920D01*
X167806197Y-57132088D01*
X167894558Y-56971359D01*
X168012456Y-56830854D01*
X168155400Y-56715924D01*
X168317945Y-56630948D01*
X168493899Y-56579161D01*
X168493940Y-56579157D01*
X168493944Y-56579156D01*
X168676558Y-56562537D01*
X168858926Y-56581705D01*
X168858926Y-56581705D01*
G37*
G36*
X166318926Y-56581705D02*
X166318973Y-56581710D01*
X166494187Y-56635948D01*
X166655529Y-56723185D01*
X166796855Y-56840100D01*
X166912779Y-56982238D01*
X166998888Y-57144185D01*
X167051902Y-57319774D01*
X167069800Y-57502315D01*
X167069800Y-57817717D01*
X167069723Y-57828749D01*
X167069722Y-57828754D01*
X167069708Y-57830807D01*
X167049263Y-58013080D01*
X166993803Y-58187912D01*
X166905442Y-58348641D01*
X166787544Y-58489146D01*
X166644600Y-58604076D01*
X166482055Y-58689052D01*
X166306101Y-58740839D01*
X166306060Y-58740843D01*
X166306056Y-58740844D01*
X166123442Y-58757463D01*
X165941074Y-58738295D01*
X165941027Y-58738290D01*
X165765813Y-58684052D01*
X165604471Y-58596815D01*
X165463145Y-58479900D01*
X165347221Y-58337762D01*
X165261112Y-58175815D01*
X165208098Y-58000226D01*
X165190200Y-57817685D01*
X165190200Y-57502283D01*
X165190277Y-57491251D01*
X165190278Y-57491246D01*
X165190292Y-57489193D01*
X165210737Y-57306920D01*
X165266197Y-57132088D01*
X165354558Y-56971359D01*
X165472456Y-56830854D01*
X165615400Y-56715924D01*
X165777945Y-56630948D01*
X165953899Y-56579161D01*
X165953940Y-56579157D01*
X165953944Y-56579156D01*
X166136558Y-56562537D01*
X166318926Y-56581705D01*
X166318926Y-56581705D01*
G37*
G36*
X163778926Y-56581705D02*
X163778973Y-56581710D01*
X163954187Y-56635948D01*
X164115529Y-56723185D01*
X164256855Y-56840100D01*
X164372779Y-56982238D01*
X164458888Y-57144185D01*
X164511902Y-57319774D01*
X164529800Y-57502315D01*
X164529800Y-57817717D01*
X164529723Y-57828749D01*
X164529722Y-57828754D01*
X164529708Y-57830807D01*
X164509263Y-58013080D01*
X164453803Y-58187912D01*
X164365442Y-58348641D01*
X164247544Y-58489146D01*
X164104600Y-58604076D01*
X163942055Y-58689052D01*
X163766101Y-58740839D01*
X163766060Y-58740843D01*
X163766056Y-58740844D01*
X163583442Y-58757463D01*
X163401074Y-58738295D01*
X163401027Y-58738290D01*
X163225813Y-58684052D01*
X163064471Y-58596815D01*
X162923145Y-58479900D01*
X162807221Y-58337762D01*
X162721112Y-58175815D01*
X162668098Y-58000226D01*
X162650200Y-57817685D01*
X162650200Y-57502283D01*
X162650277Y-57491251D01*
X162650278Y-57491246D01*
X162650292Y-57489193D01*
X162670737Y-57306920D01*
X162726197Y-57132088D01*
X162814558Y-56971359D01*
X162932456Y-56830854D01*
X163075400Y-56715924D01*
X163237945Y-56630948D01*
X163413899Y-56579161D01*
X163413940Y-56579157D01*
X163413944Y-56579156D01*
X163596558Y-56562537D01*
X163778926Y-56581705D01*
X163778926Y-56581705D01*
G37*
G36*
X172149800Y-58752200D02*
X170270200Y-58752200D01*
X170270200Y-56567800D01*
X172149800Y-56567800D01*
X172149800Y-58752200D01*
X172149800Y-58752200D01*
G37*
G36*
X181553200Y-58318920D02*
X180650800Y-58318920D01*
X180650800Y-57366520D01*
X181553200Y-57366520D01*
X181553200Y-58318920D01*
X181553200Y-58318920D01*
G37*
G36*
X206332200Y-57442200D02*
X204147800Y-57442200D01*
X204147800Y-55257800D01*
X206332200Y-55257800D01*
X206332200Y-57442200D01*
X206332200Y-57442200D01*
G37*
G36*
X199578926Y-55462842D02*
X199578931Y-55462844D01*
X199578973Y-55462848D01*
X199754187Y-55517086D01*
X199915529Y-55604323D01*
X200056855Y-55721238D01*
X200172779Y-55863376D01*
X200258888Y-56025323D01*
X200311902Y-56200912D01*
X200329800Y-56383453D01*
X200329800Y-56392580D01*
X200329723Y-56403612D01*
X200329722Y-56403617D01*
X200329708Y-56405669D01*
X200309263Y-56587942D01*
X200253803Y-56762774D01*
X200165442Y-56923503D01*
X200047544Y-57064008D01*
X199904600Y-57178938D01*
X199742055Y-57263914D01*
X199566101Y-57315701D01*
X199566065Y-57315704D01*
X199566056Y-57315707D01*
X199383442Y-57332326D01*
X199201074Y-57313158D01*
X199201069Y-57313156D01*
X199201027Y-57313152D01*
X199025813Y-57258914D01*
X198864471Y-57171677D01*
X198723145Y-57054762D01*
X198607221Y-56912624D01*
X198521112Y-56750677D01*
X198468098Y-56575088D01*
X198450200Y-56392547D01*
X198450200Y-56383420D01*
X198450277Y-56372388D01*
X198450278Y-56372383D01*
X198450292Y-56370331D01*
X198470737Y-56188058D01*
X198526197Y-56013226D01*
X198614558Y-55852497D01*
X198732456Y-55711992D01*
X198875400Y-55597062D01*
X199037945Y-55512086D01*
X199213899Y-55460299D01*
X199213935Y-55460296D01*
X199213944Y-55460293D01*
X199396558Y-55443674D01*
X199578926Y-55462842D01*
X199578926Y-55462842D01*
G37*
G36*
X197038926Y-55462842D02*
X197038931Y-55462844D01*
X197038973Y-55462848D01*
X197214187Y-55517086D01*
X197375529Y-55604323D01*
X197516855Y-55721238D01*
X197632779Y-55863376D01*
X197718888Y-56025323D01*
X197771902Y-56200912D01*
X197789800Y-56383453D01*
X197789800Y-56392580D01*
X197789723Y-56403612D01*
X197789722Y-56403617D01*
X197789708Y-56405669D01*
X197769263Y-56587942D01*
X197713803Y-56762774D01*
X197625442Y-56923503D01*
X197507544Y-57064008D01*
X197364600Y-57178938D01*
X197202055Y-57263914D01*
X197026101Y-57315701D01*
X197026065Y-57315704D01*
X197026056Y-57315707D01*
X196843442Y-57332326D01*
X196661074Y-57313158D01*
X196661069Y-57313156D01*
X196661027Y-57313152D01*
X196485813Y-57258914D01*
X196324471Y-57171677D01*
X196183145Y-57054762D01*
X196067221Y-56912624D01*
X195981112Y-56750677D01*
X195928098Y-56575088D01*
X195910200Y-56392547D01*
X195910200Y-56383420D01*
X195910277Y-56372388D01*
X195910278Y-56372383D01*
X195910292Y-56370331D01*
X195930737Y-56188058D01*
X195986197Y-56013226D01*
X196074558Y-55852497D01*
X196192456Y-55711992D01*
X196335400Y-55597062D01*
X196497945Y-55512086D01*
X196673899Y-55460299D01*
X196673935Y-55460296D01*
X196673944Y-55460293D01*
X196856558Y-55443674D01*
X197038926Y-55462842D01*
X197038926Y-55462842D01*
G37*
G36*
X194498926Y-55462842D02*
X194498931Y-55462844D01*
X194498973Y-55462848D01*
X194674187Y-55517086D01*
X194835529Y-55604323D01*
X194976855Y-55721238D01*
X195092779Y-55863376D01*
X195178888Y-56025323D01*
X195231902Y-56200912D01*
X195249800Y-56383453D01*
X195249800Y-56392580D01*
X195249723Y-56403612D01*
X195249722Y-56403617D01*
X195249708Y-56405669D01*
X195229263Y-56587942D01*
X195173803Y-56762774D01*
X195085442Y-56923503D01*
X194967544Y-57064008D01*
X194824600Y-57178938D01*
X194662055Y-57263914D01*
X194486101Y-57315701D01*
X194486065Y-57315704D01*
X194486056Y-57315707D01*
X194303442Y-57332326D01*
X194121074Y-57313158D01*
X194121069Y-57313156D01*
X194121027Y-57313152D01*
X193945813Y-57258914D01*
X193784471Y-57171677D01*
X193643145Y-57054762D01*
X193527221Y-56912624D01*
X193441112Y-56750677D01*
X193388098Y-56575088D01*
X193370200Y-56392547D01*
X193370200Y-56383420D01*
X193370277Y-56372388D01*
X193370278Y-56372383D01*
X193370292Y-56370331D01*
X193390737Y-56188058D01*
X193446197Y-56013226D01*
X193534558Y-55852497D01*
X193652456Y-55711992D01*
X193795400Y-55597062D01*
X193957945Y-55512086D01*
X194133899Y-55460299D01*
X194133935Y-55460296D01*
X194133944Y-55460293D01*
X194316558Y-55443674D01*
X194498926Y-55462842D01*
X194498926Y-55462842D01*
G37*
G36*
X211091160Y-56798560D02*
X210138760Y-56798560D01*
X210138760Y-55896160D01*
X211091160Y-55896160D01*
X211091160Y-56798560D01*
X211091160Y-56798560D01*
G37*
G36*
X209591160Y-56798560D02*
X208638760Y-56798560D01*
X208638760Y-55896160D01*
X209591160Y-55896160D01*
X209591160Y-56798560D01*
X209591160Y-56798560D01*
G37*
M02*
