G04 #@! TF.FileFunction,Paste,Top*
%FSLAX46Y46*%
G04 Gerber Fmt 4.6, Leading zero omitted, Abs format (unit mm)*
G04 Created by KiCad (PCBNEW 4.0.6) date Sat Aug 26 00:36:03 2017*
%MOMM*%
%LPD*%
G01*
G04 APERTURE LIST*
%ADD10C,0.100000*%
%ADD11R,1.447600X0.397600*%
%ADD12R,0.397600X1.447600*%
%ADD13R,0.597600X0.647600*%
%ADD14R,0.647600X0.597600*%
%ADD15R,1.097600X0.847600*%
%ADD16R,1.547600X0.647600*%
%ADD17R,1.752600X1.244600*%
G04 APERTURE END LIST*
D10*
D11*
X162374000Y-79496000D03*
X162374000Y-80296000D03*
X162374000Y-81096000D03*
X162374000Y-81896000D03*
X162374000Y-82696000D03*
X162374000Y-83496000D03*
X162374000Y-84296000D03*
X162374000Y-85096000D03*
D12*
X163824000Y-86546000D03*
X164624000Y-86546000D03*
X165424000Y-86546000D03*
X166224000Y-86546000D03*
X167024000Y-86546000D03*
X167824000Y-86546000D03*
X168624000Y-86546000D03*
X169424000Y-86546000D03*
D11*
X170874000Y-85096000D03*
X170874000Y-84296000D03*
X170874000Y-83496000D03*
X170874000Y-82696000D03*
X170874000Y-81896000D03*
X170874000Y-81096000D03*
X170874000Y-80296000D03*
X170874000Y-79496000D03*
D12*
X169424000Y-78046000D03*
X168624000Y-78046000D03*
X167824000Y-78046000D03*
X167024000Y-78046000D03*
X166224000Y-78046000D03*
X165424000Y-78046000D03*
X164624000Y-78046000D03*
X163824000Y-78046000D03*
D13*
X171196000Y-66028000D03*
X171196000Y-64528000D03*
D14*
X141720000Y-71060000D03*
X140220000Y-71060000D03*
D13*
X133970000Y-77220000D03*
X133970000Y-75720000D03*
X181102000Y-59342720D03*
X181102000Y-57842720D03*
D14*
X159992760Y-61798200D03*
X158492760Y-61798200D03*
X209114960Y-56347360D03*
X210614960Y-56347360D03*
D13*
X223090740Y-64902780D03*
X223090740Y-63402780D03*
X184244200Y-95485600D03*
X184244200Y-96985600D03*
D15*
X181102000Y-64024000D03*
X181102000Y-66024000D03*
D13*
X184299600Y-101035200D03*
X184299600Y-99535200D03*
D16*
X176530000Y-66138000D03*
X176530000Y-62738000D03*
D17*
X139305600Y-77223200D03*
X143776000Y-77223200D03*
X139305600Y-74734000D03*
X143776000Y-74734000D03*
M02*
