G04 #@! TF.FileFunction,Legend,Top*
%FSLAX46Y46*%
G04 Gerber Fmt 4.6, Leading zero omitted, Abs format (unit mm)*
G04 Created by KiCad (PCBNEW 4.0.6) date Sat Aug 26 00:36:03 2017*
%MOMM*%
%LPD*%
G01*
G04 APERTURE LIST*
%ADD10C,0.100000*%
%ADD11C,0.177800*%
%ADD12C,0.152400*%
%ADD13C,0.150000*%
%ADD14C,0.254000*%
%ADD15C,0.010000*%
G04 APERTURE END LIST*
D10*
D11*
X126860300Y-63884629D02*
X126860300Y-65118343D01*
X126787729Y-65263486D01*
X126715157Y-65336057D01*
X126570014Y-65408629D01*
X126352300Y-65408629D01*
X126207157Y-65336057D01*
X126860300Y-64828057D02*
X126715157Y-64900629D01*
X126424871Y-64900629D01*
X126279729Y-64828057D01*
X126207157Y-64755486D01*
X126134586Y-64610343D01*
X126134586Y-64174914D01*
X126207157Y-64029771D01*
X126279729Y-63957200D01*
X126424871Y-63884629D01*
X126715157Y-63884629D01*
X126860300Y-63957200D01*
X127586014Y-64900629D02*
X127586014Y-63884629D01*
X127586014Y-63376629D02*
X127513443Y-63449200D01*
X127586014Y-63521771D01*
X127658586Y-63449200D01*
X127586014Y-63376629D01*
X127586014Y-63521771D01*
X128094014Y-63884629D02*
X128674585Y-63884629D01*
X128311728Y-63376629D02*
X128311728Y-64682914D01*
X128384300Y-64828057D01*
X128529442Y-64900629D01*
X128674585Y-64900629D01*
X129182585Y-64900629D02*
X129182585Y-63376629D01*
X129835728Y-64900629D02*
X129835728Y-64102343D01*
X129763157Y-63957200D01*
X129618014Y-63884629D01*
X129400299Y-63884629D01*
X129255157Y-63957200D01*
X129182585Y-64029771D01*
X131214585Y-63884629D02*
X131214585Y-64900629D01*
X130561442Y-63884629D02*
X130561442Y-64682914D01*
X130634014Y-64828057D01*
X130779156Y-64900629D01*
X130996871Y-64900629D01*
X131142014Y-64828057D01*
X131214585Y-64755486D01*
X131940299Y-64900629D02*
X131940299Y-63376629D01*
X131940299Y-63957200D02*
X132085442Y-63884629D01*
X132375728Y-63884629D01*
X132520871Y-63957200D01*
X132593442Y-64029771D01*
X132666013Y-64174914D01*
X132666013Y-64610343D01*
X132593442Y-64755486D01*
X132520871Y-64828057D01*
X132375728Y-64900629D01*
X132085442Y-64900629D01*
X131940299Y-64828057D01*
X133319156Y-64755486D02*
X133391728Y-64828057D01*
X133319156Y-64900629D01*
X133246585Y-64828057D01*
X133319156Y-64755486D01*
X133319156Y-64900629D01*
X134698013Y-64828057D02*
X134552870Y-64900629D01*
X134262584Y-64900629D01*
X134117442Y-64828057D01*
X134044870Y-64755486D01*
X133972299Y-64610343D01*
X133972299Y-64174914D01*
X134044870Y-64029771D01*
X134117442Y-63957200D01*
X134262584Y-63884629D01*
X134552870Y-63884629D01*
X134698013Y-63957200D01*
X135568870Y-64900629D02*
X135423728Y-64828057D01*
X135351156Y-64755486D01*
X135278585Y-64610343D01*
X135278585Y-64174914D01*
X135351156Y-64029771D01*
X135423728Y-63957200D01*
X135568870Y-63884629D01*
X135786585Y-63884629D01*
X135931728Y-63957200D01*
X136004299Y-64029771D01*
X136076870Y-64174914D01*
X136076870Y-64610343D01*
X136004299Y-64755486D01*
X135931728Y-64828057D01*
X135786585Y-64900629D01*
X135568870Y-64900629D01*
X136730013Y-64900629D02*
X136730013Y-63884629D01*
X136730013Y-64029771D02*
X136802585Y-63957200D01*
X136947727Y-63884629D01*
X137165442Y-63884629D01*
X137310585Y-63957200D01*
X137383156Y-64102343D01*
X137383156Y-64900629D01*
X137383156Y-64102343D02*
X137455727Y-63957200D01*
X137600870Y-63884629D01*
X137818585Y-63884629D01*
X137963727Y-63957200D01*
X138036299Y-64102343D01*
X138036299Y-64900629D01*
X139850585Y-63304057D02*
X138544299Y-65263486D01*
X140358584Y-63884629D02*
X140358584Y-65408629D01*
X140358584Y-63957200D02*
X140503727Y-63884629D01*
X140794013Y-63884629D01*
X140939156Y-63957200D01*
X141011727Y-64029771D01*
X141084298Y-64174914D01*
X141084298Y-64610343D01*
X141011727Y-64755486D01*
X140939156Y-64828057D01*
X140794013Y-64900629D01*
X140503727Y-64900629D01*
X140358584Y-64828057D01*
X142390584Y-64900629D02*
X142390584Y-63376629D01*
X142390584Y-64828057D02*
X142245441Y-64900629D01*
X141955155Y-64900629D01*
X141810013Y-64828057D01*
X141737441Y-64755486D01*
X141664870Y-64610343D01*
X141664870Y-64174914D01*
X141737441Y-64029771D01*
X141810013Y-63957200D01*
X141955155Y-63884629D01*
X142245441Y-63884629D01*
X142390584Y-63957200D01*
X143116298Y-63884629D02*
X143116298Y-65408629D01*
X143116298Y-63957200D02*
X143261441Y-63884629D01*
X143551727Y-63884629D01*
X143696870Y-63957200D01*
X143769441Y-64029771D01*
X143842012Y-64174914D01*
X143842012Y-64610343D01*
X143769441Y-64755486D01*
X143696870Y-64828057D01*
X143551727Y-64900629D01*
X143261441Y-64900629D01*
X143116298Y-64828057D01*
X144350012Y-63376629D02*
X145366012Y-63376629D01*
X144712869Y-64900629D01*
X147035156Y-63304057D02*
X145728870Y-65263486D01*
X148196298Y-64828057D02*
X148051155Y-64900629D01*
X147760869Y-64900629D01*
X147615727Y-64828057D01*
X147543155Y-64755486D01*
X147470584Y-64610343D01*
X147470584Y-64174914D01*
X147543155Y-64029771D01*
X147615727Y-63957200D01*
X147760869Y-63884629D01*
X148051155Y-63884629D01*
X148196298Y-63957200D01*
X149067155Y-64900629D02*
X148922013Y-64828057D01*
X148849441Y-64755486D01*
X148776870Y-64610343D01*
X148776870Y-64174914D01*
X148849441Y-64029771D01*
X148922013Y-63957200D01*
X149067155Y-63884629D01*
X149284870Y-63884629D01*
X149430013Y-63957200D01*
X149502584Y-64029771D01*
X149575155Y-64174914D01*
X149575155Y-64610343D01*
X149502584Y-64755486D01*
X149430013Y-64828057D01*
X149284870Y-64900629D01*
X149067155Y-64900629D01*
X150228298Y-63884629D02*
X150228298Y-64900629D01*
X150228298Y-64029771D02*
X150300870Y-63957200D01*
X150446012Y-63884629D01*
X150663727Y-63884629D01*
X150808870Y-63957200D01*
X150881441Y-64102343D01*
X150881441Y-64900629D01*
X151534584Y-64828057D02*
X151679727Y-64900629D01*
X151970012Y-64900629D01*
X152115155Y-64828057D01*
X152187727Y-64682914D01*
X152187727Y-64610343D01*
X152115155Y-64465200D01*
X151970012Y-64392629D01*
X151752298Y-64392629D01*
X151607155Y-64320057D01*
X151534584Y-64174914D01*
X151534584Y-64102343D01*
X151607155Y-63957200D01*
X151752298Y-63884629D01*
X151970012Y-63884629D01*
X152115155Y-63957200D01*
X153058583Y-64900629D02*
X152913441Y-64828057D01*
X152840869Y-64755486D01*
X152768298Y-64610343D01*
X152768298Y-64174914D01*
X152840869Y-64029771D01*
X152913441Y-63957200D01*
X153058583Y-63884629D01*
X153276298Y-63884629D01*
X153421441Y-63957200D01*
X153494012Y-64029771D01*
X153566583Y-64174914D01*
X153566583Y-64610343D01*
X153494012Y-64755486D01*
X153421441Y-64828057D01*
X153276298Y-64900629D01*
X153058583Y-64900629D01*
X154437440Y-64900629D02*
X154292298Y-64828057D01*
X154219726Y-64682914D01*
X154219726Y-63376629D01*
X155598584Y-64828057D02*
X155453441Y-64900629D01*
X155163155Y-64900629D01*
X155018012Y-64828057D01*
X154945441Y-64682914D01*
X154945441Y-64102343D01*
X155018012Y-63957200D01*
X155163155Y-63884629D01*
X155453441Y-63884629D01*
X155598584Y-63957200D01*
X155671155Y-64102343D01*
X155671155Y-64247486D01*
X154945441Y-64392629D01*
X156324298Y-64320057D02*
X157485441Y-64320057D01*
X158864298Y-64828057D02*
X158719155Y-64900629D01*
X158428869Y-64900629D01*
X158283727Y-64828057D01*
X158211155Y-64755486D01*
X158138584Y-64610343D01*
X158138584Y-64174914D01*
X158211155Y-64029771D01*
X158283727Y-63957200D01*
X158428869Y-63884629D01*
X158719155Y-63884629D01*
X158864298Y-63957200D01*
X160170584Y-64900629D02*
X160170584Y-64102343D01*
X160098013Y-63957200D01*
X159952870Y-63884629D01*
X159662584Y-63884629D01*
X159517441Y-63957200D01*
X160170584Y-64828057D02*
X160025441Y-64900629D01*
X159662584Y-64900629D01*
X159517441Y-64828057D01*
X159444870Y-64682914D01*
X159444870Y-64537771D01*
X159517441Y-64392629D01*
X159662584Y-64320057D01*
X160025441Y-64320057D01*
X160170584Y-64247486D01*
X160896298Y-63884629D02*
X160896298Y-65408629D01*
X160896298Y-63957200D02*
X161041441Y-63884629D01*
X161331727Y-63884629D01*
X161476870Y-63957200D01*
X161549441Y-64029771D01*
X161622012Y-64174914D01*
X161622012Y-64610343D01*
X161549441Y-64755486D01*
X161476870Y-64828057D01*
X161331727Y-64900629D01*
X161041441Y-64900629D01*
X160896298Y-64828057D01*
X162855727Y-64828057D02*
X162710584Y-64900629D01*
X162420298Y-64900629D01*
X162275155Y-64828057D01*
X162202584Y-64682914D01*
X162202584Y-64102343D01*
X162275155Y-63957200D01*
X162420298Y-63884629D01*
X162710584Y-63884629D01*
X162855727Y-63957200D01*
X162928298Y-64102343D01*
X162928298Y-64247486D01*
X162202584Y-64392629D01*
X127078014Y-67219286D02*
X127005443Y-67291857D01*
X126787729Y-67364429D01*
X126642586Y-67364429D01*
X126424871Y-67291857D01*
X126279729Y-67146714D01*
X126207157Y-67001571D01*
X126134586Y-66711286D01*
X126134586Y-66493571D01*
X126207157Y-66203286D01*
X126279729Y-66058143D01*
X126424871Y-65913000D01*
X126642586Y-65840429D01*
X126787729Y-65840429D01*
X127005443Y-65913000D01*
X127078014Y-65985571D01*
X127948871Y-67364429D02*
X127803729Y-67291857D01*
X127731157Y-67219286D01*
X127658586Y-67074143D01*
X127658586Y-66638714D01*
X127731157Y-66493571D01*
X127803729Y-66421000D01*
X127948871Y-66348429D01*
X128166586Y-66348429D01*
X128311729Y-66421000D01*
X128384300Y-66493571D01*
X128456871Y-66638714D01*
X128456871Y-67074143D01*
X128384300Y-67219286D01*
X128311729Y-67291857D01*
X128166586Y-67364429D01*
X127948871Y-67364429D01*
X129110014Y-66348429D02*
X129110014Y-67364429D01*
X129110014Y-66493571D02*
X129182586Y-66421000D01*
X129327728Y-66348429D01*
X129545443Y-66348429D01*
X129690586Y-66421000D01*
X129763157Y-66566143D01*
X129763157Y-67364429D01*
X130416300Y-67291857D02*
X130561443Y-67364429D01*
X130851728Y-67364429D01*
X130996871Y-67291857D01*
X131069443Y-67146714D01*
X131069443Y-67074143D01*
X130996871Y-66929000D01*
X130851728Y-66856429D01*
X130634014Y-66856429D01*
X130488871Y-66783857D01*
X130416300Y-66638714D01*
X130416300Y-66566143D01*
X130488871Y-66421000D01*
X130634014Y-66348429D01*
X130851728Y-66348429D01*
X130996871Y-66421000D01*
X131940299Y-67364429D02*
X131795157Y-67291857D01*
X131722585Y-67219286D01*
X131650014Y-67074143D01*
X131650014Y-66638714D01*
X131722585Y-66493571D01*
X131795157Y-66421000D01*
X131940299Y-66348429D01*
X132158014Y-66348429D01*
X132303157Y-66421000D01*
X132375728Y-66493571D01*
X132448299Y-66638714D01*
X132448299Y-67074143D01*
X132375728Y-67219286D01*
X132303157Y-67291857D01*
X132158014Y-67364429D01*
X131940299Y-67364429D01*
X133319156Y-67364429D02*
X133174014Y-67291857D01*
X133101442Y-67146714D01*
X133101442Y-65840429D01*
X134480300Y-67291857D02*
X134335157Y-67364429D01*
X134044871Y-67364429D01*
X133899728Y-67291857D01*
X133827157Y-67146714D01*
X133827157Y-66566143D01*
X133899728Y-66421000D01*
X134044871Y-66348429D01*
X134335157Y-66348429D01*
X134480300Y-66421000D01*
X134552871Y-66566143D01*
X134552871Y-66711286D01*
X133827157Y-66856429D01*
X137238014Y-67219286D02*
X137165443Y-67291857D01*
X136947729Y-67364429D01*
X136802586Y-67364429D01*
X136584871Y-67291857D01*
X136439729Y-67146714D01*
X136367157Y-67001571D01*
X136294586Y-66711286D01*
X136294586Y-66493571D01*
X136367157Y-66203286D01*
X136439729Y-66058143D01*
X136584871Y-65913000D01*
X136802586Y-65840429D01*
X136947729Y-65840429D01*
X137165443Y-65913000D01*
X137238014Y-65985571D01*
X138544300Y-67364429D02*
X138544300Y-66566143D01*
X138471729Y-66421000D01*
X138326586Y-66348429D01*
X138036300Y-66348429D01*
X137891157Y-66421000D01*
X138544300Y-67291857D02*
X138399157Y-67364429D01*
X138036300Y-67364429D01*
X137891157Y-67291857D01*
X137818586Y-67146714D01*
X137818586Y-67001571D01*
X137891157Y-66856429D01*
X138036300Y-66783857D01*
X138399157Y-66783857D01*
X138544300Y-66711286D01*
X139270014Y-66348429D02*
X139270014Y-67872429D01*
X139270014Y-66421000D02*
X139415157Y-66348429D01*
X139705443Y-66348429D01*
X139850586Y-66421000D01*
X139923157Y-66493571D01*
X139995728Y-66638714D01*
X139995728Y-67074143D01*
X139923157Y-67219286D01*
X139850586Y-67291857D01*
X139705443Y-67364429D01*
X139415157Y-67364429D01*
X139270014Y-67291857D01*
X141229443Y-67291857D02*
X141084300Y-67364429D01*
X140794014Y-67364429D01*
X140648871Y-67291857D01*
X140576300Y-67146714D01*
X140576300Y-66566143D01*
X140648871Y-66421000D01*
X140794014Y-66348429D01*
X141084300Y-66348429D01*
X141229443Y-66421000D01*
X141302014Y-66566143D01*
X141302014Y-66711286D01*
X140576300Y-66856429D01*
X143116300Y-67364429D02*
X143116300Y-66348429D01*
X143116300Y-66638714D02*
X143188872Y-66493571D01*
X143261443Y-66421000D01*
X143406586Y-66348429D01*
X143551729Y-66348429D01*
X144640301Y-67291857D02*
X144495158Y-67364429D01*
X144204872Y-67364429D01*
X144059729Y-67291857D01*
X143987158Y-67146714D01*
X143987158Y-66566143D01*
X144059729Y-66421000D01*
X144204872Y-66348429D01*
X144495158Y-66348429D01*
X144640301Y-66421000D01*
X144712872Y-66566143D01*
X144712872Y-66711286D01*
X143987158Y-66856429D01*
X145220872Y-66348429D02*
X145583729Y-67364429D01*
X145946587Y-66348429D01*
X148486587Y-67364429D02*
X147615730Y-67364429D01*
X148051158Y-67364429D02*
X148051158Y-65840429D01*
X147906015Y-66058143D01*
X147760873Y-66203286D01*
X147615730Y-66275857D01*
X151897445Y-67945000D02*
X151824873Y-67872429D01*
X151679730Y-67654714D01*
X151607159Y-67509571D01*
X151534588Y-67291857D01*
X151462016Y-66929000D01*
X151462016Y-66638714D01*
X151534588Y-66275857D01*
X151607159Y-66058143D01*
X151679730Y-65913000D01*
X151824873Y-65695286D01*
X151897445Y-65622714D01*
X152695730Y-66493571D02*
X152550588Y-66421000D01*
X152478016Y-66348429D01*
X152405445Y-66203286D01*
X152405445Y-66130714D01*
X152478016Y-65985571D01*
X152550588Y-65913000D01*
X152695730Y-65840429D01*
X152986016Y-65840429D01*
X153131159Y-65913000D01*
X153203730Y-65985571D01*
X153276302Y-66130714D01*
X153276302Y-66203286D01*
X153203730Y-66348429D01*
X153131159Y-66421000D01*
X152986016Y-66493571D01*
X152695730Y-66493571D01*
X152550588Y-66566143D01*
X152478016Y-66638714D01*
X152405445Y-66783857D01*
X152405445Y-67074143D01*
X152478016Y-67219286D01*
X152550588Y-67291857D01*
X152695730Y-67364429D01*
X152986016Y-67364429D01*
X153131159Y-67291857D01*
X153203730Y-67219286D01*
X153276302Y-67074143D01*
X153276302Y-66783857D01*
X153203730Y-66638714D01*
X153131159Y-66566143D01*
X152986016Y-66493571D01*
X155018017Y-65767857D02*
X153711731Y-67727286D01*
X155453445Y-65985571D02*
X155526016Y-65913000D01*
X155671159Y-65840429D01*
X156034016Y-65840429D01*
X156179159Y-65913000D01*
X156251730Y-65985571D01*
X156324302Y-66130714D01*
X156324302Y-66275857D01*
X156251730Y-66493571D01*
X155380873Y-67364429D01*
X156324302Y-67364429D01*
X157703159Y-65840429D02*
X156977445Y-65840429D01*
X156904874Y-66566143D01*
X156977445Y-66493571D01*
X157122588Y-66421000D01*
X157485445Y-66421000D01*
X157630588Y-66493571D01*
X157703159Y-66566143D01*
X157775731Y-66711286D01*
X157775731Y-67074143D01*
X157703159Y-67219286D01*
X157630588Y-67291857D01*
X157485445Y-67364429D01*
X157122588Y-67364429D01*
X156977445Y-67291857D01*
X156904874Y-67219286D01*
X159517446Y-65767857D02*
X158211160Y-67727286D01*
X160823731Y-67364429D02*
X159952874Y-67364429D01*
X160388302Y-67364429D02*
X160388302Y-65840429D01*
X160243159Y-66058143D01*
X160098017Y-66203286D01*
X159952874Y-66275857D01*
X161331731Y-65840429D02*
X162347731Y-65840429D01*
X161694588Y-67364429D01*
X162783160Y-67945000D02*
X162855732Y-67872429D01*
X163000875Y-67654714D01*
X163073446Y-67509571D01*
X163146017Y-67291857D01*
X163218589Y-66929000D01*
X163218589Y-66638714D01*
X163146017Y-66275857D01*
X163073446Y-66058143D01*
X163000875Y-65913000D01*
X162855732Y-65695286D01*
X162783160Y-65622714D01*
D12*
X204465905Y-60832000D02*
X204369143Y-60783619D01*
X204224000Y-60783619D01*
X204078858Y-60832000D01*
X203982096Y-60928762D01*
X203933715Y-61025524D01*
X203885334Y-61219048D01*
X203885334Y-61364190D01*
X203933715Y-61557714D01*
X203982096Y-61654476D01*
X204078858Y-61751238D01*
X204224000Y-61799619D01*
X204320762Y-61799619D01*
X204465905Y-61751238D01*
X204514286Y-61702857D01*
X204514286Y-61364190D01*
X204320762Y-61364190D01*
X204949715Y-61799619D02*
X204949715Y-60783619D01*
X205530286Y-61799619D01*
X205530286Y-60783619D01*
X206014096Y-61799619D02*
X206014096Y-60783619D01*
X206256001Y-60783619D01*
X206401143Y-60832000D01*
X206497905Y-60928762D01*
X206546286Y-61025524D01*
X206594667Y-61219048D01*
X206594667Y-61364190D01*
X206546286Y-61557714D01*
X206497905Y-61654476D01*
X206401143Y-61751238D01*
X206256001Y-61799619D01*
X206014096Y-61799619D01*
X204147238Y-53243619D02*
X204485905Y-54259619D01*
X204824571Y-53243619D01*
X205163238Y-54259619D02*
X205163238Y-53243619D01*
X205647048Y-54259619D02*
X205647048Y-53243619D01*
X206227619Y-54259619D01*
X206227619Y-53243619D01*
X163195000Y-77660500D02*
X162052000Y-78803500D01*
D13*
X170249000Y-78671000D02*
X170249000Y-78996000D01*
X170249000Y-85921000D02*
X170249000Y-85596000D01*
X162999000Y-85921000D02*
X162999000Y-85596000D01*
X162999000Y-85921000D02*
X163324000Y-85921000D01*
X170249000Y-85921000D02*
X169924000Y-85921000D01*
X170249000Y-78671000D02*
X169924000Y-78671000D01*
D12*
X170561000Y-66675000D02*
X171831000Y-66675000D01*
X170561000Y-63944500D02*
X171831000Y-63944500D01*
D13*
X170561000Y-66675000D02*
X170561000Y-63944500D01*
X171831000Y-63944500D02*
X171831000Y-66675000D01*
D12*
X142367000Y-71695000D02*
X142367000Y-70425000D01*
X139636500Y-71695000D02*
X139636500Y-70425000D01*
D13*
X142367000Y-71695000D02*
X139636500Y-71695000D01*
X139636500Y-70425000D02*
X142367000Y-70425000D01*
D12*
X133335000Y-77867000D02*
X134605000Y-77867000D01*
X133335000Y-75136500D02*
X134605000Y-75136500D01*
D13*
X133335000Y-77867000D02*
X133335000Y-75136500D01*
X134605000Y-75136500D02*
X134605000Y-77867000D01*
D12*
X180467000Y-59989720D02*
X181737000Y-59989720D01*
X180467000Y-57259220D02*
X181737000Y-57259220D01*
D13*
X180467000Y-59989720D02*
X180467000Y-57259220D01*
X181737000Y-57259220D02*
X181737000Y-59989720D01*
D12*
X160639760Y-62433200D02*
X160639760Y-61163200D01*
X157909260Y-62433200D02*
X157909260Y-61163200D01*
D13*
X160639760Y-62433200D02*
X157909260Y-62433200D01*
X157909260Y-61163200D02*
X160639760Y-61163200D01*
D12*
X208467960Y-55712360D02*
X208467960Y-56982360D01*
X211198460Y-55712360D02*
X211198460Y-56982360D01*
D13*
X208467960Y-55712360D02*
X211198460Y-55712360D01*
X211198460Y-56982360D02*
X208467960Y-56982360D01*
D12*
X222455740Y-65549780D02*
X223725740Y-65549780D01*
X222455740Y-62819280D02*
X223725740Y-62819280D01*
D13*
X222455740Y-65549780D02*
X222455740Y-62819280D01*
X223725740Y-62819280D02*
X223725740Y-65549780D01*
X169940000Y-58930000D02*
X157240000Y-58930000D01*
X157240000Y-58930000D02*
X157240000Y-56390000D01*
X157240000Y-56390000D02*
X169940000Y-56390000D01*
X172760000Y-59210000D02*
X171210000Y-59210000D01*
X169940000Y-58930000D02*
X169940000Y-56390000D01*
X171210000Y-56110000D02*
X172760000Y-56110000D01*
X172760000Y-56110000D02*
X172760000Y-59210000D01*
D14*
X192786000Y-58928000D02*
G75*
G03X192786000Y-58928000I-254000J0D01*
G01*
D13*
X195580000Y-60198000D02*
X200660000Y-60198000D01*
X200660000Y-60198000D02*
X200660000Y-55118000D01*
X200660000Y-55118000D02*
X195580000Y-55118000D01*
X193040000Y-55118000D02*
X193040000Y-57658000D01*
X195580000Y-55118000D02*
X193040000Y-55118000D01*
X153320000Y-106520000D02*
X176180000Y-106520000D01*
X176180000Y-106520000D02*
X176180000Y-109060000D01*
X176180000Y-109060000D02*
X153320000Y-109060000D01*
X150500000Y-106240000D02*
X152050000Y-106240000D01*
X153320000Y-106520000D02*
X153320000Y-109060000D01*
X152050000Y-109340000D02*
X150500000Y-109340000D01*
X150500000Y-109340000D02*
X150500000Y-106240000D01*
X202980000Y-75230000D02*
X202980000Y-98090000D01*
X202980000Y-98090000D02*
X200440000Y-98090000D01*
X200440000Y-98090000D02*
X200440000Y-75230000D01*
X203260000Y-72410000D02*
X203260000Y-73960000D01*
X202980000Y-75230000D02*
X200440000Y-75230000D01*
X200160000Y-73960000D02*
X200160000Y-72410000D01*
X200160000Y-72410000D02*
X203260000Y-72410000D01*
D12*
X184879200Y-94838600D02*
X183609200Y-94838600D01*
X184879200Y-97569100D02*
X183609200Y-97569100D01*
D13*
X184879200Y-94838600D02*
X184879200Y-97569100D01*
X183609200Y-97569100D02*
X183609200Y-94838600D01*
X181952000Y-65524000D02*
X181952000Y-64524000D01*
X180252000Y-64524000D02*
X180252000Y-65524000D01*
D12*
X183664600Y-101682200D02*
X184934600Y-101682200D01*
X183664600Y-98951700D02*
X184934600Y-98951700D01*
D13*
X183664600Y-101682200D02*
X183664600Y-98951700D01*
X184934600Y-98951700D02*
X184934600Y-101682200D01*
X175280000Y-62844680D02*
X175280000Y-65844680D01*
X177780000Y-62844680D02*
X177780000Y-65844680D01*
D10*
X174530000Y-62738000D02*
X174530000Y-62738000D01*
X173216820Y-69660020D02*
X173216820Y-69660020D01*
D12*
X144538000Y-74226000D02*
X144538000Y-77731200D01*
X144538000Y-74226000D02*
X138543600Y-74226000D01*
X144538000Y-77731200D02*
X138543600Y-77731200D01*
X138543600Y-74226000D02*
X138543600Y-77731200D01*
D13*
X219770000Y-63660000D02*
X219770000Y-111920000D01*
X219770000Y-111920000D02*
X217230000Y-111920000D01*
X217230000Y-111920000D02*
X217230000Y-63660000D01*
X220050000Y-60840000D02*
X220050000Y-62390000D01*
X219770000Y-63660000D02*
X217230000Y-63660000D01*
X216950000Y-62390000D02*
X216950000Y-60840000D01*
X216950000Y-60840000D02*
X220050000Y-60840000D01*
X215050000Y-63660000D02*
X215050000Y-111920000D01*
X215050000Y-111920000D02*
X212510000Y-111920000D01*
X212510000Y-111920000D02*
X212510000Y-63660000D01*
X215330000Y-60840000D02*
X215330000Y-62390000D01*
X215050000Y-63660000D02*
X212510000Y-63660000D01*
X212230000Y-62390000D02*
X212230000Y-60840000D01*
X212230000Y-60840000D02*
X215330000Y-60840000D01*
X206510000Y-57620000D02*
X206510000Y-60160000D01*
X206790000Y-54800000D02*
X206790000Y-56350000D01*
X206510000Y-57620000D02*
X203970000Y-57620000D01*
X203690000Y-56350000D02*
X203690000Y-54800000D01*
X203690000Y-54800000D02*
X206790000Y-54800000D01*
X203970000Y-57620000D02*
X203970000Y-60160000D01*
X203970000Y-60160000D02*
X206510000Y-60160000D01*
D15*
G36*
X151765000Y-115945920D02*
X124841000Y-115945920D01*
X124841000Y-108367060D01*
X132262708Y-108367060D01*
X132312631Y-108428615D01*
X132372100Y-108481187D01*
X132489822Y-108563422D01*
X132553084Y-108570545D01*
X132562278Y-108541820D01*
X132522353Y-108493618D01*
X132425122Y-108426047D01*
X132409878Y-108417182D01*
X132295996Y-108361772D01*
X132262708Y-108367060D01*
X124841000Y-108367060D01*
X124841000Y-108300520D01*
X132156200Y-108300520D01*
X132181600Y-108325920D01*
X132207000Y-108300520D01*
X132181600Y-108275120D01*
X132156200Y-108300520D01*
X124841000Y-108300520D01*
X124841000Y-108139653D01*
X131868333Y-108139653D01*
X131875306Y-108169853D01*
X131902200Y-108173520D01*
X131944014Y-108154933D01*
X131936066Y-108139653D01*
X131875778Y-108133573D01*
X131868333Y-108139653D01*
X124841000Y-108139653D01*
X124841000Y-107811479D01*
X131394200Y-107811479D01*
X131435157Y-107860180D01*
X131521200Y-107910276D01*
X131614454Y-107966788D01*
X131648200Y-108011564D01*
X131689297Y-108050435D01*
X131722165Y-108054986D01*
X131775118Y-108035447D01*
X131773127Y-108017766D01*
X131716906Y-107966305D01*
X131618593Y-107902595D01*
X131510532Y-107844247D01*
X131425068Y-107808869D01*
X131394200Y-107811479D01*
X124841000Y-107811479D01*
X124841000Y-107481426D01*
X130886200Y-107481426D01*
X130923670Y-107517213D01*
X131012547Y-107582068D01*
X131117528Y-107652105D01*
X131203310Y-107703439D01*
X131232098Y-107715464D01*
X131226194Y-107682910D01*
X131216176Y-107665158D01*
X131162526Y-107616858D01*
X131068946Y-107556574D01*
X130969918Y-107503504D01*
X130899920Y-107476847D01*
X130886200Y-107481426D01*
X124841000Y-107481426D01*
X124841000Y-107326853D01*
X130649133Y-107326853D01*
X130656106Y-107357053D01*
X130683000Y-107360720D01*
X130724814Y-107342133D01*
X130716866Y-107326853D01*
X130656578Y-107320773D01*
X130649133Y-107326853D01*
X124841000Y-107326853D01*
X124841000Y-107183915D01*
X130390186Y-107183915D01*
X130441448Y-107242562D01*
X130489018Y-107259120D01*
X130509495Y-107230094D01*
X130478781Y-107181692D01*
X130416662Y-107128438D01*
X130391274Y-107127512D01*
X130390186Y-107183915D01*
X124841000Y-107183915D01*
X124841000Y-106926805D01*
X130044243Y-106926805D01*
X130066051Y-106956334D01*
X130117127Y-107002251D01*
X130219087Y-107075955D01*
X130294927Y-107105942D01*
X130310123Y-107083780D01*
X130276600Y-107053440D01*
X130166952Y-106986704D01*
X130098800Y-106949750D01*
X130044243Y-106926805D01*
X124841000Y-106926805D01*
X124841000Y-106714262D01*
X129677929Y-106714262D01*
X129686681Y-106730029D01*
X129740209Y-106773717D01*
X129830832Y-106840335D01*
X129866677Y-106846179D01*
X129870200Y-106829107D01*
X129830301Y-106791883D01*
X129755900Y-106750104D01*
X129677929Y-106714262D01*
X124841000Y-106714262D01*
X124841000Y-106568114D01*
X129395706Y-106568114D01*
X129458398Y-106613463D01*
X129463800Y-106616346D01*
X129564490Y-106657535D01*
X129618396Y-106659923D01*
X129605587Y-106627415D01*
X129563928Y-106596735D01*
X129454740Y-106554422D01*
X129413000Y-106549446D01*
X129395706Y-106568114D01*
X124841000Y-106568114D01*
X124841000Y-106260659D01*
X129351531Y-106260659D01*
X129384526Y-106406889D01*
X129491906Y-106484885D01*
X129576058Y-106496342D01*
X129661405Y-106521126D01*
X129788795Y-106584130D01*
X129934236Y-106669844D01*
X130073733Y-106762758D01*
X130183293Y-106847364D01*
X130238923Y-106908150D01*
X130238942Y-106924840D01*
X130243412Y-106949649D01*
X130280963Y-106946449D01*
X130350526Y-106965792D01*
X130479953Y-107030678D01*
X130651381Y-107129407D01*
X130846943Y-107250283D01*
X131048775Y-107381607D01*
X131239014Y-107511681D01*
X131399793Y-107628806D01*
X131513249Y-107721285D01*
X131561517Y-107777419D01*
X131561119Y-107784724D01*
X131564710Y-107809145D01*
X131588002Y-107798328D01*
X131648035Y-107812914D01*
X131775050Y-107876703D01*
X131952868Y-107980530D01*
X132165312Y-108115226D01*
X132268951Y-108184179D01*
X132492307Y-108334385D01*
X132687368Y-108464483D01*
X132837892Y-108563723D01*
X132927640Y-108621357D01*
X132943600Y-108630720D01*
X133002065Y-108667189D01*
X133127803Y-108749929D01*
X133304206Y-108867882D01*
X133514667Y-109009989D01*
X133592027Y-109062520D01*
X133824209Y-109219344D01*
X134041656Y-109364298D01*
X134223072Y-109483314D01*
X134347160Y-109562326D01*
X134366191Y-109573860D01*
X134514374Y-109670891D01*
X134644574Y-109770181D01*
X134657563Y-109781508D01*
X134773267Y-109866881D01*
X134931488Y-109962690D01*
X135001000Y-109999624D01*
X135137514Y-110072177D01*
X135232053Y-110129174D01*
X135255000Y-110147576D01*
X135321718Y-110204504D01*
X135443910Y-110289193D01*
X135588376Y-110379803D01*
X135720255Y-110453648D01*
X135848918Y-110535012D01*
X135989236Y-110645260D01*
X136009427Y-110663280D01*
X136113019Y-110743576D01*
X136186879Y-110775176D01*
X136200016Y-110771481D01*
X136213630Y-110774766D01*
X136200974Y-110800757D01*
X136150367Y-110807149D01*
X136034250Y-110756825D01*
X135847739Y-110647280D01*
X135646729Y-110516768D01*
X135289006Y-110279597D01*
X135008341Y-110096645D01*
X134798441Y-109964033D01*
X134653012Y-109877885D01*
X134565763Y-109834324D01*
X134530650Y-109829203D01*
X134484088Y-109810956D01*
X134389039Y-109739681D01*
X134312744Y-109673115D01*
X134189425Y-109571087D01*
X134088252Y-109506353D01*
X134051272Y-109494320D01*
X133990304Y-109463379D01*
X133985000Y-109443520D01*
X133945599Y-109395151D01*
X133928306Y-109392720D01*
X133859346Y-109364520D01*
X133739333Y-109291532D01*
X133629399Y-109214920D01*
X133494484Y-109119714D01*
X133393059Y-109055190D01*
X133353836Y-109037120D01*
X133279009Y-109007206D01*
X133183262Y-108936265D01*
X133097815Y-108852500D01*
X133053884Y-108784112D01*
X133055043Y-108767192D01*
X133053057Y-108740627D01*
X133031548Y-108750458D01*
X132957684Y-108747900D01*
X132836345Y-108701575D01*
X132782399Y-108673094D01*
X132588000Y-108561893D01*
X132715000Y-108688613D01*
X132807793Y-108768429D01*
X132870720Y-108799839D01*
X132876004Y-108798759D01*
X132934727Y-108816182D01*
X132982930Y-108855107D01*
X133058183Y-108916671D01*
X133192814Y-109014975D01*
X133361042Y-109131345D01*
X133406125Y-109161606D01*
X133817354Y-109438075D01*
X134143682Y-109662473D01*
X134386743Y-109835966D01*
X134548170Y-109959724D01*
X134629596Y-110034914D01*
X134632700Y-110038861D01*
X134682663Y-110091324D01*
X134696200Y-110086924D01*
X134732674Y-110079816D01*
X134823815Y-110117474D01*
X134942196Y-110184803D01*
X135060392Y-110266707D01*
X135128712Y-110324994D01*
X135247696Y-110430281D01*
X135383370Y-110525526D01*
X135569772Y-110634004D01*
X135623300Y-110663220D01*
X135740689Y-110737433D01*
X135807750Y-110800450D01*
X135813800Y-110816152D01*
X135854361Y-110861600D01*
X135882126Y-110865920D01*
X135965024Y-110900739D01*
X136042400Y-110967520D01*
X136134267Y-111043878D01*
X136200886Y-111069120D01*
X136275246Y-111109244D01*
X136321800Y-111170720D01*
X136405604Y-111252109D01*
X136475987Y-111272320D01*
X136557626Y-111289311D01*
X136575800Y-111312167D01*
X136615031Y-111363004D01*
X136709995Y-111431408D01*
X136715500Y-111434696D01*
X136844147Y-111526817D01*
X136982982Y-111648412D01*
X137007600Y-111672838D01*
X137116020Y-111769655D01*
X137203996Y-111824894D01*
X137223500Y-111829708D01*
X137306361Y-111863572D01*
X137378452Y-111920020D01*
X137466484Y-111993433D01*
X137608214Y-112099377D01*
X137767669Y-112211265D01*
X137926886Y-112322443D01*
X138058247Y-112419528D01*
X138133353Y-112481531D01*
X138133416Y-112481594D01*
X138188873Y-112519339D01*
X138202177Y-112507848D01*
X138224154Y-112500382D01*
X138240277Y-112519069D01*
X138307882Y-112574082D01*
X138427225Y-112642418D01*
X138455260Y-112656116D01*
X138549494Y-112697136D01*
X138625546Y-112709444D01*
X138712465Y-112687392D01*
X138839298Y-112625331D01*
X138963260Y-112557343D01*
X139151133Y-112450288D01*
X139324948Y-112346071D01*
X139446000Y-112267974D01*
X139552382Y-112197389D01*
X139618615Y-112160358D01*
X139623800Y-112158901D01*
X139719337Y-112134459D01*
X139818396Y-112090997D01*
X139875419Y-112049403D01*
X139877800Y-112042448D01*
X139918629Y-111999162D01*
X140021041Y-111933411D01*
X140068300Y-111907763D01*
X140320717Y-111755357D01*
X140608125Y-111539233D01*
X140624955Y-111525554D01*
X140712360Y-111480044D01*
X140740265Y-111475520D01*
X140812627Y-111450189D01*
X140933390Y-111386130D01*
X140995400Y-111348520D01*
X141125832Y-111272694D01*
X141223865Y-111227281D01*
X141248390Y-111221520D01*
X141298577Y-111187772D01*
X141300200Y-111176644D01*
X141341657Y-111125593D01*
X141389100Y-111103576D01*
X141540165Y-111034107D01*
X141722334Y-110920400D01*
X141893699Y-110788869D01*
X141907205Y-110777020D01*
X142014640Y-110698365D01*
X142100576Y-110662885D01*
X142104468Y-110662720D01*
X142190325Y-110633257D01*
X142300764Y-110562356D01*
X142301458Y-110561812D01*
X142404857Y-110501136D01*
X142479952Y-110492113D01*
X142482419Y-110493461D01*
X142510695Y-110493388D01*
X142498850Y-110467369D01*
X142499775Y-110415326D01*
X142523843Y-110408720D01*
X142595799Y-110382236D01*
X142721824Y-110313299D01*
X142852950Y-110230920D01*
X143005126Y-110137493D01*
X143131855Y-110073098D01*
X143196875Y-110053120D01*
X143274989Y-110029143D01*
X143289866Y-110010835D01*
X143339938Y-109966627D01*
X143455023Y-109891230D01*
X143610292Y-109800903D01*
X143611600Y-109800181D01*
X143824026Y-109682403D01*
X143980079Y-109594365D01*
X144112575Y-109517145D01*
X144254327Y-109431818D01*
X144322800Y-109390061D01*
X144450650Y-109318961D01*
X144542417Y-109280689D01*
X144564100Y-109278505D01*
X144600822Y-109253376D01*
X144602200Y-109240319D01*
X144642878Y-109194216D01*
X144672179Y-109189520D01*
X144761208Y-109153681D01*
X144805400Y-109113320D01*
X144889987Y-109048861D01*
X144935027Y-109037120D01*
X145008721Y-109010912D01*
X145138323Y-108942179D01*
X145295884Y-108845754D01*
X145297107Y-108844959D01*
X145484536Y-108728052D01*
X145672196Y-108618816D01*
X145796000Y-108552859D01*
X145926358Y-108483270D01*
X146014171Y-108426311D01*
X146029394Y-108411912D01*
X146089263Y-108366313D01*
X146207660Y-108296356D01*
X146283394Y-108256046D01*
X146515079Y-108133750D01*
X146741608Y-108008279D01*
X146941865Y-107891915D01*
X147094734Y-107796939D01*
X147179098Y-107735635D01*
X147180600Y-107734201D01*
X147281016Y-107667886D01*
X147354102Y-107637357D01*
X147449177Y-107591827D01*
X147593987Y-107505905D01*
X147762787Y-107396913D01*
X147929833Y-107282174D01*
X148069382Y-107179011D01*
X148155689Y-107104747D01*
X148167994Y-107089702D01*
X148173928Y-107004486D01*
X148160935Y-106981423D01*
X148138357Y-106918434D01*
X148115850Y-106783486D01*
X148104164Y-106674920D01*
X148158200Y-106674920D01*
X148183600Y-106700320D01*
X148209000Y-106674920D01*
X148183600Y-106649520D01*
X148158200Y-106674920D01*
X148104164Y-106674920D01*
X148093198Y-106573045D01*
X148070184Y-106283575D01*
X148046594Y-105911540D01*
X148022209Y-105453407D01*
X147996816Y-104905638D01*
X147970197Y-104264699D01*
X147942135Y-103527054D01*
X147931044Y-103220520D01*
X147918870Y-102887379D01*
X147905313Y-102528622D01*
X147891948Y-102185266D01*
X147880352Y-101898330D01*
X147879350Y-101874320D01*
X147873505Y-101699937D01*
X147866688Y-101437617D01*
X147859165Y-101101015D01*
X147851202Y-100703787D01*
X147843063Y-100259587D01*
X147835014Y-99782072D01*
X147827321Y-99284895D01*
X147822577Y-98953320D01*
X147815563Y-98475540D01*
X147808223Y-98029143D01*
X147800782Y-97624350D01*
X147793463Y-97271385D01*
X147786492Y-96980472D01*
X147780093Y-96761833D01*
X147774492Y-96625692D01*
X147770452Y-96582328D01*
X147711856Y-96549198D01*
X147596291Y-96514962D01*
X147586117Y-96512714D01*
X147500910Y-96478669D01*
X147340852Y-96399835D01*
X147118611Y-96283029D01*
X146846855Y-96135066D01*
X146538251Y-95962763D01*
X146205466Y-95772937D01*
X146126200Y-95727146D01*
X145786486Y-95530568D01*
X145465946Y-95345360D01*
X145177803Y-95179140D01*
X144935277Y-95039527D01*
X144751591Y-94934138D01*
X144639968Y-94870593D01*
X144627600Y-94863657D01*
X144459183Y-94768261D01*
X144217660Y-94629442D01*
X143917328Y-94455574D01*
X143572484Y-94255034D01*
X143197425Y-94036195D01*
X142806449Y-93807434D01*
X142413853Y-93577125D01*
X142033934Y-93353643D01*
X141680991Y-93145364D01*
X141369319Y-92960663D01*
X141113218Y-92807914D01*
X140944600Y-92706230D01*
X140445399Y-92403576D01*
X140028322Y-92153250D01*
X139689706Y-91953144D01*
X139425890Y-91801148D01*
X139233211Y-91695151D01*
X139108008Y-91633045D01*
X139046619Y-91612720D01*
X139046513Y-91612720D01*
X138957796Y-91648617D01*
X138909574Y-91692565D01*
X138855498Y-91726278D01*
X138716817Y-91801992D01*
X138499894Y-91916457D01*
X138211093Y-92066427D01*
X137856776Y-92248653D01*
X137443307Y-92459888D01*
X136977049Y-92696884D01*
X136464365Y-92956393D01*
X135911618Y-93235167D01*
X135325172Y-93529958D01*
X134711388Y-93837518D01*
X134505519Y-93940465D01*
X130167731Y-96108520D01*
X130189837Y-96311720D01*
X130196640Y-96478317D01*
X130191833Y-96742839D01*
X130175660Y-97102302D01*
X130148364Y-97553725D01*
X130110186Y-98094126D01*
X130061370Y-98720521D01*
X130002160Y-99429930D01*
X129932798Y-100219369D01*
X129853526Y-101085857D01*
X129764589Y-102026411D01*
X129666228Y-103038050D01*
X129558688Y-104117790D01*
X129533887Y-104363520D01*
X129491952Y-104780749D01*
X129453262Y-105170803D01*
X129419046Y-105520897D01*
X129390535Y-105818243D01*
X129368956Y-106050056D01*
X129355539Y-106203549D01*
X129351531Y-106260659D01*
X124841000Y-106260659D01*
X124841000Y-89021920D01*
X151765000Y-89021920D01*
X151765000Y-115945920D01*
X151765000Y-115945920D01*
G37*
X151765000Y-115945920D02*
X124841000Y-115945920D01*
X124841000Y-108367060D01*
X132262708Y-108367060D01*
X132312631Y-108428615D01*
X132372100Y-108481187D01*
X132489822Y-108563422D01*
X132553084Y-108570545D01*
X132562278Y-108541820D01*
X132522353Y-108493618D01*
X132425122Y-108426047D01*
X132409878Y-108417182D01*
X132295996Y-108361772D01*
X132262708Y-108367060D01*
X124841000Y-108367060D01*
X124841000Y-108300520D01*
X132156200Y-108300520D01*
X132181600Y-108325920D01*
X132207000Y-108300520D01*
X132181600Y-108275120D01*
X132156200Y-108300520D01*
X124841000Y-108300520D01*
X124841000Y-108139653D01*
X131868333Y-108139653D01*
X131875306Y-108169853D01*
X131902200Y-108173520D01*
X131944014Y-108154933D01*
X131936066Y-108139653D01*
X131875778Y-108133573D01*
X131868333Y-108139653D01*
X124841000Y-108139653D01*
X124841000Y-107811479D01*
X131394200Y-107811479D01*
X131435157Y-107860180D01*
X131521200Y-107910276D01*
X131614454Y-107966788D01*
X131648200Y-108011564D01*
X131689297Y-108050435D01*
X131722165Y-108054986D01*
X131775118Y-108035447D01*
X131773127Y-108017766D01*
X131716906Y-107966305D01*
X131618593Y-107902595D01*
X131510532Y-107844247D01*
X131425068Y-107808869D01*
X131394200Y-107811479D01*
X124841000Y-107811479D01*
X124841000Y-107481426D01*
X130886200Y-107481426D01*
X130923670Y-107517213D01*
X131012547Y-107582068D01*
X131117528Y-107652105D01*
X131203310Y-107703439D01*
X131232098Y-107715464D01*
X131226194Y-107682910D01*
X131216176Y-107665158D01*
X131162526Y-107616858D01*
X131068946Y-107556574D01*
X130969918Y-107503504D01*
X130899920Y-107476847D01*
X130886200Y-107481426D01*
X124841000Y-107481426D01*
X124841000Y-107326853D01*
X130649133Y-107326853D01*
X130656106Y-107357053D01*
X130683000Y-107360720D01*
X130724814Y-107342133D01*
X130716866Y-107326853D01*
X130656578Y-107320773D01*
X130649133Y-107326853D01*
X124841000Y-107326853D01*
X124841000Y-107183915D01*
X130390186Y-107183915D01*
X130441448Y-107242562D01*
X130489018Y-107259120D01*
X130509495Y-107230094D01*
X130478781Y-107181692D01*
X130416662Y-107128438D01*
X130391274Y-107127512D01*
X130390186Y-107183915D01*
X124841000Y-107183915D01*
X124841000Y-106926805D01*
X130044243Y-106926805D01*
X130066051Y-106956334D01*
X130117127Y-107002251D01*
X130219087Y-107075955D01*
X130294927Y-107105942D01*
X130310123Y-107083780D01*
X130276600Y-107053440D01*
X130166952Y-106986704D01*
X130098800Y-106949750D01*
X130044243Y-106926805D01*
X124841000Y-106926805D01*
X124841000Y-106714262D01*
X129677929Y-106714262D01*
X129686681Y-106730029D01*
X129740209Y-106773717D01*
X129830832Y-106840335D01*
X129866677Y-106846179D01*
X129870200Y-106829107D01*
X129830301Y-106791883D01*
X129755900Y-106750104D01*
X129677929Y-106714262D01*
X124841000Y-106714262D01*
X124841000Y-106568114D01*
X129395706Y-106568114D01*
X129458398Y-106613463D01*
X129463800Y-106616346D01*
X129564490Y-106657535D01*
X129618396Y-106659923D01*
X129605587Y-106627415D01*
X129563928Y-106596735D01*
X129454740Y-106554422D01*
X129413000Y-106549446D01*
X129395706Y-106568114D01*
X124841000Y-106568114D01*
X124841000Y-106260659D01*
X129351531Y-106260659D01*
X129384526Y-106406889D01*
X129491906Y-106484885D01*
X129576058Y-106496342D01*
X129661405Y-106521126D01*
X129788795Y-106584130D01*
X129934236Y-106669844D01*
X130073733Y-106762758D01*
X130183293Y-106847364D01*
X130238923Y-106908150D01*
X130238942Y-106924840D01*
X130243412Y-106949649D01*
X130280963Y-106946449D01*
X130350526Y-106965792D01*
X130479953Y-107030678D01*
X130651381Y-107129407D01*
X130846943Y-107250283D01*
X131048775Y-107381607D01*
X131239014Y-107511681D01*
X131399793Y-107628806D01*
X131513249Y-107721285D01*
X131561517Y-107777419D01*
X131561119Y-107784724D01*
X131564710Y-107809145D01*
X131588002Y-107798328D01*
X131648035Y-107812914D01*
X131775050Y-107876703D01*
X131952868Y-107980530D01*
X132165312Y-108115226D01*
X132268951Y-108184179D01*
X132492307Y-108334385D01*
X132687368Y-108464483D01*
X132837892Y-108563723D01*
X132927640Y-108621357D01*
X132943600Y-108630720D01*
X133002065Y-108667189D01*
X133127803Y-108749929D01*
X133304206Y-108867882D01*
X133514667Y-109009989D01*
X133592027Y-109062520D01*
X133824209Y-109219344D01*
X134041656Y-109364298D01*
X134223072Y-109483314D01*
X134347160Y-109562326D01*
X134366191Y-109573860D01*
X134514374Y-109670891D01*
X134644574Y-109770181D01*
X134657563Y-109781508D01*
X134773267Y-109866881D01*
X134931488Y-109962690D01*
X135001000Y-109999624D01*
X135137514Y-110072177D01*
X135232053Y-110129174D01*
X135255000Y-110147576D01*
X135321718Y-110204504D01*
X135443910Y-110289193D01*
X135588376Y-110379803D01*
X135720255Y-110453648D01*
X135848918Y-110535012D01*
X135989236Y-110645260D01*
X136009427Y-110663280D01*
X136113019Y-110743576D01*
X136186879Y-110775176D01*
X136200016Y-110771481D01*
X136213630Y-110774766D01*
X136200974Y-110800757D01*
X136150367Y-110807149D01*
X136034250Y-110756825D01*
X135847739Y-110647280D01*
X135646729Y-110516768D01*
X135289006Y-110279597D01*
X135008341Y-110096645D01*
X134798441Y-109964033D01*
X134653012Y-109877885D01*
X134565763Y-109834324D01*
X134530650Y-109829203D01*
X134484088Y-109810956D01*
X134389039Y-109739681D01*
X134312744Y-109673115D01*
X134189425Y-109571087D01*
X134088252Y-109506353D01*
X134051272Y-109494320D01*
X133990304Y-109463379D01*
X133985000Y-109443520D01*
X133945599Y-109395151D01*
X133928306Y-109392720D01*
X133859346Y-109364520D01*
X133739333Y-109291532D01*
X133629399Y-109214920D01*
X133494484Y-109119714D01*
X133393059Y-109055190D01*
X133353836Y-109037120D01*
X133279009Y-109007206D01*
X133183262Y-108936265D01*
X133097815Y-108852500D01*
X133053884Y-108784112D01*
X133055043Y-108767192D01*
X133053057Y-108740627D01*
X133031548Y-108750458D01*
X132957684Y-108747900D01*
X132836345Y-108701575D01*
X132782399Y-108673094D01*
X132588000Y-108561893D01*
X132715000Y-108688613D01*
X132807793Y-108768429D01*
X132870720Y-108799839D01*
X132876004Y-108798759D01*
X132934727Y-108816182D01*
X132982930Y-108855107D01*
X133058183Y-108916671D01*
X133192814Y-109014975D01*
X133361042Y-109131345D01*
X133406125Y-109161606D01*
X133817354Y-109438075D01*
X134143682Y-109662473D01*
X134386743Y-109835966D01*
X134548170Y-109959724D01*
X134629596Y-110034914D01*
X134632700Y-110038861D01*
X134682663Y-110091324D01*
X134696200Y-110086924D01*
X134732674Y-110079816D01*
X134823815Y-110117474D01*
X134942196Y-110184803D01*
X135060392Y-110266707D01*
X135128712Y-110324994D01*
X135247696Y-110430281D01*
X135383370Y-110525526D01*
X135569772Y-110634004D01*
X135623300Y-110663220D01*
X135740689Y-110737433D01*
X135807750Y-110800450D01*
X135813800Y-110816152D01*
X135854361Y-110861600D01*
X135882126Y-110865920D01*
X135965024Y-110900739D01*
X136042400Y-110967520D01*
X136134267Y-111043878D01*
X136200886Y-111069120D01*
X136275246Y-111109244D01*
X136321800Y-111170720D01*
X136405604Y-111252109D01*
X136475987Y-111272320D01*
X136557626Y-111289311D01*
X136575800Y-111312167D01*
X136615031Y-111363004D01*
X136709995Y-111431408D01*
X136715500Y-111434696D01*
X136844147Y-111526817D01*
X136982982Y-111648412D01*
X137007600Y-111672838D01*
X137116020Y-111769655D01*
X137203996Y-111824894D01*
X137223500Y-111829708D01*
X137306361Y-111863572D01*
X137378452Y-111920020D01*
X137466484Y-111993433D01*
X137608214Y-112099377D01*
X137767669Y-112211265D01*
X137926886Y-112322443D01*
X138058247Y-112419528D01*
X138133353Y-112481531D01*
X138133416Y-112481594D01*
X138188873Y-112519339D01*
X138202177Y-112507848D01*
X138224154Y-112500382D01*
X138240277Y-112519069D01*
X138307882Y-112574082D01*
X138427225Y-112642418D01*
X138455260Y-112656116D01*
X138549494Y-112697136D01*
X138625546Y-112709444D01*
X138712465Y-112687392D01*
X138839298Y-112625331D01*
X138963260Y-112557343D01*
X139151133Y-112450288D01*
X139324948Y-112346071D01*
X139446000Y-112267974D01*
X139552382Y-112197389D01*
X139618615Y-112160358D01*
X139623800Y-112158901D01*
X139719337Y-112134459D01*
X139818396Y-112090997D01*
X139875419Y-112049403D01*
X139877800Y-112042448D01*
X139918629Y-111999162D01*
X140021041Y-111933411D01*
X140068300Y-111907763D01*
X140320717Y-111755357D01*
X140608125Y-111539233D01*
X140624955Y-111525554D01*
X140712360Y-111480044D01*
X140740265Y-111475520D01*
X140812627Y-111450189D01*
X140933390Y-111386130D01*
X140995400Y-111348520D01*
X141125832Y-111272694D01*
X141223865Y-111227281D01*
X141248390Y-111221520D01*
X141298577Y-111187772D01*
X141300200Y-111176644D01*
X141341657Y-111125593D01*
X141389100Y-111103576D01*
X141540165Y-111034107D01*
X141722334Y-110920400D01*
X141893699Y-110788869D01*
X141907205Y-110777020D01*
X142014640Y-110698365D01*
X142100576Y-110662885D01*
X142104468Y-110662720D01*
X142190325Y-110633257D01*
X142300764Y-110562356D01*
X142301458Y-110561812D01*
X142404857Y-110501136D01*
X142479952Y-110492113D01*
X142482419Y-110493461D01*
X142510695Y-110493388D01*
X142498850Y-110467369D01*
X142499775Y-110415326D01*
X142523843Y-110408720D01*
X142595799Y-110382236D01*
X142721824Y-110313299D01*
X142852950Y-110230920D01*
X143005126Y-110137493D01*
X143131855Y-110073098D01*
X143196875Y-110053120D01*
X143274989Y-110029143D01*
X143289866Y-110010835D01*
X143339938Y-109966627D01*
X143455023Y-109891230D01*
X143610292Y-109800903D01*
X143611600Y-109800181D01*
X143824026Y-109682403D01*
X143980079Y-109594365D01*
X144112575Y-109517145D01*
X144254327Y-109431818D01*
X144322800Y-109390061D01*
X144450650Y-109318961D01*
X144542417Y-109280689D01*
X144564100Y-109278505D01*
X144600822Y-109253376D01*
X144602200Y-109240319D01*
X144642878Y-109194216D01*
X144672179Y-109189520D01*
X144761208Y-109153681D01*
X144805400Y-109113320D01*
X144889987Y-109048861D01*
X144935027Y-109037120D01*
X145008721Y-109010912D01*
X145138323Y-108942179D01*
X145295884Y-108845754D01*
X145297107Y-108844959D01*
X145484536Y-108728052D01*
X145672196Y-108618816D01*
X145796000Y-108552859D01*
X145926358Y-108483270D01*
X146014171Y-108426311D01*
X146029394Y-108411912D01*
X146089263Y-108366313D01*
X146207660Y-108296356D01*
X146283394Y-108256046D01*
X146515079Y-108133750D01*
X146741608Y-108008279D01*
X146941865Y-107891915D01*
X147094734Y-107796939D01*
X147179098Y-107735635D01*
X147180600Y-107734201D01*
X147281016Y-107667886D01*
X147354102Y-107637357D01*
X147449177Y-107591827D01*
X147593987Y-107505905D01*
X147762787Y-107396913D01*
X147929833Y-107282174D01*
X148069382Y-107179011D01*
X148155689Y-107104747D01*
X148167994Y-107089702D01*
X148173928Y-107004486D01*
X148160935Y-106981423D01*
X148138357Y-106918434D01*
X148115850Y-106783486D01*
X148104164Y-106674920D01*
X148158200Y-106674920D01*
X148183600Y-106700320D01*
X148209000Y-106674920D01*
X148183600Y-106649520D01*
X148158200Y-106674920D01*
X148104164Y-106674920D01*
X148093198Y-106573045D01*
X148070184Y-106283575D01*
X148046594Y-105911540D01*
X148022209Y-105453407D01*
X147996816Y-104905638D01*
X147970197Y-104264699D01*
X147942135Y-103527054D01*
X147931044Y-103220520D01*
X147918870Y-102887379D01*
X147905313Y-102528622D01*
X147891948Y-102185266D01*
X147880352Y-101898330D01*
X147879350Y-101874320D01*
X147873505Y-101699937D01*
X147866688Y-101437617D01*
X147859165Y-101101015D01*
X147851202Y-100703787D01*
X147843063Y-100259587D01*
X147835014Y-99782072D01*
X147827321Y-99284895D01*
X147822577Y-98953320D01*
X147815563Y-98475540D01*
X147808223Y-98029143D01*
X147800782Y-97624350D01*
X147793463Y-97271385D01*
X147786492Y-96980472D01*
X147780093Y-96761833D01*
X147774492Y-96625692D01*
X147770452Y-96582328D01*
X147711856Y-96549198D01*
X147596291Y-96514962D01*
X147586117Y-96512714D01*
X147500910Y-96478669D01*
X147340852Y-96399835D01*
X147118611Y-96283029D01*
X146846855Y-96135066D01*
X146538251Y-95962763D01*
X146205466Y-95772937D01*
X146126200Y-95727146D01*
X145786486Y-95530568D01*
X145465946Y-95345360D01*
X145177803Y-95179140D01*
X144935277Y-95039527D01*
X144751591Y-94934138D01*
X144639968Y-94870593D01*
X144627600Y-94863657D01*
X144459183Y-94768261D01*
X144217660Y-94629442D01*
X143917328Y-94455574D01*
X143572484Y-94255034D01*
X143197425Y-94036195D01*
X142806449Y-93807434D01*
X142413853Y-93577125D01*
X142033934Y-93353643D01*
X141680991Y-93145364D01*
X141369319Y-92960663D01*
X141113218Y-92807914D01*
X140944600Y-92706230D01*
X140445399Y-92403576D01*
X140028322Y-92153250D01*
X139689706Y-91953144D01*
X139425890Y-91801148D01*
X139233211Y-91695151D01*
X139108008Y-91633045D01*
X139046619Y-91612720D01*
X139046513Y-91612720D01*
X138957796Y-91648617D01*
X138909574Y-91692565D01*
X138855498Y-91726278D01*
X138716817Y-91801992D01*
X138499894Y-91916457D01*
X138211093Y-92066427D01*
X137856776Y-92248653D01*
X137443307Y-92459888D01*
X136977049Y-92696884D01*
X136464365Y-92956393D01*
X135911618Y-93235167D01*
X135325172Y-93529958D01*
X134711388Y-93837518D01*
X134505519Y-93940465D01*
X130167731Y-96108520D01*
X130189837Y-96311720D01*
X130196640Y-96478317D01*
X130191833Y-96742839D01*
X130175660Y-97102302D01*
X130148364Y-97553725D01*
X130110186Y-98094126D01*
X130061370Y-98720521D01*
X130002160Y-99429930D01*
X129932798Y-100219369D01*
X129853526Y-101085857D01*
X129764589Y-102026411D01*
X129666228Y-103038050D01*
X129558688Y-104117790D01*
X129533887Y-104363520D01*
X129491952Y-104780749D01*
X129453262Y-105170803D01*
X129419046Y-105520897D01*
X129390535Y-105818243D01*
X129368956Y-106050056D01*
X129355539Y-106203549D01*
X129351531Y-106260659D01*
X124841000Y-106260659D01*
X124841000Y-89021920D01*
X151765000Y-89021920D01*
X151765000Y-115945920D01*
G36*
X138303000Y-112161320D02*
X138277600Y-112186720D01*
X138252200Y-112161320D01*
X138277600Y-112135920D01*
X138303000Y-112161320D01*
X138303000Y-112161320D01*
G37*
X138303000Y-112161320D02*
X138277600Y-112186720D01*
X138252200Y-112161320D01*
X138277600Y-112135920D01*
X138303000Y-112161320D01*
G36*
X137998200Y-112008920D02*
X137972800Y-112034320D01*
X137947400Y-112008920D01*
X137972800Y-111983520D01*
X137998200Y-112008920D01*
X137998200Y-112008920D01*
G37*
X137998200Y-112008920D02*
X137972800Y-112034320D01*
X137947400Y-112008920D01*
X137972800Y-111983520D01*
X137998200Y-112008920D01*
G36*
X137896600Y-111907320D02*
X137871200Y-111932720D01*
X137845800Y-111907320D01*
X137871200Y-111881920D01*
X137896600Y-111907320D01*
X137896600Y-111907320D01*
G37*
X137896600Y-111907320D02*
X137871200Y-111932720D01*
X137845800Y-111907320D01*
X137871200Y-111881920D01*
X137896600Y-111907320D01*
G36*
X137795000Y-111856520D02*
X137769600Y-111881920D01*
X137744200Y-111856520D01*
X137769600Y-111831120D01*
X137795000Y-111856520D01*
X137795000Y-111856520D01*
G37*
X137795000Y-111856520D02*
X137769600Y-111881920D01*
X137744200Y-111856520D01*
X137769600Y-111831120D01*
X137795000Y-111856520D01*
G36*
X137525062Y-111660734D02*
X137515600Y-111678720D01*
X137467735Y-111727234D01*
X137458803Y-111729520D01*
X137455337Y-111696705D01*
X137464800Y-111678720D01*
X137512664Y-111630205D01*
X137521596Y-111627920D01*
X137525062Y-111660734D01*
X137525062Y-111660734D01*
G37*
X137525062Y-111660734D02*
X137515600Y-111678720D01*
X137467735Y-111727234D01*
X137458803Y-111729520D01*
X137455337Y-111696705D01*
X137464800Y-111678720D01*
X137512664Y-111630205D01*
X137521596Y-111627920D01*
X137525062Y-111660734D01*
G36*
X137035106Y-111346808D02*
X137051214Y-111352792D01*
X137122776Y-111402404D01*
X137134600Y-111430155D01*
X137116888Y-111472746D01*
X137059094Y-111429320D01*
X137032034Y-111398157D01*
X136994970Y-111343082D01*
X137035106Y-111346808D01*
X137035106Y-111346808D01*
G37*
X137035106Y-111346808D02*
X137051214Y-111352792D01*
X137122776Y-111402404D01*
X137134600Y-111430155D01*
X137116888Y-111472746D01*
X137059094Y-111429320D01*
X137032034Y-111398157D01*
X136994970Y-111343082D01*
X137035106Y-111346808D01*
G36*
X136462277Y-110945945D02*
X136528607Y-111006386D01*
X136642845Y-111083628D01*
X136663106Y-111095657D01*
X136777839Y-111175362D01*
X136847462Y-111247752D01*
X136852012Y-111256931D01*
X136866828Y-111305685D01*
X136849582Y-111313140D01*
X136784996Y-111272435D01*
X136657789Y-111176709D01*
X136635834Y-111159848D01*
X136516158Y-111058532D01*
X136439470Y-110975660D01*
X136424177Y-110943948D01*
X136441927Y-110922035D01*
X136462277Y-110945945D01*
X136462277Y-110945945D01*
G37*
X136462277Y-110945945D02*
X136528607Y-111006386D01*
X136642845Y-111083628D01*
X136663106Y-111095657D01*
X136777839Y-111175362D01*
X136847462Y-111247752D01*
X136852012Y-111256931D01*
X136866828Y-111305685D01*
X136849582Y-111313140D01*
X136784996Y-111272435D01*
X136657789Y-111176709D01*
X136635834Y-111159848D01*
X136516158Y-111058532D01*
X136439470Y-110975660D01*
X136424177Y-110943948D01*
X136441927Y-110922035D01*
X136462277Y-110945945D01*
G36*
X136358841Y-110886028D02*
X136343691Y-110909117D01*
X136292166Y-110912709D01*
X136237961Y-110900303D01*
X136261475Y-110882017D01*
X136340869Y-110875961D01*
X136358841Y-110886028D01*
X136358841Y-110886028D01*
G37*
X136358841Y-110886028D02*
X136343691Y-110909117D01*
X136292166Y-110912709D01*
X136237961Y-110900303D01*
X136261475Y-110882017D01*
X136340869Y-110875961D01*
X136358841Y-110886028D01*
G36*
X141452600Y-110688120D02*
X141427200Y-110713520D01*
X141401800Y-110688120D01*
X141427200Y-110662720D01*
X141452600Y-110688120D01*
X141452600Y-110688120D01*
G37*
X141452600Y-110688120D02*
X141427200Y-110713520D01*
X141401800Y-110688120D01*
X141427200Y-110662720D01*
X141452600Y-110688120D01*
G36*
X140231023Y-108847708D02*
X140346444Y-108856403D01*
X140311574Y-109543176D01*
X140297434Y-109796051D01*
X140283010Y-110009964D01*
X140269779Y-110165737D01*
X140259222Y-110244189D01*
X140257092Y-110249560D01*
X140191913Y-110271949D01*
X140079571Y-110286720D01*
X139970532Y-110289605D01*
X139916753Y-110278340D01*
X139909127Y-110230920D01*
X139928600Y-110230920D01*
X139954000Y-110256320D01*
X139979400Y-110230920D01*
X139954000Y-110205520D01*
X139928600Y-110230920D01*
X139909127Y-110230920D01*
X139905568Y-110208798D01*
X139922821Y-110081269D01*
X139959560Y-109932236D01*
X140006835Y-109798182D01*
X140054546Y-109716716D01*
X140107266Y-109610222D01*
X140131329Y-109445487D01*
X140131800Y-109417914D01*
X140121699Y-109269734D01*
X140083608Y-109192652D01*
X140030200Y-109164120D01*
X139939915Y-109103061D01*
X139927234Y-109019164D01*
X139978414Y-108934078D01*
X140079715Y-108869452D01*
X140217398Y-108846936D01*
X140231023Y-108847708D01*
X140231023Y-108847708D01*
G37*
X140231023Y-108847708D02*
X140346444Y-108856403D01*
X140311574Y-109543176D01*
X140297434Y-109796051D01*
X140283010Y-110009964D01*
X140269779Y-110165737D01*
X140259222Y-110244189D01*
X140257092Y-110249560D01*
X140191913Y-110271949D01*
X140079571Y-110286720D01*
X139970532Y-110289605D01*
X139916753Y-110278340D01*
X139909127Y-110230920D01*
X139928600Y-110230920D01*
X139954000Y-110256320D01*
X139979400Y-110230920D01*
X139954000Y-110205520D01*
X139928600Y-110230920D01*
X139909127Y-110230920D01*
X139905568Y-110208798D01*
X139922821Y-110081269D01*
X139959560Y-109932236D01*
X140006835Y-109798182D01*
X140054546Y-109716716D01*
X140107266Y-109610222D01*
X140131329Y-109445487D01*
X140131800Y-109417914D01*
X140121699Y-109269734D01*
X140083608Y-109192652D01*
X140030200Y-109164120D01*
X139939915Y-109103061D01*
X139927234Y-109019164D01*
X139978414Y-108934078D01*
X140079715Y-108869452D01*
X140217398Y-108846936D01*
X140231023Y-108847708D01*
G36*
X144449800Y-109164120D02*
X144424400Y-109189520D01*
X144399000Y-109164120D01*
X144424400Y-109138720D01*
X144449800Y-109164120D01*
X144449800Y-109164120D01*
G37*
X144449800Y-109164120D02*
X144424400Y-109189520D01*
X144399000Y-109164120D01*
X144424400Y-109138720D01*
X144449800Y-109164120D01*
G36*
X140335942Y-107709187D02*
X140373600Y-107757826D01*
X140334835Y-107796112D01*
X140251431Y-107802541D01*
X140129534Y-107819565D01*
X140086697Y-107879767D01*
X140122982Y-107962438D01*
X140238447Y-108046871D01*
X140250706Y-108052891D01*
X140396234Y-108159753D01*
X140456590Y-108290188D01*
X140426146Y-108425396D01*
X140379886Y-108484233D01*
X140231826Y-108566502D01*
X140058378Y-108563282D01*
X139965631Y-108524453D01*
X139901580Y-108459708D01*
X139918341Y-108413411D01*
X139995540Y-108413164D01*
X140035201Y-108430196D01*
X140159218Y-108461042D01*
X140269691Y-108434390D01*
X140330080Y-108361897D01*
X140333043Y-108335196D01*
X140291962Y-108253292D01*
X140193450Y-108162391D01*
X140172315Y-108148120D01*
X140012797Y-108026974D01*
X139945792Y-107921123D01*
X139965970Y-107818496D01*
X140004284Y-107767689D01*
X140135510Y-107684019D01*
X140226831Y-107675815D01*
X140335942Y-107709187D01*
X140335942Y-107709187D01*
G37*
X140335942Y-107709187D02*
X140373600Y-107757826D01*
X140334835Y-107796112D01*
X140251431Y-107802541D01*
X140129534Y-107819565D01*
X140086697Y-107879767D01*
X140122982Y-107962438D01*
X140238447Y-108046871D01*
X140250706Y-108052891D01*
X140396234Y-108159753D01*
X140456590Y-108290188D01*
X140426146Y-108425396D01*
X140379886Y-108484233D01*
X140231826Y-108566502D01*
X140058378Y-108563282D01*
X139965631Y-108524453D01*
X139901580Y-108459708D01*
X139918341Y-108413411D01*
X139995540Y-108413164D01*
X140035201Y-108430196D01*
X140159218Y-108461042D01*
X140269691Y-108434390D01*
X140330080Y-108361897D01*
X140333043Y-108335196D01*
X140291962Y-108253292D01*
X140193450Y-108162391D01*
X140172315Y-108148120D01*
X140012797Y-108026974D01*
X139945792Y-107921123D01*
X139965970Y-107818496D01*
X140004284Y-107767689D01*
X140135510Y-107684019D01*
X140226831Y-107675815D01*
X140335942Y-107709187D01*
G36*
X139202207Y-107124895D02*
X139353705Y-107171414D01*
X139456320Y-107227282D01*
X139459939Y-107230726D01*
X139491461Y-107319179D01*
X139491348Y-107454846D01*
X139464806Y-107590415D01*
X139417040Y-107678571D01*
X139410102Y-107683734D01*
X139366912Y-107725690D01*
X139384909Y-107779316D01*
X139473027Y-107870236D01*
X139476142Y-107873150D01*
X139592560Y-108033522D01*
X139622140Y-108202136D01*
X139563104Y-108356510D01*
X139518237Y-108405706D01*
X139409285Y-108459502D01*
X139240986Y-108498896D01*
X139055215Y-108518240D01*
X138893848Y-108511884D01*
X138836400Y-108497685D01*
X138809068Y-108440219D01*
X138797029Y-108316026D01*
X138798442Y-108237055D01*
X138803867Y-108118486D01*
X138963400Y-108118486D01*
X138976106Y-108285366D01*
X139010849Y-108381272D01*
X139026900Y-108393857D01*
X139175798Y-108410834D01*
X139324495Y-108365154D01*
X139401822Y-108300054D01*
X139472079Y-108143844D01*
X139450291Y-108010868D01*
X139345584Y-107915051D01*
X139167086Y-107870321D01*
X139119139Y-107868720D01*
X139026392Y-107874168D01*
X138980509Y-107908136D01*
X138965005Y-107997059D01*
X138963400Y-108118486D01*
X138803867Y-108118486D01*
X138806214Y-108067221D01*
X138814920Y-107840808D01*
X138822848Y-107602802D01*
X138823842Y-107569630D01*
X138828557Y-107457723D01*
X138972804Y-107457723D01*
X138977521Y-107630858D01*
X139020422Y-107721035D01*
X139023604Y-107723207D01*
X139096842Y-107760100D01*
X139162005Y-107748808D01*
X139256896Y-107688039D01*
X139350646Y-107569908D01*
X139358432Y-107427985D01*
X139279039Y-107294521D01*
X139271979Y-107287940D01*
X139146982Y-107212287D01*
X139051137Y-107232204D01*
X138990299Y-107344368D01*
X138972804Y-107457723D01*
X138828557Y-107457723D01*
X138832761Y-107357980D01*
X138847910Y-107226100D01*
X138874760Y-107152163D01*
X138918784Y-107114343D01*
X138940258Y-107105230D01*
X139048750Y-107099056D01*
X139202207Y-107124895D01*
X139202207Y-107124895D01*
G37*
X139202207Y-107124895D02*
X139353705Y-107171414D01*
X139456320Y-107227282D01*
X139459939Y-107230726D01*
X139491461Y-107319179D01*
X139491348Y-107454846D01*
X139464806Y-107590415D01*
X139417040Y-107678571D01*
X139410102Y-107683734D01*
X139366912Y-107725690D01*
X139384909Y-107779316D01*
X139473027Y-107870236D01*
X139476142Y-107873150D01*
X139592560Y-108033522D01*
X139622140Y-108202136D01*
X139563104Y-108356510D01*
X139518237Y-108405706D01*
X139409285Y-108459502D01*
X139240986Y-108498896D01*
X139055215Y-108518240D01*
X138893848Y-108511884D01*
X138836400Y-108497685D01*
X138809068Y-108440219D01*
X138797029Y-108316026D01*
X138798442Y-108237055D01*
X138803867Y-108118486D01*
X138963400Y-108118486D01*
X138976106Y-108285366D01*
X139010849Y-108381272D01*
X139026900Y-108393857D01*
X139175798Y-108410834D01*
X139324495Y-108365154D01*
X139401822Y-108300054D01*
X139472079Y-108143844D01*
X139450291Y-108010868D01*
X139345584Y-107915051D01*
X139167086Y-107870321D01*
X139119139Y-107868720D01*
X139026392Y-107874168D01*
X138980509Y-107908136D01*
X138965005Y-107997059D01*
X138963400Y-108118486D01*
X138803867Y-108118486D01*
X138806214Y-108067221D01*
X138814920Y-107840808D01*
X138822848Y-107602802D01*
X138823842Y-107569630D01*
X138828557Y-107457723D01*
X138972804Y-107457723D01*
X138977521Y-107630858D01*
X139020422Y-107721035D01*
X139023604Y-107723207D01*
X139096842Y-107760100D01*
X139162005Y-107748808D01*
X139256896Y-107688039D01*
X139350646Y-107569908D01*
X139358432Y-107427985D01*
X139279039Y-107294521D01*
X139271979Y-107287940D01*
X139146982Y-107212287D01*
X139051137Y-107232204D01*
X138990299Y-107344368D01*
X138972804Y-107457723D01*
X138828557Y-107457723D01*
X138832761Y-107357980D01*
X138847910Y-107226100D01*
X138874760Y-107152163D01*
X138918784Y-107114343D01*
X138940258Y-107105230D01*
X139048750Y-107099056D01*
X139202207Y-107124895D01*
G36*
X138299165Y-107070104D02*
X138418414Y-107114562D01*
X138455400Y-107190142D01*
X138435410Y-107236184D01*
X138360682Y-107211991D01*
X138357139Y-107210107D01*
X138242299Y-107175469D01*
X138086322Y-107158019D01*
X138057712Y-107157520D01*
X137854682Y-107203695D01*
X137672615Y-107325258D01*
X137544155Y-107496762D01*
X137512839Y-107582234D01*
X137494546Y-107801929D01*
X137537266Y-108020538D01*
X137631072Y-108200196D01*
X137690809Y-108261067D01*
X137853631Y-108346820D01*
X138050712Y-108392005D01*
X138236796Y-108389305D01*
X138321577Y-108363050D01*
X138390907Y-108341442D01*
X138393764Y-108384487D01*
X138326917Y-108431822D01*
X138169306Y-108461718D01*
X138085043Y-108468096D01*
X137912530Y-108471268D01*
X137797419Y-108448464D01*
X137696200Y-108385535D01*
X137616471Y-108315696D01*
X137453257Y-108107942D01*
X137375492Y-107879282D01*
X137376351Y-107647880D01*
X137449007Y-107431899D01*
X137586638Y-107249499D01*
X137782417Y-107118845D01*
X138029520Y-107058099D01*
X138089861Y-107055920D01*
X138299165Y-107070104D01*
X138299165Y-107070104D01*
G37*
X138299165Y-107070104D02*
X138418414Y-107114562D01*
X138455400Y-107190142D01*
X138435410Y-107236184D01*
X138360682Y-107211991D01*
X138357139Y-107210107D01*
X138242299Y-107175469D01*
X138086322Y-107158019D01*
X138057712Y-107157520D01*
X137854682Y-107203695D01*
X137672615Y-107325258D01*
X137544155Y-107496762D01*
X137512839Y-107582234D01*
X137494546Y-107801929D01*
X137537266Y-108020538D01*
X137631072Y-108200196D01*
X137690809Y-108261067D01*
X137853631Y-108346820D01*
X138050712Y-108392005D01*
X138236796Y-108389305D01*
X138321577Y-108363050D01*
X138390907Y-108341442D01*
X138393764Y-108384487D01*
X138326917Y-108431822D01*
X138169306Y-108461718D01*
X138085043Y-108468096D01*
X137912530Y-108471268D01*
X137797419Y-108448464D01*
X137696200Y-108385535D01*
X137616471Y-108315696D01*
X137453257Y-108107942D01*
X137375492Y-107879282D01*
X137376351Y-107647880D01*
X137449007Y-107431899D01*
X137586638Y-107249499D01*
X137782417Y-107118845D01*
X138029520Y-107058099D01*
X138089861Y-107055920D01*
X138299165Y-107070104D01*
G36*
X145465800Y-108452920D02*
X145440400Y-108478320D01*
X145415000Y-108452920D01*
X145440400Y-108427520D01*
X145465800Y-108452920D01*
X145465800Y-108452920D01*
G37*
X145465800Y-108452920D02*
X145440400Y-108478320D01*
X145415000Y-108452920D01*
X145440400Y-108427520D01*
X145465800Y-108452920D01*
G36*
X136827394Y-107038401D02*
X137001066Y-107136607D01*
X137082660Y-107256368D01*
X137109345Y-107436380D01*
X137050917Y-107602081D01*
X136923664Y-107732776D01*
X136743872Y-107807773D01*
X136640696Y-107817920D01*
X136526414Y-107827688D01*
X136481339Y-107878054D01*
X136473506Y-107983020D01*
X136463371Y-108138879D01*
X136442181Y-108262420D01*
X136402016Y-108362220D01*
X136365097Y-108368628D01*
X136336811Y-108289826D01*
X136322548Y-108133998D01*
X136321800Y-108079584D01*
X136326491Y-107871528D01*
X136338749Y-107619318D01*
X136347848Y-107490282D01*
X136476327Y-107490282D01*
X136493108Y-107632356D01*
X136537700Y-107682657D01*
X136687191Y-107698873D01*
X136844830Y-107654980D01*
X136900382Y-107619382D01*
X136976214Y-107501288D01*
X136976454Y-107362026D01*
X136913827Y-107230654D01*
X136801057Y-107136228D01*
X136675876Y-107106720D01*
X136573526Y-107125300D01*
X136521920Y-107201105D01*
X136505950Y-107265470D01*
X136476327Y-107490282D01*
X136347848Y-107490282D01*
X136354654Y-107393784D01*
X136387508Y-107005120D01*
X136580863Y-107005120D01*
X136827394Y-107038401D01*
X136827394Y-107038401D01*
G37*
X136827394Y-107038401D02*
X137001066Y-107136607D01*
X137082660Y-107256368D01*
X137109345Y-107436380D01*
X137050917Y-107602081D01*
X136923664Y-107732776D01*
X136743872Y-107807773D01*
X136640696Y-107817920D01*
X136526414Y-107827688D01*
X136481339Y-107878054D01*
X136473506Y-107983020D01*
X136463371Y-108138879D01*
X136442181Y-108262420D01*
X136402016Y-108362220D01*
X136365097Y-108368628D01*
X136336811Y-108289826D01*
X136322548Y-108133998D01*
X136321800Y-108079584D01*
X136326491Y-107871528D01*
X136338749Y-107619318D01*
X136347848Y-107490282D01*
X136476327Y-107490282D01*
X136493108Y-107632356D01*
X136537700Y-107682657D01*
X136687191Y-107698873D01*
X136844830Y-107654980D01*
X136900382Y-107619382D01*
X136976214Y-107501288D01*
X136976454Y-107362026D01*
X136913827Y-107230654D01*
X136801057Y-107136228D01*
X136675876Y-107106720D01*
X136573526Y-107125300D01*
X136521920Y-107201105D01*
X136505950Y-107265470D01*
X136476327Y-107490282D01*
X136347848Y-107490282D01*
X136354654Y-107393784D01*
X136387508Y-107005120D01*
X136580863Y-107005120D01*
X136827394Y-107038401D01*
G36*
X145872200Y-108249720D02*
X145846800Y-108275120D01*
X145821400Y-108249720D01*
X145846800Y-108224320D01*
X145872200Y-108249720D01*
X145872200Y-108249720D01*
G37*
X145872200Y-108249720D02*
X145846800Y-108275120D01*
X145821400Y-108249720D01*
X145846800Y-108224320D01*
X145872200Y-108249720D01*
G36*
X139979400Y-108148120D02*
X139954000Y-108173520D01*
X139928600Y-108148120D01*
X139954000Y-108122720D01*
X139979400Y-108148120D01*
X139979400Y-108148120D01*
G37*
X139979400Y-108148120D02*
X139954000Y-108173520D01*
X139928600Y-108148120D01*
X139954000Y-108122720D01*
X139979400Y-108148120D01*
G36*
X146024600Y-108148120D02*
X145999200Y-108173520D01*
X145973800Y-108148120D01*
X145999200Y-108122720D01*
X146024600Y-108148120D01*
X146024600Y-108148120D01*
G37*
X146024600Y-108148120D02*
X145999200Y-108173520D01*
X145973800Y-108148120D01*
X145999200Y-108122720D01*
X146024600Y-108148120D01*
G36*
X146481800Y-107894120D02*
X146456400Y-107919520D01*
X146431000Y-107894120D01*
X146456400Y-107868720D01*
X146481800Y-107894120D01*
X146481800Y-107894120D01*
G37*
X146481800Y-107894120D02*
X146456400Y-107919520D01*
X146431000Y-107894120D01*
X146456400Y-107868720D01*
X146481800Y-107894120D01*
G36*
X146583400Y-107843320D02*
X146558000Y-107868720D01*
X146532600Y-107843320D01*
X146558000Y-107817920D01*
X146583400Y-107843320D01*
X146583400Y-107843320D01*
G37*
X146583400Y-107843320D02*
X146558000Y-107868720D01*
X146532600Y-107843320D01*
X146558000Y-107817920D01*
X146583400Y-107843320D01*
G36*
X146888200Y-107690920D02*
X146862800Y-107716320D01*
X146837400Y-107690920D01*
X146862800Y-107665520D01*
X146888200Y-107690920D01*
X146888200Y-107690920D01*
G37*
X146888200Y-107690920D02*
X146862800Y-107716320D01*
X146837400Y-107690920D01*
X146862800Y-107665520D01*
X146888200Y-107690920D01*
G36*
X140385800Y-106954631D02*
X140385083Y-107211437D01*
X140380817Y-107383591D01*
X140369826Y-107488041D01*
X140348933Y-107541735D01*
X140314963Y-107561621D01*
X140271500Y-107564613D01*
X140125096Y-107578582D01*
X140050319Y-107593998D01*
X140004931Y-107602333D01*
X139975216Y-107587439D01*
X139958543Y-107533037D01*
X139952284Y-107422849D01*
X139953806Y-107240596D01*
X139958950Y-107028507D01*
X139966708Y-106793890D01*
X139976229Y-106599258D01*
X139986285Y-106465429D01*
X139995287Y-106413499D01*
X140054652Y-106393978D01*
X140174188Y-106372623D01*
X140200956Y-106369008D01*
X140385800Y-106345342D01*
X140385800Y-106954631D01*
X140385800Y-106954631D01*
G37*
X140385800Y-106954631D02*
X140385083Y-107211437D01*
X140380817Y-107383591D01*
X140369826Y-107488041D01*
X140348933Y-107541735D01*
X140314963Y-107561621D01*
X140271500Y-107564613D01*
X140125096Y-107578582D01*
X140050319Y-107593998D01*
X140004931Y-107602333D01*
X139975216Y-107587439D01*
X139958543Y-107533037D01*
X139952284Y-107422849D01*
X139953806Y-107240596D01*
X139958950Y-107028507D01*
X139966708Y-106793890D01*
X139976229Y-106599258D01*
X139986285Y-106465429D01*
X139995287Y-106413499D01*
X140054652Y-106393978D01*
X140174188Y-106372623D01*
X140200956Y-106369008D01*
X140385800Y-106345342D01*
X140385800Y-106954631D01*
G36*
X147294600Y-107436920D02*
X147269200Y-107462320D01*
X147243800Y-107436920D01*
X147269200Y-107411520D01*
X147294600Y-107436920D01*
X147294600Y-107436920D01*
G37*
X147294600Y-107436920D02*
X147269200Y-107462320D01*
X147243800Y-107436920D01*
X147269200Y-107411520D01*
X147294600Y-107436920D01*
G36*
X142112509Y-105112877D02*
X142127816Y-105138220D01*
X142161738Y-105176245D01*
X142218410Y-105138220D01*
X142350016Y-105076576D01*
X142510903Y-105083042D01*
X142660528Y-105151919D01*
X142718912Y-105208570D01*
X142803435Y-105378280D01*
X142812834Y-105553125D01*
X142759925Y-105713586D01*
X142657520Y-105840142D01*
X142518434Y-105913273D01*
X142355482Y-105913459D01*
X142275810Y-105883561D01*
X142165559Y-105828386D01*
X142100300Y-105796016D01*
X142080440Y-105831950D01*
X142066657Y-105944052D01*
X142062200Y-106086486D01*
X142054582Y-106250564D01*
X142034633Y-106361989D01*
X142011400Y-106395520D01*
X141989674Y-106346520D01*
X141973438Y-106206504D01*
X141963498Y-105985950D01*
X141960600Y-105735120D01*
X141962316Y-105488745D01*
X142073323Y-105488745D01*
X142111766Y-105636058D01*
X142205300Y-105755891D01*
X142334057Y-105827580D01*
X142478164Y-105830464D01*
X142554321Y-105796808D01*
X142648182Y-105683321D01*
X142686064Y-105522642D01*
X142659538Y-105357364D01*
X142646785Y-105329465D01*
X142532161Y-105193088D01*
X142390822Y-105144517D01*
X142246774Y-105183520D01*
X142124019Y-105309868D01*
X142109844Y-105334615D01*
X142073323Y-105488745D01*
X141962316Y-105488745D01*
X141962535Y-105457415D01*
X141969385Y-105266893D01*
X141982714Y-105149190D01*
X142004088Y-105089944D01*
X142032566Y-105074720D01*
X142112509Y-105112877D01*
X142112509Y-105112877D01*
G37*
X142112509Y-105112877D02*
X142127816Y-105138220D01*
X142161738Y-105176245D01*
X142218410Y-105138220D01*
X142350016Y-105076576D01*
X142510903Y-105083042D01*
X142660528Y-105151919D01*
X142718912Y-105208570D01*
X142803435Y-105378280D01*
X142812834Y-105553125D01*
X142759925Y-105713586D01*
X142657520Y-105840142D01*
X142518434Y-105913273D01*
X142355482Y-105913459D01*
X142275810Y-105883561D01*
X142165559Y-105828386D01*
X142100300Y-105796016D01*
X142080440Y-105831950D01*
X142066657Y-105944052D01*
X142062200Y-106086486D01*
X142054582Y-106250564D01*
X142034633Y-106361989D01*
X142011400Y-106395520D01*
X141989674Y-106346520D01*
X141973438Y-106206504D01*
X141963498Y-105985950D01*
X141960600Y-105735120D01*
X141962316Y-105488745D01*
X142073323Y-105488745D01*
X142111766Y-105636058D01*
X142205300Y-105755891D01*
X142334057Y-105827580D01*
X142478164Y-105830464D01*
X142554321Y-105796808D01*
X142648182Y-105683321D01*
X142686064Y-105522642D01*
X142659538Y-105357364D01*
X142646785Y-105329465D01*
X142532161Y-105193088D01*
X142390822Y-105144517D01*
X142246774Y-105183520D01*
X142124019Y-105309868D01*
X142109844Y-105334615D01*
X142073323Y-105488745D01*
X141962316Y-105488745D01*
X141962535Y-105457415D01*
X141969385Y-105266893D01*
X141982714Y-105149190D01*
X142004088Y-105089944D01*
X142032566Y-105074720D01*
X142112509Y-105112877D01*
G36*
X138798395Y-105915320D02*
X138814022Y-106028133D01*
X138818877Y-106091945D01*
X138824049Y-106244323D01*
X138807494Y-106320338D01*
X138762398Y-106344128D01*
X138747500Y-106344751D01*
X138685335Y-106318992D01*
X138660564Y-106226437D01*
X138658600Y-106163291D01*
X138677712Y-106020937D01*
X138724295Y-105916741D01*
X138729977Y-105910485D01*
X138773074Y-105881604D01*
X138798395Y-105915320D01*
X138798395Y-105915320D01*
G37*
X138798395Y-105915320D02*
X138814022Y-106028133D01*
X138818877Y-106091945D01*
X138824049Y-106244323D01*
X138807494Y-106320338D01*
X138762398Y-106344128D01*
X138747500Y-106344751D01*
X138685335Y-106318992D01*
X138660564Y-106226437D01*
X138658600Y-106163291D01*
X138677712Y-106020937D01*
X138724295Y-105916741D01*
X138729977Y-105910485D01*
X138773074Y-105881604D01*
X138798395Y-105915320D01*
G36*
X138309897Y-106017166D02*
X138326730Y-106052328D01*
X138377367Y-106113005D01*
X138409923Y-106112830D01*
X138449740Y-106126457D01*
X138455400Y-106158486D01*
X138414655Y-106239107D01*
X138326295Y-106269213D01*
X138269447Y-106251119D01*
X138243930Y-106182736D01*
X138254361Y-106090720D01*
X138283453Y-106008245D01*
X138309897Y-106017166D01*
X138309897Y-106017166D01*
G37*
X138309897Y-106017166D02*
X138326730Y-106052328D01*
X138377367Y-106113005D01*
X138409923Y-106112830D01*
X138449740Y-106126457D01*
X138455400Y-106158486D01*
X138414655Y-106239107D01*
X138326295Y-106269213D01*
X138269447Y-106251119D01*
X138243930Y-106182736D01*
X138254361Y-106090720D01*
X138283453Y-106008245D01*
X138309897Y-106017166D01*
G36*
X140106447Y-105754612D02*
X140213134Y-105883098D01*
X140260233Y-105967040D01*
X140258765Y-106034948D01*
X140235137Y-106087472D01*
X140155469Y-106164912D01*
X140051697Y-106193252D01*
X139968389Y-106162269D01*
X139959655Y-106150670D01*
X139956914Y-106079992D01*
X139981038Y-105953144D01*
X139994804Y-105902800D01*
X140043148Y-105774626D01*
X140086757Y-105740699D01*
X140106447Y-105754612D01*
X140106447Y-105754612D01*
G37*
X140106447Y-105754612D02*
X140213134Y-105883098D01*
X140260233Y-105967040D01*
X140258765Y-106034948D01*
X140235137Y-106087472D01*
X140155469Y-106164912D01*
X140051697Y-106193252D01*
X139968389Y-106162269D01*
X139959655Y-106150670D01*
X139956914Y-106079992D01*
X139981038Y-105953144D01*
X139994804Y-105902800D01*
X140043148Y-105774626D01*
X140086757Y-105740699D01*
X140106447Y-105754612D01*
G36*
X144181718Y-105165463D02*
X144295645Y-105261827D01*
X144381962Y-105396035D01*
X144387081Y-105484393D01*
X144305852Y-105533001D01*
X144133129Y-105547960D01*
X144055382Y-105546559D01*
X143882304Y-105543248D01*
X143787358Y-105553440D01*
X143747234Y-105584914D01*
X143738625Y-105645448D01*
X143738600Y-105652275D01*
X143782044Y-105776125D01*
X143894232Y-105853891D01*
X144047946Y-105872864D01*
X144157147Y-105847684D01*
X144286558Y-105810958D01*
X144341666Y-105821082D01*
X144313923Y-105873122D01*
X144268291Y-105911829D01*
X144108991Y-105976517D01*
X143920645Y-105976385D01*
X143752258Y-105911659D01*
X143749053Y-105909444D01*
X143675444Y-105836407D01*
X143664548Y-105782444D01*
X143657094Y-105738181D01*
X143639998Y-105735120D01*
X143596364Y-105693203D01*
X143586097Y-105589125D01*
X143605679Y-105455392D01*
X143638361Y-105362223D01*
X143751154Y-105362223D01*
X143762434Y-105411072D01*
X143791419Y-105432643D01*
X143886133Y-105464603D01*
X144015509Y-105478435D01*
X144142267Y-105474330D01*
X144229129Y-105452479D01*
X144246600Y-105430320D01*
X144208599Y-105349968D01*
X144120795Y-105257548D01*
X144022481Y-105189817D01*
X143975073Y-105176320D01*
X143892765Y-105211156D01*
X143811993Y-105281021D01*
X143751154Y-105362223D01*
X143638361Y-105362223D01*
X143651590Y-105324512D01*
X143691487Y-105259370D01*
X143835649Y-105149075D01*
X144010165Y-105117818D01*
X144181718Y-105165463D01*
X144181718Y-105165463D01*
G37*
X144181718Y-105165463D02*
X144295645Y-105261827D01*
X144381962Y-105396035D01*
X144387081Y-105484393D01*
X144305852Y-105533001D01*
X144133129Y-105547960D01*
X144055382Y-105546559D01*
X143882304Y-105543248D01*
X143787358Y-105553440D01*
X143747234Y-105584914D01*
X143738625Y-105645448D01*
X143738600Y-105652275D01*
X143782044Y-105776125D01*
X143894232Y-105853891D01*
X144047946Y-105872864D01*
X144157147Y-105847684D01*
X144286558Y-105810958D01*
X144341666Y-105821082D01*
X144313923Y-105873122D01*
X144268291Y-105911829D01*
X144108991Y-105976517D01*
X143920645Y-105976385D01*
X143752258Y-105911659D01*
X143749053Y-105909444D01*
X143675444Y-105836407D01*
X143664548Y-105782444D01*
X143657094Y-105738181D01*
X143639998Y-105735120D01*
X143596364Y-105693203D01*
X143586097Y-105589125D01*
X143605679Y-105455392D01*
X143638361Y-105362223D01*
X143751154Y-105362223D01*
X143762434Y-105411072D01*
X143791419Y-105432643D01*
X143886133Y-105464603D01*
X144015509Y-105478435D01*
X144142267Y-105474330D01*
X144229129Y-105452479D01*
X144246600Y-105430320D01*
X144208599Y-105349968D01*
X144120795Y-105257548D01*
X144022481Y-105189817D01*
X143975073Y-105176320D01*
X143892765Y-105211156D01*
X143811993Y-105281021D01*
X143751154Y-105362223D01*
X143638361Y-105362223D01*
X143651590Y-105324512D01*
X143691487Y-105259370D01*
X143835649Y-105149075D01*
X144010165Y-105117818D01*
X144181718Y-105165463D01*
G36*
X143252288Y-104461416D02*
X143265805Y-104588411D01*
X143272968Y-104773865D01*
X143274240Y-104996338D01*
X143270079Y-105234390D01*
X143260947Y-105466580D01*
X143247303Y-105671468D01*
X143229609Y-105827614D01*
X143208326Y-105913577D01*
X143199545Y-105923333D01*
X143169758Y-105892819D01*
X143154412Y-105772988D01*
X143152897Y-105558494D01*
X143153742Y-105521104D01*
X143160101Y-105264574D01*
X143166644Y-104992400D01*
X143171980Y-104762394D01*
X143172096Y-104757220D01*
X143183245Y-104578727D01*
X143205058Y-104456771D01*
X143231958Y-104414320D01*
X143252288Y-104461416D01*
X143252288Y-104461416D01*
G37*
X143252288Y-104461416D02*
X143265805Y-104588411D01*
X143272968Y-104773865D01*
X143274240Y-104996338D01*
X143270079Y-105234390D01*
X143260947Y-105466580D01*
X143247303Y-105671468D01*
X143229609Y-105827614D01*
X143208326Y-105913577D01*
X143199545Y-105923333D01*
X143169758Y-105892819D01*
X143154412Y-105772988D01*
X143152897Y-105558494D01*
X143153742Y-105521104D01*
X143160101Y-105264574D01*
X143166644Y-104992400D01*
X143171980Y-104762394D01*
X143172096Y-104757220D01*
X143183245Y-104578727D01*
X143205058Y-104456771D01*
X143231958Y-104414320D01*
X143252288Y-104461416D01*
G36*
X140272276Y-105024050D02*
X140299840Y-105146735D01*
X140309600Y-105324315D01*
X140316190Y-105513129D01*
X140340668Y-105628792D01*
X140390090Y-105699176D01*
X140408209Y-105713727D01*
X140534353Y-105777035D01*
X140627104Y-105753595D01*
X140689912Y-105639613D01*
X140726228Y-105431294D01*
X140731988Y-105357597D01*
X140751736Y-105161586D01*
X140782092Y-105054525D01*
X140823517Y-105023920D01*
X140872549Y-105068300D01*
X140897266Y-105182368D01*
X140899039Y-105337510D01*
X140879241Y-105505115D01*
X140839245Y-105656571D01*
X140788512Y-105753669D01*
X140647834Y-105858174D01*
X140472682Y-105887209D01*
X140301179Y-105836389D01*
X140267196Y-105813657D01*
X140193170Y-105704037D01*
X140147636Y-105527648D01*
X140136097Y-105316686D01*
X140153856Y-105150875D01*
X140192144Y-105018168D01*
X140233997Y-104978544D01*
X140272276Y-105024050D01*
X140272276Y-105024050D01*
G37*
X140272276Y-105024050D02*
X140299840Y-105146735D01*
X140309600Y-105324315D01*
X140316190Y-105513129D01*
X140340668Y-105628792D01*
X140390090Y-105699176D01*
X140408209Y-105713727D01*
X140534353Y-105777035D01*
X140627104Y-105753595D01*
X140689912Y-105639613D01*
X140726228Y-105431294D01*
X140731988Y-105357597D01*
X140751736Y-105161586D01*
X140782092Y-105054525D01*
X140823517Y-105023920D01*
X140872549Y-105068300D01*
X140897266Y-105182368D01*
X140899039Y-105337510D01*
X140879241Y-105505115D01*
X140839245Y-105656571D01*
X140788512Y-105753669D01*
X140647834Y-105858174D01*
X140472682Y-105887209D01*
X140301179Y-105836389D01*
X140267196Y-105813657D01*
X140193170Y-105704037D01*
X140147636Y-105527648D01*
X140136097Y-105316686D01*
X140153856Y-105150875D01*
X140192144Y-105018168D01*
X140233997Y-104978544D01*
X140272276Y-105024050D01*
G36*
X141710969Y-105031729D02*
X141736679Y-105064486D01*
X141732000Y-105074720D01*
X141659787Y-105118583D01*
X141609875Y-105125520D01*
X141479921Y-105171268D01*
X141392333Y-105302056D01*
X141352739Y-105508198D01*
X141351000Y-105571021D01*
X141340862Y-105717225D01*
X141316310Y-105823345D01*
X141286135Y-105874614D01*
X141259129Y-105856261D01*
X141244084Y-105753516D01*
X141243977Y-105750818D01*
X141240573Y-105549660D01*
X141244134Y-105349511D01*
X141253370Y-105177800D01*
X141266994Y-105061956D01*
X141277873Y-105029313D01*
X141323104Y-105040699D01*
X141351646Y-105075766D01*
X141404324Y-105122565D01*
X141460644Y-105086995D01*
X141536328Y-105044640D01*
X141631978Y-105025666D01*
X141710969Y-105031729D01*
X141710969Y-105031729D01*
G37*
X141710969Y-105031729D02*
X141736679Y-105064486D01*
X141732000Y-105074720D01*
X141659787Y-105118583D01*
X141609875Y-105125520D01*
X141479921Y-105171268D01*
X141392333Y-105302056D01*
X141352739Y-105508198D01*
X141351000Y-105571021D01*
X141340862Y-105717225D01*
X141316310Y-105823345D01*
X141286135Y-105874614D01*
X141259129Y-105856261D01*
X141244084Y-105753516D01*
X141243977Y-105750818D01*
X141240573Y-105549660D01*
X141244134Y-105349511D01*
X141253370Y-105177800D01*
X141266994Y-105061956D01*
X141277873Y-105029313D01*
X141323104Y-105040699D01*
X141351646Y-105075766D01*
X141404324Y-105122565D01*
X141460644Y-105086995D01*
X141536328Y-105044640D01*
X141631978Y-105025666D01*
X141710969Y-105031729D01*
G36*
X139615783Y-104446814D02*
X139789499Y-104537537D01*
X139886445Y-104676347D01*
X139898163Y-104853105D01*
X139853403Y-104989231D01*
X139758261Y-105128427D01*
X139622489Y-105202742D01*
X139419503Y-105226328D01*
X139407900Y-105226426D01*
X139330550Y-105231898D01*
X139288798Y-105263325D01*
X139271677Y-105344690D01*
X139268218Y-105499980D01*
X139268200Y-105531920D01*
X139262347Y-105708903D01*
X139241602Y-105803925D01*
X139201181Y-105836118D01*
X139192000Y-105836720D01*
X139157723Y-105820664D01*
X139135220Y-105761712D01*
X139122260Y-105643688D01*
X139116610Y-105450416D01*
X139115800Y-105284270D01*
X139118700Y-105039751D01*
X139119021Y-105030613D01*
X139290055Y-105030613D01*
X139337960Y-105068462D01*
X139441170Y-105074720D01*
X139615404Y-105034919D01*
X139703141Y-104969648D01*
X139765024Y-104885390D01*
X139762087Y-104808717D01*
X139722130Y-104728348D01*
X139612965Y-104613158D01*
X139482515Y-104576201D01*
X139368350Y-104575810D01*
X139321878Y-104617901D01*
X139313207Y-104677801D01*
X139302431Y-104822319D01*
X139290851Y-104935020D01*
X139290055Y-105030613D01*
X139119021Y-105030613D01*
X139126529Y-104817472D01*
X139137977Y-104646742D01*
X139147550Y-104573070D01*
X139178991Y-104468831D01*
X139239785Y-104424110D01*
X139364953Y-104414332D01*
X139373759Y-104414320D01*
X139615783Y-104446814D01*
X139615783Y-104446814D01*
G37*
X139615783Y-104446814D02*
X139789499Y-104537537D01*
X139886445Y-104676347D01*
X139898163Y-104853105D01*
X139853403Y-104989231D01*
X139758261Y-105128427D01*
X139622489Y-105202742D01*
X139419503Y-105226328D01*
X139407900Y-105226426D01*
X139330550Y-105231898D01*
X139288798Y-105263325D01*
X139271677Y-105344690D01*
X139268218Y-105499980D01*
X139268200Y-105531920D01*
X139262347Y-105708903D01*
X139241602Y-105803925D01*
X139201181Y-105836118D01*
X139192000Y-105836720D01*
X139157723Y-105820664D01*
X139135220Y-105761712D01*
X139122260Y-105643688D01*
X139116610Y-105450416D01*
X139115800Y-105284270D01*
X139118700Y-105039751D01*
X139119021Y-105030613D01*
X139290055Y-105030613D01*
X139337960Y-105068462D01*
X139441170Y-105074720D01*
X139615404Y-105034919D01*
X139703141Y-104969648D01*
X139765024Y-104885390D01*
X139762087Y-104808717D01*
X139722130Y-104728348D01*
X139612965Y-104613158D01*
X139482515Y-104576201D01*
X139368350Y-104575810D01*
X139321878Y-104617901D01*
X139313207Y-104677801D01*
X139302431Y-104822319D01*
X139290851Y-104935020D01*
X139290055Y-105030613D01*
X139119021Y-105030613D01*
X139126529Y-104817472D01*
X139137977Y-104646742D01*
X139147550Y-104573070D01*
X139178991Y-104468831D01*
X139239785Y-104424110D01*
X139364953Y-104414332D01*
X139373759Y-104414320D01*
X139615783Y-104446814D01*
G36*
X137594285Y-104879873D02*
X137719959Y-104925779D01*
X137745218Y-104948947D01*
X137788051Y-105029896D01*
X137754167Y-105057755D01*
X137659026Y-105022163D01*
X137646919Y-105014828D01*
X137552623Y-104975266D01*
X137456250Y-104996850D01*
X137400672Y-105025626D01*
X137302657Y-105104420D01*
X137256868Y-105221025D01*
X137246346Y-105310122D01*
X137247658Y-105456929D01*
X137289132Y-105545627D01*
X137348091Y-105593548D01*
X137488915Y-105646800D01*
X137607836Y-105654989D01*
X137712249Y-105660524D01*
X137730764Y-105700145D01*
X137671902Y-105743499D01*
X137552025Y-105773263D01*
X137523579Y-105776333D01*
X137378579Y-105770648D01*
X137261539Y-105710395D01*
X137184606Y-105640541D01*
X137088625Y-105519994D01*
X137036264Y-105406451D01*
X137033000Y-105380904D01*
X137066093Y-105225169D01*
X137148244Y-105063882D01*
X137253756Y-104943802D01*
X137284186Y-104923825D01*
X137434200Y-104878414D01*
X137594285Y-104879873D01*
X137594285Y-104879873D01*
G37*
X137594285Y-104879873D02*
X137719959Y-104925779D01*
X137745218Y-104948947D01*
X137788051Y-105029896D01*
X137754167Y-105057755D01*
X137659026Y-105022163D01*
X137646919Y-105014828D01*
X137552623Y-104975266D01*
X137456250Y-104996850D01*
X137400672Y-105025626D01*
X137302657Y-105104420D01*
X137256868Y-105221025D01*
X137246346Y-105310122D01*
X137247658Y-105456929D01*
X137289132Y-105545627D01*
X137348091Y-105593548D01*
X137488915Y-105646800D01*
X137607836Y-105654989D01*
X137712249Y-105660524D01*
X137730764Y-105700145D01*
X137671902Y-105743499D01*
X137552025Y-105773263D01*
X137523579Y-105776333D01*
X137378579Y-105770648D01*
X137261539Y-105710395D01*
X137184606Y-105640541D01*
X137088625Y-105519994D01*
X137036264Y-105406451D01*
X137033000Y-105380904D01*
X137066093Y-105225169D01*
X137148244Y-105063882D01*
X137253756Y-104943802D01*
X137284186Y-104923825D01*
X137434200Y-104878414D01*
X137594285Y-104879873D01*
G36*
X138185695Y-104662956D02*
X138201400Y-104769920D01*
X138224118Y-104890911D01*
X138277600Y-104922320D01*
X138345203Y-104949750D01*
X138353800Y-104973120D01*
X138312654Y-105018188D01*
X138277600Y-105023920D01*
X138222836Y-105060082D01*
X138201568Y-105177678D01*
X138200840Y-105214420D01*
X138191642Y-105411531D01*
X138168467Y-105589512D01*
X138136204Y-105722422D01*
X138099740Y-105784321D01*
X138093153Y-105785920D01*
X138071943Y-105739297D01*
X138056303Y-105616069D01*
X138049159Y-105441198D01*
X138049000Y-105409153D01*
X138039971Y-105173883D01*
X138012825Y-105038011D01*
X137985500Y-105002753D01*
X137948141Y-104969391D01*
X137985500Y-104943486D01*
X138031321Y-104876255D01*
X138049000Y-104765686D01*
X138072261Y-104647817D01*
X138125200Y-104617520D01*
X138185695Y-104662956D01*
X138185695Y-104662956D01*
G37*
X138185695Y-104662956D02*
X138201400Y-104769920D01*
X138224118Y-104890911D01*
X138277600Y-104922320D01*
X138345203Y-104949750D01*
X138353800Y-104973120D01*
X138312654Y-105018188D01*
X138277600Y-105023920D01*
X138222836Y-105060082D01*
X138201568Y-105177678D01*
X138200840Y-105214420D01*
X138191642Y-105411531D01*
X138168467Y-105589512D01*
X138136204Y-105722422D01*
X138099740Y-105784321D01*
X138093153Y-105785920D01*
X138071943Y-105739297D01*
X138056303Y-105616069D01*
X138049159Y-105441198D01*
X138049000Y-105409153D01*
X138039971Y-105173883D01*
X138012825Y-105038011D01*
X137985500Y-105002753D01*
X137948141Y-104969391D01*
X137985500Y-104943486D01*
X138031321Y-104876255D01*
X138049000Y-104765686D01*
X138072261Y-104647817D01*
X138125200Y-104617520D01*
X138185695Y-104662956D01*
G36*
X136503232Y-104843449D02*
X136639687Y-104889070D01*
X136724762Y-104983176D01*
X136761219Y-105059721D01*
X136803176Y-105191638D01*
X136784215Y-105267408D01*
X136692061Y-105297627D01*
X136514442Y-105292892D01*
X136493282Y-105291063D01*
X136296255Y-105281547D01*
X136186044Y-105300988D01*
X136150402Y-105355772D01*
X136177085Y-105452282D01*
X136178417Y-105455225D01*
X136264620Y-105561541D01*
X136383649Y-105619691D01*
X136498037Y-105615753D01*
X136538879Y-105589160D01*
X136634639Y-105541887D01*
X136700260Y-105533610D01*
X136766693Y-105539659D01*
X136760159Y-105568494D01*
X136684472Y-105635210D01*
X136514324Y-105717266D01*
X136317030Y-105726772D01*
X136138403Y-105661883D01*
X136131931Y-105657459D01*
X136043674Y-105552839D01*
X135990257Y-105415631D01*
X135989735Y-105195127D01*
X136017040Y-105130174D01*
X136169400Y-105130174D01*
X136213756Y-105165667D01*
X136322005Y-105188954D01*
X136456918Y-105197678D01*
X136581267Y-105189481D01*
X136657823Y-105162004D01*
X136658684Y-105161168D01*
X136656922Y-105103191D01*
X136598595Y-105023110D01*
X136513496Y-104952347D01*
X136432226Y-104922320D01*
X136341057Y-104953681D01*
X136241696Y-105025455D01*
X136176460Y-105104174D01*
X136169400Y-105130174D01*
X136017040Y-105130174D01*
X136066018Y-105013667D01*
X136203961Y-104888145D01*
X136388420Y-104835451D01*
X136503232Y-104843449D01*
X136503232Y-104843449D01*
G37*
X136503232Y-104843449D02*
X136639687Y-104889070D01*
X136724762Y-104983176D01*
X136761219Y-105059721D01*
X136803176Y-105191638D01*
X136784215Y-105267408D01*
X136692061Y-105297627D01*
X136514442Y-105292892D01*
X136493282Y-105291063D01*
X136296255Y-105281547D01*
X136186044Y-105300988D01*
X136150402Y-105355772D01*
X136177085Y-105452282D01*
X136178417Y-105455225D01*
X136264620Y-105561541D01*
X136383649Y-105619691D01*
X136498037Y-105615753D01*
X136538879Y-105589160D01*
X136634639Y-105541887D01*
X136700260Y-105533610D01*
X136766693Y-105539659D01*
X136760159Y-105568494D01*
X136684472Y-105635210D01*
X136514324Y-105717266D01*
X136317030Y-105726772D01*
X136138403Y-105661883D01*
X136131931Y-105657459D01*
X136043674Y-105552839D01*
X135990257Y-105415631D01*
X135989735Y-105195127D01*
X136017040Y-105130174D01*
X136169400Y-105130174D01*
X136213756Y-105165667D01*
X136322005Y-105188954D01*
X136456918Y-105197678D01*
X136581267Y-105189481D01*
X136657823Y-105162004D01*
X136658684Y-105161168D01*
X136656922Y-105103191D01*
X136598595Y-105023110D01*
X136513496Y-104952347D01*
X136432226Y-104922320D01*
X136341057Y-104953681D01*
X136241696Y-105025455D01*
X136176460Y-105104174D01*
X136169400Y-105130174D01*
X136017040Y-105130174D01*
X136066018Y-105013667D01*
X136203961Y-104888145D01*
X136388420Y-104835451D01*
X136503232Y-104843449D01*
G36*
X135884307Y-104162621D02*
X135899506Y-104222134D01*
X135845793Y-104260225D01*
X135823468Y-104261920D01*
X135733705Y-104290653D01*
X135682063Y-104386296D01*
X135662163Y-104563009D01*
X135661400Y-104621674D01*
X135670304Y-104752949D01*
X135706112Y-104810222D01*
X135763000Y-104820720D01*
X135850041Y-104842194D01*
X135853537Y-104887193D01*
X135776827Y-104926578D01*
X135750300Y-104931486D01*
X135680667Y-104954943D01*
X135643496Y-105017781D01*
X135625992Y-105147100D01*
X135622725Y-105201720D01*
X135601120Y-105455570D01*
X135570616Y-105617370D01*
X135535744Y-105685470D01*
X135501038Y-105658224D01*
X135471030Y-105533983D01*
X135450253Y-105311099D01*
X135448048Y-105265220D01*
X135442276Y-105065970D01*
X135442696Y-104905610D01*
X135449073Y-104811350D01*
X135452099Y-104800057D01*
X135469089Y-104724923D01*
X135486434Y-104588908D01*
X135492628Y-104520657D01*
X135536071Y-104331327D01*
X135622742Y-104191428D01*
X135736689Y-104121410D01*
X135805153Y-104120086D01*
X135884307Y-104162621D01*
X135884307Y-104162621D01*
G37*
X135884307Y-104162621D02*
X135899506Y-104222134D01*
X135845793Y-104260225D01*
X135823468Y-104261920D01*
X135733705Y-104290653D01*
X135682063Y-104386296D01*
X135662163Y-104563009D01*
X135661400Y-104621674D01*
X135670304Y-104752949D01*
X135706112Y-104810222D01*
X135763000Y-104820720D01*
X135850041Y-104842194D01*
X135853537Y-104887193D01*
X135776827Y-104926578D01*
X135750300Y-104931486D01*
X135680667Y-104954943D01*
X135643496Y-105017781D01*
X135625992Y-105147100D01*
X135622725Y-105201720D01*
X135601120Y-105455570D01*
X135570616Y-105617370D01*
X135535744Y-105685470D01*
X135501038Y-105658224D01*
X135471030Y-105533983D01*
X135450253Y-105311099D01*
X135448048Y-105265220D01*
X135442276Y-105065970D01*
X135442696Y-104905610D01*
X135449073Y-104811350D01*
X135452099Y-104800057D01*
X135469089Y-104724923D01*
X135486434Y-104588908D01*
X135492628Y-104520657D01*
X135536071Y-104331327D01*
X135622742Y-104191428D01*
X135736689Y-104121410D01*
X135805153Y-104120086D01*
X135884307Y-104162621D01*
G36*
X138844866Y-105599653D02*
X138850946Y-105659941D01*
X138844866Y-105667386D01*
X138814666Y-105660413D01*
X138811000Y-105633520D01*
X138829586Y-105591705D01*
X138844866Y-105599653D01*
X138844866Y-105599653D01*
G37*
X138844866Y-105599653D02*
X138850946Y-105659941D01*
X138844866Y-105667386D01*
X138814666Y-105660413D01*
X138811000Y-105633520D01*
X138829586Y-105591705D01*
X138844866Y-105599653D01*
G36*
X134105839Y-104778289D02*
X134257660Y-104871399D01*
X134286112Y-104903770D01*
X134373225Y-105031529D01*
X134386821Y-105112918D01*
X134319005Y-105157504D01*
X134161886Y-105174851D01*
X134061200Y-105176320D01*
X133883438Y-105178871D01*
X133784399Y-105191916D01*
X133741231Y-105223540D01*
X133731086Y-105281828D01*
X133731000Y-105293160D01*
X133756094Y-105412580D01*
X133791960Y-105470960D01*
X133901469Y-105521742D01*
X134044168Y-105526058D01*
X134163243Y-105483780D01*
X134177193Y-105471806D01*
X134247887Y-105439199D01*
X134276173Y-105450560D01*
X134278157Y-105505190D01*
X134208053Y-105564282D01*
X134093370Y-105612232D01*
X133961620Y-105633438D01*
X133953577Y-105633520D01*
X133791196Y-105596154D01*
X133683887Y-105499669D01*
X133591941Y-105314849D01*
X133598408Y-105114553D01*
X133642112Y-105004074D01*
X133792449Y-105004074D01*
X133802927Y-105071749D01*
X133909060Y-105109103D01*
X134010400Y-105117693D01*
X134170062Y-105111145D01*
X134235943Y-105075176D01*
X134238222Y-105062430D01*
X134194956Y-104936723D01*
X134092309Y-104862548D01*
X133965664Y-104855424D01*
X133876053Y-104903568D01*
X133792449Y-105004074D01*
X133642112Y-105004074D01*
X133652921Y-104976753D01*
X133774568Y-104834297D01*
X133935174Y-104767032D01*
X134105839Y-104778289D01*
X134105839Y-104778289D01*
G37*
X134105839Y-104778289D02*
X134257660Y-104871399D01*
X134286112Y-104903770D01*
X134373225Y-105031529D01*
X134386821Y-105112918D01*
X134319005Y-105157504D01*
X134161886Y-105174851D01*
X134061200Y-105176320D01*
X133883438Y-105178871D01*
X133784399Y-105191916D01*
X133741231Y-105223540D01*
X133731086Y-105281828D01*
X133731000Y-105293160D01*
X133756094Y-105412580D01*
X133791960Y-105470960D01*
X133901469Y-105521742D01*
X134044168Y-105526058D01*
X134163243Y-105483780D01*
X134177193Y-105471806D01*
X134247887Y-105439199D01*
X134276173Y-105450560D01*
X134278157Y-105505190D01*
X134208053Y-105564282D01*
X134093370Y-105612232D01*
X133961620Y-105633438D01*
X133953577Y-105633520D01*
X133791196Y-105596154D01*
X133683887Y-105499669D01*
X133591941Y-105314849D01*
X133598408Y-105114553D01*
X133642112Y-105004074D01*
X133792449Y-105004074D01*
X133802927Y-105071749D01*
X133909060Y-105109103D01*
X134010400Y-105117693D01*
X134170062Y-105111145D01*
X134235943Y-105075176D01*
X134238222Y-105062430D01*
X134194956Y-104936723D01*
X134092309Y-104862548D01*
X133965664Y-104855424D01*
X133876053Y-104903568D01*
X133792449Y-105004074D01*
X133642112Y-105004074D01*
X133652921Y-104976753D01*
X133774568Y-104834297D01*
X133935174Y-104767032D01*
X134105839Y-104778289D01*
G36*
X134799425Y-104785923D02*
X134827127Y-104838036D01*
X134861253Y-104884417D01*
X134928165Y-104872871D01*
X134988226Y-104843855D01*
X135104424Y-104802364D01*
X135176497Y-104810770D01*
X135181918Y-104864885D01*
X135174490Y-104878493D01*
X135107226Y-104908033D01*
X135068287Y-104900529D01*
X134970603Y-104908813D01*
X134890670Y-105007015D01*
X134833195Y-105184294D01*
X134802883Y-105429809D01*
X134799718Y-105519220D01*
X134779059Y-105608479D01*
X134747000Y-105633520D01*
X134721791Y-105586018D01*
X134704094Y-105456456D01*
X134696351Y-105264246D01*
X134696200Y-105230118D01*
X134704478Y-105015641D01*
X134726878Y-104862820D01*
X134759745Y-104782600D01*
X134799425Y-104785923D01*
X134799425Y-104785923D01*
G37*
X134799425Y-104785923D02*
X134827127Y-104838036D01*
X134861253Y-104884417D01*
X134928165Y-104872871D01*
X134988226Y-104843855D01*
X135104424Y-104802364D01*
X135176497Y-104810770D01*
X135181918Y-104864885D01*
X135174490Y-104878493D01*
X135107226Y-104908033D01*
X135068287Y-104900529D01*
X134970603Y-104908813D01*
X134890670Y-105007015D01*
X134833195Y-105184294D01*
X134802883Y-105429809D01*
X134799718Y-105519220D01*
X134779059Y-105608479D01*
X134747000Y-105633520D01*
X134721791Y-105586018D01*
X134704094Y-105456456D01*
X134696351Y-105264246D01*
X134696200Y-105230118D01*
X134704478Y-105015641D01*
X134726878Y-104862820D01*
X134759745Y-104782600D01*
X134799425Y-104785923D01*
G36*
X132938581Y-104196746D02*
X132960132Y-104199096D01*
X133169724Y-104232433D01*
X133299715Y-104285955D01*
X133371828Y-104372378D01*
X133398768Y-104455872D01*
X133402631Y-104663289D01*
X133320530Y-104825049D01*
X133161513Y-104931479D01*
X132934632Y-104972903D01*
X132914892Y-104973120D01*
X132822586Y-104980244D01*
X132779275Y-105020140D01*
X132766503Y-105120596D01*
X132765800Y-105197565D01*
X132751399Y-105422029D01*
X132708325Y-105550092D01*
X132651859Y-105582720D01*
X132628941Y-105532759D01*
X132620789Y-105382748D01*
X132627396Y-105132494D01*
X132635262Y-104985820D01*
X132645726Y-104813227D01*
X132795710Y-104813227D01*
X132800630Y-104833420D01*
X132872466Y-104868934D01*
X132993323Y-104861521D01*
X133122441Y-104815817D01*
X133160896Y-104792439D01*
X133259448Y-104675886D01*
X133276985Y-104544082D01*
X133225150Y-104423450D01*
X133115589Y-104340412D01*
X132959946Y-104321393D01*
X132953679Y-104322230D01*
X132879307Y-104352704D01*
X132835468Y-104435011D01*
X132810332Y-104566720D01*
X132795713Y-104712257D01*
X132795710Y-104813227D01*
X132645726Y-104813227D01*
X132653715Y-104681476D01*
X132670790Y-104464426D01*
X132692289Y-104320617D01*
X132724015Y-104235997D01*
X132771770Y-104196514D01*
X132841358Y-104188114D01*
X132938581Y-104196746D01*
X132938581Y-104196746D01*
G37*
X132938581Y-104196746D02*
X132960132Y-104199096D01*
X133169724Y-104232433D01*
X133299715Y-104285955D01*
X133371828Y-104372378D01*
X133398768Y-104455872D01*
X133402631Y-104663289D01*
X133320530Y-104825049D01*
X133161513Y-104931479D01*
X132934632Y-104972903D01*
X132914892Y-104973120D01*
X132822586Y-104980244D01*
X132779275Y-105020140D01*
X132766503Y-105120596D01*
X132765800Y-105197565D01*
X132751399Y-105422029D01*
X132708325Y-105550092D01*
X132651859Y-105582720D01*
X132628941Y-105532759D01*
X132620789Y-105382748D01*
X132627396Y-105132494D01*
X132635262Y-104985820D01*
X132645726Y-104813227D01*
X132795710Y-104813227D01*
X132800630Y-104833420D01*
X132872466Y-104868934D01*
X132993323Y-104861521D01*
X133122441Y-104815817D01*
X133160896Y-104792439D01*
X133259448Y-104675886D01*
X133276985Y-104544082D01*
X133225150Y-104423450D01*
X133115589Y-104340412D01*
X132959946Y-104321393D01*
X132953679Y-104322230D01*
X132879307Y-104352704D01*
X132835468Y-104435011D01*
X132810332Y-104566720D01*
X132795713Y-104712257D01*
X132795710Y-104813227D01*
X132645726Y-104813227D01*
X132653715Y-104681476D01*
X132670790Y-104464426D01*
X132692289Y-104320617D01*
X132724015Y-104235997D01*
X132771770Y-104196514D01*
X132841358Y-104188114D01*
X132938581Y-104196746D01*
G36*
X138870430Y-105446066D02*
X138887200Y-105481120D01*
X138850870Y-105526804D01*
X138846101Y-105528349D01*
X138797994Y-105508153D01*
X138734800Y-105481120D01*
X138675447Y-105450143D01*
X138703843Y-105437205D01*
X138775898Y-105433890D01*
X138870430Y-105446066D01*
X138870430Y-105446066D01*
G37*
X138870430Y-105446066D02*
X138887200Y-105481120D01*
X138850870Y-105526804D01*
X138846101Y-105528349D01*
X138797994Y-105508153D01*
X138734800Y-105481120D01*
X138675447Y-105450143D01*
X138703843Y-105437205D01*
X138775898Y-105433890D01*
X138870430Y-105446066D01*
G36*
X138997266Y-105091653D02*
X139003346Y-105151941D01*
X138997266Y-105159386D01*
X138967066Y-105152413D01*
X138963400Y-105125520D01*
X138981986Y-105083705D01*
X138997266Y-105091653D01*
X138997266Y-105091653D01*
G37*
X138997266Y-105091653D02*
X139003346Y-105151941D01*
X138997266Y-105159386D01*
X138967066Y-105152413D01*
X138963400Y-105125520D01*
X138981986Y-105083705D01*
X138997266Y-105091653D01*
G36*
X141531500Y-102001320D02*
X141563450Y-102188511D01*
X141574958Y-102433086D01*
X141566004Y-102692905D01*
X141536571Y-102925824D01*
X141531921Y-102948750D01*
X141491907Y-103057109D01*
X141412914Y-103218227D01*
X141311080Y-103399516D01*
X141297698Y-103421727D01*
X141192249Y-103600897D01*
X141104181Y-103760628D01*
X141050675Y-103869603D01*
X141047191Y-103878312D01*
X140993302Y-104005865D01*
X140913641Y-104177549D01*
X140818895Y-104372309D01*
X140719757Y-104569091D01*
X140626916Y-104746840D01*
X140551061Y-104884504D01*
X140502884Y-104961028D01*
X140492941Y-104969899D01*
X140426438Y-104950325D01*
X140347700Y-104920736D01*
X140268106Y-104876174D01*
X140241009Y-104812955D01*
X140266934Y-104709364D01*
X140346410Y-104543688D01*
X140357362Y-104522794D01*
X140450930Y-104333504D01*
X140550392Y-104115158D01*
X140595987Y-104007920D01*
X140664745Y-103852821D01*
X140724805Y-103738696D01*
X140755763Y-103697440D01*
X140795948Y-103632072D01*
X140795996Y-103621240D01*
X140807998Y-103545251D01*
X140843716Y-103425232D01*
X140844242Y-103423720D01*
X140881101Y-103315033D01*
X140897722Y-103260204D01*
X140897791Y-103259542D01*
X140915589Y-103209933D01*
X140959019Y-103102371D01*
X140970457Y-103074861D01*
X141029691Y-102905615D01*
X141071216Y-102740093D01*
X141071407Y-102739012D01*
X141106862Y-102616513D01*
X141175209Y-102437446D01*
X141263233Y-102235776D01*
X141286150Y-102187092D01*
X141472187Y-101798120D01*
X141531500Y-102001320D01*
X141531500Y-102001320D01*
G37*
X141531500Y-102001320D02*
X141563450Y-102188511D01*
X141574958Y-102433086D01*
X141566004Y-102692905D01*
X141536571Y-102925824D01*
X141531921Y-102948750D01*
X141491907Y-103057109D01*
X141412914Y-103218227D01*
X141311080Y-103399516D01*
X141297698Y-103421727D01*
X141192249Y-103600897D01*
X141104181Y-103760628D01*
X141050675Y-103869603D01*
X141047191Y-103878312D01*
X140993302Y-104005865D01*
X140913641Y-104177549D01*
X140818895Y-104372309D01*
X140719757Y-104569091D01*
X140626916Y-104746840D01*
X140551061Y-104884504D01*
X140502884Y-104961028D01*
X140492941Y-104969899D01*
X140426438Y-104950325D01*
X140347700Y-104920736D01*
X140268106Y-104876174D01*
X140241009Y-104812955D01*
X140266934Y-104709364D01*
X140346410Y-104543688D01*
X140357362Y-104522794D01*
X140450930Y-104333504D01*
X140550392Y-104115158D01*
X140595987Y-104007920D01*
X140664745Y-103852821D01*
X140724805Y-103738696D01*
X140755763Y-103697440D01*
X140795948Y-103632072D01*
X140795996Y-103621240D01*
X140807998Y-103545251D01*
X140843716Y-103425232D01*
X140844242Y-103423720D01*
X140881101Y-103315033D01*
X140897722Y-103260204D01*
X140897791Y-103259542D01*
X140915589Y-103209933D01*
X140959019Y-103102371D01*
X140970457Y-103074861D01*
X141029691Y-102905615D01*
X141071216Y-102740093D01*
X141071407Y-102739012D01*
X141106862Y-102616513D01*
X141175209Y-102437446D01*
X141263233Y-102235776D01*
X141286150Y-102187092D01*
X141472187Y-101798120D01*
X141531500Y-102001320D01*
G36*
X138558380Y-100274510D02*
X138699280Y-100383743D01*
X138825658Y-100447093D01*
X138978831Y-100413898D01*
X139085303Y-100345253D01*
X139243445Y-100266102D01*
X139381834Y-100283693D01*
X139487493Y-100394306D01*
X139519722Y-100469812D01*
X139610965Y-100626413D01*
X139744950Y-100710028D01*
X139898680Y-100706842D01*
X139908555Y-100703395D01*
X140047368Y-100695870D01*
X140137155Y-100725327D01*
X140211203Y-100776053D01*
X140243078Y-100850790D01*
X140244553Y-100983625D01*
X140241690Y-101027955D01*
X140251106Y-101242786D01*
X140315836Y-101372535D01*
X140435827Y-101417098D01*
X140439191Y-101417120D01*
X140566928Y-101458356D01*
X140652784Y-101560288D01*
X140686323Y-101690250D01*
X140657112Y-101815579D01*
X140589000Y-101886109D01*
X140505032Y-101993421D01*
X140487400Y-102091863D01*
X140522118Y-102236029D01*
X140589000Y-102343223D01*
X140671467Y-102480570D01*
X140674676Y-102608782D01*
X140605699Y-102702876D01*
X140477239Y-102737920D01*
X140376365Y-102772042D01*
X140278602Y-102845117D01*
X140207152Y-102944071D01*
X140192622Y-103065182D01*
X140202419Y-103146271D01*
X140202731Y-103332176D01*
X140131877Y-103445629D01*
X139988887Y-103487592D01*
X139867600Y-103478781D01*
X139721376Y-103469218D01*
X139617721Y-103510056D01*
X139546126Y-103572975D01*
X139460795Y-103678688D01*
X139420982Y-103768165D01*
X139420600Y-103774486D01*
X139376876Y-103866908D01*
X139266544Y-103917698D01*
X139120856Y-103912520D01*
X139120071Y-103912325D01*
X138964283Y-103878946D01*
X138862379Y-103882153D01*
X138802544Y-103936747D01*
X138772965Y-104057527D01*
X138761828Y-104259295D01*
X138759926Y-104363520D01*
X138750203Y-104549095D01*
X138729422Y-104722093D01*
X138702184Y-104854906D01*
X138673085Y-104919925D01*
X138666834Y-104922390D01*
X138652552Y-104875256D01*
X138641282Y-104748305D01*
X138634501Y-104563310D01*
X138633200Y-104427090D01*
X138633200Y-103931720D01*
X138398916Y-103916523D01*
X138243952Y-103896315D01*
X138156205Y-103850602D01*
X138106816Y-103774432D01*
X138063087Y-103653989D01*
X138049000Y-103577153D01*
X138003181Y-103506089D01*
X137884326Y-103456850D01*
X137720335Y-103439680D01*
X137679096Y-103441349D01*
X137533357Y-103428792D01*
X137434506Y-103395701D01*
X137373049Y-103346072D01*
X137345996Y-103263915D01*
X137344931Y-103118522D01*
X137347210Y-103077272D01*
X137352246Y-102920314D01*
X137333606Y-102830630D01*
X137277472Y-102774369D01*
X137208099Y-102736563D01*
X137076085Y-102660733D01*
X136975975Y-102587056D01*
X136975757Y-102586853D01*
X136925910Y-102486942D01*
X136928534Y-102364555D01*
X136978610Y-102267806D01*
X137011215Y-102246903D01*
X137068409Y-102183298D01*
X137098470Y-102102794D01*
X137651992Y-102102794D01*
X137716075Y-102402039D01*
X137740898Y-102462973D01*
X137924991Y-102771339D01*
X138162183Y-102997878D01*
X138441331Y-103138367D01*
X138751291Y-103188581D01*
X139080919Y-103144298D01*
X139310806Y-103057962D01*
X139565699Y-102894289D01*
X139753081Y-102671105D01*
X139885833Y-102372472D01*
X139898795Y-102330502D01*
X139943490Y-102160945D01*
X139954389Y-102032558D01*
X139931523Y-101893465D01*
X139899113Y-101774626D01*
X139770947Y-101490318D01*
X139572466Y-101246158D01*
X139325069Y-101063004D01*
X139069120Y-100965549D01*
X138742908Y-100939595D01*
X138439825Y-100996883D01*
X138170745Y-101125151D01*
X137946546Y-101312138D01*
X137778103Y-101545582D01*
X137676293Y-101813221D01*
X137651992Y-102102794D01*
X137098470Y-102102794D01*
X137111045Y-102069118D01*
X137115094Y-101928387D01*
X137042248Y-101808119D01*
X137033764Y-101798934D01*
X136947047Y-101652769D01*
X136956028Y-101515092D01*
X137057480Y-101403967D01*
X137109200Y-101376855D01*
X137273204Y-101300935D01*
X137364449Y-101236778D01*
X137404225Y-101157714D01*
X137413821Y-101037071D01*
X137414000Y-100995017D01*
X137430895Y-100808968D01*
X137493550Y-100697136D01*
X137619920Y-100642938D01*
X137809459Y-100629720D01*
X137966767Y-100624901D01*
X138057136Y-100598804D01*
X138115153Y-100533972D01*
X138155605Y-100454997D01*
X138267595Y-100296641D01*
X138403628Y-100236247D01*
X138558380Y-100274510D01*
X138558380Y-100274510D01*
G37*
X138558380Y-100274510D02*
X138699280Y-100383743D01*
X138825658Y-100447093D01*
X138978831Y-100413898D01*
X139085303Y-100345253D01*
X139243445Y-100266102D01*
X139381834Y-100283693D01*
X139487493Y-100394306D01*
X139519722Y-100469812D01*
X139610965Y-100626413D01*
X139744950Y-100710028D01*
X139898680Y-100706842D01*
X139908555Y-100703395D01*
X140047368Y-100695870D01*
X140137155Y-100725327D01*
X140211203Y-100776053D01*
X140243078Y-100850790D01*
X140244553Y-100983625D01*
X140241690Y-101027955D01*
X140251106Y-101242786D01*
X140315836Y-101372535D01*
X140435827Y-101417098D01*
X140439191Y-101417120D01*
X140566928Y-101458356D01*
X140652784Y-101560288D01*
X140686323Y-101690250D01*
X140657112Y-101815579D01*
X140589000Y-101886109D01*
X140505032Y-101993421D01*
X140487400Y-102091863D01*
X140522118Y-102236029D01*
X140589000Y-102343223D01*
X140671467Y-102480570D01*
X140674676Y-102608782D01*
X140605699Y-102702876D01*
X140477239Y-102737920D01*
X140376365Y-102772042D01*
X140278602Y-102845117D01*
X140207152Y-102944071D01*
X140192622Y-103065182D01*
X140202419Y-103146271D01*
X140202731Y-103332176D01*
X140131877Y-103445629D01*
X139988887Y-103487592D01*
X139867600Y-103478781D01*
X139721376Y-103469218D01*
X139617721Y-103510056D01*
X139546126Y-103572975D01*
X139460795Y-103678688D01*
X139420982Y-103768165D01*
X139420600Y-103774486D01*
X139376876Y-103866908D01*
X139266544Y-103917698D01*
X139120856Y-103912520D01*
X139120071Y-103912325D01*
X138964283Y-103878946D01*
X138862379Y-103882153D01*
X138802544Y-103936747D01*
X138772965Y-104057527D01*
X138761828Y-104259295D01*
X138759926Y-104363520D01*
X138750203Y-104549095D01*
X138729422Y-104722093D01*
X138702184Y-104854906D01*
X138673085Y-104919925D01*
X138666834Y-104922390D01*
X138652552Y-104875256D01*
X138641282Y-104748305D01*
X138634501Y-104563310D01*
X138633200Y-104427090D01*
X138633200Y-103931720D01*
X138398916Y-103916523D01*
X138243952Y-103896315D01*
X138156205Y-103850602D01*
X138106816Y-103774432D01*
X138063087Y-103653989D01*
X138049000Y-103577153D01*
X138003181Y-103506089D01*
X137884326Y-103456850D01*
X137720335Y-103439680D01*
X137679096Y-103441349D01*
X137533357Y-103428792D01*
X137434506Y-103395701D01*
X137373049Y-103346072D01*
X137345996Y-103263915D01*
X137344931Y-103118522D01*
X137347210Y-103077272D01*
X137352246Y-102920314D01*
X137333606Y-102830630D01*
X137277472Y-102774369D01*
X137208099Y-102736563D01*
X137076085Y-102660733D01*
X136975975Y-102587056D01*
X136975757Y-102586853D01*
X136925910Y-102486942D01*
X136928534Y-102364555D01*
X136978610Y-102267806D01*
X137011215Y-102246903D01*
X137068409Y-102183298D01*
X137098470Y-102102794D01*
X137651992Y-102102794D01*
X137716075Y-102402039D01*
X137740898Y-102462973D01*
X137924991Y-102771339D01*
X138162183Y-102997878D01*
X138441331Y-103138367D01*
X138751291Y-103188581D01*
X139080919Y-103144298D01*
X139310806Y-103057962D01*
X139565699Y-102894289D01*
X139753081Y-102671105D01*
X139885833Y-102372472D01*
X139898795Y-102330502D01*
X139943490Y-102160945D01*
X139954389Y-102032558D01*
X139931523Y-101893465D01*
X139899113Y-101774626D01*
X139770947Y-101490318D01*
X139572466Y-101246158D01*
X139325069Y-101063004D01*
X139069120Y-100965549D01*
X138742908Y-100939595D01*
X138439825Y-100996883D01*
X138170745Y-101125151D01*
X137946546Y-101312138D01*
X137778103Y-101545582D01*
X137676293Y-101813221D01*
X137651992Y-102102794D01*
X137098470Y-102102794D01*
X137111045Y-102069118D01*
X137115094Y-101928387D01*
X137042248Y-101808119D01*
X137033764Y-101798934D01*
X136947047Y-101652769D01*
X136956028Y-101515092D01*
X137057480Y-101403967D01*
X137109200Y-101376855D01*
X137273204Y-101300935D01*
X137364449Y-101236778D01*
X137404225Y-101157714D01*
X137413821Y-101037071D01*
X137414000Y-100995017D01*
X137430895Y-100808968D01*
X137493550Y-100697136D01*
X137619920Y-100642938D01*
X137809459Y-100629720D01*
X137966767Y-100624901D01*
X138057136Y-100598804D01*
X138115153Y-100533972D01*
X138155605Y-100454997D01*
X138267595Y-100296641D01*
X138403628Y-100236247D01*
X138558380Y-100274510D01*
G36*
X136931400Y-104642920D02*
X136906000Y-104668320D01*
X136880600Y-104642920D01*
X136906000Y-104617520D01*
X136931400Y-104642920D01*
X136931400Y-104642920D01*
G37*
X136931400Y-104642920D02*
X136906000Y-104668320D01*
X136880600Y-104642920D01*
X136906000Y-104617520D01*
X136931400Y-104642920D01*
G36*
X136195669Y-100495727D02*
X136173380Y-100606315D01*
X136118642Y-100781997D01*
X136014283Y-101215742D01*
X135978096Y-101691253D01*
X136011160Y-102174003D01*
X136066264Y-102459182D01*
X136124073Y-102674957D01*
X136182750Y-102863349D01*
X136232771Y-102994834D01*
X136249243Y-103026517D01*
X136309581Y-103139346D01*
X136382669Y-103299536D01*
X136416819Y-103382117D01*
X136481261Y-103542387D01*
X136569177Y-103758531D01*
X136665098Y-103992581D01*
X136699987Y-104077242D01*
X136777755Y-104272311D01*
X136835125Y-104429257D01*
X136864566Y-104526716D01*
X136865794Y-104547658D01*
X136836976Y-104513448D01*
X136774545Y-104405268D01*
X136688344Y-104240987D01*
X136609150Y-104081727D01*
X136512185Y-103880114D01*
X136434462Y-103713973D01*
X136385245Y-103603390D01*
X136372600Y-103568727D01*
X136352508Y-103512844D01*
X136299494Y-103390337D01*
X136224447Y-103226253D01*
X136213716Y-103203336D01*
X136052153Y-102828639D01*
X135945884Y-102500108D01*
X135886709Y-102184589D01*
X135866431Y-101848930D01*
X135866229Y-101798120D01*
X135876557Y-101455925D01*
X135910532Y-101177011D01*
X135974803Y-100924490D01*
X136067625Y-100680926D01*
X136140210Y-100527919D01*
X136183751Y-100467891D01*
X136195669Y-100495727D01*
X136195669Y-100495727D01*
G37*
X136195669Y-100495727D02*
X136173380Y-100606315D01*
X136118642Y-100781997D01*
X136014283Y-101215742D01*
X135978096Y-101691253D01*
X136011160Y-102174003D01*
X136066264Y-102459182D01*
X136124073Y-102674957D01*
X136182750Y-102863349D01*
X136232771Y-102994834D01*
X136249243Y-103026517D01*
X136309581Y-103139346D01*
X136382669Y-103299536D01*
X136416819Y-103382117D01*
X136481261Y-103542387D01*
X136569177Y-103758531D01*
X136665098Y-103992581D01*
X136699987Y-104077242D01*
X136777755Y-104272311D01*
X136835125Y-104429257D01*
X136864566Y-104526716D01*
X136865794Y-104547658D01*
X136836976Y-104513448D01*
X136774545Y-104405268D01*
X136688344Y-104240987D01*
X136609150Y-104081727D01*
X136512185Y-103880114D01*
X136434462Y-103713973D01*
X136385245Y-103603390D01*
X136372600Y-103568727D01*
X136352508Y-103512844D01*
X136299494Y-103390337D01*
X136224447Y-103226253D01*
X136213716Y-103203336D01*
X136052153Y-102828639D01*
X135945884Y-102500108D01*
X135886709Y-102184589D01*
X135866431Y-101848930D01*
X135866229Y-101798120D01*
X135876557Y-101455925D01*
X135910532Y-101177011D01*
X135974803Y-100924490D01*
X136067625Y-100680926D01*
X136140210Y-100527919D01*
X136183751Y-100467891D01*
X136195669Y-100495727D01*
G36*
X141808200Y-101950520D02*
X141782800Y-101975920D01*
X141757400Y-101950520D01*
X141782800Y-101925120D01*
X141808200Y-101950520D01*
X141808200Y-101950520D01*
G37*
X141808200Y-101950520D02*
X141782800Y-101975920D01*
X141757400Y-101950520D01*
X141782800Y-101925120D01*
X141808200Y-101950520D01*
G36*
X141808200Y-101798120D02*
X141782800Y-101823520D01*
X141757400Y-101798120D01*
X141782800Y-101772720D01*
X141808200Y-101798120D01*
X141808200Y-101798120D01*
G37*
X141808200Y-101798120D02*
X141782800Y-101823520D01*
X141757400Y-101798120D01*
X141782800Y-101772720D01*
X141808200Y-101798120D01*
G36*
X136439811Y-100081679D02*
X136392481Y-100172148D01*
X136367110Y-100210620D01*
X136280631Y-100335258D01*
X136237201Y-100393408D01*
X136221997Y-100402088D01*
X136220200Y-100379324D01*
X136245868Y-100302419D01*
X136306275Y-100195903D01*
X136376521Y-100097970D01*
X136431706Y-100046816D01*
X136437812Y-100045520D01*
X136439811Y-100081679D01*
X136439811Y-100081679D01*
G37*
X136439811Y-100081679D02*
X136392481Y-100172148D01*
X136367110Y-100210620D01*
X136280631Y-100335258D01*
X136237201Y-100393408D01*
X136221997Y-100402088D01*
X136220200Y-100379324D01*
X136245868Y-100302419D01*
X136306275Y-100195903D01*
X136376521Y-100097970D01*
X136431706Y-100046816D01*
X136437812Y-100045520D01*
X136439811Y-100081679D01*
G36*
X145125521Y-97193074D02*
X144941438Y-97541029D01*
X145127419Y-97917424D01*
X145213500Y-98097579D01*
X145278449Y-98244819D01*
X145311387Y-98334088D01*
X145313400Y-98345790D01*
X145276644Y-98384997D01*
X145160491Y-98398700D01*
X144956113Y-98387698D01*
X144904885Y-98382706D01*
X144812236Y-98367994D01*
X144747643Y-98332965D01*
X144694003Y-98256700D01*
X144634217Y-98118275D01*
X144587385Y-97994276D01*
X144521288Y-97805864D01*
X144472552Y-97646600D01*
X144450295Y-97546716D01*
X144449800Y-97538062D01*
X144471764Y-97450186D01*
X144529125Y-97305428D01*
X144602931Y-97148471D01*
X144756062Y-96845120D01*
X145309604Y-96845120D01*
X145125521Y-97193074D01*
X145125521Y-97193074D01*
G37*
X145125521Y-97193074D02*
X144941438Y-97541029D01*
X145127419Y-97917424D01*
X145213500Y-98097579D01*
X145278449Y-98244819D01*
X145311387Y-98334088D01*
X145313400Y-98345790D01*
X145276644Y-98384997D01*
X145160491Y-98398700D01*
X144956113Y-98387698D01*
X144904885Y-98382706D01*
X144812236Y-98367994D01*
X144747643Y-98332965D01*
X144694003Y-98256700D01*
X144634217Y-98118275D01*
X144587385Y-97994276D01*
X144521288Y-97805864D01*
X144472552Y-97646600D01*
X144450295Y-97546716D01*
X144449800Y-97538062D01*
X144471764Y-97450186D01*
X144529125Y-97305428D01*
X144602931Y-97148471D01*
X144756062Y-96845120D01*
X145309604Y-96845120D01*
X145125521Y-97193074D01*
G36*
X144373600Y-98343720D02*
X144117648Y-98358702D01*
X143963704Y-98360692D01*
X143854259Y-98349185D01*
X143825548Y-98337535D01*
X143809655Y-98271192D01*
X143798536Y-98119405D01*
X143792217Y-97898218D01*
X143790724Y-97623675D01*
X143794082Y-97311820D01*
X143802318Y-96978698D01*
X143815456Y-96640354D01*
X143822606Y-96497495D01*
X143855813Y-95879920D01*
X144400806Y-95879920D01*
X144373600Y-98343720D01*
X144373600Y-98343720D01*
G37*
X144373600Y-98343720D02*
X144117648Y-98358702D01*
X143963704Y-98360692D01*
X143854259Y-98349185D01*
X143825548Y-98337535D01*
X143809655Y-98271192D01*
X143798536Y-98119405D01*
X143792217Y-97898218D01*
X143790724Y-97623675D01*
X143794082Y-97311820D01*
X143802318Y-96978698D01*
X143815456Y-96640354D01*
X143822606Y-96497495D01*
X143855813Y-95879920D01*
X144400806Y-95879920D01*
X144373600Y-98343720D01*
G36*
X141305861Y-96669805D02*
X141432822Y-96767094D01*
X141454228Y-96788132D01*
X141565802Y-96884806D01*
X141629431Y-96897451D01*
X141654434Y-96825960D01*
X141655800Y-96785853D01*
X141674166Y-96726774D01*
X141745756Y-96699143D01*
X141881401Y-96692720D01*
X142026231Y-96704871D01*
X142125100Y-96735458D01*
X142143117Y-96751153D01*
X142154404Y-96819162D01*
X142162324Y-96965844D01*
X142166996Y-97168331D01*
X142168541Y-97403757D01*
X142167077Y-97649254D01*
X142162725Y-97881954D01*
X142155603Y-98078990D01*
X142145830Y-98217495D01*
X142135170Y-98272746D01*
X142073899Y-98293892D01*
X141956677Y-98294223D01*
X141947374Y-98293326D01*
X141802774Y-98279841D01*
X141693900Y-98271927D01*
X141622893Y-98229803D01*
X141603384Y-98127820D01*
X141595946Y-98036507D01*
X141568369Y-98034243D01*
X141539884Y-98066651D01*
X141460597Y-98145780D01*
X141353379Y-98230227D01*
X141253685Y-98294267D01*
X141199996Y-98313256D01*
X141135710Y-98297174D01*
X141046770Y-98273000D01*
X140936395Y-98208584D01*
X140824927Y-98094360D01*
X140805470Y-98067351D01*
X140723428Y-97880036D01*
X140686447Y-97648566D01*
X140689628Y-97459605D01*
X141252081Y-97459605D01*
X141252854Y-97636612D01*
X141279151Y-97777886D01*
X141280235Y-97780765D01*
X141349291Y-97850195D01*
X141449022Y-97849588D01*
X141539772Y-97782229D01*
X141555014Y-97757997D01*
X141584219Y-97648443D01*
X141596822Y-97484911D01*
X141594901Y-97390173D01*
X141578302Y-97228064D01*
X141545946Y-97142382D01*
X141487814Y-97108116D01*
X141481357Y-97106771D01*
X141375255Y-97128905D01*
X141316257Y-97179505D01*
X141274119Y-97292143D01*
X141252081Y-97459605D01*
X140689628Y-97459605D01*
X140690675Y-97397420D01*
X140732263Y-97151073D01*
X140807358Y-96934004D01*
X140912112Y-96770689D01*
X141021792Y-96692342D01*
X141183154Y-96648056D01*
X141305861Y-96669805D01*
X141305861Y-96669805D01*
G37*
X141305861Y-96669805D02*
X141432822Y-96767094D01*
X141454228Y-96788132D01*
X141565802Y-96884806D01*
X141629431Y-96897451D01*
X141654434Y-96825960D01*
X141655800Y-96785853D01*
X141674166Y-96726774D01*
X141745756Y-96699143D01*
X141881401Y-96692720D01*
X142026231Y-96704871D01*
X142125100Y-96735458D01*
X142143117Y-96751153D01*
X142154404Y-96819162D01*
X142162324Y-96965844D01*
X142166996Y-97168331D01*
X142168541Y-97403757D01*
X142167077Y-97649254D01*
X142162725Y-97881954D01*
X142155603Y-98078990D01*
X142145830Y-98217495D01*
X142135170Y-98272746D01*
X142073899Y-98293892D01*
X141956677Y-98294223D01*
X141947374Y-98293326D01*
X141802774Y-98279841D01*
X141693900Y-98271927D01*
X141622893Y-98229803D01*
X141603384Y-98127820D01*
X141595946Y-98036507D01*
X141568369Y-98034243D01*
X141539884Y-98066651D01*
X141460597Y-98145780D01*
X141353379Y-98230227D01*
X141253685Y-98294267D01*
X141199996Y-98313256D01*
X141135710Y-98297174D01*
X141046770Y-98273000D01*
X140936395Y-98208584D01*
X140824927Y-98094360D01*
X140805470Y-98067351D01*
X140723428Y-97880036D01*
X140686447Y-97648566D01*
X140689628Y-97459605D01*
X141252081Y-97459605D01*
X141252854Y-97636612D01*
X141279151Y-97777886D01*
X141280235Y-97780765D01*
X141349291Y-97850195D01*
X141449022Y-97849588D01*
X141539772Y-97782229D01*
X141555014Y-97757997D01*
X141584219Y-97648443D01*
X141596822Y-97484911D01*
X141594901Y-97390173D01*
X141578302Y-97228064D01*
X141545946Y-97142382D01*
X141487814Y-97108116D01*
X141481357Y-97106771D01*
X141375255Y-97128905D01*
X141316257Y-97179505D01*
X141274119Y-97292143D01*
X141252081Y-97459605D01*
X140689628Y-97459605D01*
X140690675Y-97397420D01*
X140732263Y-97151073D01*
X140807358Y-96934004D01*
X140912112Y-96770689D01*
X141021792Y-96692342D01*
X141183154Y-96648056D01*
X141305861Y-96669805D01*
G36*
X143016780Y-96746847D02*
X143098249Y-96762519D01*
X143121673Y-96799068D01*
X143114293Y-96845069D01*
X143108291Y-96945070D01*
X143156396Y-96965035D01*
X143248311Y-96903503D01*
X143282870Y-96868954D01*
X143390342Y-96782166D01*
X143489367Y-96743634D01*
X143493455Y-96743520D01*
X143547477Y-96758578D01*
X143575601Y-96819294D01*
X143585565Y-96948978D01*
X143586200Y-97022920D01*
X143583548Y-97182661D01*
X143566717Y-97265807D01*
X143522394Y-97297359D01*
X143437428Y-97302320D01*
X143302260Y-97319260D01*
X143211848Y-97380195D01*
X143158232Y-97500294D01*
X143133453Y-97694726D01*
X143129000Y-97890148D01*
X143129000Y-98318320D01*
X142504076Y-98318320D01*
X142536875Y-97823020D01*
X142551729Y-97567388D01*
X142563143Y-97311472D01*
X142569328Y-97097835D01*
X142569937Y-97035620D01*
X142570200Y-96743520D01*
X142855524Y-96743520D01*
X143016780Y-96746847D01*
X143016780Y-96746847D01*
G37*
X143016780Y-96746847D02*
X143098249Y-96762519D01*
X143121673Y-96799068D01*
X143114293Y-96845069D01*
X143108291Y-96945070D01*
X143156396Y-96965035D01*
X143248311Y-96903503D01*
X143282870Y-96868954D01*
X143390342Y-96782166D01*
X143489367Y-96743634D01*
X143493455Y-96743520D01*
X143547477Y-96758578D01*
X143575601Y-96819294D01*
X143585565Y-96948978D01*
X143586200Y-97022920D01*
X143583548Y-97182661D01*
X143566717Y-97265807D01*
X143522394Y-97297359D01*
X143437428Y-97302320D01*
X143302260Y-97319260D01*
X143211848Y-97380195D01*
X143158232Y-97500294D01*
X143133453Y-97694726D01*
X143129000Y-97890148D01*
X143129000Y-98318320D01*
X142504076Y-98318320D01*
X142536875Y-97823020D01*
X142551729Y-97567388D01*
X142563143Y-97311472D01*
X142569328Y-97097835D01*
X142569937Y-97035620D01*
X142570200Y-96743520D01*
X142855524Y-96743520D01*
X143016780Y-96746847D01*
G36*
X139439819Y-95930798D02*
X139712737Y-95938278D01*
X139909001Y-95962838D01*
X140052622Y-96007829D01*
X140077388Y-96019698D01*
X140291466Y-96180366D01*
X140427406Y-96394777D01*
X140480375Y-96646324D01*
X140445542Y-96918402D01*
X140384761Y-97075866D01*
X140244833Y-97280127D01*
X140055719Y-97403209D01*
X139804083Y-97452866D01*
X139732956Y-97454720D01*
X139612870Y-97465352D01*
X139536291Y-97509334D01*
X139493672Y-97604791D01*
X139475467Y-97769847D01*
X139472093Y-97950020D01*
X139471400Y-98216720D01*
X139280900Y-98210827D01*
X139129602Y-98200794D01*
X139011300Y-98184045D01*
X139001500Y-98181702D01*
X138923250Y-98133339D01*
X138907343Y-98098695D01*
X138904134Y-97988505D01*
X138905224Y-97797337D01*
X138910105Y-97545697D01*
X138918268Y-97254091D01*
X138929205Y-96943028D01*
X138940820Y-96670318D01*
X139522200Y-96670318D01*
X139533607Y-96848613D01*
X139575505Y-96937108D01*
X139659403Y-96945814D01*
X139779539Y-96894132D01*
X139860966Y-96800170D01*
X139882829Y-96663291D01*
X139847200Y-96521348D01*
X139756152Y-96412192D01*
X139753033Y-96410112D01*
X139640518Y-96357045D01*
X139569177Y-96380518D01*
X139532070Y-96488354D01*
X139522200Y-96670318D01*
X138940820Y-96670318D01*
X138942409Y-96633014D01*
X138945011Y-96578420D01*
X138976438Y-95930720D01*
X139439819Y-95930798D01*
X139439819Y-95930798D01*
G37*
X139439819Y-95930798D02*
X139712737Y-95938278D01*
X139909001Y-95962838D01*
X140052622Y-96007829D01*
X140077388Y-96019698D01*
X140291466Y-96180366D01*
X140427406Y-96394777D01*
X140480375Y-96646324D01*
X140445542Y-96918402D01*
X140384761Y-97075866D01*
X140244833Y-97280127D01*
X140055719Y-97403209D01*
X139804083Y-97452866D01*
X139732956Y-97454720D01*
X139612870Y-97465352D01*
X139536291Y-97509334D01*
X139493672Y-97604791D01*
X139475467Y-97769847D01*
X139472093Y-97950020D01*
X139471400Y-98216720D01*
X139280900Y-98210827D01*
X139129602Y-98200794D01*
X139011300Y-98184045D01*
X139001500Y-98181702D01*
X138923250Y-98133339D01*
X138907343Y-98098695D01*
X138904134Y-97988505D01*
X138905224Y-97797337D01*
X138910105Y-97545697D01*
X138918268Y-97254091D01*
X138929205Y-96943028D01*
X138940820Y-96670318D01*
X139522200Y-96670318D01*
X139533607Y-96848613D01*
X139575505Y-96937108D01*
X139659403Y-96945814D01*
X139779539Y-96894132D01*
X139860966Y-96800170D01*
X139882829Y-96663291D01*
X139847200Y-96521348D01*
X139756152Y-96412192D01*
X139753033Y-96410112D01*
X139640518Y-96357045D01*
X139569177Y-96380518D01*
X139532070Y-96488354D01*
X139522200Y-96670318D01*
X138940820Y-96670318D01*
X138942409Y-96633014D01*
X138945011Y-96578420D01*
X138976438Y-95930720D01*
X139439819Y-95930798D01*
G36*
X136376359Y-95792572D02*
X136470947Y-95803272D01*
X136728200Y-95838653D01*
X136728200Y-96641920D01*
X136906000Y-96641920D01*
X137025221Y-96633902D01*
X137074119Y-96589948D01*
X137083788Y-96480203D01*
X137083800Y-96471210D01*
X137091069Y-96310587D01*
X137109198Y-96119147D01*
X137116104Y-96064810D01*
X137148409Y-95829120D01*
X137417906Y-95829120D01*
X137572660Y-95835712D01*
X137679926Y-95852634D01*
X137708737Y-95867220D01*
X137713255Y-95927923D01*
X137712717Y-96071641D01*
X137707918Y-96279956D01*
X137699652Y-96534450D01*
X137688715Y-96816707D01*
X137675900Y-97108310D01*
X137662003Y-97390841D01*
X137647819Y-97645882D01*
X137634143Y-97855018D01*
X137621769Y-97999830D01*
X137614429Y-98052510D01*
X137588271Y-98120746D01*
X137529918Y-98153249D01*
X137411157Y-98160607D01*
X137331857Y-98158585D01*
X137181117Y-98143395D01*
X137078796Y-98114584D01*
X137054594Y-98094194D01*
X137044048Y-98020668D01*
X137033138Y-97873043D01*
X137023748Y-97678795D01*
X137021245Y-97607319D01*
X137007600Y-97175719D01*
X136855200Y-97175519D01*
X136702800Y-97175320D01*
X136616030Y-98115120D01*
X136344913Y-98115120D01*
X136188836Y-98108147D01*
X136079383Y-98090246D01*
X136048819Y-98074707D01*
X136043635Y-98012982D01*
X136045074Y-97868424D01*
X136052074Y-97658999D01*
X136063572Y-97402672D01*
X136078505Y-97117407D01*
X136095809Y-96821169D01*
X136114422Y-96531923D01*
X136133281Y-96267633D01*
X136151322Y-96046265D01*
X136167483Y-95885784D01*
X136180701Y-95804153D01*
X136183537Y-95798049D01*
X136247052Y-95787209D01*
X136376359Y-95792572D01*
X136376359Y-95792572D01*
G37*
X136376359Y-95792572D02*
X136470947Y-95803272D01*
X136728200Y-95838653D01*
X136728200Y-96641920D01*
X136906000Y-96641920D01*
X137025221Y-96633902D01*
X137074119Y-96589948D01*
X137083788Y-96480203D01*
X137083800Y-96471210D01*
X137091069Y-96310587D01*
X137109198Y-96119147D01*
X137116104Y-96064810D01*
X137148409Y-95829120D01*
X137417906Y-95829120D01*
X137572660Y-95835712D01*
X137679926Y-95852634D01*
X137708737Y-95867220D01*
X137713255Y-95927923D01*
X137712717Y-96071641D01*
X137707918Y-96279956D01*
X137699652Y-96534450D01*
X137688715Y-96816707D01*
X137675900Y-97108310D01*
X137662003Y-97390841D01*
X137647819Y-97645882D01*
X137634143Y-97855018D01*
X137621769Y-97999830D01*
X137614429Y-98052510D01*
X137588271Y-98120746D01*
X137529918Y-98153249D01*
X137411157Y-98160607D01*
X137331857Y-98158585D01*
X137181117Y-98143395D01*
X137078796Y-98114584D01*
X137054594Y-98094194D01*
X137044048Y-98020668D01*
X137033138Y-97873043D01*
X137023748Y-97678795D01*
X137021245Y-97607319D01*
X137007600Y-97175719D01*
X136855200Y-97175519D01*
X136702800Y-97175320D01*
X136616030Y-98115120D01*
X136344913Y-98115120D01*
X136188836Y-98108147D01*
X136079383Y-98090246D01*
X136048819Y-98074707D01*
X136043635Y-98012982D01*
X136045074Y-97868424D01*
X136052074Y-97658999D01*
X136063572Y-97402672D01*
X136078505Y-97117407D01*
X136095809Y-96821169D01*
X136114422Y-96531923D01*
X136133281Y-96267633D01*
X136151322Y-96046265D01*
X136167483Y-95885784D01*
X136180701Y-95804153D01*
X136183537Y-95798049D01*
X136247052Y-95787209D01*
X136376359Y-95792572D01*
G36*
X135571980Y-95776501D02*
X135694165Y-95846115D01*
X135751707Y-95967454D01*
X135763000Y-96106273D01*
X135754647Y-96271566D01*
X135722530Y-96347774D01*
X135656057Y-96346556D01*
X135582314Y-96305157D01*
X135434750Y-96245263D01*
X135307160Y-96256866D01*
X135225948Y-96334500D01*
X135212514Y-96381722D01*
X135227992Y-96482488D01*
X135308293Y-96607984D01*
X135425524Y-96737322D01*
X135603983Y-96939592D01*
X135705571Y-97114537D01*
X135739902Y-97288148D01*
X135716591Y-97486419D01*
X135711201Y-97509681D01*
X135603724Y-97758995D01*
X135425311Y-97947950D01*
X135193220Y-98066628D01*
X134924708Y-98105112D01*
X134721600Y-98078360D01*
X134604835Y-98032519D01*
X134556500Y-98001833D01*
X134516252Y-97918879D01*
X134495404Y-97777595D01*
X134496626Y-97619863D01*
X134522586Y-97487568D01*
X134523554Y-97485004D01*
X134556463Y-97433532D01*
X134613663Y-97448924D01*
X134661858Y-97480850D01*
X134808585Y-97544308D01*
X134958136Y-97549199D01*
X135081196Y-97502108D01*
X135148449Y-97409623D01*
X135153400Y-97370407D01*
X135118513Y-97302824D01*
X135028680Y-97196556D01*
X134945068Y-97113867D01*
X134751983Y-96908580D01*
X134640172Y-96716385D01*
X134596567Y-96512664D01*
X134594789Y-96453942D01*
X134641342Y-96201800D01*
X134768472Y-95989266D01*
X134958176Y-95832917D01*
X135192446Y-95749329D01*
X135367614Y-95742473D01*
X135571980Y-95776501D01*
X135571980Y-95776501D01*
G37*
X135571980Y-95776501D02*
X135694165Y-95846115D01*
X135751707Y-95967454D01*
X135763000Y-96106273D01*
X135754647Y-96271566D01*
X135722530Y-96347774D01*
X135656057Y-96346556D01*
X135582314Y-96305157D01*
X135434750Y-96245263D01*
X135307160Y-96256866D01*
X135225948Y-96334500D01*
X135212514Y-96381722D01*
X135227992Y-96482488D01*
X135308293Y-96607984D01*
X135425524Y-96737322D01*
X135603983Y-96939592D01*
X135705571Y-97114537D01*
X135739902Y-97288148D01*
X135716591Y-97486419D01*
X135711201Y-97509681D01*
X135603724Y-97758995D01*
X135425311Y-97947950D01*
X135193220Y-98066628D01*
X134924708Y-98105112D01*
X134721600Y-98078360D01*
X134604835Y-98032519D01*
X134556500Y-98001833D01*
X134516252Y-97918879D01*
X134495404Y-97777595D01*
X134496626Y-97619863D01*
X134522586Y-97487568D01*
X134523554Y-97485004D01*
X134556463Y-97433532D01*
X134613663Y-97448924D01*
X134661858Y-97480850D01*
X134808585Y-97544308D01*
X134958136Y-97549199D01*
X135081196Y-97502108D01*
X135148449Y-97409623D01*
X135153400Y-97370407D01*
X135118513Y-97302824D01*
X135028680Y-97196556D01*
X134945068Y-97113867D01*
X134751983Y-96908580D01*
X134640172Y-96716385D01*
X134596567Y-96512664D01*
X134594789Y-96453942D01*
X134641342Y-96201800D01*
X134768472Y-95989266D01*
X134958176Y-95832917D01*
X135192446Y-95749329D01*
X135367614Y-95742473D01*
X135571980Y-95776501D01*
G36*
X133759687Y-95743046D02*
X133932143Y-95860584D01*
X134093383Y-96038447D01*
X134195035Y-96259447D01*
X134244027Y-96542767D01*
X134251044Y-96743520D01*
X134215451Y-97140570D01*
X134111814Y-97475382D01*
X133943401Y-97741278D01*
X133713478Y-97931581D01*
X133654500Y-97962864D01*
X133475913Y-98036740D01*
X133328940Y-98056247D01*
X133171063Y-98021105D01*
X133019800Y-97958659D01*
X132765803Y-97795073D01*
X132590465Y-97569163D01*
X132493352Y-97279857D01*
X132478424Y-97006591D01*
X133121683Y-97006591D01*
X133131010Y-97224823D01*
X133162036Y-97363070D01*
X133203765Y-97428228D01*
X133318653Y-97492758D01*
X133427997Y-97458373D01*
X133523426Y-97327718D01*
X133523724Y-97327098D01*
X133563000Y-97200524D01*
X133596900Y-97012264D01*
X133618306Y-96802216D01*
X133618778Y-96794320D01*
X133626474Y-96586422D01*
X133617149Y-96450240D01*
X133586404Y-96356676D01*
X133542863Y-96292257D01*
X133461036Y-96211679D01*
X133385896Y-96206784D01*
X133336118Y-96229355D01*
X133233231Y-96340258D01*
X133162843Y-96542159D01*
X133126549Y-96829269D01*
X133121683Y-97006591D01*
X132478424Y-97006591D01*
X132474026Y-96926088D01*
X132499748Y-96681402D01*
X132590024Y-96334988D01*
X132739589Y-96053198D01*
X132941016Y-95845065D01*
X133186877Y-95719622D01*
X133313229Y-95692122D01*
X133559160Y-95684176D01*
X133759687Y-95743046D01*
X133759687Y-95743046D01*
G37*
X133759687Y-95743046D02*
X133932143Y-95860584D01*
X134093383Y-96038447D01*
X134195035Y-96259447D01*
X134244027Y-96542767D01*
X134251044Y-96743520D01*
X134215451Y-97140570D01*
X134111814Y-97475382D01*
X133943401Y-97741278D01*
X133713478Y-97931581D01*
X133654500Y-97962864D01*
X133475913Y-98036740D01*
X133328940Y-98056247D01*
X133171063Y-98021105D01*
X133019800Y-97958659D01*
X132765803Y-97795073D01*
X132590465Y-97569163D01*
X132493352Y-97279857D01*
X132478424Y-97006591D01*
X133121683Y-97006591D01*
X133131010Y-97224823D01*
X133162036Y-97363070D01*
X133203765Y-97428228D01*
X133318653Y-97492758D01*
X133427997Y-97458373D01*
X133523426Y-97327718D01*
X133523724Y-97327098D01*
X133563000Y-97200524D01*
X133596900Y-97012264D01*
X133618306Y-96802216D01*
X133618778Y-96794320D01*
X133626474Y-96586422D01*
X133617149Y-96450240D01*
X133586404Y-96356676D01*
X133542863Y-96292257D01*
X133461036Y-96211679D01*
X133385896Y-96206784D01*
X133336118Y-96229355D01*
X133233231Y-96340258D01*
X133162843Y-96542159D01*
X133126549Y-96829269D01*
X133121683Y-97006591D01*
X132478424Y-97006591D01*
X132474026Y-96926088D01*
X132499748Y-96681402D01*
X132590024Y-96334988D01*
X132739589Y-96053198D01*
X132941016Y-95845065D01*
X133186877Y-95719622D01*
X133313229Y-95692122D01*
X133559160Y-95684176D01*
X133759687Y-95743046D01*
G36*
X140838718Y-93807381D02*
X141006750Y-93834586D01*
X141117251Y-93873364D01*
X141147800Y-93909190D01*
X141101163Y-93932357D01*
X140976947Y-93943401D01*
X140815718Y-93940987D01*
X140612943Y-93937450D01*
X140490004Y-93962570D01*
X140425958Y-94032105D01*
X140399862Y-94161816D01*
X140394346Y-94258069D01*
X140398909Y-94395151D01*
X140438600Y-94468667D01*
X140516418Y-94509695D01*
X140646155Y-94539545D01*
X140821607Y-94557131D01*
X140897107Y-94559120D01*
X141040911Y-94568371D01*
X141131592Y-94591995D01*
X141147800Y-94609920D01*
X141102180Y-94637881D01*
X140984732Y-94654701D01*
X140824575Y-94660746D01*
X140650825Y-94656385D01*
X140492602Y-94641987D01*
X140379024Y-94617921D01*
X140345160Y-94599760D01*
X140311907Y-94516242D01*
X140290255Y-94359931D01*
X140284200Y-94198795D01*
X140290188Y-93998376D01*
X140320283Y-93878709D01*
X140392674Y-93819118D01*
X140525553Y-93798926D01*
X140637604Y-93797120D01*
X140838718Y-93807381D01*
X140838718Y-93807381D01*
G37*
X140838718Y-93807381D02*
X141006750Y-93834586D01*
X141117251Y-93873364D01*
X141147800Y-93909190D01*
X141101163Y-93932357D01*
X140976947Y-93943401D01*
X140815718Y-93940987D01*
X140612943Y-93937450D01*
X140490004Y-93962570D01*
X140425958Y-94032105D01*
X140399862Y-94161816D01*
X140394346Y-94258069D01*
X140398909Y-94395151D01*
X140438600Y-94468667D01*
X140516418Y-94509695D01*
X140646155Y-94539545D01*
X140821607Y-94557131D01*
X140897107Y-94559120D01*
X141040911Y-94568371D01*
X141131592Y-94591995D01*
X141147800Y-94609920D01*
X141102180Y-94637881D01*
X140984732Y-94654701D01*
X140824575Y-94660746D01*
X140650825Y-94656385D01*
X140492602Y-94641987D01*
X140379024Y-94617921D01*
X140345160Y-94599760D01*
X140311907Y-94516242D01*
X140290255Y-94359931D01*
X140284200Y-94198795D01*
X140290188Y-93998376D01*
X140320283Y-93878709D01*
X140392674Y-93819118D01*
X140525553Y-93798926D01*
X140637604Y-93797120D01*
X140838718Y-93807381D01*
G36*
X139649113Y-93756920D02*
X139823960Y-93776150D01*
X139967776Y-93805698D01*
X140041505Y-93838905D01*
X140061762Y-93908875D01*
X140072311Y-94049839D01*
X140070902Y-94231467D01*
X140070795Y-94233955D01*
X140055600Y-94584520D01*
X139699710Y-94599195D01*
X139450416Y-94597408D01*
X139291668Y-94566973D01*
X139248393Y-94544091D01*
X139197920Y-94494174D01*
X139186644Y-94459284D01*
X139420600Y-94459284D01*
X139466264Y-94479163D01*
X139582750Y-94495637D01*
X139668779Y-94501487D01*
X139817208Y-94505047D01*
X139892828Y-94486373D01*
X139924317Y-94428039D01*
X139937331Y-94338318D01*
X139946306Y-94204381D01*
X139940715Y-94113436D01*
X139939498Y-94109214D01*
X139895773Y-94112281D01*
X139799536Y-94161220D01*
X139677352Y-94238111D01*
X139555783Y-94325033D01*
X139461394Y-94404064D01*
X139420749Y-94457283D01*
X139420600Y-94459284D01*
X139186644Y-94459284D01*
X139174514Y-94421753D01*
X139174220Y-94299526D01*
X139189231Y-94135668D01*
X139212499Y-93952613D01*
X139226628Y-93898720D01*
X139319000Y-93898720D01*
X139319000Y-94101920D01*
X139325614Y-94229217D01*
X139342136Y-94299970D01*
X139348795Y-94305120D01*
X139403352Y-94277823D01*
X139511932Y-94207616D01*
X139602795Y-94144108D01*
X139727311Y-94047534D01*
X139808719Y-93970675D01*
X139827000Y-93940908D01*
X139781298Y-93916839D01*
X139664451Y-93901564D01*
X139573000Y-93898720D01*
X139319000Y-93898720D01*
X139226628Y-93898720D01*
X139240381Y-93846263D01*
X139283773Y-93791919D01*
X139352695Y-93765098D01*
X139479827Y-93751929D01*
X139649113Y-93756920D01*
X139649113Y-93756920D01*
G37*
X139649113Y-93756920D02*
X139823960Y-93776150D01*
X139967776Y-93805698D01*
X140041505Y-93838905D01*
X140061762Y-93908875D01*
X140072311Y-94049839D01*
X140070902Y-94231467D01*
X140070795Y-94233955D01*
X140055600Y-94584520D01*
X139699710Y-94599195D01*
X139450416Y-94597408D01*
X139291668Y-94566973D01*
X139248393Y-94544091D01*
X139197920Y-94494174D01*
X139186644Y-94459284D01*
X139420600Y-94459284D01*
X139466264Y-94479163D01*
X139582750Y-94495637D01*
X139668779Y-94501487D01*
X139817208Y-94505047D01*
X139892828Y-94486373D01*
X139924317Y-94428039D01*
X139937331Y-94338318D01*
X139946306Y-94204381D01*
X139940715Y-94113436D01*
X139939498Y-94109214D01*
X139895773Y-94112281D01*
X139799536Y-94161220D01*
X139677352Y-94238111D01*
X139555783Y-94325033D01*
X139461394Y-94404064D01*
X139420749Y-94457283D01*
X139420600Y-94459284D01*
X139186644Y-94459284D01*
X139174514Y-94421753D01*
X139174220Y-94299526D01*
X139189231Y-94135668D01*
X139212499Y-93952613D01*
X139226628Y-93898720D01*
X139319000Y-93898720D01*
X139319000Y-94101920D01*
X139325614Y-94229217D01*
X139342136Y-94299970D01*
X139348795Y-94305120D01*
X139403352Y-94277823D01*
X139511932Y-94207616D01*
X139602795Y-94144108D01*
X139727311Y-94047534D01*
X139808719Y-93970675D01*
X139827000Y-93940908D01*
X139781298Y-93916839D01*
X139664451Y-93901564D01*
X139573000Y-93898720D01*
X139319000Y-93898720D01*
X139226628Y-93898720D01*
X139240381Y-93846263D01*
X139283773Y-93791919D01*
X139352695Y-93765098D01*
X139479827Y-93751929D01*
X139649113Y-93756920D01*
G36*
X137880048Y-93703792D02*
X138000869Y-93720588D01*
X138019445Y-93726355D01*
X138064965Y-93768621D01*
X138090137Y-93865286D01*
X138099432Y-94036978D01*
X138099800Y-94097195D01*
X138090787Y-94291671D01*
X138066644Y-94436581D01*
X138038840Y-94498160D01*
X137956671Y-94531378D01*
X137806532Y-94553332D01*
X137665713Y-94559120D01*
X137468898Y-94550545D01*
X137344860Y-94520438D01*
X137268175Y-94464785D01*
X137219962Y-94388147D01*
X137218868Y-94381320D01*
X137414000Y-94381320D01*
X137668000Y-94407352D01*
X137814491Y-94422105D01*
X137910112Y-94431238D01*
X137929965Y-94432752D01*
X137939015Y-94387676D01*
X137950951Y-94277658D01*
X137952997Y-94254320D01*
X137950742Y-94133407D01*
X137925632Y-94067293D01*
X137919632Y-94064328D01*
X137854681Y-94085120D01*
X137738652Y-94151568D01*
X137642600Y-94216728D01*
X137414000Y-94381320D01*
X137218868Y-94381320D01*
X137202811Y-94281148D01*
X137211743Y-94127928D01*
X137339902Y-94127928D01*
X137373191Y-94201542D01*
X137456113Y-94191803D01*
X137598201Y-94103161D01*
X137614304Y-94091400D01*
X137736544Y-93991219D01*
X137812776Y-93908831D01*
X137826728Y-93873320D01*
X137771796Y-93842598D01*
X137650595Y-93824534D01*
X137587566Y-93822520D01*
X137447443Y-93828167D01*
X137378894Y-93857022D01*
X137352033Y-93926950D01*
X137346711Y-93966511D01*
X137339902Y-94127928D01*
X137211743Y-94127928D01*
X137212652Y-94112350D01*
X137217193Y-94071085D01*
X137244487Y-93904271D01*
X137279779Y-93780347D01*
X137307391Y-93734397D01*
X137390509Y-93712907D01*
X137538142Y-93700367D01*
X137713564Y-93697190D01*
X137880048Y-93703792D01*
X137880048Y-93703792D01*
G37*
X137880048Y-93703792D02*
X138000869Y-93720588D01*
X138019445Y-93726355D01*
X138064965Y-93768621D01*
X138090137Y-93865286D01*
X138099432Y-94036978D01*
X138099800Y-94097195D01*
X138090787Y-94291671D01*
X138066644Y-94436581D01*
X138038840Y-94498160D01*
X137956671Y-94531378D01*
X137806532Y-94553332D01*
X137665713Y-94559120D01*
X137468898Y-94550545D01*
X137344860Y-94520438D01*
X137268175Y-94464785D01*
X137219962Y-94388147D01*
X137218868Y-94381320D01*
X137414000Y-94381320D01*
X137668000Y-94407352D01*
X137814491Y-94422105D01*
X137910112Y-94431238D01*
X137929965Y-94432752D01*
X137939015Y-94387676D01*
X137950951Y-94277658D01*
X137952997Y-94254320D01*
X137950742Y-94133407D01*
X137925632Y-94067293D01*
X137919632Y-94064328D01*
X137854681Y-94085120D01*
X137738652Y-94151568D01*
X137642600Y-94216728D01*
X137414000Y-94381320D01*
X137218868Y-94381320D01*
X137202811Y-94281148D01*
X137211743Y-94127928D01*
X137339902Y-94127928D01*
X137373191Y-94201542D01*
X137456113Y-94191803D01*
X137598201Y-94103161D01*
X137614304Y-94091400D01*
X137736544Y-93991219D01*
X137812776Y-93908831D01*
X137826728Y-93873320D01*
X137771796Y-93842598D01*
X137650595Y-93824534D01*
X137587566Y-93822520D01*
X137447443Y-93828167D01*
X137378894Y-93857022D01*
X137352033Y-93926950D01*
X137346711Y-93966511D01*
X137339902Y-94127928D01*
X137211743Y-94127928D01*
X137212652Y-94112350D01*
X137217193Y-94071085D01*
X137244487Y-93904271D01*
X137279779Y-93780347D01*
X137307391Y-93734397D01*
X137390509Y-93712907D01*
X137538142Y-93700367D01*
X137713564Y-93697190D01*
X137880048Y-93703792D01*
G36*
X138449572Y-93934418D02*
X138531800Y-94000508D01*
X138658600Y-94119630D01*
X138785399Y-94000508D01*
X138891398Y-93920138D01*
X138941648Y-93919941D01*
X138928891Y-93990807D01*
X138863882Y-94098995D01*
X138753281Y-94254320D01*
X138861800Y-94406720D01*
X138917995Y-94514335D01*
X138905036Y-94561802D01*
X138840074Y-94542579D01*
X138742163Y-94452353D01*
X138650747Y-94345587D01*
X138537099Y-94452353D01*
X138427023Y-94540043D01*
X138364377Y-94555290D01*
X138353800Y-94528862D01*
X138380489Y-94470929D01*
X138445647Y-94369736D01*
X138454655Y-94356965D01*
X138555510Y-94215327D01*
X138448863Y-94079748D01*
X138377814Y-93965130D01*
X138381664Y-93913234D01*
X138449572Y-93934418D01*
X138449572Y-93934418D01*
G37*
X138449572Y-93934418D02*
X138531800Y-94000508D01*
X138658600Y-94119630D01*
X138785399Y-94000508D01*
X138891398Y-93920138D01*
X138941648Y-93919941D01*
X138928891Y-93990807D01*
X138863882Y-94098995D01*
X138753281Y-94254320D01*
X138861800Y-94406720D01*
X138917995Y-94514335D01*
X138905036Y-94561802D01*
X138840074Y-94542579D01*
X138742163Y-94452353D01*
X138650747Y-94345587D01*
X138537099Y-94452353D01*
X138427023Y-94540043D01*
X138364377Y-94555290D01*
X138353800Y-94528862D01*
X138380489Y-94470929D01*
X138445647Y-94369736D01*
X138454655Y-94356965D01*
X138555510Y-94215327D01*
X138448863Y-94079748D01*
X138377814Y-93965130D01*
X138381664Y-93913234D01*
X138449572Y-93934418D01*
D13*
X170815095Y-77362381D02*
X170815095Y-78171905D01*
X170862714Y-78267143D01*
X170910333Y-78314762D01*
X171005571Y-78362381D01*
X171196048Y-78362381D01*
X171291286Y-78314762D01*
X171338905Y-78267143D01*
X171386524Y-78171905D01*
X171386524Y-77362381D01*
X171815095Y-77457619D02*
X171862714Y-77410000D01*
X171957952Y-77362381D01*
X172196048Y-77362381D01*
X172291286Y-77410000D01*
X172338905Y-77457619D01*
X172386524Y-77552857D01*
X172386524Y-77648095D01*
X172338905Y-77790952D01*
X171767476Y-78362381D01*
X172386524Y-78362381D01*
X171235643Y-62980166D02*
X171283262Y-63027785D01*
X171330881Y-63170642D01*
X171330881Y-63265880D01*
X171283262Y-63408738D01*
X171188024Y-63503976D01*
X171092786Y-63551595D01*
X170902310Y-63599214D01*
X170759452Y-63599214D01*
X170568976Y-63551595D01*
X170473738Y-63503976D01*
X170378500Y-63408738D01*
X170330881Y-63265880D01*
X170330881Y-63170642D01*
X170378500Y-63027785D01*
X170426119Y-62980166D01*
X171330881Y-62027785D02*
X171330881Y-62599214D01*
X171330881Y-62313500D02*
X170330881Y-62313500D01*
X170473738Y-62408738D01*
X170568976Y-62503976D01*
X170616595Y-62599214D01*
X138338834Y-71734643D02*
X138291215Y-71782262D01*
X138148358Y-71829881D01*
X138053120Y-71829881D01*
X137910262Y-71782262D01*
X137815024Y-71687024D01*
X137767405Y-71591786D01*
X137719786Y-71401310D01*
X137719786Y-71258452D01*
X137767405Y-71067976D01*
X137815024Y-70972738D01*
X137910262Y-70877500D01*
X138053120Y-70829881D01*
X138148358Y-70829881D01*
X138291215Y-70877500D01*
X138338834Y-70925119D01*
X138672167Y-70829881D02*
X139291215Y-70829881D01*
X138957881Y-71210833D01*
X139100739Y-71210833D01*
X139195977Y-71258452D01*
X139243596Y-71306071D01*
X139291215Y-71401310D01*
X139291215Y-71639405D01*
X139243596Y-71734643D01*
X139195977Y-71782262D01*
X139100739Y-71829881D01*
X138815024Y-71829881D01*
X138719786Y-71782262D01*
X138672167Y-71734643D01*
X134009643Y-74172166D02*
X134057262Y-74219785D01*
X134104881Y-74362642D01*
X134104881Y-74457880D01*
X134057262Y-74600738D01*
X133962024Y-74695976D01*
X133866786Y-74743595D01*
X133676310Y-74791214D01*
X133533452Y-74791214D01*
X133342976Y-74743595D01*
X133247738Y-74695976D01*
X133152500Y-74600738D01*
X133104881Y-74457880D01*
X133104881Y-74362642D01*
X133152500Y-74219785D01*
X133200119Y-74172166D01*
X133438214Y-73315023D02*
X134104881Y-73315023D01*
X133057262Y-73553119D02*
X133771548Y-73791214D01*
X133771548Y-73172166D01*
X181141643Y-56294886D02*
X181189262Y-56342505D01*
X181236881Y-56485362D01*
X181236881Y-56580600D01*
X181189262Y-56723458D01*
X181094024Y-56818696D01*
X180998786Y-56866315D01*
X180808310Y-56913934D01*
X180665452Y-56913934D01*
X180474976Y-56866315D01*
X180379738Y-56818696D01*
X180284500Y-56723458D01*
X180236881Y-56580600D01*
X180236881Y-56485362D01*
X180284500Y-56342505D01*
X180332119Y-56294886D01*
X180236881Y-55390124D02*
X180236881Y-55866315D01*
X180713071Y-55913934D01*
X180665452Y-55866315D01*
X180617833Y-55771077D01*
X180617833Y-55532981D01*
X180665452Y-55437743D01*
X180713071Y-55390124D01*
X180808310Y-55342505D01*
X181046405Y-55342505D01*
X181141643Y-55390124D01*
X181189262Y-55437743D01*
X181236881Y-55532981D01*
X181236881Y-55771077D01*
X181189262Y-55866315D01*
X181141643Y-55913934D01*
X156611594Y-62472843D02*
X156563975Y-62520462D01*
X156421118Y-62568081D01*
X156325880Y-62568081D01*
X156183022Y-62520462D01*
X156087784Y-62425224D01*
X156040165Y-62329986D01*
X155992546Y-62139510D01*
X155992546Y-61996652D01*
X156040165Y-61806176D01*
X156087784Y-61710938D01*
X156183022Y-61615700D01*
X156325880Y-61568081D01*
X156421118Y-61568081D01*
X156563975Y-61615700D01*
X156611594Y-61663319D01*
X156944927Y-61568081D02*
X157611594Y-61568081D01*
X157183022Y-62568081D01*
X212162794Y-56387003D02*
X212115175Y-56434622D01*
X211972318Y-56482241D01*
X211877080Y-56482241D01*
X211734222Y-56434622D01*
X211638984Y-56339384D01*
X211591365Y-56244146D01*
X211543746Y-56053670D01*
X211543746Y-55910812D01*
X211591365Y-55720336D01*
X211638984Y-55625098D01*
X211734222Y-55529860D01*
X211877080Y-55482241D01*
X211972318Y-55482241D01*
X212115175Y-55529860D01*
X212162794Y-55577479D01*
X212734222Y-55910812D02*
X212638984Y-55863193D01*
X212591365Y-55815574D01*
X212543746Y-55720336D01*
X212543746Y-55672717D01*
X212591365Y-55577479D01*
X212638984Y-55529860D01*
X212734222Y-55482241D01*
X212924699Y-55482241D01*
X213019937Y-55529860D01*
X213067556Y-55577479D01*
X213115175Y-55672717D01*
X213115175Y-55720336D01*
X213067556Y-55815574D01*
X213019937Y-55863193D01*
X212924699Y-55910812D01*
X212734222Y-55910812D01*
X212638984Y-55958431D01*
X212591365Y-56006050D01*
X212543746Y-56101289D01*
X212543746Y-56291765D01*
X212591365Y-56387003D01*
X212638984Y-56434622D01*
X212734222Y-56482241D01*
X212924699Y-56482241D01*
X213019937Y-56434622D01*
X213067556Y-56387003D01*
X213115175Y-56291765D01*
X213115175Y-56101289D01*
X213067556Y-56006050D01*
X213019937Y-55958431D01*
X212924699Y-55910812D01*
X223130383Y-61854946D02*
X223178002Y-61902565D01*
X223225621Y-62045422D01*
X223225621Y-62140660D01*
X223178002Y-62283518D01*
X223082764Y-62378756D01*
X222987526Y-62426375D01*
X222797050Y-62473994D01*
X222654192Y-62473994D01*
X222463716Y-62426375D01*
X222368478Y-62378756D01*
X222273240Y-62283518D01*
X222225621Y-62140660D01*
X222225621Y-62045422D01*
X222273240Y-61902565D01*
X222320859Y-61854946D01*
X223225621Y-61378756D02*
X223225621Y-61188280D01*
X223178002Y-61093041D01*
X223130383Y-61045422D01*
X222987526Y-60950184D01*
X222797050Y-60902565D01*
X222416097Y-60902565D01*
X222320859Y-60950184D01*
X222273240Y-60997803D01*
X222225621Y-61093041D01*
X222225621Y-61283518D01*
X222273240Y-61378756D01*
X222320859Y-61426375D01*
X222416097Y-61473994D01*
X222654192Y-61473994D01*
X222749430Y-61426375D01*
X222797050Y-61378756D01*
X222844669Y-61283518D01*
X222844669Y-61093041D01*
X222797050Y-60997803D01*
X222749430Y-60950184D01*
X222654192Y-60902565D01*
X173402381Y-58133333D02*
X174116667Y-58133333D01*
X174259524Y-58180953D01*
X174354762Y-58276191D01*
X174402381Y-58419048D01*
X174402381Y-58514286D01*
X173497619Y-57704762D02*
X173450000Y-57657143D01*
X173402381Y-57561905D01*
X173402381Y-57323809D01*
X173450000Y-57228571D01*
X173497619Y-57180952D01*
X173592857Y-57133333D01*
X173688095Y-57133333D01*
X173830952Y-57180952D01*
X174402381Y-57752381D01*
X174402381Y-57133333D01*
X186186581Y-97574647D02*
X186186581Y-98050838D01*
X185186581Y-98050838D01*
X185662771Y-97241314D02*
X185662771Y-96907980D01*
X186186581Y-96765123D02*
X186186581Y-97241314D01*
X185186581Y-97241314D01*
X185186581Y-96765123D01*
X186186581Y-96336552D02*
X185186581Y-96336552D01*
X185186581Y-96098457D01*
X185234200Y-95955599D01*
X185329438Y-95860361D01*
X185424676Y-95812742D01*
X185615152Y-95765123D01*
X185758010Y-95765123D01*
X185948486Y-95812742D01*
X186043724Y-95860361D01*
X186138962Y-95955599D01*
X186186581Y-96098457D01*
X186186581Y-96336552D01*
X186186581Y-94812742D02*
X186186581Y-95384171D01*
X186186581Y-95098457D02*
X185186581Y-95098457D01*
X185329438Y-95193695D01*
X185424676Y-95288933D01*
X185472295Y-95384171D01*
X181554381Y-68238666D02*
X181078190Y-68572000D01*
X181554381Y-68810095D02*
X180554381Y-68810095D01*
X180554381Y-68429142D01*
X180602000Y-68333904D01*
X180649619Y-68286285D01*
X180744857Y-68238666D01*
X180887714Y-68238666D01*
X180982952Y-68286285D01*
X181030571Y-68333904D01*
X181078190Y-68429142D01*
X181078190Y-68810095D01*
X181554381Y-67286285D02*
X181554381Y-67857714D01*
X181554381Y-67572000D02*
X180554381Y-67572000D01*
X180697238Y-67667238D01*
X180792476Y-67762476D01*
X180840095Y-67857714D01*
X186271981Y-100191866D02*
X185795790Y-100525200D01*
X186271981Y-100763295D02*
X185271981Y-100763295D01*
X185271981Y-100382342D01*
X185319600Y-100287104D01*
X185367219Y-100239485D01*
X185462457Y-100191866D01*
X185605314Y-100191866D01*
X185700552Y-100239485D01*
X185748171Y-100287104D01*
X185795790Y-100382342D01*
X185795790Y-100763295D01*
X185367219Y-99810914D02*
X185319600Y-99763295D01*
X185271981Y-99668057D01*
X185271981Y-99429961D01*
X185319600Y-99334723D01*
X185367219Y-99287104D01*
X185462457Y-99239485D01*
X185557695Y-99239485D01*
X185700552Y-99287104D01*
X186271981Y-99858533D01*
X186271981Y-99239485D01*
X179220762Y-63499905D02*
X179268381Y-63357048D01*
X179268381Y-63118952D01*
X179220762Y-63023714D01*
X179173143Y-62976095D01*
X179077905Y-62928476D01*
X178982667Y-62928476D01*
X178887429Y-62976095D01*
X178839810Y-63023714D01*
X178792190Y-63118952D01*
X178744571Y-63309429D01*
X178696952Y-63404667D01*
X178649333Y-63452286D01*
X178554095Y-63499905D01*
X178458857Y-63499905D01*
X178363619Y-63452286D01*
X178316000Y-63404667D01*
X178268381Y-63309429D01*
X178268381Y-63071333D01*
X178316000Y-62928476D01*
X179268381Y-61976095D02*
X179268381Y-62547524D01*
X179268381Y-62261810D02*
X178268381Y-62261810D01*
X178411238Y-62357048D01*
X178506476Y-62452286D01*
X178554095Y-62547524D01*
X140680476Y-78202381D02*
X141347143Y-79202381D01*
X141347143Y-78202381D02*
X140680476Y-79202381D01*
X142251905Y-79202381D02*
X141680476Y-79202381D01*
X141966190Y-79202381D02*
X141966190Y-78202381D01*
X141870952Y-78345238D01*
X141775714Y-78440476D01*
X141680476Y-78488095D01*
X207212381Y-57673333D02*
X207926667Y-57673333D01*
X208069524Y-57720953D01*
X208164762Y-57816191D01*
X208212381Y-57959048D01*
X208212381Y-58054286D01*
X207212381Y-57292381D02*
X207212381Y-56625714D01*
X208212381Y-57054286D01*
M02*
