G04 #@! TF.FileFunction,Legend,Bot*
%FSLAX46Y46*%
G04 Gerber Fmt 4.6, Leading zero omitted, Abs format (unit mm)*
G04 Created by KiCad (PCBNEW 4.0.6) date Sat Aug 26 00:36:03 2017*
%MOMM*%
%LPD*%
G01*
G04 APERTURE LIST*
%ADD10C,0.100000*%
%ADD11C,0.177800*%
%ADD12C,0.010000*%
G04 APERTURE END LIST*
D10*
D11*
X162433000Y-63930349D02*
X162433000Y-65164063D01*
X162505571Y-65309206D01*
X162578143Y-65381777D01*
X162723286Y-65454349D01*
X162941000Y-65454349D01*
X163086143Y-65381777D01*
X162433000Y-64873777D02*
X162578143Y-64946349D01*
X162868429Y-64946349D01*
X163013571Y-64873777D01*
X163086143Y-64801206D01*
X163158714Y-64656063D01*
X163158714Y-64220634D01*
X163086143Y-64075491D01*
X163013571Y-64002920D01*
X162868429Y-63930349D01*
X162578143Y-63930349D01*
X162433000Y-64002920D01*
X161707286Y-64946349D02*
X161707286Y-63930349D01*
X161707286Y-63422349D02*
X161779857Y-63494920D01*
X161707286Y-63567491D01*
X161634714Y-63494920D01*
X161707286Y-63422349D01*
X161707286Y-63567491D01*
X161199286Y-63930349D02*
X160618715Y-63930349D01*
X160981572Y-63422349D02*
X160981572Y-64728634D01*
X160909000Y-64873777D01*
X160763858Y-64946349D01*
X160618715Y-64946349D01*
X160110715Y-64946349D02*
X160110715Y-63422349D01*
X159457572Y-64946349D02*
X159457572Y-64148063D01*
X159530143Y-64002920D01*
X159675286Y-63930349D01*
X159893001Y-63930349D01*
X160038143Y-64002920D01*
X160110715Y-64075491D01*
X158078715Y-63930349D02*
X158078715Y-64946349D01*
X158731858Y-63930349D02*
X158731858Y-64728634D01*
X158659286Y-64873777D01*
X158514144Y-64946349D01*
X158296429Y-64946349D01*
X158151286Y-64873777D01*
X158078715Y-64801206D01*
X157353001Y-64946349D02*
X157353001Y-63422349D01*
X157353001Y-64002920D02*
X157207858Y-63930349D01*
X156917572Y-63930349D01*
X156772429Y-64002920D01*
X156699858Y-64075491D01*
X156627287Y-64220634D01*
X156627287Y-64656063D01*
X156699858Y-64801206D01*
X156772429Y-64873777D01*
X156917572Y-64946349D01*
X157207858Y-64946349D01*
X157353001Y-64873777D01*
X155974144Y-64801206D02*
X155901572Y-64873777D01*
X155974144Y-64946349D01*
X156046715Y-64873777D01*
X155974144Y-64801206D01*
X155974144Y-64946349D01*
X154595287Y-64873777D02*
X154740430Y-64946349D01*
X155030716Y-64946349D01*
X155175858Y-64873777D01*
X155248430Y-64801206D01*
X155321001Y-64656063D01*
X155321001Y-64220634D01*
X155248430Y-64075491D01*
X155175858Y-64002920D01*
X155030716Y-63930349D01*
X154740430Y-63930349D01*
X154595287Y-64002920D01*
X153724430Y-64946349D02*
X153869572Y-64873777D01*
X153942144Y-64801206D01*
X154014715Y-64656063D01*
X154014715Y-64220634D01*
X153942144Y-64075491D01*
X153869572Y-64002920D01*
X153724430Y-63930349D01*
X153506715Y-63930349D01*
X153361572Y-64002920D01*
X153289001Y-64075491D01*
X153216430Y-64220634D01*
X153216430Y-64656063D01*
X153289001Y-64801206D01*
X153361572Y-64873777D01*
X153506715Y-64946349D01*
X153724430Y-64946349D01*
X152563287Y-64946349D02*
X152563287Y-63930349D01*
X152563287Y-64075491D02*
X152490715Y-64002920D01*
X152345573Y-63930349D01*
X152127858Y-63930349D01*
X151982715Y-64002920D01*
X151910144Y-64148063D01*
X151910144Y-64946349D01*
X151910144Y-64148063D02*
X151837573Y-64002920D01*
X151692430Y-63930349D01*
X151474715Y-63930349D01*
X151329573Y-64002920D01*
X151257001Y-64148063D01*
X151257001Y-64946349D01*
X149442715Y-63349777D02*
X150749001Y-65309206D01*
X148934716Y-63930349D02*
X148934716Y-65454349D01*
X148934716Y-64002920D02*
X148789573Y-63930349D01*
X148499287Y-63930349D01*
X148354144Y-64002920D01*
X148281573Y-64075491D01*
X148209002Y-64220634D01*
X148209002Y-64656063D01*
X148281573Y-64801206D01*
X148354144Y-64873777D01*
X148499287Y-64946349D01*
X148789573Y-64946349D01*
X148934716Y-64873777D01*
X146902716Y-64946349D02*
X146902716Y-63422349D01*
X146902716Y-64873777D02*
X147047859Y-64946349D01*
X147338145Y-64946349D01*
X147483287Y-64873777D01*
X147555859Y-64801206D01*
X147628430Y-64656063D01*
X147628430Y-64220634D01*
X147555859Y-64075491D01*
X147483287Y-64002920D01*
X147338145Y-63930349D01*
X147047859Y-63930349D01*
X146902716Y-64002920D01*
X146177002Y-63930349D02*
X146177002Y-65454349D01*
X146177002Y-64002920D02*
X146031859Y-63930349D01*
X145741573Y-63930349D01*
X145596430Y-64002920D01*
X145523859Y-64075491D01*
X145451288Y-64220634D01*
X145451288Y-64656063D01*
X145523859Y-64801206D01*
X145596430Y-64873777D01*
X145741573Y-64946349D01*
X146031859Y-64946349D01*
X146177002Y-64873777D01*
X144943288Y-63422349D02*
X143927288Y-63422349D01*
X144580431Y-64946349D01*
X142258144Y-63349777D02*
X143564430Y-65309206D01*
X141097002Y-64873777D02*
X141242145Y-64946349D01*
X141532431Y-64946349D01*
X141677573Y-64873777D01*
X141750145Y-64801206D01*
X141822716Y-64656063D01*
X141822716Y-64220634D01*
X141750145Y-64075491D01*
X141677573Y-64002920D01*
X141532431Y-63930349D01*
X141242145Y-63930349D01*
X141097002Y-64002920D01*
X140226145Y-64946349D02*
X140371287Y-64873777D01*
X140443859Y-64801206D01*
X140516430Y-64656063D01*
X140516430Y-64220634D01*
X140443859Y-64075491D01*
X140371287Y-64002920D01*
X140226145Y-63930349D01*
X140008430Y-63930349D01*
X139863287Y-64002920D01*
X139790716Y-64075491D01*
X139718145Y-64220634D01*
X139718145Y-64656063D01*
X139790716Y-64801206D01*
X139863287Y-64873777D01*
X140008430Y-64946349D01*
X140226145Y-64946349D01*
X139065002Y-63930349D02*
X139065002Y-64946349D01*
X139065002Y-64075491D02*
X138992430Y-64002920D01*
X138847288Y-63930349D01*
X138629573Y-63930349D01*
X138484430Y-64002920D01*
X138411859Y-64148063D01*
X138411859Y-64946349D01*
X137758716Y-64873777D02*
X137613573Y-64946349D01*
X137323288Y-64946349D01*
X137178145Y-64873777D01*
X137105573Y-64728634D01*
X137105573Y-64656063D01*
X137178145Y-64510920D01*
X137323288Y-64438349D01*
X137541002Y-64438349D01*
X137686145Y-64365777D01*
X137758716Y-64220634D01*
X137758716Y-64148063D01*
X137686145Y-64002920D01*
X137541002Y-63930349D01*
X137323288Y-63930349D01*
X137178145Y-64002920D01*
X136234717Y-64946349D02*
X136379859Y-64873777D01*
X136452431Y-64801206D01*
X136525002Y-64656063D01*
X136525002Y-64220634D01*
X136452431Y-64075491D01*
X136379859Y-64002920D01*
X136234717Y-63930349D01*
X136017002Y-63930349D01*
X135871859Y-64002920D01*
X135799288Y-64075491D01*
X135726717Y-64220634D01*
X135726717Y-64656063D01*
X135799288Y-64801206D01*
X135871859Y-64873777D01*
X136017002Y-64946349D01*
X136234717Y-64946349D01*
X134855860Y-64946349D02*
X135001002Y-64873777D01*
X135073574Y-64728634D01*
X135073574Y-63422349D01*
X133694716Y-64873777D02*
X133839859Y-64946349D01*
X134130145Y-64946349D01*
X134275288Y-64873777D01*
X134347859Y-64728634D01*
X134347859Y-64148063D01*
X134275288Y-64002920D01*
X134130145Y-63930349D01*
X133839859Y-63930349D01*
X133694716Y-64002920D01*
X133622145Y-64148063D01*
X133622145Y-64293206D01*
X134347859Y-64438349D01*
X132969002Y-64365777D02*
X131807859Y-64365777D01*
X130429002Y-64873777D02*
X130574145Y-64946349D01*
X130864431Y-64946349D01*
X131009573Y-64873777D01*
X131082145Y-64801206D01*
X131154716Y-64656063D01*
X131154716Y-64220634D01*
X131082145Y-64075491D01*
X131009573Y-64002920D01*
X130864431Y-63930349D01*
X130574145Y-63930349D01*
X130429002Y-64002920D01*
X129122716Y-64946349D02*
X129122716Y-64148063D01*
X129195287Y-64002920D01*
X129340430Y-63930349D01*
X129630716Y-63930349D01*
X129775859Y-64002920D01*
X129122716Y-64873777D02*
X129267859Y-64946349D01*
X129630716Y-64946349D01*
X129775859Y-64873777D01*
X129848430Y-64728634D01*
X129848430Y-64583491D01*
X129775859Y-64438349D01*
X129630716Y-64365777D01*
X129267859Y-64365777D01*
X129122716Y-64293206D01*
X128397002Y-63930349D02*
X128397002Y-65454349D01*
X128397002Y-64002920D02*
X128251859Y-63930349D01*
X127961573Y-63930349D01*
X127816430Y-64002920D01*
X127743859Y-64075491D01*
X127671288Y-64220634D01*
X127671288Y-64656063D01*
X127743859Y-64801206D01*
X127816430Y-64873777D01*
X127961573Y-64946349D01*
X128251859Y-64946349D01*
X128397002Y-64873777D01*
X126437573Y-64873777D02*
X126582716Y-64946349D01*
X126873002Y-64946349D01*
X127018145Y-64873777D01*
X127090716Y-64728634D01*
X127090716Y-64148063D01*
X127018145Y-64002920D01*
X126873002Y-63930349D01*
X126582716Y-63930349D01*
X126437573Y-64002920D01*
X126365002Y-64148063D01*
X126365002Y-64293206D01*
X127090716Y-64438349D01*
X162215286Y-67265006D02*
X162287857Y-67337577D01*
X162505571Y-67410149D01*
X162650714Y-67410149D01*
X162868429Y-67337577D01*
X163013571Y-67192434D01*
X163086143Y-67047291D01*
X163158714Y-66757006D01*
X163158714Y-66539291D01*
X163086143Y-66249006D01*
X163013571Y-66103863D01*
X162868429Y-65958720D01*
X162650714Y-65886149D01*
X162505571Y-65886149D01*
X162287857Y-65958720D01*
X162215286Y-66031291D01*
X161344429Y-67410149D02*
X161489571Y-67337577D01*
X161562143Y-67265006D01*
X161634714Y-67119863D01*
X161634714Y-66684434D01*
X161562143Y-66539291D01*
X161489571Y-66466720D01*
X161344429Y-66394149D01*
X161126714Y-66394149D01*
X160981571Y-66466720D01*
X160909000Y-66539291D01*
X160836429Y-66684434D01*
X160836429Y-67119863D01*
X160909000Y-67265006D01*
X160981571Y-67337577D01*
X161126714Y-67410149D01*
X161344429Y-67410149D01*
X160183286Y-66394149D02*
X160183286Y-67410149D01*
X160183286Y-66539291D02*
X160110714Y-66466720D01*
X159965572Y-66394149D01*
X159747857Y-66394149D01*
X159602714Y-66466720D01*
X159530143Y-66611863D01*
X159530143Y-67410149D01*
X158877000Y-67337577D02*
X158731857Y-67410149D01*
X158441572Y-67410149D01*
X158296429Y-67337577D01*
X158223857Y-67192434D01*
X158223857Y-67119863D01*
X158296429Y-66974720D01*
X158441572Y-66902149D01*
X158659286Y-66902149D01*
X158804429Y-66829577D01*
X158877000Y-66684434D01*
X158877000Y-66611863D01*
X158804429Y-66466720D01*
X158659286Y-66394149D01*
X158441572Y-66394149D01*
X158296429Y-66466720D01*
X157353001Y-67410149D02*
X157498143Y-67337577D01*
X157570715Y-67265006D01*
X157643286Y-67119863D01*
X157643286Y-66684434D01*
X157570715Y-66539291D01*
X157498143Y-66466720D01*
X157353001Y-66394149D01*
X157135286Y-66394149D01*
X156990143Y-66466720D01*
X156917572Y-66539291D01*
X156845001Y-66684434D01*
X156845001Y-67119863D01*
X156917572Y-67265006D01*
X156990143Y-67337577D01*
X157135286Y-67410149D01*
X157353001Y-67410149D01*
X155974144Y-67410149D02*
X156119286Y-67337577D01*
X156191858Y-67192434D01*
X156191858Y-65886149D01*
X154813000Y-67337577D02*
X154958143Y-67410149D01*
X155248429Y-67410149D01*
X155393572Y-67337577D01*
X155466143Y-67192434D01*
X155466143Y-66611863D01*
X155393572Y-66466720D01*
X155248429Y-66394149D01*
X154958143Y-66394149D01*
X154813000Y-66466720D01*
X154740429Y-66611863D01*
X154740429Y-66757006D01*
X155466143Y-66902149D01*
X152055286Y-67265006D02*
X152127857Y-67337577D01*
X152345571Y-67410149D01*
X152490714Y-67410149D01*
X152708429Y-67337577D01*
X152853571Y-67192434D01*
X152926143Y-67047291D01*
X152998714Y-66757006D01*
X152998714Y-66539291D01*
X152926143Y-66249006D01*
X152853571Y-66103863D01*
X152708429Y-65958720D01*
X152490714Y-65886149D01*
X152345571Y-65886149D01*
X152127857Y-65958720D01*
X152055286Y-66031291D01*
X150749000Y-67410149D02*
X150749000Y-66611863D01*
X150821571Y-66466720D01*
X150966714Y-66394149D01*
X151257000Y-66394149D01*
X151402143Y-66466720D01*
X150749000Y-67337577D02*
X150894143Y-67410149D01*
X151257000Y-67410149D01*
X151402143Y-67337577D01*
X151474714Y-67192434D01*
X151474714Y-67047291D01*
X151402143Y-66902149D01*
X151257000Y-66829577D01*
X150894143Y-66829577D01*
X150749000Y-66757006D01*
X150023286Y-66394149D02*
X150023286Y-67918149D01*
X150023286Y-66466720D02*
X149878143Y-66394149D01*
X149587857Y-66394149D01*
X149442714Y-66466720D01*
X149370143Y-66539291D01*
X149297572Y-66684434D01*
X149297572Y-67119863D01*
X149370143Y-67265006D01*
X149442714Y-67337577D01*
X149587857Y-67410149D01*
X149878143Y-67410149D01*
X150023286Y-67337577D01*
X148063857Y-67337577D02*
X148209000Y-67410149D01*
X148499286Y-67410149D01*
X148644429Y-67337577D01*
X148717000Y-67192434D01*
X148717000Y-66611863D01*
X148644429Y-66466720D01*
X148499286Y-66394149D01*
X148209000Y-66394149D01*
X148063857Y-66466720D01*
X147991286Y-66611863D01*
X147991286Y-66757006D01*
X148717000Y-66902149D01*
X146177000Y-67410149D02*
X146177000Y-66394149D01*
X146177000Y-66684434D02*
X146104428Y-66539291D01*
X146031857Y-66466720D01*
X145886714Y-66394149D01*
X145741571Y-66394149D01*
X144652999Y-67337577D02*
X144798142Y-67410149D01*
X145088428Y-67410149D01*
X145233571Y-67337577D01*
X145306142Y-67192434D01*
X145306142Y-66611863D01*
X145233571Y-66466720D01*
X145088428Y-66394149D01*
X144798142Y-66394149D01*
X144652999Y-66466720D01*
X144580428Y-66611863D01*
X144580428Y-66757006D01*
X145306142Y-66902149D01*
X144072428Y-66394149D02*
X143709571Y-67410149D01*
X143346713Y-66394149D01*
X140806713Y-67410149D02*
X141677570Y-67410149D01*
X141242142Y-67410149D02*
X141242142Y-65886149D01*
X141387285Y-66103863D01*
X141532427Y-66249006D01*
X141677570Y-66321577D01*
X137395855Y-67990720D02*
X137468427Y-67918149D01*
X137613570Y-67700434D01*
X137686141Y-67555291D01*
X137758712Y-67337577D01*
X137831284Y-66974720D01*
X137831284Y-66684434D01*
X137758712Y-66321577D01*
X137686141Y-66103863D01*
X137613570Y-65958720D01*
X137468427Y-65741006D01*
X137395855Y-65668434D01*
X136597570Y-66539291D02*
X136742712Y-66466720D01*
X136815284Y-66394149D01*
X136887855Y-66249006D01*
X136887855Y-66176434D01*
X136815284Y-66031291D01*
X136742712Y-65958720D01*
X136597570Y-65886149D01*
X136307284Y-65886149D01*
X136162141Y-65958720D01*
X136089570Y-66031291D01*
X136016998Y-66176434D01*
X136016998Y-66249006D01*
X136089570Y-66394149D01*
X136162141Y-66466720D01*
X136307284Y-66539291D01*
X136597570Y-66539291D01*
X136742712Y-66611863D01*
X136815284Y-66684434D01*
X136887855Y-66829577D01*
X136887855Y-67119863D01*
X136815284Y-67265006D01*
X136742712Y-67337577D01*
X136597570Y-67410149D01*
X136307284Y-67410149D01*
X136162141Y-67337577D01*
X136089570Y-67265006D01*
X136016998Y-67119863D01*
X136016998Y-66829577D01*
X136089570Y-66684434D01*
X136162141Y-66611863D01*
X136307284Y-66539291D01*
X134275283Y-65813577D02*
X135581569Y-67773006D01*
X133839855Y-66031291D02*
X133767284Y-65958720D01*
X133622141Y-65886149D01*
X133259284Y-65886149D01*
X133114141Y-65958720D01*
X133041570Y-66031291D01*
X132968998Y-66176434D01*
X132968998Y-66321577D01*
X133041570Y-66539291D01*
X133912427Y-67410149D01*
X132968998Y-67410149D01*
X131590141Y-65886149D02*
X132315855Y-65886149D01*
X132388426Y-66611863D01*
X132315855Y-66539291D01*
X132170712Y-66466720D01*
X131807855Y-66466720D01*
X131662712Y-66539291D01*
X131590141Y-66611863D01*
X131517569Y-66757006D01*
X131517569Y-67119863D01*
X131590141Y-67265006D01*
X131662712Y-67337577D01*
X131807855Y-67410149D01*
X132170712Y-67410149D01*
X132315855Y-67337577D01*
X132388426Y-67265006D01*
X129775854Y-65813577D02*
X131082140Y-67773006D01*
X128469569Y-67410149D02*
X129340426Y-67410149D01*
X128904998Y-67410149D02*
X128904998Y-65886149D01*
X129050141Y-66103863D01*
X129195283Y-66249006D01*
X129340426Y-66321577D01*
X127961569Y-65886149D02*
X126945569Y-65886149D01*
X127598712Y-67410149D01*
X126510140Y-67990720D02*
X126437568Y-67918149D01*
X126292425Y-67700434D01*
X126219854Y-67555291D01*
X126147283Y-67337577D01*
X126074711Y-66974720D01*
X126074711Y-66684434D01*
X126147283Y-66321577D01*
X126219854Y-66103863D01*
X126292425Y-65958720D01*
X126437568Y-65741006D01*
X126510140Y-65668434D01*
D12*
G36*
X139461524Y-112315161D02*
X139523107Y-112275096D01*
X139629842Y-112206740D01*
X139814222Y-112093166D01*
X140066139Y-111940365D01*
X140375486Y-111754328D01*
X140732158Y-111541048D01*
X141126046Y-111306514D01*
X141547045Y-111056718D01*
X141985047Y-110797651D01*
X142429946Y-110535304D01*
X142871636Y-110275669D01*
X143300008Y-110024736D01*
X143704958Y-109788497D01*
X144076377Y-109572942D01*
X144272000Y-109460021D01*
X144672834Y-109229006D01*
X145100318Y-108982301D01*
X145531315Y-108733280D01*
X145942687Y-108495319D01*
X146311297Y-108281793D01*
X146603138Y-108112397D01*
X146896665Y-107944611D01*
X147172135Y-107792419D01*
X147413555Y-107664245D01*
X147604931Y-107568515D01*
X147730271Y-107513655D01*
X147754223Y-107506005D01*
X147911841Y-107437939D01*
X147975091Y-107348093D01*
X147983245Y-107268486D01*
X147990662Y-107102486D01*
X147997000Y-106865301D01*
X148001919Y-106572137D01*
X148005075Y-106238201D01*
X148006082Y-105968800D01*
X148008299Y-105568314D01*
X148013778Y-105105216D01*
X148022205Y-104589366D01*
X148033265Y-104030622D01*
X148046645Y-103438843D01*
X148062030Y-102823887D01*
X148079105Y-102195612D01*
X148097558Y-101563877D01*
X148117073Y-100938542D01*
X148137337Y-100329463D01*
X148158035Y-99746500D01*
X148178852Y-99199512D01*
X148199476Y-98698357D01*
X148219591Y-98252893D01*
X148238884Y-97872978D01*
X148257039Y-97568473D01*
X148273744Y-97349234D01*
X148283746Y-97256600D01*
X148288582Y-97130532D01*
X148243405Y-97050615D01*
X148144031Y-96982395D01*
X148043043Y-96924537D01*
X147870780Y-96827570D01*
X147644984Y-96701354D01*
X147383400Y-96555751D01*
X147103771Y-96400620D01*
X146823843Y-96245822D01*
X146561357Y-96101218D01*
X146344363Y-95982294D01*
X146125204Y-95860557D01*
X145982892Y-95775620D01*
X145903637Y-95718375D01*
X145873650Y-95679714D01*
X145872200Y-95670449D01*
X145910549Y-95671965D01*
X146005395Y-95711201D01*
X146126439Y-95773072D01*
X146243378Y-95842490D01*
X146304000Y-95885437D01*
X146367521Y-95924120D01*
X146500859Y-95998068D01*
X146683478Y-96096079D01*
X146862214Y-96189991D01*
X147080937Y-96305706D01*
X147277789Y-96413200D01*
X147428099Y-96498809D01*
X147497214Y-96541640D01*
X147624005Y-96620244D01*
X147785823Y-96710348D01*
X147836973Y-96736915D01*
X147989921Y-96817176D01*
X148119943Y-96889674D01*
X148152163Y-96909020D01*
X148254517Y-96946716D01*
X148297466Y-96918394D01*
X148265493Y-96849666D01*
X148214234Y-96806547D01*
X148131738Y-96754493D01*
X147985109Y-96666223D01*
X147790606Y-96551152D01*
X147564490Y-96418695D01*
X147323021Y-96278268D01*
X147082460Y-96139285D01*
X146859066Y-96011162D01*
X146669099Y-95903314D01*
X146528820Y-95825156D01*
X146454488Y-95786102D01*
X146447228Y-95783400D01*
X146396919Y-95758135D01*
X146286079Y-95692101D01*
X146148173Y-95605600D01*
X146002667Y-95514510D01*
X145894306Y-95450390D01*
X145848360Y-95427800D01*
X145797583Y-95401757D01*
X145690473Y-95334827D01*
X145600679Y-95275400D01*
X145466243Y-95189889D01*
X145364466Y-95134594D01*
X145330274Y-95123000D01*
X145266600Y-95097413D01*
X145146926Y-95031045D01*
X145028215Y-94957900D01*
X144859290Y-94850557D01*
X144725438Y-94769111D01*
X144584856Y-94688932D01*
X144399000Y-94587160D01*
X144273171Y-94517218D01*
X144091923Y-94414503D01*
X143887618Y-94297396D01*
X143814800Y-94255338D01*
X143565785Y-94113536D01*
X143285308Y-93957371D01*
X143029336Y-93817967D01*
X143002000Y-93803350D01*
X142820445Y-93702835D01*
X142676670Y-93616273D01*
X142591983Y-93556816D01*
X142578666Y-93542012D01*
X142520327Y-93499803D01*
X142499221Y-93497400D01*
X142429668Y-93470621D01*
X142301860Y-93399682D01*
X142140778Y-93298685D01*
X142104463Y-93274575D01*
X141931163Y-93163115D01*
X141777775Y-93072837D01*
X141673645Y-93020866D01*
X141663510Y-93017248D01*
X141545541Y-92962252D01*
X141491000Y-92922573D01*
X141409786Y-92864967D01*
X141275627Y-92786677D01*
X141198600Y-92745961D01*
X140961796Y-92622304D01*
X140805669Y-92532981D01*
X140718157Y-92470833D01*
X140696437Y-92447814D01*
X140632268Y-92397693D01*
X140519541Y-92334776D01*
X140512800Y-92331497D01*
X140360070Y-92247596D01*
X140208000Y-92149818D01*
X140077143Y-92065560D01*
X139901437Y-91963014D01*
X139776200Y-91894799D01*
X139591962Y-91788797D01*
X139417254Y-91673442D01*
X139329932Y-91606659D01*
X139199182Y-91516615D01*
X139078057Y-91465523D01*
X139050532Y-91461514D01*
X138923150Y-91451992D01*
X138861800Y-91443482D01*
X138759339Y-91448720D01*
X138645900Y-91477002D01*
X138545890Y-91521726D01*
X138506200Y-91559595D01*
X138465474Y-91601680D01*
X138361244Y-91671273D01*
X138277600Y-91719400D01*
X138147669Y-91797365D01*
X138064853Y-91860486D01*
X138049000Y-91883439D01*
X138009607Y-91921104D01*
X137994788Y-91922600D01*
X137931077Y-91956905D01*
X137829043Y-92044336D01*
X137766188Y-92107506D01*
X137667585Y-92206210D01*
X137604364Y-92258267D01*
X137591800Y-92259269D01*
X137555941Y-92260821D01*
X137466461Y-92306445D01*
X137350506Y-92378575D01*
X137235221Y-92459643D01*
X137165194Y-92517639D01*
X137244388Y-92517639D01*
X137256749Y-92489250D01*
X137307899Y-92434713D01*
X137337305Y-92445901D01*
X137337800Y-92453002D01*
X137301717Y-92495970D01*
X137279150Y-92511651D01*
X137244388Y-92517639D01*
X137165194Y-92517639D01*
X137147751Y-92532085D01*
X137119375Y-92564993D01*
X137054724Y-92626546D01*
X137027688Y-92633800D01*
X136960437Y-92661518D01*
X136839099Y-92732609D01*
X136690484Y-92828979D01*
X136541401Y-92932535D01*
X136418661Y-93025184D01*
X136349074Y-93088833D01*
X136345034Y-93094504D01*
X136358686Y-93108480D01*
X136423915Y-93084836D01*
X136506228Y-93039939D01*
X136571134Y-92990157D01*
X136575800Y-92985003D01*
X136635801Y-92940418D01*
X136775092Y-92851159D01*
X136984693Y-92722862D01*
X137176010Y-92608344D01*
X137248735Y-92562679D01*
X137387945Y-92473242D01*
X137575161Y-92351972D01*
X137791903Y-92210810D01*
X137845800Y-92175600D01*
X138073900Y-92028987D01*
X138284492Y-91898153D01*
X138456597Y-91795823D01*
X138569241Y-91734723D01*
X138582400Y-91728736D01*
X138734800Y-91663761D01*
X138729005Y-91668600D01*
X138811000Y-91668600D01*
X138829586Y-91626786D01*
X138844866Y-91634734D01*
X138850946Y-91695022D01*
X138844866Y-91702467D01*
X138814666Y-91695494D01*
X138811000Y-91668600D01*
X138729005Y-91668600D01*
X138582400Y-91790999D01*
X138445337Y-91895149D01*
X138323734Y-91973400D01*
X139192000Y-91973400D01*
X139196027Y-91926589D01*
X139214401Y-91922600D01*
X139266132Y-91959477D01*
X139268200Y-91973400D01*
X139250867Y-92022880D01*
X139245798Y-92024200D01*
X139202426Y-91988603D01*
X139192000Y-91973400D01*
X138323734Y-91973400D01*
X138314282Y-91979482D01*
X138303000Y-91985634D01*
X138237669Y-92025846D01*
X138202064Y-92048745D01*
X139319000Y-92048745D01*
X139336583Y-92026803D01*
X139399968Y-92043125D01*
X139525105Y-92103388D01*
X139629879Y-92159413D01*
X139761537Y-92236211D01*
X139843160Y-92293920D01*
X139857705Y-92315228D01*
X139806198Y-92305282D01*
X139697726Y-92260645D01*
X139563655Y-92196835D01*
X139435348Y-92129365D01*
X139344170Y-92073751D01*
X139319000Y-92048745D01*
X138202064Y-92048745D01*
X138095947Y-92116992D01*
X137886009Y-92253696D01*
X137654776Y-92405200D01*
X140030200Y-92405200D01*
X140055600Y-92379800D01*
X140081000Y-92405200D01*
X140055600Y-92430600D01*
X140030200Y-92405200D01*
X137654776Y-92405200D01*
X137616032Y-92430585D01*
X137610981Y-92433908D01*
X140144255Y-92433908D01*
X140151203Y-92430600D01*
X140197563Y-92466363D01*
X140208000Y-92481400D01*
X140220944Y-92528893D01*
X140213996Y-92532200D01*
X140167636Y-92496438D01*
X140157200Y-92481400D01*
X140144255Y-92433908D01*
X137610981Y-92433908D01*
X137345706Y-92608400D01*
X140335000Y-92608400D01*
X140360400Y-92583000D01*
X140385800Y-92608400D01*
X140360400Y-92633800D01*
X140335000Y-92608400D01*
X137345706Y-92608400D01*
X137294193Y-92642284D01*
X137249289Y-92671907D01*
X140525134Y-92671907D01*
X140581954Y-92700977D01*
X140622242Y-92727491D01*
X140738517Y-92798766D01*
X140822027Y-92835609D01*
X140831921Y-92837000D01*
X140901639Y-92872048D01*
X140948682Y-92918119D01*
X140954577Y-92945807D01*
X140898889Y-92930102D01*
X140804880Y-92883503D01*
X140695812Y-92818508D01*
X140594947Y-92747613D01*
X140538200Y-92697592D01*
X140525134Y-92671907D01*
X137249289Y-92671907D01*
X136928669Y-92883418D01*
X136729990Y-93014800D01*
X141046200Y-93014800D01*
X141071600Y-92989400D01*
X141097000Y-93014800D01*
X141071600Y-93040200D01*
X141046200Y-93014800D01*
X136729990Y-93014800D01*
X136676314Y-93050295D01*
X141169294Y-93050295D01*
X141197556Y-93049585D01*
X141309108Y-93098712D01*
X141417135Y-93154500D01*
X141546661Y-93224181D01*
X141633671Y-93271478D01*
X141651566Y-93281500D01*
X141650174Y-93316759D01*
X141598108Y-93305390D01*
X141486533Y-93252723D01*
X141375007Y-93190626D01*
X141227414Y-93098192D01*
X141169294Y-93050295D01*
X136676314Y-93050295D01*
X136527636Y-93148612D01*
X136421993Y-93218622D01*
X139225406Y-93218622D01*
X139234407Y-93192600D01*
X139265235Y-93235161D01*
X139309285Y-93339346D01*
X139315410Y-93356541D01*
X139328220Y-93403206D01*
X141787376Y-93403206D01*
X141810501Y-93396661D01*
X141900088Y-93429970D01*
X141964067Y-93459998D01*
X142080958Y-93524568D01*
X142142567Y-93572104D01*
X142145233Y-93583700D01*
X142089927Y-93578219D01*
X141988364Y-93535934D01*
X141878948Y-93476215D01*
X141800080Y-93418430D01*
X141787376Y-93403206D01*
X139328220Y-93403206D01*
X139341286Y-93450800D01*
X139333089Y-93476853D01*
X139326090Y-93470841D01*
X139281870Y-93398530D01*
X139243732Y-93300567D01*
X139225406Y-93218622D01*
X136421993Y-93218622D01*
X136099270Y-93432491D01*
X135839200Y-93605125D01*
X135791850Y-93636563D01*
X142231818Y-93636563D01*
X142252666Y-93630858D01*
X142339129Y-93669389D01*
X142423724Y-93715876D01*
X142571504Y-93799231D01*
X142773776Y-93910301D01*
X142995030Y-94029659D01*
X143076723Y-94073160D01*
X143264903Y-94178215D01*
X143416205Y-94272600D01*
X143509551Y-94342652D01*
X143528627Y-94366083D01*
X143509456Y-94381598D01*
X143434936Y-94339310D01*
X143408952Y-94319711D01*
X143301004Y-94245077D01*
X143223389Y-94209169D01*
X143217595Y-94208600D01*
X143151145Y-94183795D01*
X143022003Y-94118390D01*
X142853466Y-94025905D01*
X142668828Y-93919858D01*
X142491385Y-93813767D01*
X142344434Y-93721151D01*
X142251270Y-93655527D01*
X142231818Y-93636563D01*
X135791850Y-93636563D01*
X135203818Y-94026986D01*
X140038908Y-94026986D01*
X140039022Y-93951303D01*
X140054218Y-93825203D01*
X140082497Y-93755962D01*
X140092325Y-93751400D01*
X140116327Y-93720549D01*
X140109756Y-93706031D01*
X140132967Y-93688535D01*
X140217605Y-93694238D01*
X140328026Y-93716337D01*
X140428586Y-93748031D01*
X140478724Y-93776445D01*
X140492456Y-93837163D01*
X140506149Y-93979657D01*
X140518400Y-94184112D01*
X140527197Y-94414801D01*
X143634515Y-94414801D01*
X143670870Y-94416977D01*
X143752248Y-94455763D01*
X143832357Y-94506736D01*
X143966236Y-94586849D01*
X144081500Y-94637159D01*
X144170192Y-94684065D01*
X144195800Y-94724851D01*
X144157248Y-94726823D01*
X144060025Y-94689214D01*
X143931776Y-94626033D01*
X143800145Y-94551288D01*
X143692780Y-94478990D01*
X143664940Y-94455847D01*
X143634515Y-94414801D01*
X140527197Y-94414801D01*
X140527804Y-94430713D01*
X140529435Y-94492087D01*
X140535011Y-94768363D01*
X140534957Y-94838141D01*
X144301633Y-94838141D01*
X144323252Y-94821044D01*
X144362135Y-94818200D01*
X144444128Y-94843600D01*
X144602200Y-94843600D01*
X144627600Y-94818200D01*
X144653000Y-94843600D01*
X144627600Y-94869000D01*
X144602200Y-94843600D01*
X144444128Y-94843600D01*
X144452238Y-94846112D01*
X144475200Y-94869000D01*
X144547899Y-94914550D01*
X144592498Y-94921491D01*
X144680711Y-94950457D01*
X144788464Y-95016399D01*
X144876644Y-95091739D01*
X144907000Y-95143224D01*
X144867119Y-95133591D01*
X144765983Y-95088962D01*
X144631346Y-95023326D01*
X144490964Y-94950671D01*
X144372594Y-94884985D01*
X144303992Y-94840255D01*
X144301633Y-94838141D01*
X140534957Y-94838141D01*
X140534862Y-94958726D01*
X140527422Y-95078775D01*
X140511129Y-95144112D01*
X140489605Y-95165244D01*
X144957800Y-95165244D01*
X144996449Y-95162849D01*
X145094005Y-95203927D01*
X145148300Y-95233136D01*
X145311933Y-95324065D01*
X145503374Y-95427490D01*
X145580100Y-95468081D01*
X145714637Y-95545918D01*
X145802232Y-95610568D01*
X145821400Y-95637206D01*
X145781949Y-95638391D01*
X145680130Y-95596880D01*
X145580100Y-95544759D01*
X145398199Y-95443887D01*
X145216036Y-95344272D01*
X145148300Y-95307741D01*
X145030999Y-95236294D01*
X144963908Y-95178675D01*
X144957800Y-95165244D01*
X140489605Y-95165244D01*
X140484417Y-95170337D01*
X140461078Y-95173800D01*
X140365112Y-95201951D01*
X140240122Y-95271072D01*
X140220330Y-95284707D01*
X140064577Y-95395613D01*
X140096524Y-95235876D01*
X140104852Y-95116891D01*
X140081323Y-95047171D01*
X140079198Y-95045687D01*
X140057922Y-94985272D01*
X140092447Y-94901236D01*
X140159626Y-94833905D01*
X140209787Y-94818200D01*
X140258719Y-94786879D01*
X140281189Y-94681744D01*
X140284200Y-94584212D01*
X140271826Y-94420234D01*
X140224313Y-94314863D01*
X140157694Y-94250714D01*
X140069383Y-94153989D01*
X140038908Y-94026986D01*
X135203818Y-94026986D01*
X134992659Y-94167184D01*
X134226614Y-94675311D01*
X133537105Y-95132059D01*
X132920178Y-95539980D01*
X132450465Y-95849792D01*
X136518619Y-95849792D01*
X136518679Y-95681690D01*
X136520485Y-95643700D01*
X136552184Y-95584774D01*
X136609278Y-95602010D01*
X136646564Y-95660555D01*
X136665750Y-95759611D01*
X136676538Y-95910494D01*
X136677400Y-95965355D01*
X136681945Y-96104249D01*
X136692910Y-96131199D01*
X137560239Y-96131199D01*
X137620942Y-95920572D01*
X137737539Y-95736723D01*
X137905086Y-95596617D01*
X138118639Y-95517218D01*
X138373253Y-95515492D01*
X138379200Y-95516443D01*
X138499858Y-95541077D01*
X138569700Y-95563772D01*
X138613911Y-95610930D01*
X138568785Y-95640538D01*
X138445699Y-95648427D01*
X138354626Y-95642560D01*
X138107790Y-95651963D01*
X137923611Y-95737869D01*
X137896073Y-95773027D01*
X138982842Y-95773027D01*
X138984625Y-95613820D01*
X138991810Y-95524451D01*
X138995777Y-95513957D01*
X139074364Y-95488035D01*
X139215643Y-95479002D01*
X139382363Y-95485484D01*
X139537269Y-95506108D01*
X139636507Y-95536672D01*
X140105276Y-95536672D01*
X140142347Y-95492074D01*
X140306577Y-95415729D01*
X140476912Y-95433233D01*
X140628634Y-95541624D01*
X140636950Y-95551367D01*
X140679555Y-95672537D01*
X140635796Y-95807753D01*
X140514340Y-95935121D01*
X140474332Y-95962250D01*
X140348523Y-96062012D01*
X140321039Y-96118390D01*
X145988869Y-96118390D01*
X146024600Y-96088200D01*
X146105657Y-96042511D01*
X146116457Y-96059719D01*
X146100800Y-96088200D01*
X146026610Y-96136500D01*
X146008901Y-96138223D01*
X145988869Y-96118390D01*
X140321039Y-96118390D01*
X140309308Y-96142452D01*
X140356388Y-96191614D01*
X140480264Y-96198506D01*
X140597637Y-96198269D01*
X140631860Y-96232752D01*
X140628431Y-96249306D01*
X140563669Y-96296499D01*
X140425992Y-96316598D01*
X140408190Y-96316800D01*
X140273336Y-96306262D01*
X140201151Y-96259750D01*
X140158914Y-96170270D01*
X140133319Y-96058233D01*
X140171444Y-95986158D01*
X140231133Y-95941670D01*
X140393937Y-95829493D01*
X140482419Y-95752228D01*
X140509346Y-95692465D01*
X140487487Y-95632793D01*
X140473005Y-95611869D01*
X140405669Y-95547970D01*
X140324486Y-95559973D01*
X140287424Y-95578475D01*
X140185623Y-95607709D01*
X140116264Y-95588627D01*
X140105276Y-95536672D01*
X139636507Y-95536672D01*
X139639839Y-95537698D01*
X139751162Y-95615590D01*
X139807056Y-95673093D01*
X139819351Y-95718039D01*
X140292388Y-95718039D01*
X140304749Y-95689650D01*
X140355899Y-95635113D01*
X140385305Y-95646301D01*
X140385800Y-95653402D01*
X140349717Y-95696370D01*
X140327150Y-95712051D01*
X140292388Y-95718039D01*
X139819351Y-95718039D01*
X139838858Y-95789342D01*
X139831846Y-95840421D01*
X140081000Y-95840421D01*
X140106347Y-95751033D01*
X140162994Y-95736896D01*
X140204442Y-95777645D01*
X140194325Y-95842313D01*
X140156640Y-95885465D01*
X140098670Y-95917599D01*
X140081396Y-95864322D01*
X140081000Y-95840421D01*
X139831846Y-95840421D01*
X139817942Y-95941687D01*
X139755327Y-96087102D01*
X139679323Y-96171889D01*
X139609233Y-96232596D01*
X139610553Y-96294398D01*
X139645706Y-96353764D01*
X140069630Y-96353764D01*
X140290775Y-96394203D01*
X140433548Y-96413877D01*
X140532107Y-96415711D01*
X140550460Y-96410823D01*
X140564902Y-96449136D01*
X140576879Y-96570881D01*
X140585263Y-96757898D01*
X140588927Y-96992027D01*
X140589000Y-97031691D01*
X140589000Y-97676378D01*
X140381604Y-97648561D01*
X140245305Y-97624959D01*
X140157846Y-97599947D01*
X140146644Y-97593179D01*
X140133968Y-97534496D01*
X140119867Y-97395151D01*
X140106066Y-97196035D01*
X140094355Y-96959689D01*
X140069630Y-96353764D01*
X139645706Y-96353764D01*
X139654180Y-96368073D01*
X139714049Y-96539317D01*
X139683233Y-96705001D01*
X139570297Y-96837842D01*
X139493360Y-96880311D01*
X139315334Y-96935464D01*
X139163224Y-96948391D01*
X139063514Y-96918624D01*
X139041807Y-96888300D01*
X139027593Y-96800025D01*
X139014092Y-96641600D01*
X139002085Y-96436357D01*
X138992354Y-96207626D01*
X138985679Y-95978739D01*
X138982842Y-95773027D01*
X137896073Y-95773027D01*
X137792170Y-95905679D01*
X137765356Y-95963520D01*
X137702609Y-96171271D01*
X137712080Y-96355385D01*
X137776450Y-96527261D01*
X137909315Y-96700131D01*
X138098302Y-96812412D01*
X138313376Y-96853897D01*
X138524505Y-96814379D01*
X138564876Y-96795185D01*
X138639953Y-96765736D01*
X138654300Y-96804850D01*
X138649757Y-96833201D01*
X138585563Y-96913357D01*
X138426124Y-96969614D01*
X138420485Y-96970819D01*
X138265609Y-96990212D01*
X138127752Y-96966605D01*
X137975278Y-96902200D01*
X137762952Y-96754105D01*
X137626300Y-96564931D01*
X137560377Y-96351640D01*
X137560239Y-96131199D01*
X136692910Y-96131199D01*
X136708458Y-96169412D01*
X136776253Y-96188679D01*
X136833139Y-96189800D01*
X137053537Y-96228273D01*
X137220838Y-96334370D01*
X137318262Y-96494112D01*
X137336184Y-96608900D01*
X137303069Y-96769565D01*
X137194365Y-96887887D01*
X137002403Y-96969153D01*
X136746111Y-97015683D01*
X136586223Y-97034274D01*
X136556088Y-96624737D01*
X136538337Y-96349252D01*
X136525509Y-96081624D01*
X136518619Y-95849792D01*
X132450465Y-95849792D01*
X132371876Y-95901627D01*
X131888240Y-96219554D01*
X131465316Y-96496313D01*
X131099147Y-96734457D01*
X130785774Y-96936539D01*
X130521243Y-97105112D01*
X130301596Y-97242730D01*
X130122877Y-97351943D01*
X129981129Y-97435307D01*
X129872395Y-97495374D01*
X129792719Y-97534695D01*
X129738144Y-97555826D01*
X129707519Y-97561400D01*
X129613009Y-97598762D01*
X129582646Y-97640529D01*
X129580612Y-97707790D01*
X129586950Y-97837802D01*
X138404600Y-97837802D01*
X138427198Y-97742225D01*
X138512980Y-97713984D01*
X138525834Y-97713800D01*
X138618300Y-97736816D01*
X138662047Y-97824494D01*
X138669255Y-97864969D01*
X138670742Y-97887972D01*
X138861800Y-97887972D01*
X138866408Y-97748839D01*
X138892782Y-97683482D01*
X138959741Y-97664117D01*
X139014200Y-97663000D01*
X139121205Y-97677715D01*
X139166588Y-97713168D01*
X139166600Y-97713800D01*
X139146945Y-97739200D01*
X139369800Y-97739200D01*
X139395200Y-97713800D01*
X139420600Y-97739200D01*
X139395200Y-97764600D01*
X139369800Y-97739200D01*
X139146945Y-97739200D01*
X139128427Y-97763129D01*
X139116463Y-97764600D01*
X139093246Y-97812783D01*
X139082775Y-97939402D01*
X140131800Y-97939402D01*
X140150857Y-97847957D01*
X140228176Y-97816934D01*
X140271980Y-97815400D01*
X140409718Y-97853128D01*
X140474030Y-97914470D01*
X140505312Y-97995408D01*
X140476579Y-98078014D01*
X140417611Y-98155770D01*
X140329888Y-98272230D01*
X140273342Y-98367023D01*
X140270372Y-98374200D01*
X140250272Y-98383941D01*
X140238215Y-98309470D01*
X140237410Y-98288299D01*
X140220115Y-98166229D01*
X140183896Y-98095654D01*
X140182600Y-98094800D01*
X140143276Y-98024776D01*
X140131800Y-97939402D01*
X139082775Y-97939402D01*
X139082058Y-97948068D01*
X139083886Y-98156557D01*
X139085603Y-98199218D01*
X139093329Y-98409090D01*
X139091282Y-98536606D01*
X139075876Y-98600822D01*
X139043524Y-98620794D01*
X139006728Y-98618318D01*
X138929378Y-98583872D01*
X138915667Y-98552000D01*
X138956375Y-98512350D01*
X138968480Y-98513900D01*
X139006088Y-98487183D01*
X139013331Y-98401827D01*
X138993696Y-98294988D01*
X138950670Y-98203821D01*
X138938000Y-98189143D01*
X138886546Y-98084287D01*
X138862431Y-97920510D01*
X138861800Y-97887972D01*
X138670742Y-97887972D01*
X138675660Y-97963992D01*
X138648679Y-97978181D01*
X138629161Y-97964449D01*
X138567077Y-97943333D01*
X138546242Y-97974674D01*
X138504730Y-98015329D01*
X138452328Y-97983148D01*
X138412581Y-97900882D01*
X138404600Y-97837802D01*
X129586950Y-97837802D01*
X129588239Y-97864231D01*
X129604572Y-98097986D01*
X129608646Y-98148599D01*
X138607800Y-98148599D01*
X138624541Y-98075201D01*
X138668528Y-98097204D01*
X138681830Y-98116690D01*
X138675460Y-98181934D01*
X138659428Y-98195888D01*
X138615250Y-98184851D01*
X138607800Y-98148599D01*
X129608646Y-98148599D01*
X129628659Y-98397191D01*
X129647824Y-98616108D01*
X132818898Y-98616108D01*
X132823926Y-98504844D01*
X132839926Y-98446924D01*
X132868044Y-98426353D01*
X132882841Y-98425000D01*
X132931961Y-98448532D01*
X132961518Y-98532229D01*
X132976577Y-98681683D01*
X133788380Y-98681683D01*
X133825308Y-98573647D01*
X133885295Y-98499183D01*
X134034418Y-98401709D01*
X134211418Y-98371495D01*
X134378822Y-98410045D01*
X134467600Y-98475800D01*
X134522437Y-98548417D01*
X134512179Y-98563458D01*
X134868426Y-98563458D01*
X134871360Y-98441776D01*
X134891718Y-98384977D01*
X134919594Y-98374200D01*
X134971214Y-98422932D01*
X135011332Y-98570259D01*
X135012401Y-98577538D01*
X135634375Y-98577538D01*
X135638291Y-98435466D01*
X135653052Y-98359942D01*
X135681184Y-98333523D01*
X135706755Y-98334211D01*
X135765235Y-98383085D01*
X135796325Y-98511563D01*
X135801796Y-98577839D01*
X135803321Y-98595428D01*
X136176943Y-98595428D01*
X136212615Y-98491506D01*
X136287920Y-98403462D01*
X136442090Y-98305107D01*
X136622876Y-98268947D01*
X136793998Y-98297022D01*
X136901232Y-98368932D01*
X136949149Y-98451087D01*
X136919479Y-98489813D01*
X136828961Y-98479440D01*
X136720697Y-98430104D01*
X136617267Y-98381022D01*
X136545466Y-98393013D01*
X136478091Y-98446879D01*
X136399382Y-98547265D01*
X136372600Y-98629127D01*
X136372753Y-98629695D01*
X137253522Y-98629695D01*
X137308646Y-98435321D01*
X137434997Y-98285527D01*
X137540283Y-98243095D01*
X137680154Y-98232228D01*
X137817114Y-98249781D01*
X137913670Y-98292605D01*
X137936351Y-98327609D01*
X137924500Y-98382466D01*
X137844304Y-98391281D01*
X137802923Y-98386199D01*
X137615209Y-98392733D01*
X137491566Y-98472058D01*
X137440326Y-98618226D01*
X137439400Y-98645678D01*
X137477045Y-98838066D01*
X137580231Y-98960148D01*
X137734333Y-99002108D01*
X137909300Y-98961157D01*
X137982527Y-98952309D01*
X137998200Y-98998330D01*
X137964873Y-99062999D01*
X138150600Y-99062999D01*
X138180848Y-98993555D01*
X138208694Y-98983800D01*
X138239050Y-98947009D01*
X138246989Y-98830047D01*
X138234490Y-98636272D01*
X138219909Y-98429802D01*
X138226402Y-98304620D01*
X138258658Y-98241742D01*
X138321365Y-98222185D01*
X138336866Y-98221800D01*
X138375166Y-98252174D01*
X138396786Y-98352829D01*
X138404477Y-98538068D01*
X138404600Y-98573977D01*
X138407747Y-98761692D01*
X138421005Y-98865612D01*
X138768886Y-98865612D01*
X138781261Y-98838421D01*
X138838819Y-98799361D01*
X138859554Y-98804613D01*
X138921315Y-98792709D01*
X138963864Y-98754641D01*
X139029478Y-98687425D01*
X139052690Y-98708918D01*
X139051032Y-98780600D01*
X139029366Y-98854260D01*
X139168144Y-98854260D01*
X139173680Y-98757937D01*
X139194369Y-98752494D01*
X139224208Y-98798196D01*
X139225218Y-98801846D01*
X139319000Y-98801846D01*
X139320959Y-98532387D01*
X139328001Y-98349532D01*
X139341869Y-98238342D01*
X139364310Y-98183875D01*
X139392664Y-98171000D01*
X139439171Y-98202379D01*
X139467825Y-98306710D01*
X139481564Y-98463100D01*
X139491721Y-98657834D01*
X140237410Y-98657834D01*
X140246750Y-98591945D01*
X140264091Y-98591159D01*
X140272025Y-98635642D01*
X140360400Y-98635642D01*
X140364926Y-98433300D01*
X140382288Y-98306786D01*
X140418163Y-98230582D01*
X140459009Y-98192271D01*
X140626360Y-98127118D01*
X140812552Y-98139521D01*
X140974723Y-98226320D01*
X140979425Y-98230656D01*
X141015677Y-98273052D01*
X141414299Y-98273052D01*
X141422848Y-98181674D01*
X141426711Y-98171791D01*
X141484811Y-98118226D01*
X141528420Y-98157913D01*
X141552174Y-98282913D01*
X141552650Y-98296406D01*
X142163800Y-98296406D01*
X142167444Y-98007207D01*
X142177880Y-97790138D01*
X142194367Y-97655206D01*
X142214600Y-97612200D01*
X142253584Y-97656142D01*
X142272014Y-97751900D01*
X142277220Y-97908959D01*
X142279620Y-98056700D01*
X142288728Y-98179799D01*
X142326764Y-98212184D01*
X142412894Y-98164273D01*
X142440209Y-98143985D01*
X142597963Y-98078435D01*
X142758766Y-98097115D01*
X142899345Y-98186123D01*
X142996427Y-98331557D01*
X143027400Y-98494737D01*
X143012232Y-98685083D01*
X142956192Y-98808671D01*
X142927251Y-98831400D01*
X143332200Y-98831400D01*
X143333582Y-98533168D01*
X143338670Y-98322388D01*
X143348876Y-98184937D01*
X143365612Y-98106695D01*
X143390290Y-98073539D01*
X143408400Y-98069400D01*
X143438223Y-98083222D01*
X143459301Y-98134102D01*
X143473046Y-98236162D01*
X143480870Y-98403524D01*
X143481933Y-98482651D01*
X143789400Y-98482651D01*
X143827135Y-98279322D01*
X143928371Y-98117098D01*
X144075152Y-98020789D01*
X144133417Y-98007314D01*
X144263301Y-98013894D01*
X144400535Y-98053386D01*
X144508700Y-98111414D01*
X144551400Y-98172305D01*
X144514283Y-98215338D01*
X144437663Y-98214793D01*
X144373630Y-98171051D01*
X144373600Y-98171000D01*
X144292385Y-98122897D01*
X144174252Y-98131701D01*
X144060976Y-98190057D01*
X144020880Y-98233104D01*
X143961982Y-98330404D01*
X143941800Y-98385504D01*
X143987930Y-98406426D01*
X144107733Y-98420745D01*
X144243601Y-98425000D01*
X144410384Y-98433427D01*
X144533404Y-98455265D01*
X144578694Y-98478867D01*
X144592254Y-98585915D01*
X144536532Y-98708178D01*
X144434795Y-98818944D01*
X144310306Y-98891502D01*
X144208500Y-98903889D01*
X144099341Y-98891328D01*
X144068800Y-98888550D01*
X143939858Y-98831356D01*
X143840863Y-98701837D01*
X143791617Y-98528759D01*
X143789400Y-98482651D01*
X143481933Y-98482651D01*
X143484186Y-98650310D01*
X143484600Y-98831400D01*
X143483217Y-99129633D01*
X143478129Y-99340413D01*
X143467923Y-99477864D01*
X143451187Y-99556106D01*
X143426509Y-99589262D01*
X143408400Y-99593400D01*
X143378576Y-99579579D01*
X143357498Y-99528699D01*
X143343753Y-99426639D01*
X143335929Y-99259277D01*
X143332613Y-99012491D01*
X143332200Y-98831400D01*
X142927251Y-98831400D01*
X142843469Y-98897198D01*
X142820566Y-98909479D01*
X142641558Y-98975653D01*
X142500468Y-98960752D01*
X142409100Y-98899727D01*
X142340444Y-98855062D01*
X142316200Y-98868892D01*
X142275584Y-98931514D01*
X142240000Y-98951371D01*
X142209026Y-98950814D01*
X142187604Y-98911737D01*
X142174070Y-98819825D01*
X142166757Y-98660764D01*
X142164000Y-98420237D01*
X142163800Y-98296406D01*
X141552650Y-98296406D01*
X141554948Y-98361500D01*
X141581719Y-98615941D01*
X141659691Y-98784841D01*
X141788121Y-98866775D01*
X141822077Y-98872875D01*
X141923020Y-98899619D01*
X141960600Y-98936375D01*
X141919575Y-98973122D01*
X141827461Y-98982363D01*
X141730696Y-98965063D01*
X141679675Y-98930534D01*
X141622186Y-98908131D01*
X141573849Y-98937773D01*
X141501432Y-98976654D01*
X141475194Y-98972528D01*
X141455679Y-98907354D01*
X141437888Y-98772699D01*
X141423764Y-98600684D01*
X141415253Y-98423429D01*
X141414299Y-98273052D01*
X141015677Y-98273052D01*
X141044030Y-98306210D01*
X141079828Y-98400001D01*
X141094743Y-98542834D01*
X141097000Y-98687856D01*
X141092322Y-98878300D01*
X141075537Y-98986245D01*
X141042517Y-99030476D01*
X141020800Y-99034600D01*
X140972601Y-99007094D01*
X140949246Y-98912054D01*
X140944600Y-98783908D01*
X140929111Y-98531920D01*
X140880369Y-98369952D01*
X140794961Y-98290902D01*
X140703275Y-98281929D01*
X140631331Y-98294980D01*
X140588475Y-98328621D01*
X140565679Y-98405479D01*
X140553915Y-98548180D01*
X140548608Y-98669584D01*
X140537678Y-98862241D01*
X140520582Y-98972618D01*
X140491783Y-99020032D01*
X140447008Y-99024055D01*
X140401273Y-98998791D01*
X140374756Y-98931392D01*
X140362740Y-98800706D01*
X140360400Y-98635642D01*
X140272025Y-98635642D01*
X140276218Y-98659149D01*
X140268102Y-98688525D01*
X140245545Y-98707768D01*
X140237410Y-98657834D01*
X139491721Y-98657834D01*
X139496800Y-98755200D01*
X139720828Y-98785096D01*
X139937863Y-98850112D01*
X140074108Y-98970217D01*
X140123903Y-99135301D01*
X140112365Y-99189825D01*
X140377052Y-99189825D01*
X140411364Y-99125622D01*
X140543487Y-99072452D01*
X140705540Y-99040611D01*
X140740262Y-99081878D01*
X140809090Y-99199562D01*
X140903497Y-99377857D01*
X141014951Y-99600959D01*
X141073199Y-99721839D01*
X141203800Y-99990271D01*
X141334989Y-100249866D01*
X141453626Y-100475269D01*
X141546572Y-100641124D01*
X141566768Y-100674339D01*
X141660144Y-100843705D01*
X141727669Y-101004068D01*
X141750019Y-101092000D01*
X141772570Y-101203844D01*
X141802640Y-101257877D01*
X141814844Y-101310586D01*
X141814647Y-101434884D01*
X141813877Y-101447600D01*
X141859000Y-101447600D01*
X141884400Y-101422200D01*
X141909800Y-101447600D01*
X141884400Y-101473000D01*
X141859000Y-101447600D01*
X141813877Y-101447600D01*
X141806180Y-101574600D01*
X141909800Y-101574600D01*
X141928386Y-101532786D01*
X141943666Y-101540734D01*
X141949746Y-101601022D01*
X141943666Y-101608467D01*
X141913466Y-101601494D01*
X141909800Y-101574600D01*
X141806180Y-101574600D01*
X141804527Y-101601855D01*
X141786958Y-101782585D01*
X141764417Y-101948156D01*
X141739380Y-102069655D01*
X141730932Y-102095300D01*
X141686692Y-102168611D01*
X141663064Y-102181939D01*
X141628607Y-102138062D01*
X141563279Y-102022241D01*
X141478275Y-101855014D01*
X141429536Y-101753545D01*
X141338404Y-101571091D01*
X141259666Y-101433257D01*
X141204686Y-101359000D01*
X141188818Y-101352046D01*
X141169217Y-101336711D01*
X141179216Y-101297839D01*
X141180525Y-101230883D01*
X141157990Y-101219000D01*
X141127090Y-101178839D01*
X141132284Y-101120444D01*
X141123769Y-101017252D01*
X141069986Y-100844184D01*
X140977560Y-100618714D01*
X140853114Y-100358316D01*
X140816517Y-100287403D01*
X140772102Y-100174123D01*
X140768645Y-100098568D01*
X140769579Y-100096903D01*
X140761066Y-100053408D01*
X140744398Y-100050600D01*
X140699425Y-100023580D01*
X140699752Y-100012500D01*
X140686350Y-99945556D01*
X140641629Y-99827806D01*
X140627790Y-99796600D01*
X140501126Y-99512446D01*
X140416848Y-99308492D01*
X140377052Y-99189825D01*
X140112365Y-99189825D01*
X140081588Y-99335249D01*
X140057478Y-99386567D01*
X139980322Y-99500949D01*
X139878421Y-99564441D01*
X139722328Y-99590350D01*
X139599680Y-99593400D01*
X139436372Y-99577473D01*
X139356602Y-99526819D01*
X139349835Y-99513046D01*
X139337961Y-99433186D01*
X139328208Y-99274445D01*
X139321561Y-99059539D01*
X139319003Y-98811180D01*
X139319000Y-98801846D01*
X139225218Y-98801846D01*
X139251751Y-98897665D01*
X139222664Y-98948056D01*
X139182680Y-98961690D01*
X139168358Y-98887123D01*
X139168144Y-98854260D01*
X139029366Y-98854260D01*
X139026702Y-98863314D01*
X139000391Y-98882200D01*
X138980184Y-98913964D01*
X138988800Y-98933000D01*
X138983873Y-98979772D01*
X138964803Y-98983800D01*
X138900190Y-98943149D01*
X138880282Y-98907892D01*
X138828805Y-98858764D01*
X138797827Y-98864941D01*
X138768886Y-98865612D01*
X138421005Y-98865612D01*
X138421859Y-98872304D01*
X138453936Y-98930230D01*
X138510981Y-98959891D01*
X138515696Y-98961415D01*
X138592875Y-98993207D01*
X138577890Y-99030757D01*
X138534261Y-99064336D01*
X138453873Y-99168367D01*
X138429648Y-99248399D01*
X138414066Y-99373792D01*
X138392335Y-99427940D01*
X138348734Y-99440749D01*
X138328400Y-99441000D01*
X138272477Y-99403125D01*
X138252432Y-99281588D01*
X138252200Y-99260202D01*
X138240166Y-99144614D01*
X138208334Y-99107849D01*
X138201400Y-99110800D01*
X138157910Y-99099284D01*
X138150600Y-99062999D01*
X137964873Y-99062999D01*
X137955438Y-99081307D01*
X137846938Y-99128331D01*
X137702373Y-99138355D01*
X137551421Y-99110336D01*
X137423756Y-99043228D01*
X137398236Y-99019458D01*
X137282946Y-98833184D01*
X137253522Y-98629695D01*
X136372753Y-98629695D01*
X136384978Y-98674942D01*
X136436513Y-98697553D01*
X136548801Y-98700955D01*
X136710327Y-98691569D01*
X137048054Y-98667230D01*
X137014974Y-98838215D01*
X136940410Y-99023322D01*
X136816282Y-99137536D01*
X136663472Y-99183170D01*
X136502865Y-99162541D01*
X136355345Y-99077961D01*
X136241796Y-98931746D01*
X136185488Y-98746283D01*
X136176943Y-98595428D01*
X135803321Y-98595428D01*
X135820951Y-98798764D01*
X135851659Y-98938124D01*
X135901057Y-99015857D01*
X135970996Y-99050574D01*
X136044425Y-99101893D01*
X136047116Y-99169780D01*
X135981474Y-99211108D01*
X135961966Y-99212400D01*
X135907087Y-99256150D01*
X135876712Y-99363376D01*
X135874856Y-99498039D01*
X135905531Y-99624105D01*
X135914143Y-99641853D01*
X135986981Y-99723948D01*
X136044187Y-99745800D01*
X136109977Y-99786504D01*
X136118600Y-99822000D01*
X136079704Y-99881950D01*
X135987437Y-99896223D01*
X135878425Y-99866288D01*
X135801803Y-99809300D01*
X135741769Y-99704187D01*
X135696702Y-99535648D01*
X135664804Y-99292588D01*
X135644276Y-98963911D01*
X135638778Y-98803602D01*
X135634375Y-98577538D01*
X135012401Y-98577538D01*
X135025442Y-98666300D01*
X135061433Y-98879015D01*
X135112286Y-99007919D01*
X135189040Y-99070729D01*
X135286620Y-99085400D01*
X135384089Y-99113040D01*
X135407400Y-99161600D01*
X135369149Y-99222531D01*
X135281045Y-99233847D01*
X135183053Y-99193417D01*
X135161444Y-99174725D01*
X135098471Y-99140062D01*
X135051800Y-99187000D01*
X134995709Y-99235003D01*
X134948732Y-99182494D01*
X134910774Y-99029241D01*
X134881739Y-98775010D01*
X134881170Y-98767900D01*
X134868426Y-98563458D01*
X134512179Y-98563458D01*
X134505626Y-98573066D01*
X134409290Y-98551785D01*
X134307947Y-98517061D01*
X134182932Y-98483422D01*
X134097728Y-98503463D01*
X134037640Y-98550334D01*
X133959883Y-98650067D01*
X133934200Y-98729728D01*
X133949958Y-98777264D01*
X134011627Y-98802582D01*
X134140794Y-98811192D01*
X134251700Y-98810754D01*
X134426955Y-98811628D01*
X134524951Y-98825785D01*
X134569851Y-98860560D01*
X134584306Y-98911701D01*
X134559457Y-99058782D01*
X134457593Y-99179000D01*
X134303236Y-99249100D01*
X134219016Y-99258120D01*
X134021962Y-99215991D01*
X133882948Y-99091292D01*
X133804518Y-98886562D01*
X133796406Y-98836837D01*
X133788380Y-98681683D01*
X132976577Y-98681683D01*
X132977994Y-98695746D01*
X132979164Y-98717100D01*
X132994400Y-99009200D01*
X133218428Y-99039096D01*
X133430265Y-99106563D01*
X133570980Y-99233986D01*
X133630903Y-99406649D01*
X133600364Y-99609835D01*
X133597843Y-99616525D01*
X133521665Y-99709188D01*
X133389520Y-99783233D01*
X133231177Y-99831942D01*
X133076407Y-99848595D01*
X132954980Y-99826474D01*
X132900839Y-99773832D01*
X132887332Y-99696935D01*
X132871052Y-99540775D01*
X132853988Y-99327578D01*
X132838130Y-99079569D01*
X132837181Y-99062632D01*
X132823698Y-98796706D01*
X132818898Y-98616108D01*
X129647824Y-98616108D01*
X129659544Y-98749981D01*
X129696274Y-99144491D01*
X129736828Y-99558229D01*
X129832266Y-100517615D01*
X129922204Y-101438831D01*
X129993522Y-102184200D01*
X136061097Y-102184200D01*
X136079886Y-101829380D01*
X136141338Y-101495022D01*
X136253602Y-101150074D01*
X136424822Y-100763486D01*
X136444212Y-100723950D01*
X136514930Y-100576691D01*
X136562696Y-100469453D01*
X136575800Y-100431755D01*
X136596649Y-100371650D01*
X136652047Y-100246147D01*
X136731272Y-100077065D01*
X136823600Y-99886220D01*
X136918308Y-99695431D01*
X137004674Y-99526516D01*
X137071973Y-99401292D01*
X137109484Y-99341579D01*
X137112668Y-99339400D01*
X137122238Y-99380298D01*
X137106662Y-99453700D01*
X137066541Y-99563365D01*
X137000677Y-99722822D01*
X136950839Y-99836206D01*
X136885430Y-99985790D01*
X136841480Y-100095198D01*
X136829800Y-100133518D01*
X136810474Y-100188660D01*
X136757806Y-100317600D01*
X136679757Y-100501307D01*
X136584286Y-100720755D01*
X136580699Y-100728912D01*
X136387820Y-101210000D01*
X136262259Y-101626725D01*
X137092906Y-101626725D01*
X137098029Y-101493882D01*
X137202330Y-101372885D01*
X137299700Y-101310632D01*
X137425430Y-101235769D01*
X137489701Y-101166741D01*
X137513491Y-101066198D01*
X137517597Y-100922738D01*
X137532335Y-100732998D01*
X137584978Y-100621887D01*
X137693431Y-100568423D01*
X137833100Y-100553028D01*
X137968116Y-100546143D01*
X138061498Y-100539571D01*
X138061700Y-100539550D01*
X138122880Y-100493526D01*
X138194908Y-100387389D01*
X138211395Y-100355400D01*
X138302732Y-100184828D01*
X138384156Y-100092316D01*
X138480136Y-100060320D01*
X138608981Y-100070297D01*
X138706755Y-100082401D01*
X138772063Y-100070924D01*
X138811362Y-100019906D01*
X138831109Y-99913387D01*
X138837762Y-99735408D01*
X138837905Y-99504513D01*
X138842871Y-99291281D01*
X138858523Y-99152853D01*
X138883337Y-99101674D01*
X138887200Y-99102092D01*
X138934177Y-99160150D01*
X138948036Y-99216380D01*
X138956907Y-99312417D01*
X138971172Y-99476959D01*
X138988000Y-99677244D01*
X138990856Y-99711818D01*
X139023640Y-100109636D01*
X139260220Y-100079937D01*
X139464525Y-100076446D01*
X139599705Y-100133819D01*
X139684286Y-100261539D01*
X139699454Y-100304795D01*
X139758181Y-100427901D01*
X139851013Y-100481825D01*
X140004956Y-100479831D01*
X140044196Y-100474090D01*
X140235478Y-100476930D01*
X140362538Y-100557741D01*
X140427100Y-100718148D01*
X140436600Y-100843871D01*
X140447285Y-100995640D01*
X140493536Y-101099227D01*
X140596638Y-101184032D01*
X140737785Y-101259805D01*
X140878945Y-101363082D01*
X140921434Y-101487879D01*
X140866700Y-101640156D01*
X140839864Y-101680604D01*
X140753691Y-101854418D01*
X140764004Y-102002574D01*
X140843193Y-102108176D01*
X140895539Y-102196900D01*
X141929104Y-102196900D01*
X141935035Y-101980769D01*
X141946876Y-101808458D01*
X141962729Y-101701208D01*
X141975564Y-101676200D01*
X141993717Y-101722873D01*
X142004919Y-101846630D01*
X142007265Y-102023081D01*
X142006319Y-102069745D01*
X141996650Y-102277651D01*
X141980826Y-102460448D01*
X141962072Y-102581982D01*
X141959859Y-102590445D01*
X141945714Y-102597053D01*
X141935188Y-102516917D01*
X141929440Y-102364862D01*
X141929104Y-102196900D01*
X140895539Y-102196900D01*
X140925704Y-102248028D01*
X140933385Y-102352552D01*
X140908288Y-102458171D01*
X140835106Y-102533762D01*
X140707696Y-102599507D01*
X140536505Y-102701619D01*
X140459605Y-102821457D01*
X140462884Y-102870000D01*
X141859000Y-102870000D01*
X141884400Y-102844600D01*
X141909800Y-102870000D01*
X141884400Y-102895400D01*
X141859000Y-102870000D01*
X140462884Y-102870000D01*
X140469748Y-102971600D01*
X141808200Y-102971600D01*
X141833600Y-102946200D01*
X141859000Y-102971600D01*
X141833600Y-102997000D01*
X141808200Y-102971600D01*
X140469748Y-102971600D01*
X140469789Y-102972206D01*
X140482943Y-103010680D01*
X140494253Y-103073200D01*
X141808200Y-103073200D01*
X141833600Y-103047800D01*
X141859000Y-103073200D01*
X141833600Y-103098600D01*
X141808200Y-103073200D01*
X140494253Y-103073200D01*
X140503597Y-103124847D01*
X140446879Y-103215722D01*
X140429780Y-103231772D01*
X140366492Y-103276400D01*
X141706600Y-103276400D01*
X141732000Y-103251000D01*
X141757400Y-103276400D01*
X141732000Y-103301800D01*
X141706600Y-103276400D01*
X140366492Y-103276400D01*
X140349270Y-103288544D01*
X140243789Y-103322780D01*
X140084033Y-103341560D01*
X139946815Y-103348473D01*
X139879576Y-103378000D01*
X141655800Y-103378000D01*
X141681200Y-103352600D01*
X141706600Y-103378000D01*
X141681200Y-103403400D01*
X141655800Y-103378000D01*
X139879576Y-103378000D01*
X139852891Y-103389718D01*
X139773668Y-103515180D01*
X139759422Y-103549063D01*
X139666549Y-103707741D01*
X139546180Y-103771973D01*
X139387036Y-103745501D01*
X139295850Y-103702904D01*
X139108629Y-103623520D01*
X138968444Y-103619191D01*
X138853581Y-103690168D01*
X138836400Y-103708200D01*
X138722293Y-103780711D01*
X138584954Y-103799361D01*
X138457088Y-103769434D01*
X138371402Y-103696218D01*
X138353800Y-103630213D01*
X138320239Y-103540554D01*
X138256462Y-103458463D01*
X138157709Y-103393189D01*
X138023575Y-103381231D01*
X137957560Y-103388160D01*
X137761857Y-103380716D01*
X137632342Y-103303356D01*
X137577810Y-103164426D01*
X137588322Y-103037818D01*
X137602891Y-102907689D01*
X137565000Y-102814859D01*
X137458008Y-102736754D01*
X137319407Y-102673002D01*
X137163972Y-102570716D01*
X137096218Y-102439933D01*
X137121191Y-102297090D01*
X137179186Y-102216214D01*
X137272935Y-102062067D01*
X137265181Y-101905976D01*
X137185400Y-101777800D01*
X137092906Y-101626725D01*
X136262259Y-101626725D01*
X136260061Y-101634018D01*
X136193522Y-102018454D01*
X136184303Y-102380797D01*
X136191064Y-102476320D01*
X136279847Y-103007538D01*
X136442957Y-103493928D01*
X136674770Y-103921495D01*
X136874730Y-104178100D01*
X136942972Y-104266845D01*
X136956417Y-104314957D01*
X136948398Y-104317800D01*
X136884306Y-104277399D01*
X136783845Y-104169808D01*
X136662092Y-104015451D01*
X136534122Y-103834750D01*
X136415015Y-103648129D01*
X136319846Y-103476009D01*
X136306514Y-103448342D01*
X136187663Y-103156172D01*
X136111591Y-102865089D01*
X136071648Y-102540847D01*
X136061097Y-102184200D01*
X129993522Y-102184200D01*
X130006193Y-102316618D01*
X130083782Y-103145718D01*
X130154522Y-103920871D01*
X130217962Y-104636819D01*
X130223260Y-104698800D01*
X137490200Y-104698800D01*
X137515600Y-104673400D01*
X137541000Y-104698800D01*
X137515600Y-104724200D01*
X137490200Y-104698800D01*
X130223260Y-104698800D01*
X130231945Y-104800400D01*
X137642600Y-104800400D01*
X137668000Y-104775000D01*
X137693400Y-104800400D01*
X137668000Y-104825800D01*
X137642600Y-104800400D01*
X130231945Y-104800400D01*
X130273653Y-105288301D01*
X130321144Y-105870060D01*
X130359985Y-106376836D01*
X130389727Y-106803370D01*
X130409920Y-107144403D01*
X130412273Y-107202204D01*
X132679905Y-107202204D01*
X132680449Y-106820624D01*
X132746303Y-106513172D01*
X132880017Y-106274075D01*
X133084142Y-106097562D01*
X133193607Y-106039734D01*
X133434600Y-105959180D01*
X133651599Y-105957814D01*
X133839096Y-106015165D01*
X134070265Y-106165661D01*
X134180175Y-106303234D01*
X134696200Y-106303234D01*
X134699806Y-106133486D01*
X134718174Y-106036784D01*
X134762627Y-105984631D01*
X134835900Y-105951644D01*
X135121696Y-105899755D01*
X135413874Y-105945947D01*
X135500625Y-105981040D01*
X136220200Y-105981040D01*
X136236186Y-105930585D01*
X136298991Y-105903584D01*
X136430882Y-105893432D01*
X136518353Y-105892600D01*
X136816506Y-105892600D01*
X136847994Y-106083100D01*
X136867039Y-106251595D01*
X136878551Y-106455742D01*
X136880040Y-106540300D01*
X136880600Y-106807000D01*
X137251413Y-106807000D01*
X137219241Y-106353756D01*
X137204852Y-106122585D01*
X137209621Y-105974899D01*
X137246066Y-105892798D01*
X137326703Y-105858383D01*
X137464050Y-105853756D01*
X137566400Y-105857349D01*
X137820400Y-105867200D01*
X137834800Y-106096827D01*
X139080958Y-106096827D01*
X139090758Y-105950724D01*
X139120152Y-105862214D01*
X139175002Y-105816633D01*
X139261167Y-105799320D01*
X139384510Y-105795611D01*
X139426653Y-105795011D01*
X139570230Y-105796628D01*
X139643230Y-105822425D01*
X139676646Y-105894118D01*
X139692794Y-105981500D01*
X139715142Y-106171363D01*
X139724837Y-106361531D01*
X139724840Y-106362500D01*
X139725400Y-106553000D01*
X139966700Y-106554801D01*
X140201394Y-106579801D01*
X140247443Y-106601152D01*
X140891557Y-106601152D01*
X140893427Y-106349961D01*
X140922990Y-106129624D01*
X140966178Y-106001591D01*
X141103536Y-105811299D01*
X141264499Y-105711788D01*
X141436588Y-105705831D01*
X141607329Y-105796202D01*
X141660818Y-105847173D01*
X141808200Y-106004945D01*
X141808200Y-105878498D01*
X141838024Y-105777684D01*
X141936036Y-105717599D01*
X142115047Y-105692029D01*
X142196695Y-105690094D01*
X142356591Y-105689400D01*
X142356949Y-105696125D01*
X142712677Y-105696125D01*
X142908138Y-105675047D01*
X143095783Y-105656451D01*
X143213224Y-105661719D01*
X143277870Y-105708495D01*
X143307129Y-105814423D01*
X143318408Y-105997149D01*
X143321734Y-106094270D01*
X143341111Y-106361209D01*
X143382303Y-106541549D01*
X143452699Y-106649259D01*
X143559686Y-106698313D01*
X143644873Y-106705400D01*
X143727515Y-106710746D01*
X143770533Y-106743442D01*
X143786852Y-106828478D01*
X143789400Y-106984800D01*
X143789158Y-106994433D01*
X143992565Y-106994433D01*
X143992600Y-106880686D01*
X143992600Y-105644442D01*
X144208500Y-105624530D01*
X144387168Y-105609745D01*
X144496935Y-105618229D01*
X144556441Y-105668552D01*
X144584322Y-105779286D01*
X144599218Y-105969000D01*
X144602200Y-106016800D01*
X144627600Y-106419419D01*
X144784580Y-106016310D01*
X144941561Y-105613200D01*
X145254480Y-105598076D01*
X145417501Y-105594465D01*
X145530692Y-105600114D01*
X145567400Y-105611904D01*
X145546019Y-105667246D01*
X145488793Y-105790974D01*
X145406095Y-105960995D01*
X145361831Y-106049711D01*
X145156263Y-106458566D01*
X145341062Y-106789019D01*
X145426318Y-106951464D01*
X145482323Y-107078017D01*
X145498722Y-107144808D01*
X145496948Y-107148386D01*
X145433568Y-107169518D01*
X145303854Y-107191429D01*
X145213257Y-107201781D01*
X144958480Y-107226262D01*
X144627600Y-106527600D01*
X144613638Y-107322122D01*
X144599676Y-108116643D01*
X144381158Y-108149412D01*
X144263561Y-108167367D01*
X144172409Y-108174350D01*
X144104342Y-108159389D01*
X144056000Y-108111512D01*
X144024022Y-108019750D01*
X144005050Y-107873132D01*
X143995723Y-107660687D01*
X143992681Y-107371444D01*
X143992565Y-106994433D01*
X143789158Y-106994433D01*
X143785350Y-107145654D01*
X143766885Y-107229448D01*
X143724531Y-107260606D01*
X143681010Y-107264200D01*
X143576335Y-107227454D01*
X143464277Y-107137667D01*
X143452472Y-107124500D01*
X143332324Y-106984800D01*
X143332262Y-107119598D01*
X143324085Y-107199591D01*
X143282482Y-107242405D01*
X143181697Y-107263189D01*
X143073178Y-107271998D01*
X142902282Y-107274204D01*
X142808387Y-107248490D01*
X142777651Y-107213400D01*
X142763499Y-107136975D01*
X142749780Y-106979647D01*
X142737814Y-106762107D01*
X142728917Y-106505048D01*
X142726911Y-106416663D01*
X142712677Y-105696125D01*
X142356949Y-105696125D01*
X142392518Y-106362500D01*
X142409601Y-106689234D01*
X142418124Y-106928450D01*
X142414070Y-107094127D01*
X142393422Y-107200247D01*
X142352163Y-107260788D01*
X142286276Y-107289732D01*
X142191744Y-107301059D01*
X142121674Y-107305095D01*
X141961526Y-107309393D01*
X141874852Y-107293213D01*
X141834268Y-107248320D01*
X141823440Y-107215396D01*
X141800543Y-107149420D01*
X141765654Y-107150179D01*
X141692605Y-107221725D01*
X141677491Y-107238001D01*
X141520271Y-107344377D01*
X141345459Y-107363609D01*
X141175745Y-107301826D01*
X141033817Y-107165158D01*
X140970311Y-107046965D01*
X140917234Y-106845914D01*
X140891557Y-106601152D01*
X140247443Y-106601152D01*
X140379518Y-106662388D01*
X140537877Y-106820099D01*
X140546633Y-106831159D01*
X140614501Y-106937750D01*
X140650875Y-107060741D01*
X140664320Y-107235677D01*
X140665200Y-107323123D01*
X140660593Y-107513981D01*
X140639791Y-107638434D01*
X140592322Y-107731516D01*
X140517120Y-107818491D01*
X140374327Y-107939493D01*
X140205157Y-108020753D01*
X139986927Y-108069164D01*
X139696955Y-108091616D01*
X139610365Y-108093985D01*
X139192622Y-108102400D01*
X139159686Y-107746800D01*
X139145625Y-107564212D01*
X139129904Y-107310066D01*
X139114199Y-107014350D01*
X139100189Y-106707051D01*
X139096698Y-106620459D01*
X139084892Y-106315184D01*
X139080958Y-106096827D01*
X137834800Y-106096827D01*
X137852259Y-106375200D01*
X137868327Y-106640597D01*
X137886942Y-106962254D01*
X137905522Y-107294963D01*
X137918217Y-107530900D01*
X137952316Y-108178600D01*
X137646025Y-108178600D01*
X137488342Y-108175573D01*
X137386513Y-108154146D01*
X137327008Y-108095801D01*
X137296292Y-107982022D01*
X137280832Y-107794290D01*
X137274768Y-107670600D01*
X137264395Y-107510613D01*
X137241817Y-107425686D01*
X137190667Y-107389366D01*
X137094583Y-107375197D01*
X137091868Y-107374936D01*
X136922137Y-107358672D01*
X136937639Y-107730536D01*
X136940157Y-107921412D01*
X136932268Y-108075784D01*
X136915670Y-108162571D01*
X136913872Y-108165900D01*
X136840321Y-108205236D01*
X136697350Y-108227098D01*
X136624569Y-108229400D01*
X136471958Y-108223461D01*
X136392305Y-108197747D01*
X136357280Y-108140412D01*
X136351204Y-108115100D01*
X136342590Y-108037601D01*
X136329796Y-107878089D01*
X136314015Y-107656009D01*
X136296442Y-107390808D01*
X136278270Y-107101930D01*
X136260692Y-106808821D01*
X136244903Y-106530926D01*
X136232095Y-106287690D01*
X136223464Y-106098559D01*
X136220202Y-105982977D01*
X136220200Y-105981040D01*
X135500625Y-105981040D01*
X135540707Y-105997254D01*
X135728897Y-106124729D01*
X135857688Y-106310204D01*
X135861546Y-106318093D01*
X135950160Y-106591748D01*
X135939946Y-106845061D01*
X135830247Y-107080591D01*
X135620412Y-107300898D01*
X135607765Y-107311170D01*
X135460226Y-107459551D01*
X135411665Y-107588861D01*
X135461596Y-107700745D01*
X135486040Y-107723426D01*
X135557192Y-107759252D01*
X135650152Y-107743826D01*
X135741763Y-107704246D01*
X135861019Y-107650028D01*
X135935219Y-107621222D01*
X135942523Y-107619800D01*
X135955618Y-107665705D01*
X135964216Y-107783873D01*
X135966200Y-107893037D01*
X135961489Y-108054168D01*
X135938245Y-108145194D01*
X135882798Y-108197492D01*
X135820968Y-108226431D01*
X135560625Y-108284298D01*
X135307723Y-108251318D01*
X135082295Y-108137462D01*
X134904371Y-107952701D01*
X134796481Y-107716503D01*
X134766875Y-107523504D01*
X134797669Y-107350171D01*
X134897788Y-107171842D01*
X135064335Y-106976297D01*
X135211625Y-106805783D01*
X135285516Y-106679815D01*
X135297099Y-106594663D01*
X135240362Y-106499720D01*
X135124117Y-106457784D01*
X134978404Y-106473861D01*
X134872503Y-106523909D01*
X134775663Y-106581794D01*
X134723387Y-106603800D01*
X134708958Y-106557669D01*
X134699100Y-106437911D01*
X134696200Y-106303234D01*
X134180175Y-106303234D01*
X134256717Y-106399040D01*
X134392030Y-106704078D01*
X134469780Y-107069550D01*
X134476016Y-107128197D01*
X134472668Y-107477147D01*
X134400409Y-107778462D01*
X134269634Y-108024500D01*
X134090736Y-108207620D01*
X133874110Y-108320181D01*
X133630148Y-108354540D01*
X133369246Y-108303056D01*
X133101796Y-108158088D01*
X133088500Y-108148294D01*
X132904063Y-107949456D01*
X132770386Y-107671146D01*
X132692284Y-107324510D01*
X132679905Y-107202204D01*
X130412273Y-107202204D01*
X130420112Y-107394676D01*
X130420122Y-107543600D01*
X130403600Y-107899200D01*
X134306304Y-109857525D01*
X137388600Y-109857525D01*
X137397404Y-109672942D01*
X137435519Y-109554027D01*
X137520498Y-109487755D01*
X137669894Y-109461100D01*
X137901260Y-109461038D01*
X137922000Y-109461728D01*
X138277600Y-109474000D01*
X138303000Y-109846719D01*
X138309710Y-110049319D01*
X138305815Y-110109000D01*
X138499281Y-110109000D01*
X138604340Y-109961458D01*
X138685688Y-109832126D01*
X138699868Y-109744404D01*
X138647235Y-109663985D01*
X138607800Y-109626400D01*
X138532143Y-109543581D01*
X138506200Y-109491527D01*
X138543210Y-109451866D01*
X138623656Y-109453745D01*
X138701659Y-109490274D01*
X138727770Y-109524800D01*
X138793842Y-109593589D01*
X138893396Y-109577321D01*
X138988800Y-109499400D01*
X139083405Y-109413451D01*
X139150855Y-109406559D01*
X139181336Y-109429470D01*
X139173624Y-109485368D01*
X139115885Y-109586578D01*
X139088625Y-109624212D01*
X138964244Y-109787284D01*
X139065162Y-109882091D01*
X139372274Y-109882091D01*
X139373991Y-109706429D01*
X139392815Y-109555198D01*
X139428189Y-109464286D01*
X139433300Y-109459316D01*
X139540908Y-109412478D01*
X139706837Y-109383124D01*
X139895946Y-109372386D01*
X140073095Y-109381399D01*
X140203143Y-109411296D01*
X140238451Y-109433332D01*
X140269922Y-109514654D01*
X140287434Y-109659468D01*
X140289618Y-109754774D01*
X140454510Y-109754774D01*
X140456922Y-109583646D01*
X140475009Y-109455987D01*
X140492512Y-109417040D01*
X140565438Y-109381920D01*
X140699035Y-109357800D01*
X140866493Y-109344890D01*
X141041006Y-109343395D01*
X141195765Y-109353523D01*
X141303963Y-109375482D01*
X141338791Y-109409478D01*
X141338484Y-109410500D01*
X141274837Y-109450669D01*
X141121674Y-109478594D01*
X140978651Y-109489022D01*
X140639800Y-109504043D01*
X140639800Y-110053749D01*
X141008100Y-110068675D01*
X141193840Y-110082708D01*
X141319287Y-110105374D01*
X141364296Y-110132953D01*
X141364072Y-110134400D01*
X141311045Y-110161529D01*
X141186179Y-110182590D01*
X141019114Y-110196415D01*
X140839491Y-110201842D01*
X140676953Y-110197703D01*
X140561140Y-110182834D01*
X140525451Y-110167372D01*
X140490362Y-110082797D01*
X140466186Y-109933211D01*
X140454510Y-109754774D01*
X140289618Y-109754774D01*
X140291455Y-109834868D01*
X140282450Y-110007944D01*
X140260886Y-110145788D01*
X140227369Y-110215403D01*
X140142886Y-110238289D01*
X139990769Y-110254606D01*
X139816087Y-110260623D01*
X139625989Y-110256348D01*
X139511761Y-110238244D01*
X139447949Y-110200009D01*
X139422387Y-110163140D01*
X139388220Y-110046291D01*
X139372274Y-109882091D01*
X139065162Y-109882091D01*
X139090822Y-109906197D01*
X139176580Y-109997925D01*
X139216946Y-110063078D01*
X139217400Y-110067056D01*
X139182201Y-110106810D01*
X139103585Y-110096066D01*
X139022018Y-110041646D01*
X139014200Y-110032800D01*
X138916907Y-109967729D01*
X138861014Y-109956600D01*
X138769090Y-109994227D01*
X138741829Y-110032800D01*
X138673098Y-110094844D01*
X138605935Y-110109000D01*
X138499281Y-110109000D01*
X138305815Y-110109000D01*
X138300236Y-110194475D01*
X138277600Y-110258844D01*
X138203153Y-110284298D01*
X138060517Y-110310935D01*
X137908594Y-110329920D01*
X137674974Y-110337430D01*
X137521242Y-110295504D01*
X137432513Y-110190618D01*
X137393902Y-110009252D01*
X137388600Y-109857525D01*
X134306304Y-109857525D01*
X134706226Y-110058200D01*
X135325514Y-110369375D01*
X135920094Y-110668961D01*
X136483528Y-110953668D01*
X137009377Y-111220204D01*
X137491202Y-111465279D01*
X137922563Y-111685601D01*
X138297022Y-111877881D01*
X138608140Y-112038826D01*
X138849478Y-112165146D01*
X139014597Y-112253549D01*
X139097057Y-112300746D01*
X139104426Y-112306101D01*
X139210546Y-112378421D01*
X139320108Y-112382143D01*
X139461524Y-112315161D01*
X139461524Y-112315161D01*
G37*
X139461524Y-112315161D02*
X139523107Y-112275096D01*
X139629842Y-112206740D01*
X139814222Y-112093166D01*
X140066139Y-111940365D01*
X140375486Y-111754328D01*
X140732158Y-111541048D01*
X141126046Y-111306514D01*
X141547045Y-111056718D01*
X141985047Y-110797651D01*
X142429946Y-110535304D01*
X142871636Y-110275669D01*
X143300008Y-110024736D01*
X143704958Y-109788497D01*
X144076377Y-109572942D01*
X144272000Y-109460021D01*
X144672834Y-109229006D01*
X145100318Y-108982301D01*
X145531315Y-108733280D01*
X145942687Y-108495319D01*
X146311297Y-108281793D01*
X146603138Y-108112397D01*
X146896665Y-107944611D01*
X147172135Y-107792419D01*
X147413555Y-107664245D01*
X147604931Y-107568515D01*
X147730271Y-107513655D01*
X147754223Y-107506005D01*
X147911841Y-107437939D01*
X147975091Y-107348093D01*
X147983245Y-107268486D01*
X147990662Y-107102486D01*
X147997000Y-106865301D01*
X148001919Y-106572137D01*
X148005075Y-106238201D01*
X148006082Y-105968800D01*
X148008299Y-105568314D01*
X148013778Y-105105216D01*
X148022205Y-104589366D01*
X148033265Y-104030622D01*
X148046645Y-103438843D01*
X148062030Y-102823887D01*
X148079105Y-102195612D01*
X148097558Y-101563877D01*
X148117073Y-100938542D01*
X148137337Y-100329463D01*
X148158035Y-99746500D01*
X148178852Y-99199512D01*
X148199476Y-98698357D01*
X148219591Y-98252893D01*
X148238884Y-97872978D01*
X148257039Y-97568473D01*
X148273744Y-97349234D01*
X148283746Y-97256600D01*
X148288582Y-97130532D01*
X148243405Y-97050615D01*
X148144031Y-96982395D01*
X148043043Y-96924537D01*
X147870780Y-96827570D01*
X147644984Y-96701354D01*
X147383400Y-96555751D01*
X147103771Y-96400620D01*
X146823843Y-96245822D01*
X146561357Y-96101218D01*
X146344363Y-95982294D01*
X146125204Y-95860557D01*
X145982892Y-95775620D01*
X145903637Y-95718375D01*
X145873650Y-95679714D01*
X145872200Y-95670449D01*
X145910549Y-95671965D01*
X146005395Y-95711201D01*
X146126439Y-95773072D01*
X146243378Y-95842490D01*
X146304000Y-95885437D01*
X146367521Y-95924120D01*
X146500859Y-95998068D01*
X146683478Y-96096079D01*
X146862214Y-96189991D01*
X147080937Y-96305706D01*
X147277789Y-96413200D01*
X147428099Y-96498809D01*
X147497214Y-96541640D01*
X147624005Y-96620244D01*
X147785823Y-96710348D01*
X147836973Y-96736915D01*
X147989921Y-96817176D01*
X148119943Y-96889674D01*
X148152163Y-96909020D01*
X148254517Y-96946716D01*
X148297466Y-96918394D01*
X148265493Y-96849666D01*
X148214234Y-96806547D01*
X148131738Y-96754493D01*
X147985109Y-96666223D01*
X147790606Y-96551152D01*
X147564490Y-96418695D01*
X147323021Y-96278268D01*
X147082460Y-96139285D01*
X146859066Y-96011162D01*
X146669099Y-95903314D01*
X146528820Y-95825156D01*
X146454488Y-95786102D01*
X146447228Y-95783400D01*
X146396919Y-95758135D01*
X146286079Y-95692101D01*
X146148173Y-95605600D01*
X146002667Y-95514510D01*
X145894306Y-95450390D01*
X145848360Y-95427800D01*
X145797583Y-95401757D01*
X145690473Y-95334827D01*
X145600679Y-95275400D01*
X145466243Y-95189889D01*
X145364466Y-95134594D01*
X145330274Y-95123000D01*
X145266600Y-95097413D01*
X145146926Y-95031045D01*
X145028215Y-94957900D01*
X144859290Y-94850557D01*
X144725438Y-94769111D01*
X144584856Y-94688932D01*
X144399000Y-94587160D01*
X144273171Y-94517218D01*
X144091923Y-94414503D01*
X143887618Y-94297396D01*
X143814800Y-94255338D01*
X143565785Y-94113536D01*
X143285308Y-93957371D01*
X143029336Y-93817967D01*
X143002000Y-93803350D01*
X142820445Y-93702835D01*
X142676670Y-93616273D01*
X142591983Y-93556816D01*
X142578666Y-93542012D01*
X142520327Y-93499803D01*
X142499221Y-93497400D01*
X142429668Y-93470621D01*
X142301860Y-93399682D01*
X142140778Y-93298685D01*
X142104463Y-93274575D01*
X141931163Y-93163115D01*
X141777775Y-93072837D01*
X141673645Y-93020866D01*
X141663510Y-93017248D01*
X141545541Y-92962252D01*
X141491000Y-92922573D01*
X141409786Y-92864967D01*
X141275627Y-92786677D01*
X141198600Y-92745961D01*
X140961796Y-92622304D01*
X140805669Y-92532981D01*
X140718157Y-92470833D01*
X140696437Y-92447814D01*
X140632268Y-92397693D01*
X140519541Y-92334776D01*
X140512800Y-92331497D01*
X140360070Y-92247596D01*
X140208000Y-92149818D01*
X140077143Y-92065560D01*
X139901437Y-91963014D01*
X139776200Y-91894799D01*
X139591962Y-91788797D01*
X139417254Y-91673442D01*
X139329932Y-91606659D01*
X139199182Y-91516615D01*
X139078057Y-91465523D01*
X139050532Y-91461514D01*
X138923150Y-91451992D01*
X138861800Y-91443482D01*
X138759339Y-91448720D01*
X138645900Y-91477002D01*
X138545890Y-91521726D01*
X138506200Y-91559595D01*
X138465474Y-91601680D01*
X138361244Y-91671273D01*
X138277600Y-91719400D01*
X138147669Y-91797365D01*
X138064853Y-91860486D01*
X138049000Y-91883439D01*
X138009607Y-91921104D01*
X137994788Y-91922600D01*
X137931077Y-91956905D01*
X137829043Y-92044336D01*
X137766188Y-92107506D01*
X137667585Y-92206210D01*
X137604364Y-92258267D01*
X137591800Y-92259269D01*
X137555941Y-92260821D01*
X137466461Y-92306445D01*
X137350506Y-92378575D01*
X137235221Y-92459643D01*
X137165194Y-92517639D01*
X137244388Y-92517639D01*
X137256749Y-92489250D01*
X137307899Y-92434713D01*
X137337305Y-92445901D01*
X137337800Y-92453002D01*
X137301717Y-92495970D01*
X137279150Y-92511651D01*
X137244388Y-92517639D01*
X137165194Y-92517639D01*
X137147751Y-92532085D01*
X137119375Y-92564993D01*
X137054724Y-92626546D01*
X137027688Y-92633800D01*
X136960437Y-92661518D01*
X136839099Y-92732609D01*
X136690484Y-92828979D01*
X136541401Y-92932535D01*
X136418661Y-93025184D01*
X136349074Y-93088833D01*
X136345034Y-93094504D01*
X136358686Y-93108480D01*
X136423915Y-93084836D01*
X136506228Y-93039939D01*
X136571134Y-92990157D01*
X136575800Y-92985003D01*
X136635801Y-92940418D01*
X136775092Y-92851159D01*
X136984693Y-92722862D01*
X137176010Y-92608344D01*
X137248735Y-92562679D01*
X137387945Y-92473242D01*
X137575161Y-92351972D01*
X137791903Y-92210810D01*
X137845800Y-92175600D01*
X138073900Y-92028987D01*
X138284492Y-91898153D01*
X138456597Y-91795823D01*
X138569241Y-91734723D01*
X138582400Y-91728736D01*
X138734800Y-91663761D01*
X138729005Y-91668600D01*
X138811000Y-91668600D01*
X138829586Y-91626786D01*
X138844866Y-91634734D01*
X138850946Y-91695022D01*
X138844866Y-91702467D01*
X138814666Y-91695494D01*
X138811000Y-91668600D01*
X138729005Y-91668600D01*
X138582400Y-91790999D01*
X138445337Y-91895149D01*
X138323734Y-91973400D01*
X139192000Y-91973400D01*
X139196027Y-91926589D01*
X139214401Y-91922600D01*
X139266132Y-91959477D01*
X139268200Y-91973400D01*
X139250867Y-92022880D01*
X139245798Y-92024200D01*
X139202426Y-91988603D01*
X139192000Y-91973400D01*
X138323734Y-91973400D01*
X138314282Y-91979482D01*
X138303000Y-91985634D01*
X138237669Y-92025846D01*
X138202064Y-92048745D01*
X139319000Y-92048745D01*
X139336583Y-92026803D01*
X139399968Y-92043125D01*
X139525105Y-92103388D01*
X139629879Y-92159413D01*
X139761537Y-92236211D01*
X139843160Y-92293920D01*
X139857705Y-92315228D01*
X139806198Y-92305282D01*
X139697726Y-92260645D01*
X139563655Y-92196835D01*
X139435348Y-92129365D01*
X139344170Y-92073751D01*
X139319000Y-92048745D01*
X138202064Y-92048745D01*
X138095947Y-92116992D01*
X137886009Y-92253696D01*
X137654776Y-92405200D01*
X140030200Y-92405200D01*
X140055600Y-92379800D01*
X140081000Y-92405200D01*
X140055600Y-92430600D01*
X140030200Y-92405200D01*
X137654776Y-92405200D01*
X137616032Y-92430585D01*
X137610981Y-92433908D01*
X140144255Y-92433908D01*
X140151203Y-92430600D01*
X140197563Y-92466363D01*
X140208000Y-92481400D01*
X140220944Y-92528893D01*
X140213996Y-92532200D01*
X140167636Y-92496438D01*
X140157200Y-92481400D01*
X140144255Y-92433908D01*
X137610981Y-92433908D01*
X137345706Y-92608400D01*
X140335000Y-92608400D01*
X140360400Y-92583000D01*
X140385800Y-92608400D01*
X140360400Y-92633800D01*
X140335000Y-92608400D01*
X137345706Y-92608400D01*
X137294193Y-92642284D01*
X137249289Y-92671907D01*
X140525134Y-92671907D01*
X140581954Y-92700977D01*
X140622242Y-92727491D01*
X140738517Y-92798766D01*
X140822027Y-92835609D01*
X140831921Y-92837000D01*
X140901639Y-92872048D01*
X140948682Y-92918119D01*
X140954577Y-92945807D01*
X140898889Y-92930102D01*
X140804880Y-92883503D01*
X140695812Y-92818508D01*
X140594947Y-92747613D01*
X140538200Y-92697592D01*
X140525134Y-92671907D01*
X137249289Y-92671907D01*
X136928669Y-92883418D01*
X136729990Y-93014800D01*
X141046200Y-93014800D01*
X141071600Y-92989400D01*
X141097000Y-93014800D01*
X141071600Y-93040200D01*
X141046200Y-93014800D01*
X136729990Y-93014800D01*
X136676314Y-93050295D01*
X141169294Y-93050295D01*
X141197556Y-93049585D01*
X141309108Y-93098712D01*
X141417135Y-93154500D01*
X141546661Y-93224181D01*
X141633671Y-93271478D01*
X141651566Y-93281500D01*
X141650174Y-93316759D01*
X141598108Y-93305390D01*
X141486533Y-93252723D01*
X141375007Y-93190626D01*
X141227414Y-93098192D01*
X141169294Y-93050295D01*
X136676314Y-93050295D01*
X136527636Y-93148612D01*
X136421993Y-93218622D01*
X139225406Y-93218622D01*
X139234407Y-93192600D01*
X139265235Y-93235161D01*
X139309285Y-93339346D01*
X139315410Y-93356541D01*
X139328220Y-93403206D01*
X141787376Y-93403206D01*
X141810501Y-93396661D01*
X141900088Y-93429970D01*
X141964067Y-93459998D01*
X142080958Y-93524568D01*
X142142567Y-93572104D01*
X142145233Y-93583700D01*
X142089927Y-93578219D01*
X141988364Y-93535934D01*
X141878948Y-93476215D01*
X141800080Y-93418430D01*
X141787376Y-93403206D01*
X139328220Y-93403206D01*
X139341286Y-93450800D01*
X139333089Y-93476853D01*
X139326090Y-93470841D01*
X139281870Y-93398530D01*
X139243732Y-93300567D01*
X139225406Y-93218622D01*
X136421993Y-93218622D01*
X136099270Y-93432491D01*
X135839200Y-93605125D01*
X135791850Y-93636563D01*
X142231818Y-93636563D01*
X142252666Y-93630858D01*
X142339129Y-93669389D01*
X142423724Y-93715876D01*
X142571504Y-93799231D01*
X142773776Y-93910301D01*
X142995030Y-94029659D01*
X143076723Y-94073160D01*
X143264903Y-94178215D01*
X143416205Y-94272600D01*
X143509551Y-94342652D01*
X143528627Y-94366083D01*
X143509456Y-94381598D01*
X143434936Y-94339310D01*
X143408952Y-94319711D01*
X143301004Y-94245077D01*
X143223389Y-94209169D01*
X143217595Y-94208600D01*
X143151145Y-94183795D01*
X143022003Y-94118390D01*
X142853466Y-94025905D01*
X142668828Y-93919858D01*
X142491385Y-93813767D01*
X142344434Y-93721151D01*
X142251270Y-93655527D01*
X142231818Y-93636563D01*
X135791850Y-93636563D01*
X135203818Y-94026986D01*
X140038908Y-94026986D01*
X140039022Y-93951303D01*
X140054218Y-93825203D01*
X140082497Y-93755962D01*
X140092325Y-93751400D01*
X140116327Y-93720549D01*
X140109756Y-93706031D01*
X140132967Y-93688535D01*
X140217605Y-93694238D01*
X140328026Y-93716337D01*
X140428586Y-93748031D01*
X140478724Y-93776445D01*
X140492456Y-93837163D01*
X140506149Y-93979657D01*
X140518400Y-94184112D01*
X140527197Y-94414801D01*
X143634515Y-94414801D01*
X143670870Y-94416977D01*
X143752248Y-94455763D01*
X143832357Y-94506736D01*
X143966236Y-94586849D01*
X144081500Y-94637159D01*
X144170192Y-94684065D01*
X144195800Y-94724851D01*
X144157248Y-94726823D01*
X144060025Y-94689214D01*
X143931776Y-94626033D01*
X143800145Y-94551288D01*
X143692780Y-94478990D01*
X143664940Y-94455847D01*
X143634515Y-94414801D01*
X140527197Y-94414801D01*
X140527804Y-94430713D01*
X140529435Y-94492087D01*
X140535011Y-94768363D01*
X140534957Y-94838141D01*
X144301633Y-94838141D01*
X144323252Y-94821044D01*
X144362135Y-94818200D01*
X144444128Y-94843600D01*
X144602200Y-94843600D01*
X144627600Y-94818200D01*
X144653000Y-94843600D01*
X144627600Y-94869000D01*
X144602200Y-94843600D01*
X144444128Y-94843600D01*
X144452238Y-94846112D01*
X144475200Y-94869000D01*
X144547899Y-94914550D01*
X144592498Y-94921491D01*
X144680711Y-94950457D01*
X144788464Y-95016399D01*
X144876644Y-95091739D01*
X144907000Y-95143224D01*
X144867119Y-95133591D01*
X144765983Y-95088962D01*
X144631346Y-95023326D01*
X144490964Y-94950671D01*
X144372594Y-94884985D01*
X144303992Y-94840255D01*
X144301633Y-94838141D01*
X140534957Y-94838141D01*
X140534862Y-94958726D01*
X140527422Y-95078775D01*
X140511129Y-95144112D01*
X140489605Y-95165244D01*
X144957800Y-95165244D01*
X144996449Y-95162849D01*
X145094005Y-95203927D01*
X145148300Y-95233136D01*
X145311933Y-95324065D01*
X145503374Y-95427490D01*
X145580100Y-95468081D01*
X145714637Y-95545918D01*
X145802232Y-95610568D01*
X145821400Y-95637206D01*
X145781949Y-95638391D01*
X145680130Y-95596880D01*
X145580100Y-95544759D01*
X145398199Y-95443887D01*
X145216036Y-95344272D01*
X145148300Y-95307741D01*
X145030999Y-95236294D01*
X144963908Y-95178675D01*
X144957800Y-95165244D01*
X140489605Y-95165244D01*
X140484417Y-95170337D01*
X140461078Y-95173800D01*
X140365112Y-95201951D01*
X140240122Y-95271072D01*
X140220330Y-95284707D01*
X140064577Y-95395613D01*
X140096524Y-95235876D01*
X140104852Y-95116891D01*
X140081323Y-95047171D01*
X140079198Y-95045687D01*
X140057922Y-94985272D01*
X140092447Y-94901236D01*
X140159626Y-94833905D01*
X140209787Y-94818200D01*
X140258719Y-94786879D01*
X140281189Y-94681744D01*
X140284200Y-94584212D01*
X140271826Y-94420234D01*
X140224313Y-94314863D01*
X140157694Y-94250714D01*
X140069383Y-94153989D01*
X140038908Y-94026986D01*
X135203818Y-94026986D01*
X134992659Y-94167184D01*
X134226614Y-94675311D01*
X133537105Y-95132059D01*
X132920178Y-95539980D01*
X132450465Y-95849792D01*
X136518619Y-95849792D01*
X136518679Y-95681690D01*
X136520485Y-95643700D01*
X136552184Y-95584774D01*
X136609278Y-95602010D01*
X136646564Y-95660555D01*
X136665750Y-95759611D01*
X136676538Y-95910494D01*
X136677400Y-95965355D01*
X136681945Y-96104249D01*
X136692910Y-96131199D01*
X137560239Y-96131199D01*
X137620942Y-95920572D01*
X137737539Y-95736723D01*
X137905086Y-95596617D01*
X138118639Y-95517218D01*
X138373253Y-95515492D01*
X138379200Y-95516443D01*
X138499858Y-95541077D01*
X138569700Y-95563772D01*
X138613911Y-95610930D01*
X138568785Y-95640538D01*
X138445699Y-95648427D01*
X138354626Y-95642560D01*
X138107790Y-95651963D01*
X137923611Y-95737869D01*
X137896073Y-95773027D01*
X138982842Y-95773027D01*
X138984625Y-95613820D01*
X138991810Y-95524451D01*
X138995777Y-95513957D01*
X139074364Y-95488035D01*
X139215643Y-95479002D01*
X139382363Y-95485484D01*
X139537269Y-95506108D01*
X139636507Y-95536672D01*
X140105276Y-95536672D01*
X140142347Y-95492074D01*
X140306577Y-95415729D01*
X140476912Y-95433233D01*
X140628634Y-95541624D01*
X140636950Y-95551367D01*
X140679555Y-95672537D01*
X140635796Y-95807753D01*
X140514340Y-95935121D01*
X140474332Y-95962250D01*
X140348523Y-96062012D01*
X140321039Y-96118390D01*
X145988869Y-96118390D01*
X146024600Y-96088200D01*
X146105657Y-96042511D01*
X146116457Y-96059719D01*
X146100800Y-96088200D01*
X146026610Y-96136500D01*
X146008901Y-96138223D01*
X145988869Y-96118390D01*
X140321039Y-96118390D01*
X140309308Y-96142452D01*
X140356388Y-96191614D01*
X140480264Y-96198506D01*
X140597637Y-96198269D01*
X140631860Y-96232752D01*
X140628431Y-96249306D01*
X140563669Y-96296499D01*
X140425992Y-96316598D01*
X140408190Y-96316800D01*
X140273336Y-96306262D01*
X140201151Y-96259750D01*
X140158914Y-96170270D01*
X140133319Y-96058233D01*
X140171444Y-95986158D01*
X140231133Y-95941670D01*
X140393937Y-95829493D01*
X140482419Y-95752228D01*
X140509346Y-95692465D01*
X140487487Y-95632793D01*
X140473005Y-95611869D01*
X140405669Y-95547970D01*
X140324486Y-95559973D01*
X140287424Y-95578475D01*
X140185623Y-95607709D01*
X140116264Y-95588627D01*
X140105276Y-95536672D01*
X139636507Y-95536672D01*
X139639839Y-95537698D01*
X139751162Y-95615590D01*
X139807056Y-95673093D01*
X139819351Y-95718039D01*
X140292388Y-95718039D01*
X140304749Y-95689650D01*
X140355899Y-95635113D01*
X140385305Y-95646301D01*
X140385800Y-95653402D01*
X140349717Y-95696370D01*
X140327150Y-95712051D01*
X140292388Y-95718039D01*
X139819351Y-95718039D01*
X139838858Y-95789342D01*
X139831846Y-95840421D01*
X140081000Y-95840421D01*
X140106347Y-95751033D01*
X140162994Y-95736896D01*
X140204442Y-95777645D01*
X140194325Y-95842313D01*
X140156640Y-95885465D01*
X140098670Y-95917599D01*
X140081396Y-95864322D01*
X140081000Y-95840421D01*
X139831846Y-95840421D01*
X139817942Y-95941687D01*
X139755327Y-96087102D01*
X139679323Y-96171889D01*
X139609233Y-96232596D01*
X139610553Y-96294398D01*
X139645706Y-96353764D01*
X140069630Y-96353764D01*
X140290775Y-96394203D01*
X140433548Y-96413877D01*
X140532107Y-96415711D01*
X140550460Y-96410823D01*
X140564902Y-96449136D01*
X140576879Y-96570881D01*
X140585263Y-96757898D01*
X140588927Y-96992027D01*
X140589000Y-97031691D01*
X140589000Y-97676378D01*
X140381604Y-97648561D01*
X140245305Y-97624959D01*
X140157846Y-97599947D01*
X140146644Y-97593179D01*
X140133968Y-97534496D01*
X140119867Y-97395151D01*
X140106066Y-97196035D01*
X140094355Y-96959689D01*
X140069630Y-96353764D01*
X139645706Y-96353764D01*
X139654180Y-96368073D01*
X139714049Y-96539317D01*
X139683233Y-96705001D01*
X139570297Y-96837842D01*
X139493360Y-96880311D01*
X139315334Y-96935464D01*
X139163224Y-96948391D01*
X139063514Y-96918624D01*
X139041807Y-96888300D01*
X139027593Y-96800025D01*
X139014092Y-96641600D01*
X139002085Y-96436357D01*
X138992354Y-96207626D01*
X138985679Y-95978739D01*
X138982842Y-95773027D01*
X137896073Y-95773027D01*
X137792170Y-95905679D01*
X137765356Y-95963520D01*
X137702609Y-96171271D01*
X137712080Y-96355385D01*
X137776450Y-96527261D01*
X137909315Y-96700131D01*
X138098302Y-96812412D01*
X138313376Y-96853897D01*
X138524505Y-96814379D01*
X138564876Y-96795185D01*
X138639953Y-96765736D01*
X138654300Y-96804850D01*
X138649757Y-96833201D01*
X138585563Y-96913357D01*
X138426124Y-96969614D01*
X138420485Y-96970819D01*
X138265609Y-96990212D01*
X138127752Y-96966605D01*
X137975278Y-96902200D01*
X137762952Y-96754105D01*
X137626300Y-96564931D01*
X137560377Y-96351640D01*
X137560239Y-96131199D01*
X136692910Y-96131199D01*
X136708458Y-96169412D01*
X136776253Y-96188679D01*
X136833139Y-96189800D01*
X137053537Y-96228273D01*
X137220838Y-96334370D01*
X137318262Y-96494112D01*
X137336184Y-96608900D01*
X137303069Y-96769565D01*
X137194365Y-96887887D01*
X137002403Y-96969153D01*
X136746111Y-97015683D01*
X136586223Y-97034274D01*
X136556088Y-96624737D01*
X136538337Y-96349252D01*
X136525509Y-96081624D01*
X136518619Y-95849792D01*
X132450465Y-95849792D01*
X132371876Y-95901627D01*
X131888240Y-96219554D01*
X131465316Y-96496313D01*
X131099147Y-96734457D01*
X130785774Y-96936539D01*
X130521243Y-97105112D01*
X130301596Y-97242730D01*
X130122877Y-97351943D01*
X129981129Y-97435307D01*
X129872395Y-97495374D01*
X129792719Y-97534695D01*
X129738144Y-97555826D01*
X129707519Y-97561400D01*
X129613009Y-97598762D01*
X129582646Y-97640529D01*
X129580612Y-97707790D01*
X129586950Y-97837802D01*
X138404600Y-97837802D01*
X138427198Y-97742225D01*
X138512980Y-97713984D01*
X138525834Y-97713800D01*
X138618300Y-97736816D01*
X138662047Y-97824494D01*
X138669255Y-97864969D01*
X138670742Y-97887972D01*
X138861800Y-97887972D01*
X138866408Y-97748839D01*
X138892782Y-97683482D01*
X138959741Y-97664117D01*
X139014200Y-97663000D01*
X139121205Y-97677715D01*
X139166588Y-97713168D01*
X139166600Y-97713800D01*
X139146945Y-97739200D01*
X139369800Y-97739200D01*
X139395200Y-97713800D01*
X139420600Y-97739200D01*
X139395200Y-97764600D01*
X139369800Y-97739200D01*
X139146945Y-97739200D01*
X139128427Y-97763129D01*
X139116463Y-97764600D01*
X139093246Y-97812783D01*
X139082775Y-97939402D01*
X140131800Y-97939402D01*
X140150857Y-97847957D01*
X140228176Y-97816934D01*
X140271980Y-97815400D01*
X140409718Y-97853128D01*
X140474030Y-97914470D01*
X140505312Y-97995408D01*
X140476579Y-98078014D01*
X140417611Y-98155770D01*
X140329888Y-98272230D01*
X140273342Y-98367023D01*
X140270372Y-98374200D01*
X140250272Y-98383941D01*
X140238215Y-98309470D01*
X140237410Y-98288299D01*
X140220115Y-98166229D01*
X140183896Y-98095654D01*
X140182600Y-98094800D01*
X140143276Y-98024776D01*
X140131800Y-97939402D01*
X139082775Y-97939402D01*
X139082058Y-97948068D01*
X139083886Y-98156557D01*
X139085603Y-98199218D01*
X139093329Y-98409090D01*
X139091282Y-98536606D01*
X139075876Y-98600822D01*
X139043524Y-98620794D01*
X139006728Y-98618318D01*
X138929378Y-98583872D01*
X138915667Y-98552000D01*
X138956375Y-98512350D01*
X138968480Y-98513900D01*
X139006088Y-98487183D01*
X139013331Y-98401827D01*
X138993696Y-98294988D01*
X138950670Y-98203821D01*
X138938000Y-98189143D01*
X138886546Y-98084287D01*
X138862431Y-97920510D01*
X138861800Y-97887972D01*
X138670742Y-97887972D01*
X138675660Y-97963992D01*
X138648679Y-97978181D01*
X138629161Y-97964449D01*
X138567077Y-97943333D01*
X138546242Y-97974674D01*
X138504730Y-98015329D01*
X138452328Y-97983148D01*
X138412581Y-97900882D01*
X138404600Y-97837802D01*
X129586950Y-97837802D01*
X129588239Y-97864231D01*
X129604572Y-98097986D01*
X129608646Y-98148599D01*
X138607800Y-98148599D01*
X138624541Y-98075201D01*
X138668528Y-98097204D01*
X138681830Y-98116690D01*
X138675460Y-98181934D01*
X138659428Y-98195888D01*
X138615250Y-98184851D01*
X138607800Y-98148599D01*
X129608646Y-98148599D01*
X129628659Y-98397191D01*
X129647824Y-98616108D01*
X132818898Y-98616108D01*
X132823926Y-98504844D01*
X132839926Y-98446924D01*
X132868044Y-98426353D01*
X132882841Y-98425000D01*
X132931961Y-98448532D01*
X132961518Y-98532229D01*
X132976577Y-98681683D01*
X133788380Y-98681683D01*
X133825308Y-98573647D01*
X133885295Y-98499183D01*
X134034418Y-98401709D01*
X134211418Y-98371495D01*
X134378822Y-98410045D01*
X134467600Y-98475800D01*
X134522437Y-98548417D01*
X134512179Y-98563458D01*
X134868426Y-98563458D01*
X134871360Y-98441776D01*
X134891718Y-98384977D01*
X134919594Y-98374200D01*
X134971214Y-98422932D01*
X135011332Y-98570259D01*
X135012401Y-98577538D01*
X135634375Y-98577538D01*
X135638291Y-98435466D01*
X135653052Y-98359942D01*
X135681184Y-98333523D01*
X135706755Y-98334211D01*
X135765235Y-98383085D01*
X135796325Y-98511563D01*
X135801796Y-98577839D01*
X135803321Y-98595428D01*
X136176943Y-98595428D01*
X136212615Y-98491506D01*
X136287920Y-98403462D01*
X136442090Y-98305107D01*
X136622876Y-98268947D01*
X136793998Y-98297022D01*
X136901232Y-98368932D01*
X136949149Y-98451087D01*
X136919479Y-98489813D01*
X136828961Y-98479440D01*
X136720697Y-98430104D01*
X136617267Y-98381022D01*
X136545466Y-98393013D01*
X136478091Y-98446879D01*
X136399382Y-98547265D01*
X136372600Y-98629127D01*
X136372753Y-98629695D01*
X137253522Y-98629695D01*
X137308646Y-98435321D01*
X137434997Y-98285527D01*
X137540283Y-98243095D01*
X137680154Y-98232228D01*
X137817114Y-98249781D01*
X137913670Y-98292605D01*
X137936351Y-98327609D01*
X137924500Y-98382466D01*
X137844304Y-98391281D01*
X137802923Y-98386199D01*
X137615209Y-98392733D01*
X137491566Y-98472058D01*
X137440326Y-98618226D01*
X137439400Y-98645678D01*
X137477045Y-98838066D01*
X137580231Y-98960148D01*
X137734333Y-99002108D01*
X137909300Y-98961157D01*
X137982527Y-98952309D01*
X137998200Y-98998330D01*
X137964873Y-99062999D01*
X138150600Y-99062999D01*
X138180848Y-98993555D01*
X138208694Y-98983800D01*
X138239050Y-98947009D01*
X138246989Y-98830047D01*
X138234490Y-98636272D01*
X138219909Y-98429802D01*
X138226402Y-98304620D01*
X138258658Y-98241742D01*
X138321365Y-98222185D01*
X138336866Y-98221800D01*
X138375166Y-98252174D01*
X138396786Y-98352829D01*
X138404477Y-98538068D01*
X138404600Y-98573977D01*
X138407747Y-98761692D01*
X138421005Y-98865612D01*
X138768886Y-98865612D01*
X138781261Y-98838421D01*
X138838819Y-98799361D01*
X138859554Y-98804613D01*
X138921315Y-98792709D01*
X138963864Y-98754641D01*
X139029478Y-98687425D01*
X139052690Y-98708918D01*
X139051032Y-98780600D01*
X139029366Y-98854260D01*
X139168144Y-98854260D01*
X139173680Y-98757937D01*
X139194369Y-98752494D01*
X139224208Y-98798196D01*
X139225218Y-98801846D01*
X139319000Y-98801846D01*
X139320959Y-98532387D01*
X139328001Y-98349532D01*
X139341869Y-98238342D01*
X139364310Y-98183875D01*
X139392664Y-98171000D01*
X139439171Y-98202379D01*
X139467825Y-98306710D01*
X139481564Y-98463100D01*
X139491721Y-98657834D01*
X140237410Y-98657834D01*
X140246750Y-98591945D01*
X140264091Y-98591159D01*
X140272025Y-98635642D01*
X140360400Y-98635642D01*
X140364926Y-98433300D01*
X140382288Y-98306786D01*
X140418163Y-98230582D01*
X140459009Y-98192271D01*
X140626360Y-98127118D01*
X140812552Y-98139521D01*
X140974723Y-98226320D01*
X140979425Y-98230656D01*
X141015677Y-98273052D01*
X141414299Y-98273052D01*
X141422848Y-98181674D01*
X141426711Y-98171791D01*
X141484811Y-98118226D01*
X141528420Y-98157913D01*
X141552174Y-98282913D01*
X141552650Y-98296406D01*
X142163800Y-98296406D01*
X142167444Y-98007207D01*
X142177880Y-97790138D01*
X142194367Y-97655206D01*
X142214600Y-97612200D01*
X142253584Y-97656142D01*
X142272014Y-97751900D01*
X142277220Y-97908959D01*
X142279620Y-98056700D01*
X142288728Y-98179799D01*
X142326764Y-98212184D01*
X142412894Y-98164273D01*
X142440209Y-98143985D01*
X142597963Y-98078435D01*
X142758766Y-98097115D01*
X142899345Y-98186123D01*
X142996427Y-98331557D01*
X143027400Y-98494737D01*
X143012232Y-98685083D01*
X142956192Y-98808671D01*
X142927251Y-98831400D01*
X143332200Y-98831400D01*
X143333582Y-98533168D01*
X143338670Y-98322388D01*
X143348876Y-98184937D01*
X143365612Y-98106695D01*
X143390290Y-98073539D01*
X143408400Y-98069400D01*
X143438223Y-98083222D01*
X143459301Y-98134102D01*
X143473046Y-98236162D01*
X143480870Y-98403524D01*
X143481933Y-98482651D01*
X143789400Y-98482651D01*
X143827135Y-98279322D01*
X143928371Y-98117098D01*
X144075152Y-98020789D01*
X144133417Y-98007314D01*
X144263301Y-98013894D01*
X144400535Y-98053386D01*
X144508700Y-98111414D01*
X144551400Y-98172305D01*
X144514283Y-98215338D01*
X144437663Y-98214793D01*
X144373630Y-98171051D01*
X144373600Y-98171000D01*
X144292385Y-98122897D01*
X144174252Y-98131701D01*
X144060976Y-98190057D01*
X144020880Y-98233104D01*
X143961982Y-98330404D01*
X143941800Y-98385504D01*
X143987930Y-98406426D01*
X144107733Y-98420745D01*
X144243601Y-98425000D01*
X144410384Y-98433427D01*
X144533404Y-98455265D01*
X144578694Y-98478867D01*
X144592254Y-98585915D01*
X144536532Y-98708178D01*
X144434795Y-98818944D01*
X144310306Y-98891502D01*
X144208500Y-98903889D01*
X144099341Y-98891328D01*
X144068800Y-98888550D01*
X143939858Y-98831356D01*
X143840863Y-98701837D01*
X143791617Y-98528759D01*
X143789400Y-98482651D01*
X143481933Y-98482651D01*
X143484186Y-98650310D01*
X143484600Y-98831400D01*
X143483217Y-99129633D01*
X143478129Y-99340413D01*
X143467923Y-99477864D01*
X143451187Y-99556106D01*
X143426509Y-99589262D01*
X143408400Y-99593400D01*
X143378576Y-99579579D01*
X143357498Y-99528699D01*
X143343753Y-99426639D01*
X143335929Y-99259277D01*
X143332613Y-99012491D01*
X143332200Y-98831400D01*
X142927251Y-98831400D01*
X142843469Y-98897198D01*
X142820566Y-98909479D01*
X142641558Y-98975653D01*
X142500468Y-98960752D01*
X142409100Y-98899727D01*
X142340444Y-98855062D01*
X142316200Y-98868892D01*
X142275584Y-98931514D01*
X142240000Y-98951371D01*
X142209026Y-98950814D01*
X142187604Y-98911737D01*
X142174070Y-98819825D01*
X142166757Y-98660764D01*
X142164000Y-98420237D01*
X142163800Y-98296406D01*
X141552650Y-98296406D01*
X141554948Y-98361500D01*
X141581719Y-98615941D01*
X141659691Y-98784841D01*
X141788121Y-98866775D01*
X141822077Y-98872875D01*
X141923020Y-98899619D01*
X141960600Y-98936375D01*
X141919575Y-98973122D01*
X141827461Y-98982363D01*
X141730696Y-98965063D01*
X141679675Y-98930534D01*
X141622186Y-98908131D01*
X141573849Y-98937773D01*
X141501432Y-98976654D01*
X141475194Y-98972528D01*
X141455679Y-98907354D01*
X141437888Y-98772699D01*
X141423764Y-98600684D01*
X141415253Y-98423429D01*
X141414299Y-98273052D01*
X141015677Y-98273052D01*
X141044030Y-98306210D01*
X141079828Y-98400001D01*
X141094743Y-98542834D01*
X141097000Y-98687856D01*
X141092322Y-98878300D01*
X141075537Y-98986245D01*
X141042517Y-99030476D01*
X141020800Y-99034600D01*
X140972601Y-99007094D01*
X140949246Y-98912054D01*
X140944600Y-98783908D01*
X140929111Y-98531920D01*
X140880369Y-98369952D01*
X140794961Y-98290902D01*
X140703275Y-98281929D01*
X140631331Y-98294980D01*
X140588475Y-98328621D01*
X140565679Y-98405479D01*
X140553915Y-98548180D01*
X140548608Y-98669584D01*
X140537678Y-98862241D01*
X140520582Y-98972618D01*
X140491783Y-99020032D01*
X140447008Y-99024055D01*
X140401273Y-98998791D01*
X140374756Y-98931392D01*
X140362740Y-98800706D01*
X140360400Y-98635642D01*
X140272025Y-98635642D01*
X140276218Y-98659149D01*
X140268102Y-98688525D01*
X140245545Y-98707768D01*
X140237410Y-98657834D01*
X139491721Y-98657834D01*
X139496800Y-98755200D01*
X139720828Y-98785096D01*
X139937863Y-98850112D01*
X140074108Y-98970217D01*
X140123903Y-99135301D01*
X140112365Y-99189825D01*
X140377052Y-99189825D01*
X140411364Y-99125622D01*
X140543487Y-99072452D01*
X140705540Y-99040611D01*
X140740262Y-99081878D01*
X140809090Y-99199562D01*
X140903497Y-99377857D01*
X141014951Y-99600959D01*
X141073199Y-99721839D01*
X141203800Y-99990271D01*
X141334989Y-100249866D01*
X141453626Y-100475269D01*
X141546572Y-100641124D01*
X141566768Y-100674339D01*
X141660144Y-100843705D01*
X141727669Y-101004068D01*
X141750019Y-101092000D01*
X141772570Y-101203844D01*
X141802640Y-101257877D01*
X141814844Y-101310586D01*
X141814647Y-101434884D01*
X141813877Y-101447600D01*
X141859000Y-101447600D01*
X141884400Y-101422200D01*
X141909800Y-101447600D01*
X141884400Y-101473000D01*
X141859000Y-101447600D01*
X141813877Y-101447600D01*
X141806180Y-101574600D01*
X141909800Y-101574600D01*
X141928386Y-101532786D01*
X141943666Y-101540734D01*
X141949746Y-101601022D01*
X141943666Y-101608467D01*
X141913466Y-101601494D01*
X141909800Y-101574600D01*
X141806180Y-101574600D01*
X141804527Y-101601855D01*
X141786958Y-101782585D01*
X141764417Y-101948156D01*
X141739380Y-102069655D01*
X141730932Y-102095300D01*
X141686692Y-102168611D01*
X141663064Y-102181939D01*
X141628607Y-102138062D01*
X141563279Y-102022241D01*
X141478275Y-101855014D01*
X141429536Y-101753545D01*
X141338404Y-101571091D01*
X141259666Y-101433257D01*
X141204686Y-101359000D01*
X141188818Y-101352046D01*
X141169217Y-101336711D01*
X141179216Y-101297839D01*
X141180525Y-101230883D01*
X141157990Y-101219000D01*
X141127090Y-101178839D01*
X141132284Y-101120444D01*
X141123769Y-101017252D01*
X141069986Y-100844184D01*
X140977560Y-100618714D01*
X140853114Y-100358316D01*
X140816517Y-100287403D01*
X140772102Y-100174123D01*
X140768645Y-100098568D01*
X140769579Y-100096903D01*
X140761066Y-100053408D01*
X140744398Y-100050600D01*
X140699425Y-100023580D01*
X140699752Y-100012500D01*
X140686350Y-99945556D01*
X140641629Y-99827806D01*
X140627790Y-99796600D01*
X140501126Y-99512446D01*
X140416848Y-99308492D01*
X140377052Y-99189825D01*
X140112365Y-99189825D01*
X140081588Y-99335249D01*
X140057478Y-99386567D01*
X139980322Y-99500949D01*
X139878421Y-99564441D01*
X139722328Y-99590350D01*
X139599680Y-99593400D01*
X139436372Y-99577473D01*
X139356602Y-99526819D01*
X139349835Y-99513046D01*
X139337961Y-99433186D01*
X139328208Y-99274445D01*
X139321561Y-99059539D01*
X139319003Y-98811180D01*
X139319000Y-98801846D01*
X139225218Y-98801846D01*
X139251751Y-98897665D01*
X139222664Y-98948056D01*
X139182680Y-98961690D01*
X139168358Y-98887123D01*
X139168144Y-98854260D01*
X139029366Y-98854260D01*
X139026702Y-98863314D01*
X139000391Y-98882200D01*
X138980184Y-98913964D01*
X138988800Y-98933000D01*
X138983873Y-98979772D01*
X138964803Y-98983800D01*
X138900190Y-98943149D01*
X138880282Y-98907892D01*
X138828805Y-98858764D01*
X138797827Y-98864941D01*
X138768886Y-98865612D01*
X138421005Y-98865612D01*
X138421859Y-98872304D01*
X138453936Y-98930230D01*
X138510981Y-98959891D01*
X138515696Y-98961415D01*
X138592875Y-98993207D01*
X138577890Y-99030757D01*
X138534261Y-99064336D01*
X138453873Y-99168367D01*
X138429648Y-99248399D01*
X138414066Y-99373792D01*
X138392335Y-99427940D01*
X138348734Y-99440749D01*
X138328400Y-99441000D01*
X138272477Y-99403125D01*
X138252432Y-99281588D01*
X138252200Y-99260202D01*
X138240166Y-99144614D01*
X138208334Y-99107849D01*
X138201400Y-99110800D01*
X138157910Y-99099284D01*
X138150600Y-99062999D01*
X137964873Y-99062999D01*
X137955438Y-99081307D01*
X137846938Y-99128331D01*
X137702373Y-99138355D01*
X137551421Y-99110336D01*
X137423756Y-99043228D01*
X137398236Y-99019458D01*
X137282946Y-98833184D01*
X137253522Y-98629695D01*
X136372753Y-98629695D01*
X136384978Y-98674942D01*
X136436513Y-98697553D01*
X136548801Y-98700955D01*
X136710327Y-98691569D01*
X137048054Y-98667230D01*
X137014974Y-98838215D01*
X136940410Y-99023322D01*
X136816282Y-99137536D01*
X136663472Y-99183170D01*
X136502865Y-99162541D01*
X136355345Y-99077961D01*
X136241796Y-98931746D01*
X136185488Y-98746283D01*
X136176943Y-98595428D01*
X135803321Y-98595428D01*
X135820951Y-98798764D01*
X135851659Y-98938124D01*
X135901057Y-99015857D01*
X135970996Y-99050574D01*
X136044425Y-99101893D01*
X136047116Y-99169780D01*
X135981474Y-99211108D01*
X135961966Y-99212400D01*
X135907087Y-99256150D01*
X135876712Y-99363376D01*
X135874856Y-99498039D01*
X135905531Y-99624105D01*
X135914143Y-99641853D01*
X135986981Y-99723948D01*
X136044187Y-99745800D01*
X136109977Y-99786504D01*
X136118600Y-99822000D01*
X136079704Y-99881950D01*
X135987437Y-99896223D01*
X135878425Y-99866288D01*
X135801803Y-99809300D01*
X135741769Y-99704187D01*
X135696702Y-99535648D01*
X135664804Y-99292588D01*
X135644276Y-98963911D01*
X135638778Y-98803602D01*
X135634375Y-98577538D01*
X135012401Y-98577538D01*
X135025442Y-98666300D01*
X135061433Y-98879015D01*
X135112286Y-99007919D01*
X135189040Y-99070729D01*
X135286620Y-99085400D01*
X135384089Y-99113040D01*
X135407400Y-99161600D01*
X135369149Y-99222531D01*
X135281045Y-99233847D01*
X135183053Y-99193417D01*
X135161444Y-99174725D01*
X135098471Y-99140062D01*
X135051800Y-99187000D01*
X134995709Y-99235003D01*
X134948732Y-99182494D01*
X134910774Y-99029241D01*
X134881739Y-98775010D01*
X134881170Y-98767900D01*
X134868426Y-98563458D01*
X134512179Y-98563458D01*
X134505626Y-98573066D01*
X134409290Y-98551785D01*
X134307947Y-98517061D01*
X134182932Y-98483422D01*
X134097728Y-98503463D01*
X134037640Y-98550334D01*
X133959883Y-98650067D01*
X133934200Y-98729728D01*
X133949958Y-98777264D01*
X134011627Y-98802582D01*
X134140794Y-98811192D01*
X134251700Y-98810754D01*
X134426955Y-98811628D01*
X134524951Y-98825785D01*
X134569851Y-98860560D01*
X134584306Y-98911701D01*
X134559457Y-99058782D01*
X134457593Y-99179000D01*
X134303236Y-99249100D01*
X134219016Y-99258120D01*
X134021962Y-99215991D01*
X133882948Y-99091292D01*
X133804518Y-98886562D01*
X133796406Y-98836837D01*
X133788380Y-98681683D01*
X132976577Y-98681683D01*
X132977994Y-98695746D01*
X132979164Y-98717100D01*
X132994400Y-99009200D01*
X133218428Y-99039096D01*
X133430265Y-99106563D01*
X133570980Y-99233986D01*
X133630903Y-99406649D01*
X133600364Y-99609835D01*
X133597843Y-99616525D01*
X133521665Y-99709188D01*
X133389520Y-99783233D01*
X133231177Y-99831942D01*
X133076407Y-99848595D01*
X132954980Y-99826474D01*
X132900839Y-99773832D01*
X132887332Y-99696935D01*
X132871052Y-99540775D01*
X132853988Y-99327578D01*
X132838130Y-99079569D01*
X132837181Y-99062632D01*
X132823698Y-98796706D01*
X132818898Y-98616108D01*
X129647824Y-98616108D01*
X129659544Y-98749981D01*
X129696274Y-99144491D01*
X129736828Y-99558229D01*
X129832266Y-100517615D01*
X129922204Y-101438831D01*
X129993522Y-102184200D01*
X136061097Y-102184200D01*
X136079886Y-101829380D01*
X136141338Y-101495022D01*
X136253602Y-101150074D01*
X136424822Y-100763486D01*
X136444212Y-100723950D01*
X136514930Y-100576691D01*
X136562696Y-100469453D01*
X136575800Y-100431755D01*
X136596649Y-100371650D01*
X136652047Y-100246147D01*
X136731272Y-100077065D01*
X136823600Y-99886220D01*
X136918308Y-99695431D01*
X137004674Y-99526516D01*
X137071973Y-99401292D01*
X137109484Y-99341579D01*
X137112668Y-99339400D01*
X137122238Y-99380298D01*
X137106662Y-99453700D01*
X137066541Y-99563365D01*
X137000677Y-99722822D01*
X136950839Y-99836206D01*
X136885430Y-99985790D01*
X136841480Y-100095198D01*
X136829800Y-100133518D01*
X136810474Y-100188660D01*
X136757806Y-100317600D01*
X136679757Y-100501307D01*
X136584286Y-100720755D01*
X136580699Y-100728912D01*
X136387820Y-101210000D01*
X136262259Y-101626725D01*
X137092906Y-101626725D01*
X137098029Y-101493882D01*
X137202330Y-101372885D01*
X137299700Y-101310632D01*
X137425430Y-101235769D01*
X137489701Y-101166741D01*
X137513491Y-101066198D01*
X137517597Y-100922738D01*
X137532335Y-100732998D01*
X137584978Y-100621887D01*
X137693431Y-100568423D01*
X137833100Y-100553028D01*
X137968116Y-100546143D01*
X138061498Y-100539571D01*
X138061700Y-100539550D01*
X138122880Y-100493526D01*
X138194908Y-100387389D01*
X138211395Y-100355400D01*
X138302732Y-100184828D01*
X138384156Y-100092316D01*
X138480136Y-100060320D01*
X138608981Y-100070297D01*
X138706755Y-100082401D01*
X138772063Y-100070924D01*
X138811362Y-100019906D01*
X138831109Y-99913387D01*
X138837762Y-99735408D01*
X138837905Y-99504513D01*
X138842871Y-99291281D01*
X138858523Y-99152853D01*
X138883337Y-99101674D01*
X138887200Y-99102092D01*
X138934177Y-99160150D01*
X138948036Y-99216380D01*
X138956907Y-99312417D01*
X138971172Y-99476959D01*
X138988000Y-99677244D01*
X138990856Y-99711818D01*
X139023640Y-100109636D01*
X139260220Y-100079937D01*
X139464525Y-100076446D01*
X139599705Y-100133819D01*
X139684286Y-100261539D01*
X139699454Y-100304795D01*
X139758181Y-100427901D01*
X139851013Y-100481825D01*
X140004956Y-100479831D01*
X140044196Y-100474090D01*
X140235478Y-100476930D01*
X140362538Y-100557741D01*
X140427100Y-100718148D01*
X140436600Y-100843871D01*
X140447285Y-100995640D01*
X140493536Y-101099227D01*
X140596638Y-101184032D01*
X140737785Y-101259805D01*
X140878945Y-101363082D01*
X140921434Y-101487879D01*
X140866700Y-101640156D01*
X140839864Y-101680604D01*
X140753691Y-101854418D01*
X140764004Y-102002574D01*
X140843193Y-102108176D01*
X140895539Y-102196900D01*
X141929104Y-102196900D01*
X141935035Y-101980769D01*
X141946876Y-101808458D01*
X141962729Y-101701208D01*
X141975564Y-101676200D01*
X141993717Y-101722873D01*
X142004919Y-101846630D01*
X142007265Y-102023081D01*
X142006319Y-102069745D01*
X141996650Y-102277651D01*
X141980826Y-102460448D01*
X141962072Y-102581982D01*
X141959859Y-102590445D01*
X141945714Y-102597053D01*
X141935188Y-102516917D01*
X141929440Y-102364862D01*
X141929104Y-102196900D01*
X140895539Y-102196900D01*
X140925704Y-102248028D01*
X140933385Y-102352552D01*
X140908288Y-102458171D01*
X140835106Y-102533762D01*
X140707696Y-102599507D01*
X140536505Y-102701619D01*
X140459605Y-102821457D01*
X140462884Y-102870000D01*
X141859000Y-102870000D01*
X141884400Y-102844600D01*
X141909800Y-102870000D01*
X141884400Y-102895400D01*
X141859000Y-102870000D01*
X140462884Y-102870000D01*
X140469748Y-102971600D01*
X141808200Y-102971600D01*
X141833600Y-102946200D01*
X141859000Y-102971600D01*
X141833600Y-102997000D01*
X141808200Y-102971600D01*
X140469748Y-102971600D01*
X140469789Y-102972206D01*
X140482943Y-103010680D01*
X140494253Y-103073200D01*
X141808200Y-103073200D01*
X141833600Y-103047800D01*
X141859000Y-103073200D01*
X141833600Y-103098600D01*
X141808200Y-103073200D01*
X140494253Y-103073200D01*
X140503597Y-103124847D01*
X140446879Y-103215722D01*
X140429780Y-103231772D01*
X140366492Y-103276400D01*
X141706600Y-103276400D01*
X141732000Y-103251000D01*
X141757400Y-103276400D01*
X141732000Y-103301800D01*
X141706600Y-103276400D01*
X140366492Y-103276400D01*
X140349270Y-103288544D01*
X140243789Y-103322780D01*
X140084033Y-103341560D01*
X139946815Y-103348473D01*
X139879576Y-103378000D01*
X141655800Y-103378000D01*
X141681200Y-103352600D01*
X141706600Y-103378000D01*
X141681200Y-103403400D01*
X141655800Y-103378000D01*
X139879576Y-103378000D01*
X139852891Y-103389718D01*
X139773668Y-103515180D01*
X139759422Y-103549063D01*
X139666549Y-103707741D01*
X139546180Y-103771973D01*
X139387036Y-103745501D01*
X139295850Y-103702904D01*
X139108629Y-103623520D01*
X138968444Y-103619191D01*
X138853581Y-103690168D01*
X138836400Y-103708200D01*
X138722293Y-103780711D01*
X138584954Y-103799361D01*
X138457088Y-103769434D01*
X138371402Y-103696218D01*
X138353800Y-103630213D01*
X138320239Y-103540554D01*
X138256462Y-103458463D01*
X138157709Y-103393189D01*
X138023575Y-103381231D01*
X137957560Y-103388160D01*
X137761857Y-103380716D01*
X137632342Y-103303356D01*
X137577810Y-103164426D01*
X137588322Y-103037818D01*
X137602891Y-102907689D01*
X137565000Y-102814859D01*
X137458008Y-102736754D01*
X137319407Y-102673002D01*
X137163972Y-102570716D01*
X137096218Y-102439933D01*
X137121191Y-102297090D01*
X137179186Y-102216214D01*
X137272935Y-102062067D01*
X137265181Y-101905976D01*
X137185400Y-101777800D01*
X137092906Y-101626725D01*
X136262259Y-101626725D01*
X136260061Y-101634018D01*
X136193522Y-102018454D01*
X136184303Y-102380797D01*
X136191064Y-102476320D01*
X136279847Y-103007538D01*
X136442957Y-103493928D01*
X136674770Y-103921495D01*
X136874730Y-104178100D01*
X136942972Y-104266845D01*
X136956417Y-104314957D01*
X136948398Y-104317800D01*
X136884306Y-104277399D01*
X136783845Y-104169808D01*
X136662092Y-104015451D01*
X136534122Y-103834750D01*
X136415015Y-103648129D01*
X136319846Y-103476009D01*
X136306514Y-103448342D01*
X136187663Y-103156172D01*
X136111591Y-102865089D01*
X136071648Y-102540847D01*
X136061097Y-102184200D01*
X129993522Y-102184200D01*
X130006193Y-102316618D01*
X130083782Y-103145718D01*
X130154522Y-103920871D01*
X130217962Y-104636819D01*
X130223260Y-104698800D01*
X137490200Y-104698800D01*
X137515600Y-104673400D01*
X137541000Y-104698800D01*
X137515600Y-104724200D01*
X137490200Y-104698800D01*
X130223260Y-104698800D01*
X130231945Y-104800400D01*
X137642600Y-104800400D01*
X137668000Y-104775000D01*
X137693400Y-104800400D01*
X137668000Y-104825800D01*
X137642600Y-104800400D01*
X130231945Y-104800400D01*
X130273653Y-105288301D01*
X130321144Y-105870060D01*
X130359985Y-106376836D01*
X130389727Y-106803370D01*
X130409920Y-107144403D01*
X130412273Y-107202204D01*
X132679905Y-107202204D01*
X132680449Y-106820624D01*
X132746303Y-106513172D01*
X132880017Y-106274075D01*
X133084142Y-106097562D01*
X133193607Y-106039734D01*
X133434600Y-105959180D01*
X133651599Y-105957814D01*
X133839096Y-106015165D01*
X134070265Y-106165661D01*
X134180175Y-106303234D01*
X134696200Y-106303234D01*
X134699806Y-106133486D01*
X134718174Y-106036784D01*
X134762627Y-105984631D01*
X134835900Y-105951644D01*
X135121696Y-105899755D01*
X135413874Y-105945947D01*
X135500625Y-105981040D01*
X136220200Y-105981040D01*
X136236186Y-105930585D01*
X136298991Y-105903584D01*
X136430882Y-105893432D01*
X136518353Y-105892600D01*
X136816506Y-105892600D01*
X136847994Y-106083100D01*
X136867039Y-106251595D01*
X136878551Y-106455742D01*
X136880040Y-106540300D01*
X136880600Y-106807000D01*
X137251413Y-106807000D01*
X137219241Y-106353756D01*
X137204852Y-106122585D01*
X137209621Y-105974899D01*
X137246066Y-105892798D01*
X137326703Y-105858383D01*
X137464050Y-105853756D01*
X137566400Y-105857349D01*
X137820400Y-105867200D01*
X137834800Y-106096827D01*
X139080958Y-106096827D01*
X139090758Y-105950724D01*
X139120152Y-105862214D01*
X139175002Y-105816633D01*
X139261167Y-105799320D01*
X139384510Y-105795611D01*
X139426653Y-105795011D01*
X139570230Y-105796628D01*
X139643230Y-105822425D01*
X139676646Y-105894118D01*
X139692794Y-105981500D01*
X139715142Y-106171363D01*
X139724837Y-106361531D01*
X139724840Y-106362500D01*
X139725400Y-106553000D01*
X139966700Y-106554801D01*
X140201394Y-106579801D01*
X140247443Y-106601152D01*
X140891557Y-106601152D01*
X140893427Y-106349961D01*
X140922990Y-106129624D01*
X140966178Y-106001591D01*
X141103536Y-105811299D01*
X141264499Y-105711788D01*
X141436588Y-105705831D01*
X141607329Y-105796202D01*
X141660818Y-105847173D01*
X141808200Y-106004945D01*
X141808200Y-105878498D01*
X141838024Y-105777684D01*
X141936036Y-105717599D01*
X142115047Y-105692029D01*
X142196695Y-105690094D01*
X142356591Y-105689400D01*
X142356949Y-105696125D01*
X142712677Y-105696125D01*
X142908138Y-105675047D01*
X143095783Y-105656451D01*
X143213224Y-105661719D01*
X143277870Y-105708495D01*
X143307129Y-105814423D01*
X143318408Y-105997149D01*
X143321734Y-106094270D01*
X143341111Y-106361209D01*
X143382303Y-106541549D01*
X143452699Y-106649259D01*
X143559686Y-106698313D01*
X143644873Y-106705400D01*
X143727515Y-106710746D01*
X143770533Y-106743442D01*
X143786852Y-106828478D01*
X143789400Y-106984800D01*
X143789158Y-106994433D01*
X143992565Y-106994433D01*
X143992600Y-106880686D01*
X143992600Y-105644442D01*
X144208500Y-105624530D01*
X144387168Y-105609745D01*
X144496935Y-105618229D01*
X144556441Y-105668552D01*
X144584322Y-105779286D01*
X144599218Y-105969000D01*
X144602200Y-106016800D01*
X144627600Y-106419419D01*
X144784580Y-106016310D01*
X144941561Y-105613200D01*
X145254480Y-105598076D01*
X145417501Y-105594465D01*
X145530692Y-105600114D01*
X145567400Y-105611904D01*
X145546019Y-105667246D01*
X145488793Y-105790974D01*
X145406095Y-105960995D01*
X145361831Y-106049711D01*
X145156263Y-106458566D01*
X145341062Y-106789019D01*
X145426318Y-106951464D01*
X145482323Y-107078017D01*
X145498722Y-107144808D01*
X145496948Y-107148386D01*
X145433568Y-107169518D01*
X145303854Y-107191429D01*
X145213257Y-107201781D01*
X144958480Y-107226262D01*
X144627600Y-106527600D01*
X144613638Y-107322122D01*
X144599676Y-108116643D01*
X144381158Y-108149412D01*
X144263561Y-108167367D01*
X144172409Y-108174350D01*
X144104342Y-108159389D01*
X144056000Y-108111512D01*
X144024022Y-108019750D01*
X144005050Y-107873132D01*
X143995723Y-107660687D01*
X143992681Y-107371444D01*
X143992565Y-106994433D01*
X143789158Y-106994433D01*
X143785350Y-107145654D01*
X143766885Y-107229448D01*
X143724531Y-107260606D01*
X143681010Y-107264200D01*
X143576335Y-107227454D01*
X143464277Y-107137667D01*
X143452472Y-107124500D01*
X143332324Y-106984800D01*
X143332262Y-107119598D01*
X143324085Y-107199591D01*
X143282482Y-107242405D01*
X143181697Y-107263189D01*
X143073178Y-107271998D01*
X142902282Y-107274204D01*
X142808387Y-107248490D01*
X142777651Y-107213400D01*
X142763499Y-107136975D01*
X142749780Y-106979647D01*
X142737814Y-106762107D01*
X142728917Y-106505048D01*
X142726911Y-106416663D01*
X142712677Y-105696125D01*
X142356949Y-105696125D01*
X142392518Y-106362500D01*
X142409601Y-106689234D01*
X142418124Y-106928450D01*
X142414070Y-107094127D01*
X142393422Y-107200247D01*
X142352163Y-107260788D01*
X142286276Y-107289732D01*
X142191744Y-107301059D01*
X142121674Y-107305095D01*
X141961526Y-107309393D01*
X141874852Y-107293213D01*
X141834268Y-107248320D01*
X141823440Y-107215396D01*
X141800543Y-107149420D01*
X141765654Y-107150179D01*
X141692605Y-107221725D01*
X141677491Y-107238001D01*
X141520271Y-107344377D01*
X141345459Y-107363609D01*
X141175745Y-107301826D01*
X141033817Y-107165158D01*
X140970311Y-107046965D01*
X140917234Y-106845914D01*
X140891557Y-106601152D01*
X140247443Y-106601152D01*
X140379518Y-106662388D01*
X140537877Y-106820099D01*
X140546633Y-106831159D01*
X140614501Y-106937750D01*
X140650875Y-107060741D01*
X140664320Y-107235677D01*
X140665200Y-107323123D01*
X140660593Y-107513981D01*
X140639791Y-107638434D01*
X140592322Y-107731516D01*
X140517120Y-107818491D01*
X140374327Y-107939493D01*
X140205157Y-108020753D01*
X139986927Y-108069164D01*
X139696955Y-108091616D01*
X139610365Y-108093985D01*
X139192622Y-108102400D01*
X139159686Y-107746800D01*
X139145625Y-107564212D01*
X139129904Y-107310066D01*
X139114199Y-107014350D01*
X139100189Y-106707051D01*
X139096698Y-106620459D01*
X139084892Y-106315184D01*
X139080958Y-106096827D01*
X137834800Y-106096827D01*
X137852259Y-106375200D01*
X137868327Y-106640597D01*
X137886942Y-106962254D01*
X137905522Y-107294963D01*
X137918217Y-107530900D01*
X137952316Y-108178600D01*
X137646025Y-108178600D01*
X137488342Y-108175573D01*
X137386513Y-108154146D01*
X137327008Y-108095801D01*
X137296292Y-107982022D01*
X137280832Y-107794290D01*
X137274768Y-107670600D01*
X137264395Y-107510613D01*
X137241817Y-107425686D01*
X137190667Y-107389366D01*
X137094583Y-107375197D01*
X137091868Y-107374936D01*
X136922137Y-107358672D01*
X136937639Y-107730536D01*
X136940157Y-107921412D01*
X136932268Y-108075784D01*
X136915670Y-108162571D01*
X136913872Y-108165900D01*
X136840321Y-108205236D01*
X136697350Y-108227098D01*
X136624569Y-108229400D01*
X136471958Y-108223461D01*
X136392305Y-108197747D01*
X136357280Y-108140412D01*
X136351204Y-108115100D01*
X136342590Y-108037601D01*
X136329796Y-107878089D01*
X136314015Y-107656009D01*
X136296442Y-107390808D01*
X136278270Y-107101930D01*
X136260692Y-106808821D01*
X136244903Y-106530926D01*
X136232095Y-106287690D01*
X136223464Y-106098559D01*
X136220202Y-105982977D01*
X136220200Y-105981040D01*
X135500625Y-105981040D01*
X135540707Y-105997254D01*
X135728897Y-106124729D01*
X135857688Y-106310204D01*
X135861546Y-106318093D01*
X135950160Y-106591748D01*
X135939946Y-106845061D01*
X135830247Y-107080591D01*
X135620412Y-107300898D01*
X135607765Y-107311170D01*
X135460226Y-107459551D01*
X135411665Y-107588861D01*
X135461596Y-107700745D01*
X135486040Y-107723426D01*
X135557192Y-107759252D01*
X135650152Y-107743826D01*
X135741763Y-107704246D01*
X135861019Y-107650028D01*
X135935219Y-107621222D01*
X135942523Y-107619800D01*
X135955618Y-107665705D01*
X135964216Y-107783873D01*
X135966200Y-107893037D01*
X135961489Y-108054168D01*
X135938245Y-108145194D01*
X135882798Y-108197492D01*
X135820968Y-108226431D01*
X135560625Y-108284298D01*
X135307723Y-108251318D01*
X135082295Y-108137462D01*
X134904371Y-107952701D01*
X134796481Y-107716503D01*
X134766875Y-107523504D01*
X134797669Y-107350171D01*
X134897788Y-107171842D01*
X135064335Y-106976297D01*
X135211625Y-106805783D01*
X135285516Y-106679815D01*
X135297099Y-106594663D01*
X135240362Y-106499720D01*
X135124117Y-106457784D01*
X134978404Y-106473861D01*
X134872503Y-106523909D01*
X134775663Y-106581794D01*
X134723387Y-106603800D01*
X134708958Y-106557669D01*
X134699100Y-106437911D01*
X134696200Y-106303234D01*
X134180175Y-106303234D01*
X134256717Y-106399040D01*
X134392030Y-106704078D01*
X134469780Y-107069550D01*
X134476016Y-107128197D01*
X134472668Y-107477147D01*
X134400409Y-107778462D01*
X134269634Y-108024500D01*
X134090736Y-108207620D01*
X133874110Y-108320181D01*
X133630148Y-108354540D01*
X133369246Y-108303056D01*
X133101796Y-108158088D01*
X133088500Y-108148294D01*
X132904063Y-107949456D01*
X132770386Y-107671146D01*
X132692284Y-107324510D01*
X132679905Y-107202204D01*
X130412273Y-107202204D01*
X130420112Y-107394676D01*
X130420122Y-107543600D01*
X130403600Y-107899200D01*
X134306304Y-109857525D01*
X137388600Y-109857525D01*
X137397404Y-109672942D01*
X137435519Y-109554027D01*
X137520498Y-109487755D01*
X137669894Y-109461100D01*
X137901260Y-109461038D01*
X137922000Y-109461728D01*
X138277600Y-109474000D01*
X138303000Y-109846719D01*
X138309710Y-110049319D01*
X138305815Y-110109000D01*
X138499281Y-110109000D01*
X138604340Y-109961458D01*
X138685688Y-109832126D01*
X138699868Y-109744404D01*
X138647235Y-109663985D01*
X138607800Y-109626400D01*
X138532143Y-109543581D01*
X138506200Y-109491527D01*
X138543210Y-109451866D01*
X138623656Y-109453745D01*
X138701659Y-109490274D01*
X138727770Y-109524800D01*
X138793842Y-109593589D01*
X138893396Y-109577321D01*
X138988800Y-109499400D01*
X139083405Y-109413451D01*
X139150855Y-109406559D01*
X139181336Y-109429470D01*
X139173624Y-109485368D01*
X139115885Y-109586578D01*
X139088625Y-109624212D01*
X138964244Y-109787284D01*
X139065162Y-109882091D01*
X139372274Y-109882091D01*
X139373991Y-109706429D01*
X139392815Y-109555198D01*
X139428189Y-109464286D01*
X139433300Y-109459316D01*
X139540908Y-109412478D01*
X139706837Y-109383124D01*
X139895946Y-109372386D01*
X140073095Y-109381399D01*
X140203143Y-109411296D01*
X140238451Y-109433332D01*
X140269922Y-109514654D01*
X140287434Y-109659468D01*
X140289618Y-109754774D01*
X140454510Y-109754774D01*
X140456922Y-109583646D01*
X140475009Y-109455987D01*
X140492512Y-109417040D01*
X140565438Y-109381920D01*
X140699035Y-109357800D01*
X140866493Y-109344890D01*
X141041006Y-109343395D01*
X141195765Y-109353523D01*
X141303963Y-109375482D01*
X141338791Y-109409478D01*
X141338484Y-109410500D01*
X141274837Y-109450669D01*
X141121674Y-109478594D01*
X140978651Y-109489022D01*
X140639800Y-109504043D01*
X140639800Y-110053749D01*
X141008100Y-110068675D01*
X141193840Y-110082708D01*
X141319287Y-110105374D01*
X141364296Y-110132953D01*
X141364072Y-110134400D01*
X141311045Y-110161529D01*
X141186179Y-110182590D01*
X141019114Y-110196415D01*
X140839491Y-110201842D01*
X140676953Y-110197703D01*
X140561140Y-110182834D01*
X140525451Y-110167372D01*
X140490362Y-110082797D01*
X140466186Y-109933211D01*
X140454510Y-109754774D01*
X140289618Y-109754774D01*
X140291455Y-109834868D01*
X140282450Y-110007944D01*
X140260886Y-110145788D01*
X140227369Y-110215403D01*
X140142886Y-110238289D01*
X139990769Y-110254606D01*
X139816087Y-110260623D01*
X139625989Y-110256348D01*
X139511761Y-110238244D01*
X139447949Y-110200009D01*
X139422387Y-110163140D01*
X139388220Y-110046291D01*
X139372274Y-109882091D01*
X139065162Y-109882091D01*
X139090822Y-109906197D01*
X139176580Y-109997925D01*
X139216946Y-110063078D01*
X139217400Y-110067056D01*
X139182201Y-110106810D01*
X139103585Y-110096066D01*
X139022018Y-110041646D01*
X139014200Y-110032800D01*
X138916907Y-109967729D01*
X138861014Y-109956600D01*
X138769090Y-109994227D01*
X138741829Y-110032800D01*
X138673098Y-110094844D01*
X138605935Y-110109000D01*
X138499281Y-110109000D01*
X138305815Y-110109000D01*
X138300236Y-110194475D01*
X138277600Y-110258844D01*
X138203153Y-110284298D01*
X138060517Y-110310935D01*
X137908594Y-110329920D01*
X137674974Y-110337430D01*
X137521242Y-110295504D01*
X137432513Y-110190618D01*
X137393902Y-110009252D01*
X137388600Y-109857525D01*
X134306304Y-109857525D01*
X134706226Y-110058200D01*
X135325514Y-110369375D01*
X135920094Y-110668961D01*
X136483528Y-110953668D01*
X137009377Y-111220204D01*
X137491202Y-111465279D01*
X137922563Y-111685601D01*
X138297022Y-111877881D01*
X138608140Y-112038826D01*
X138849478Y-112165146D01*
X139014597Y-112253549D01*
X139097057Y-112300746D01*
X139104426Y-112306101D01*
X139210546Y-112378421D01*
X139320108Y-112382143D01*
X139461524Y-112315161D01*
G36*
X136103070Y-93297337D02*
X136202466Y-93235288D01*
X136245768Y-93192327D01*
X136264760Y-93147886D01*
X136224616Y-93165575D01*
X136118600Y-93247940D01*
X136042365Y-93313150D01*
X136044201Y-93324008D01*
X136103070Y-93297337D01*
X136103070Y-93297337D01*
G37*
X136103070Y-93297337D02*
X136202466Y-93235288D01*
X136245768Y-93192327D01*
X136264760Y-93147886D01*
X136224616Y-93165575D01*
X136118600Y-93247940D01*
X136042365Y-93313150D01*
X136044201Y-93324008D01*
X136103070Y-93297337D01*
G36*
X135755150Y-93527651D02*
X135809687Y-93476501D01*
X135798499Y-93447095D01*
X135791398Y-93446600D01*
X135748430Y-93482683D01*
X135732749Y-93505250D01*
X135726761Y-93540012D01*
X135755150Y-93527651D01*
X135755150Y-93527651D01*
G37*
X135755150Y-93527651D02*
X135809687Y-93476501D01*
X135798499Y-93447095D01*
X135791398Y-93446600D01*
X135748430Y-93482683D01*
X135732749Y-93505250D01*
X135726761Y-93540012D01*
X135755150Y-93527651D01*
G36*
X135644466Y-93582067D02*
X135637493Y-93551867D01*
X135610600Y-93548200D01*
X135568785Y-93566787D01*
X135576733Y-93582067D01*
X135637021Y-93588147D01*
X135644466Y-93582067D01*
X135644466Y-93582067D01*
G37*
X135644466Y-93582067D02*
X135637493Y-93551867D01*
X135610600Y-93548200D01*
X135568785Y-93566787D01*
X135576733Y-93582067D01*
X135637021Y-93588147D01*
X135644466Y-93582067D01*
G36*
X134950200Y-93980000D02*
X134924800Y-93954600D01*
X134899400Y-93980000D01*
X134924800Y-94005400D01*
X134950200Y-93980000D01*
X134950200Y-93980000D01*
G37*
X134950200Y-93980000D02*
X134924800Y-93954600D01*
X134899400Y-93980000D01*
X134924800Y-94005400D01*
X134950200Y-93980000D01*
G36*
X135051800Y-93980000D02*
X135026400Y-93954600D01*
X135001000Y-93980000D01*
X135026400Y-94005400D01*
X135051800Y-93980000D01*
X135051800Y-93980000D01*
G37*
X135051800Y-93980000D02*
X135026400Y-93954600D01*
X135001000Y-93980000D01*
X135026400Y-94005400D01*
X135051800Y-93980000D01*
G36*
X134848600Y-94132400D02*
X134897062Y-94086751D01*
X134899400Y-94078602D01*
X134860096Y-94056783D01*
X134848600Y-94056200D01*
X134799752Y-94095253D01*
X134797800Y-94109999D01*
X134828921Y-94140338D01*
X134848600Y-94132400D01*
X134848600Y-94132400D01*
G37*
X134848600Y-94132400D02*
X134897062Y-94086751D01*
X134899400Y-94078602D01*
X134860096Y-94056783D01*
X134848600Y-94056200D01*
X134799752Y-94095253D01*
X134797800Y-94109999D01*
X134828921Y-94140338D01*
X134848600Y-94132400D01*
G36*
X144703800Y-94996000D02*
X144678400Y-94970600D01*
X144653000Y-94996000D01*
X144678400Y-95021400D01*
X144703800Y-94996000D01*
X144703800Y-94996000D01*
G37*
X144703800Y-94996000D02*
X144678400Y-94970600D01*
X144653000Y-94996000D01*
X144678400Y-95021400D01*
X144703800Y-94996000D01*
G36*
X139500392Y-96102852D02*
X139622561Y-96009511D01*
X139674351Y-95881637D01*
X139674600Y-95871929D01*
X139628794Y-95749447D01*
X139508160Y-95663084D01*
X139340771Y-95631000D01*
X139166600Y-95631000D01*
X139166600Y-96139000D01*
X139336526Y-96139000D01*
X139500392Y-96102852D01*
X139500392Y-96102852D01*
G37*
X139500392Y-96102852D02*
X139622561Y-96009511D01*
X139674351Y-95881637D01*
X139674600Y-95871929D01*
X139628794Y-95749447D01*
X139508160Y-95663084D01*
X139340771Y-95631000D01*
X139166600Y-95631000D01*
X139166600Y-96139000D01*
X139336526Y-96139000D01*
X139500392Y-96102852D01*
G36*
X139393506Y-96763080D02*
X139501943Y-96680068D01*
X139540198Y-96622571D01*
X139548790Y-96489718D01*
X139492021Y-96368930D01*
X139391574Y-96297695D01*
X139348655Y-96291400D01*
X139241424Y-96308777D01*
X139193904Y-96339118D01*
X139180669Y-96417993D01*
X139190176Y-96541746D01*
X139215389Y-96671890D01*
X139249274Y-96769936D01*
X139278032Y-96799400D01*
X139393506Y-96763080D01*
X139393506Y-96763080D01*
G37*
X139393506Y-96763080D02*
X139501943Y-96680068D01*
X139540198Y-96622571D01*
X139548790Y-96489718D01*
X139492021Y-96368930D01*
X139391574Y-96297695D01*
X139348655Y-96291400D01*
X139241424Y-96308777D01*
X139193904Y-96339118D01*
X139180669Y-96417993D01*
X139190176Y-96541746D01*
X139215389Y-96671890D01*
X139249274Y-96769936D01*
X139278032Y-96799400D01*
X139393506Y-96763080D01*
G36*
X136953514Y-96871886D02*
X137094562Y-96792765D01*
X137165450Y-96661400D01*
X137152487Y-96507611D01*
X137136657Y-96473045D01*
X137027709Y-96351185D01*
X136882056Y-96324062D01*
X136796015Y-96345848D01*
X136730041Y-96385638D01*
X136705908Y-96459642D01*
X136713439Y-96600001D01*
X136713981Y-96604966D01*
X136741827Y-96776975D01*
X136787615Y-96865086D01*
X136867215Y-96886981D01*
X136953514Y-96871886D01*
X136953514Y-96871886D01*
G37*
X136953514Y-96871886D02*
X137094562Y-96792765D01*
X137165450Y-96661400D01*
X137152487Y-96507611D01*
X137136657Y-96473045D01*
X137027709Y-96351185D01*
X136882056Y-96324062D01*
X136796015Y-96345848D01*
X136730041Y-96385638D01*
X136705908Y-96459642D01*
X136713439Y-96600001D01*
X136713981Y-96604966D01*
X136741827Y-96776975D01*
X136787615Y-96865086D01*
X136867215Y-96886981D01*
X136953514Y-96871886D01*
G36*
X142642025Y-98844670D02*
X142764113Y-98788660D01*
X142831255Y-98716617D01*
X142861238Y-98593279D01*
X142855505Y-98438894D01*
X142820078Y-98297478D01*
X142762499Y-98213989D01*
X142615731Y-98173199D01*
X142467280Y-98210446D01*
X142404858Y-98259900D01*
X142321810Y-98409193D01*
X142309591Y-98567848D01*
X142358050Y-98710840D01*
X142457040Y-98813147D01*
X142596412Y-98849745D01*
X142642025Y-98844670D01*
X142642025Y-98844670D01*
G37*
X142642025Y-98844670D02*
X142764113Y-98788660D01*
X142831255Y-98716617D01*
X142861238Y-98593279D01*
X142855505Y-98438894D01*
X142820078Y-98297478D01*
X142762499Y-98213989D01*
X142615731Y-98173199D01*
X142467280Y-98210446D01*
X142404858Y-98259900D01*
X142321810Y-98409193D01*
X142309591Y-98567848D01*
X142358050Y-98710840D01*
X142457040Y-98813147D01*
X142596412Y-98849745D01*
X142642025Y-98844670D01*
G36*
X144284743Y-98787228D02*
X144293993Y-98782424D01*
X144376076Y-98719960D01*
X144399000Y-98677213D01*
X144399611Y-98592476D01*
X144399650Y-98590100D01*
X144352338Y-98556645D01*
X144208587Y-98554134D01*
X144081500Y-98566781D01*
X143968563Y-98599326D01*
X143954102Y-98656709D01*
X144038108Y-98739040D01*
X144065393Y-98757640D01*
X144181095Y-98809554D01*
X144284743Y-98787228D01*
X144284743Y-98787228D01*
G37*
X144284743Y-98787228D02*
X144293993Y-98782424D01*
X144376076Y-98719960D01*
X144399000Y-98677213D01*
X144399611Y-98592476D01*
X144399650Y-98590100D01*
X144352338Y-98556645D01*
X144208587Y-98554134D01*
X144081500Y-98566781D01*
X143968563Y-98599326D01*
X143954102Y-98656709D01*
X144038108Y-98739040D01*
X144065393Y-98757640D01*
X144181095Y-98809554D01*
X144284743Y-98787228D01*
G36*
X139768335Y-99408374D02*
X139886619Y-99329986D01*
X139966046Y-99235071D01*
X139979400Y-99187000D01*
X139936985Y-99095358D01*
X139835080Y-99004370D01*
X139711691Y-98943273D01*
X139649200Y-98933000D01*
X139573826Y-98941236D01*
X139536224Y-98983263D01*
X139523403Y-99085064D01*
X139522200Y-99187000D01*
X139526317Y-99337747D01*
X139547331Y-99412951D01*
X139598231Y-99438594D01*
X139649200Y-99441000D01*
X139768335Y-99408374D01*
X139768335Y-99408374D01*
G37*
X139768335Y-99408374D02*
X139886619Y-99329986D01*
X139966046Y-99235071D01*
X139979400Y-99187000D01*
X139936985Y-99095358D01*
X139835080Y-99004370D01*
X139711691Y-98943273D01*
X139649200Y-98933000D01*
X139573826Y-98941236D01*
X139536224Y-98983263D01*
X139523403Y-99085064D01*
X139522200Y-99187000D01*
X139526317Y-99337747D01*
X139547331Y-99412951D01*
X139598231Y-99438594D01*
X139649200Y-99441000D01*
X139768335Y-99408374D01*
G36*
X136701966Y-99049203D02*
X136780322Y-98969995D01*
X136827675Y-98891851D01*
X136829800Y-98878572D01*
X136784388Y-98850438D01*
X136669493Y-98833563D01*
X136601200Y-98831400D01*
X136464860Y-98840919D01*
X136383083Y-98865003D01*
X136372600Y-98879320D01*
X136410470Y-98938797D01*
X136496574Y-99013871D01*
X136589646Y-99072044D01*
X136634274Y-99085400D01*
X136701966Y-99049203D01*
X136701966Y-99049203D01*
G37*
X136701966Y-99049203D02*
X136780322Y-98969995D01*
X136827675Y-98891851D01*
X136829800Y-98878572D01*
X136784388Y-98850438D01*
X136669493Y-98833563D01*
X136601200Y-98831400D01*
X136464860Y-98840919D01*
X136383083Y-98865003D01*
X136372600Y-98879320D01*
X136410470Y-98938797D01*
X136496574Y-99013871D01*
X136589646Y-99072044D01*
X136634274Y-99085400D01*
X136701966Y-99049203D01*
G36*
X134332195Y-99105214D02*
X134420725Y-99032278D01*
X134442200Y-98973640D01*
X134396776Y-98949399D01*
X134281856Y-98934862D01*
X134213600Y-98933000D01*
X134077243Y-98941076D01*
X133995470Y-98961506D01*
X133985000Y-98973640D01*
X134028575Y-99057975D01*
X134131141Y-99120930D01*
X134213600Y-99136200D01*
X134332195Y-99105214D01*
X134332195Y-99105214D01*
G37*
X134332195Y-99105214D02*
X134420725Y-99032278D01*
X134442200Y-98973640D01*
X134396776Y-98949399D01*
X134281856Y-98934862D01*
X134213600Y-98933000D01*
X134077243Y-98941076D01*
X133995470Y-98961506D01*
X133985000Y-98973640D01*
X134028575Y-99057975D01*
X134131141Y-99120930D01*
X134213600Y-99136200D01*
X134332195Y-99105214D01*
G36*
X133298539Y-99674305D02*
X133407365Y-99601217D01*
X133466961Y-99474510D01*
X133461462Y-99336535D01*
X133441235Y-99293438D01*
X133359831Y-99235333D01*
X133226653Y-99198963D01*
X133205155Y-99196634D01*
X133019800Y-99180867D01*
X133019800Y-99414128D01*
X133037330Y-99587202D01*
X133098385Y-99675315D01*
X133215659Y-99690317D01*
X133298539Y-99674305D01*
X133298539Y-99674305D01*
G37*
X133298539Y-99674305D02*
X133407365Y-99601217D01*
X133466961Y-99474510D01*
X133461462Y-99336535D01*
X133441235Y-99293438D01*
X133359831Y-99235333D01*
X133226653Y-99198963D01*
X133205155Y-99196634D01*
X133019800Y-99180867D01*
X133019800Y-99414128D01*
X133037330Y-99587202D01*
X133098385Y-99675315D01*
X133215659Y-99690317D01*
X133298539Y-99674305D01*
G36*
X139147174Y-103035211D02*
X139439340Y-102943997D01*
X139687469Y-102801126D01*
X139862364Y-102632108D01*
X139961516Y-102474827D01*
X140075748Y-102156084D01*
X140091400Y-101839821D01*
X140009641Y-101537186D01*
X139834650Y-101262832D01*
X139654526Y-101096631D01*
X139437377Y-100961671D01*
X139212874Y-100871670D01*
X139010691Y-100840345D01*
X138938000Y-100848332D01*
X138692994Y-100909972D01*
X138516045Y-100974518D01*
X138374273Y-101056467D01*
X138261330Y-101146713D01*
X138049585Y-101393811D01*
X137931029Y-101681015D01*
X137906709Y-102005623D01*
X137910624Y-102051409D01*
X137945506Y-102267498D01*
X138010857Y-102437196D01*
X138125539Y-102596533D01*
X138277600Y-102752365D01*
X138543201Y-102941320D01*
X138837796Y-103036384D01*
X139147174Y-103035211D01*
X139147174Y-103035211D01*
G37*
X139147174Y-103035211D02*
X139439340Y-102943997D01*
X139687469Y-102801126D01*
X139862364Y-102632108D01*
X139961516Y-102474827D01*
X140075748Y-102156084D01*
X140091400Y-101839821D01*
X140009641Y-101537186D01*
X139834650Y-101262832D01*
X139654526Y-101096631D01*
X139437377Y-100961671D01*
X139212874Y-100871670D01*
X139010691Y-100840345D01*
X138938000Y-100848332D01*
X138692994Y-100909972D01*
X138516045Y-100974518D01*
X138374273Y-101056467D01*
X138261330Y-101146713D01*
X138049585Y-101393811D01*
X137931029Y-101681015D01*
X137906709Y-102005623D01*
X137910624Y-102051409D01*
X137945506Y-102267498D01*
X138010857Y-102437196D01*
X138125539Y-102596533D01*
X138277600Y-102752365D01*
X138543201Y-102941320D01*
X138837796Y-103036384D01*
X139147174Y-103035211D01*
G36*
X141744854Y-106844844D02*
X141794427Y-106712715D01*
X141808200Y-106564901D01*
X141788249Y-106355098D01*
X141733811Y-106213400D01*
X141653004Y-106149654D01*
X141553945Y-106173706D01*
X141513560Y-106207560D01*
X141469057Y-106308854D01*
X141454656Y-106466715D01*
X141470497Y-106640628D01*
X141511554Y-106779210D01*
X141589756Y-106887961D01*
X141672077Y-106906549D01*
X141744854Y-106844844D01*
X141744854Y-106844844D01*
G37*
X141744854Y-106844844D02*
X141794427Y-106712715D01*
X141808200Y-106564901D01*
X141788249Y-106355098D01*
X141733811Y-106213400D01*
X141653004Y-106149654D01*
X141553945Y-106173706D01*
X141513560Y-106207560D01*
X141469057Y-106308854D01*
X141454656Y-106466715D01*
X141470497Y-106640628D01*
X141511554Y-106779210D01*
X141589756Y-106887961D01*
X141672077Y-106906549D01*
X141744854Y-106844844D01*
G36*
X140007240Y-107566975D02*
X140077064Y-107452363D01*
X140076850Y-107311565D01*
X140018938Y-107177860D01*
X139915672Y-107084524D01*
X139819572Y-107061000D01*
X139760897Y-107071537D01*
X139734083Y-107119640D01*
X139731551Y-107230052D01*
X139737866Y-107327691D01*
X139772271Y-107516856D01*
X139838799Y-107612543D01*
X139935529Y-107613047D01*
X140007240Y-107566975D01*
X140007240Y-107566975D01*
G37*
X140007240Y-107566975D02*
X140077064Y-107452363D01*
X140076850Y-107311565D01*
X140018938Y-107177860D01*
X139915672Y-107084524D01*
X139819572Y-107061000D01*
X139760897Y-107071537D01*
X139734083Y-107119640D01*
X139731551Y-107230052D01*
X139737866Y-107327691D01*
X139772271Y-107516856D01*
X139838799Y-107612543D01*
X139935529Y-107613047D01*
X140007240Y-107566975D01*
G36*
X133713362Y-107747197D02*
X133766244Y-107656214D01*
X133799471Y-107494602D01*
X133812986Y-107291423D01*
X133806730Y-107075739D01*
X133780645Y-106876613D01*
X133734673Y-106723108D01*
X133715476Y-106687944D01*
X133606089Y-106580623D01*
X133490366Y-106561182D01*
X133390707Y-106631259D01*
X133371030Y-106662765D01*
X133342055Y-106780388D01*
X133332648Y-106963372D01*
X133340868Y-107177778D01*
X133364775Y-107389670D01*
X133402426Y-107565110D01*
X133426337Y-107629706D01*
X133514821Y-107760487D01*
X133615124Y-107792944D01*
X133713362Y-107747197D01*
X133713362Y-107747197D01*
G37*
X133713362Y-107747197D02*
X133766244Y-107656214D01*
X133799471Y-107494602D01*
X133812986Y-107291423D01*
X133806730Y-107075739D01*
X133780645Y-106876613D01*
X133734673Y-106723108D01*
X133715476Y-106687944D01*
X133606089Y-106580623D01*
X133490366Y-106561182D01*
X133390707Y-106631259D01*
X133371030Y-106662765D01*
X133342055Y-106780388D01*
X133332648Y-106963372D01*
X133340868Y-107177778D01*
X133364775Y-107389670D01*
X133402426Y-107565110D01*
X133426337Y-107629706D01*
X133514821Y-107760487D01*
X133615124Y-107792944D01*
X133713362Y-107747197D01*
G36*
X140122868Y-109750186D02*
X140109812Y-109613694D01*
X140051879Y-109523909D01*
X139979400Y-109506189D01*
X139916627Y-109519789D01*
X139801600Y-109545091D01*
X139649200Y-109578761D01*
X140106400Y-109914117D01*
X140122868Y-109750186D01*
X140122868Y-109750186D01*
G37*
X140122868Y-109750186D02*
X140109812Y-109613694D01*
X140051879Y-109523909D01*
X139979400Y-109506189D01*
X139916627Y-109519789D01*
X139801600Y-109545091D01*
X139649200Y-109578761D01*
X140106400Y-109914117D01*
X140122868Y-109750186D01*
G36*
X139903462Y-110099068D02*
X139974229Y-110074255D01*
X139979400Y-110064230D01*
X139942804Y-110011992D01*
X139854303Y-109928638D01*
X139745823Y-109840447D01*
X139649291Y-109773700D01*
X139601789Y-109753400D01*
X139582750Y-109798115D01*
X139573244Y-109908045D01*
X139573000Y-109931200D01*
X139579151Y-110045040D01*
X139617134Y-110095630D01*
X139716240Y-110108603D01*
X139776200Y-110109000D01*
X139903462Y-110099068D01*
X139903462Y-110099068D01*
G37*
X139903462Y-110099068D02*
X139974229Y-110074255D01*
X139979400Y-110064230D01*
X139942804Y-110011992D01*
X139854303Y-109928638D01*
X139745823Y-109840447D01*
X139649291Y-109773700D01*
X139601789Y-109753400D01*
X139582750Y-109798115D01*
X139573244Y-109908045D01*
X139573000Y-109931200D01*
X139579151Y-110045040D01*
X139617134Y-110095630D01*
X139716240Y-110108603D01*
X139776200Y-110109000D01*
X139903462Y-110099068D01*
G36*
X138141629Y-109911882D02*
X138150374Y-109801944D01*
X138150600Y-109778800D01*
X138145719Y-109669552D01*
X138112646Y-109617820D01*
X138023727Y-109602097D01*
X137922000Y-109601000D01*
X137785651Y-109609752D01*
X137703876Y-109631894D01*
X137693400Y-109645050D01*
X137731477Y-109692224D01*
X137824735Y-109769701D01*
X137941710Y-109854724D01*
X138050940Y-109924535D01*
X138120962Y-109956374D01*
X138124110Y-109956600D01*
X138141629Y-109911882D01*
X138141629Y-109911882D01*
G37*
X138141629Y-109911882D02*
X138150374Y-109801944D01*
X138150600Y-109778800D01*
X138145719Y-109669552D01*
X138112646Y-109617820D01*
X138023727Y-109602097D01*
X137922000Y-109601000D01*
X137785651Y-109609752D01*
X137703876Y-109631894D01*
X137693400Y-109645050D01*
X137731477Y-109692224D01*
X137824735Y-109769701D01*
X137941710Y-109854724D01*
X138050940Y-109924535D01*
X138120962Y-109956374D01*
X138124110Y-109956600D01*
X138141629Y-109911882D01*
G36*
X137833100Y-110157974D02*
X138074400Y-110156147D01*
X137922000Y-110028462D01*
X137763632Y-109901319D01*
X137665324Y-109841937D01*
X137613283Y-109848301D01*
X137593718Y-109918395D01*
X137591800Y-109980213D01*
X137591800Y-110159800D01*
X137833100Y-110157974D01*
X137833100Y-110157974D01*
G37*
X137833100Y-110157974D02*
X138074400Y-110156147D01*
X137922000Y-110028462D01*
X137763632Y-109901319D01*
X137665324Y-109841937D01*
X137613283Y-109848301D01*
X137593718Y-109918395D01*
X137591800Y-109980213D01*
X137591800Y-110159800D01*
X137833100Y-110157974D01*
M02*
